%TF.GenerationSoftware,KiCad,Pcbnew,9.0.6*%
%TF.CreationDate,2025-12-18T17:51:45-08:00*%
%TF.ProjectId,multi-module_controller_PCB,6d756c74-692d-46d6-9f64-756c655f636f,REV3*%
%TF.SameCoordinates,Original*%
%TF.FileFunction,Legend,Bot*%
%TF.FilePolarity,Positive*%
%FSLAX46Y46*%
G04 Gerber Fmt 4.6, Leading zero omitted, Abs format (unit mm)*
G04 Created by KiCad (PCBNEW 9.0.6) date 2025-12-18 17:51:45*
%MOMM*%
%LPD*%
G01*
G04 APERTURE LIST*
G04 Aperture macros list*
%AMRoundRect*
0 Rectangle with rounded corners*
0 $1 Rounding radius*
0 $2 $3 $4 $5 $6 $7 $8 $9 X,Y pos of 4 corners*
0 Add a 4 corners polygon primitive as box body*
4,1,4,$2,$3,$4,$5,$6,$7,$8,$9,$2,$3,0*
0 Add four circle primitives for the rounded corners*
1,1,$1+$1,$2,$3*
1,1,$1+$1,$4,$5*
1,1,$1+$1,$6,$7*
1,1,$1+$1,$8,$9*
0 Add four rect primitives between the rounded corners*
20,1,$1+$1,$2,$3,$4,$5,0*
20,1,$1+$1,$4,$5,$6,$7,0*
20,1,$1+$1,$6,$7,$8,$9,0*
20,1,$1+$1,$8,$9,$2,$3,0*%
G04 Aperture macros list end*
%ADD10C,0.150000*%
%ADD11C,0.120000*%
%ADD12C,0.312500*%
%ADD13C,0.160000*%
%ADD14C,2.760000*%
%ADD15RoundRect,0.030000X-0.850000X-0.850000X0.850000X-0.850000X0.850000X0.850000X-0.850000X0.850000X0*%
%ADD16C,1.760000*%
%ADD17RoundRect,0.030000X0.850000X-0.850000X0.850000X0.850000X-0.850000X0.850000X-0.850000X-0.850000X0*%
%ADD18C,2.560000*%
%ADD19RoundRect,0.259843X-0.532157X0.532157X-0.532157X-0.532157X0.532157X-0.532157X0.532157X0.532157X0*%
%ADD20C,1.584000*%
%ADD21C,3.560000*%
%ADD22C,0.710000*%
%ADD23O,2.160000X1.060000*%
%ADD24O,1.860000X1.060000*%
%ADD25RoundRect,0.030000X0.500000X0.500000X-0.500000X0.500000X-0.500000X-0.500000X0.500000X-0.500000X0*%
%ADD26C,1.060000*%
%ADD27C,0.660000*%
%ADD28RoundRect,0.030000X0.850000X0.850000X-0.850000X0.850000X-0.850000X-0.850000X0.850000X-0.850000X0*%
%ADD29O,1.060000X2.160000*%
%ADD30O,1.060000X1.860000*%
%ADD31RoundRect,0.165000X0.665000X0.165000X-0.665000X0.165000X-0.665000X-0.165000X0.665000X-0.165000X0*%
%ADD32RoundRect,0.150000X-0.200000X0.150000X-0.200000X-0.150000X0.200000X-0.150000X0.200000X0.150000X0*%
%ADD33RoundRect,0.150000X-0.150000X-0.200000X0.150000X-0.200000X0.150000X0.200000X-0.150000X0.200000X0*%
%ADD34RoundRect,0.155000X0.155000X0.185000X-0.155000X0.185000X-0.155000X-0.185000X0.155000X-0.185000X0*%
G04 APERTURE END LIST*
D10*
X-11093923Y-51569819D02*
X-11427256Y-52569819D01*
X-11427256Y-52569819D02*
X-11760589Y-51569819D01*
X-12617732Y-52569819D02*
X-12046304Y-52569819D01*
X-12332018Y-52569819D02*
X-12332018Y-51569819D01*
X-12332018Y-51569819D02*
X-12236780Y-51712676D01*
X-12236780Y-51712676D02*
X-12141542Y-51807914D01*
X-12141542Y-51807914D02*
X-12046304Y-51855533D01*
X-13046304Y-52474580D02*
X-13093923Y-52522200D01*
X-13093923Y-52522200D02*
X-13046304Y-52569819D01*
X-13046304Y-52569819D02*
X-12998685Y-52522200D01*
X-12998685Y-52522200D02*
X-13046304Y-52474580D01*
X-13046304Y-52474580D02*
X-13046304Y-52569819D01*
X-13712970Y-51569819D02*
X-13808208Y-51569819D01*
X-13808208Y-51569819D02*
X-13903446Y-51617438D01*
X-13903446Y-51617438D02*
X-13951065Y-51665057D01*
X-13951065Y-51665057D02*
X-13998684Y-51760295D01*
X-13998684Y-51760295D02*
X-14046303Y-51950771D01*
X-14046303Y-51950771D02*
X-14046303Y-52188866D01*
X-14046303Y-52188866D02*
X-13998684Y-52379342D01*
X-13998684Y-52379342D02*
X-13951065Y-52474580D01*
X-13951065Y-52474580D02*
X-13903446Y-52522200D01*
X-13903446Y-52522200D02*
X-13808208Y-52569819D01*
X-13808208Y-52569819D02*
X-13712970Y-52569819D01*
X-13712970Y-52569819D02*
X-13617732Y-52522200D01*
X-13617732Y-52522200D02*
X-13570113Y-52474580D01*
X-13570113Y-52474580D02*
X-13522494Y-52379342D01*
X-13522494Y-52379342D02*
X-13474875Y-52188866D01*
X-13474875Y-52188866D02*
X-13474875Y-51950771D01*
X-13474875Y-51950771D02*
X-13522494Y-51760295D01*
X-13522494Y-51760295D02*
X-13570113Y-51665057D01*
X-13570113Y-51665057D02*
X-13617732Y-51617438D01*
X-13617732Y-51617438D02*
X-13712970Y-51569819D01*
X-18998686Y-51665057D02*
X-19046305Y-51617438D01*
X-19046305Y-51617438D02*
X-19141543Y-51569819D01*
X-19141543Y-51569819D02*
X-19379638Y-51569819D01*
X-19379638Y-51569819D02*
X-19474876Y-51617438D01*
X-19474876Y-51617438D02*
X-19522495Y-51665057D01*
X-19522495Y-51665057D02*
X-19570114Y-51760295D01*
X-19570114Y-51760295D02*
X-19570114Y-51855533D01*
X-19570114Y-51855533D02*
X-19522495Y-51998390D01*
X-19522495Y-51998390D02*
X-18951067Y-52569819D01*
X-18951067Y-52569819D02*
X-19570114Y-52569819D01*
X-20189162Y-51569819D02*
X-20284400Y-51569819D01*
X-20284400Y-51569819D02*
X-20379638Y-51617438D01*
X-20379638Y-51617438D02*
X-20427257Y-51665057D01*
X-20427257Y-51665057D02*
X-20474876Y-51760295D01*
X-20474876Y-51760295D02*
X-20522495Y-51950771D01*
X-20522495Y-51950771D02*
X-20522495Y-52188866D01*
X-20522495Y-52188866D02*
X-20474876Y-52379342D01*
X-20474876Y-52379342D02*
X-20427257Y-52474580D01*
X-20427257Y-52474580D02*
X-20379638Y-52522200D01*
X-20379638Y-52522200D02*
X-20284400Y-52569819D01*
X-20284400Y-52569819D02*
X-20189162Y-52569819D01*
X-20189162Y-52569819D02*
X-20093924Y-52522200D01*
X-20093924Y-52522200D02*
X-20046305Y-52474580D01*
X-20046305Y-52474580D02*
X-19998686Y-52379342D01*
X-19998686Y-52379342D02*
X-19951067Y-52188866D01*
X-19951067Y-52188866D02*
X-19951067Y-51950771D01*
X-19951067Y-51950771D02*
X-19998686Y-51760295D01*
X-19998686Y-51760295D02*
X-20046305Y-51665057D01*
X-20046305Y-51665057D02*
X-20093924Y-51617438D01*
X-20093924Y-51617438D02*
X-20189162Y-51569819D01*
X-20903448Y-51665057D02*
X-20951067Y-51617438D01*
X-20951067Y-51617438D02*
X-21046305Y-51569819D01*
X-21046305Y-51569819D02*
X-21284400Y-51569819D01*
X-21284400Y-51569819D02*
X-21379638Y-51617438D01*
X-21379638Y-51617438D02*
X-21427257Y-51665057D01*
X-21427257Y-51665057D02*
X-21474876Y-51760295D01*
X-21474876Y-51760295D02*
X-21474876Y-51855533D01*
X-21474876Y-51855533D02*
X-21427257Y-51998390D01*
X-21427257Y-51998390D02*
X-20855829Y-52569819D01*
X-20855829Y-52569819D02*
X-21474876Y-52569819D01*
X-22379638Y-51569819D02*
X-21903448Y-51569819D01*
X-21903448Y-51569819D02*
X-21855829Y-52046009D01*
X-21855829Y-52046009D02*
X-21903448Y-51998390D01*
X-21903448Y-51998390D02*
X-21998686Y-51950771D01*
X-21998686Y-51950771D02*
X-22236781Y-51950771D01*
X-22236781Y-51950771D02*
X-22332019Y-51998390D01*
X-22332019Y-51998390D02*
X-22379638Y-52046009D01*
X-22379638Y-52046009D02*
X-22427257Y-52141247D01*
X-22427257Y-52141247D02*
X-22427257Y-52379342D01*
X-22427257Y-52379342D02*
X-22379638Y-52474580D01*
X-22379638Y-52474580D02*
X-22332019Y-52522200D01*
X-22332019Y-52522200D02*
X-22236781Y-52569819D01*
X-22236781Y-52569819D02*
X-21998686Y-52569819D01*
X-21998686Y-52569819D02*
X-21903448Y-52522200D01*
X-21903448Y-52522200D02*
X-21855829Y-52474580D01*
X-22855829Y-52188866D02*
X-23617733Y-52188866D01*
X-24046305Y-51665057D02*
X-24093924Y-51617438D01*
X-24093924Y-51617438D02*
X-24189162Y-51569819D01*
X-24189162Y-51569819D02*
X-24427257Y-51569819D01*
X-24427257Y-51569819D02*
X-24522495Y-51617438D01*
X-24522495Y-51617438D02*
X-24570114Y-51665057D01*
X-24570114Y-51665057D02*
X-24617733Y-51760295D01*
X-24617733Y-51760295D02*
X-24617733Y-51855533D01*
X-24617733Y-51855533D02*
X-24570114Y-51998390D01*
X-24570114Y-51998390D02*
X-23998686Y-52569819D01*
X-23998686Y-52569819D02*
X-24617733Y-52569819D01*
X-25236781Y-51569819D02*
X-25332019Y-51569819D01*
X-25332019Y-51569819D02*
X-25427257Y-51617438D01*
X-25427257Y-51617438D02*
X-25474876Y-51665057D01*
X-25474876Y-51665057D02*
X-25522495Y-51760295D01*
X-25522495Y-51760295D02*
X-25570114Y-51950771D01*
X-25570114Y-51950771D02*
X-25570114Y-52188866D01*
X-25570114Y-52188866D02*
X-25522495Y-52379342D01*
X-25522495Y-52379342D02*
X-25474876Y-52474580D01*
X-25474876Y-52474580D02*
X-25427257Y-52522200D01*
X-25427257Y-52522200D02*
X-25332019Y-52569819D01*
X-25332019Y-52569819D02*
X-25236781Y-52569819D01*
X-25236781Y-52569819D02*
X-25141543Y-52522200D01*
X-25141543Y-52522200D02*
X-25093924Y-52474580D01*
X-25093924Y-52474580D02*
X-25046305Y-52379342D01*
X-25046305Y-52379342D02*
X-24998686Y-52188866D01*
X-24998686Y-52188866D02*
X-24998686Y-51950771D01*
X-24998686Y-51950771D02*
X-25046305Y-51760295D01*
X-25046305Y-51760295D02*
X-25093924Y-51665057D01*
X-25093924Y-51665057D02*
X-25141543Y-51617438D01*
X-25141543Y-51617438D02*
X-25236781Y-51569819D01*
X-25951067Y-51665057D02*
X-25998686Y-51617438D01*
X-25998686Y-51617438D02*
X-26093924Y-51569819D01*
X-26093924Y-51569819D02*
X-26332019Y-51569819D01*
X-26332019Y-51569819D02*
X-26427257Y-51617438D01*
X-26427257Y-51617438D02*
X-26474876Y-51665057D01*
X-26474876Y-51665057D02*
X-26522495Y-51760295D01*
X-26522495Y-51760295D02*
X-26522495Y-51855533D01*
X-26522495Y-51855533D02*
X-26474876Y-51998390D01*
X-26474876Y-51998390D02*
X-25903448Y-52569819D01*
X-25903448Y-52569819D02*
X-26522495Y-52569819D01*
X-27379638Y-51569819D02*
X-27189162Y-51569819D01*
X-27189162Y-51569819D02*
X-27093924Y-51617438D01*
X-27093924Y-51617438D02*
X-27046305Y-51665057D01*
X-27046305Y-51665057D02*
X-26951067Y-51807914D01*
X-26951067Y-51807914D02*
X-26903448Y-51998390D01*
X-26903448Y-51998390D02*
X-26903448Y-52379342D01*
X-26903448Y-52379342D02*
X-26951067Y-52474580D01*
X-26951067Y-52474580D02*
X-26998686Y-52522200D01*
X-26998686Y-52522200D02*
X-27093924Y-52569819D01*
X-27093924Y-52569819D02*
X-27284400Y-52569819D01*
X-27284400Y-52569819D02*
X-27379638Y-52522200D01*
X-27379638Y-52522200D02*
X-27427257Y-52474580D01*
X-27427257Y-52474580D02*
X-27474876Y-52379342D01*
X-27474876Y-52379342D02*
X-27474876Y-52141247D01*
X-27474876Y-52141247D02*
X-27427257Y-52046009D01*
X-27427257Y-52046009D02*
X-27379638Y-51998390D01*
X-27379638Y-51998390D02*
X-27284400Y-51950771D01*
X-27284400Y-51950771D02*
X-27093924Y-51950771D01*
X-27093924Y-51950771D02*
X-26998686Y-51998390D01*
X-26998686Y-51998390D02*
X-26951067Y-52046009D01*
X-26951067Y-52046009D02*
X-26903448Y-52141247D01*
D11*
X13185000Y6505000D02*
X9400000Y6505000D01*
X13185000Y7775000D02*
X13185000Y6505000D01*
X13185000Y9155000D02*
X9400000Y9155000D01*
X13185000Y-13925000D02*
X9410000Y-13925000D01*
X11297500Y-13925000D02*
X11300000Y3300000D01*
X11600000Y6600000D02*
X11600000Y9155000D01*
X14565000Y9155000D02*
X15835000Y9155000D01*
X9410000Y4600000D02*
X13200000Y4600000D01*
D10*
X12598333Y8290181D02*
X12931666Y8290181D01*
X12931666Y8290181D02*
X12964999Y7813991D01*
X12964999Y7813991D02*
X12931666Y7861610D01*
X12931666Y7861610D02*
X12864999Y7909229D01*
X12864999Y7909229D02*
X12698333Y7909229D01*
X12698333Y7909229D02*
X12631666Y7861610D01*
X12631666Y7861610D02*
X12598333Y7813991D01*
X12598333Y7813991D02*
X12564999Y7718753D01*
X12564999Y7718753D02*
X12564999Y7480658D01*
X12564999Y7480658D02*
X12598333Y7385420D01*
X12598333Y7385420D02*
X12631666Y7337800D01*
X12631666Y7337800D02*
X12698333Y7290181D01*
X12698333Y7290181D02*
X12864999Y7290181D01*
X12864999Y7290181D02*
X12931666Y7337800D01*
X12931666Y7337800D02*
X12964999Y7385420D01*
X12364999Y8290181D02*
X12131666Y7290181D01*
X12131666Y7290181D02*
X11898332Y8290181D01*
X9771077Y-3243866D02*
X9723458Y-3196247D01*
X9723458Y-3196247D02*
X9628220Y-3148628D01*
X9628220Y-3148628D02*
X9437744Y-3243866D01*
X9437744Y-3243866D02*
X9342506Y-3196247D01*
X9342506Y-3196247D02*
X9294887Y-3148628D01*
X13079286Y-9409819D02*
X12584048Y-9409819D01*
X12584048Y-9409819D02*
X12850714Y-9790771D01*
X12850714Y-9790771D02*
X12736429Y-9790771D01*
X12736429Y-9790771D02*
X12660238Y-9838390D01*
X12660238Y-9838390D02*
X12622143Y-9886009D01*
X12622143Y-9886009D02*
X12584048Y-9981247D01*
X12584048Y-9981247D02*
X12584048Y-10219342D01*
X12584048Y-10219342D02*
X12622143Y-10314580D01*
X12622143Y-10314580D02*
X12660238Y-10362200D01*
X12660238Y-10362200D02*
X12736429Y-10409819D01*
X12736429Y-10409819D02*
X12965000Y-10409819D01*
X12965000Y-10409819D02*
X13041191Y-10362200D01*
X13041191Y-10362200D02*
X13079286Y-10314580D01*
X12317381Y-9409819D02*
X11784047Y-9409819D01*
X11784047Y-9409819D02*
X12126905Y-10409819D01*
X10945952Y-9409819D02*
X10450714Y-9409819D01*
X10450714Y-9409819D02*
X10717380Y-9790771D01*
X10717380Y-9790771D02*
X10603095Y-9790771D01*
X10603095Y-9790771D02*
X10526904Y-9838390D01*
X10526904Y-9838390D02*
X10488809Y-9886009D01*
X10488809Y-9886009D02*
X10450714Y-9981247D01*
X10450714Y-9981247D02*
X10450714Y-10219342D01*
X10450714Y-10219342D02*
X10488809Y-10314580D01*
X10488809Y-10314580D02*
X10526904Y-10362200D01*
X10526904Y-10362200D02*
X10603095Y-10409819D01*
X10603095Y-10409819D02*
X10831666Y-10409819D01*
X10831666Y-10409819D02*
X10907857Y-10362200D01*
X10907857Y-10362200D02*
X10945952Y-10314580D01*
X9764999Y-9409819D02*
X9917380Y-9409819D01*
X9917380Y-9409819D02*
X9993571Y-9457438D01*
X9993571Y-9457438D02*
X10031666Y-9505057D01*
X10031666Y-9505057D02*
X10107856Y-9647914D01*
X10107856Y-9647914D02*
X10145952Y-9838390D01*
X10145952Y-9838390D02*
X10145952Y-10219342D01*
X10145952Y-10219342D02*
X10107856Y-10314580D01*
X10107856Y-10314580D02*
X10069761Y-10362200D01*
X10069761Y-10362200D02*
X9993571Y-10409819D01*
X9993571Y-10409819D02*
X9841190Y-10409819D01*
X9841190Y-10409819D02*
X9764999Y-10362200D01*
X9764999Y-10362200D02*
X9726904Y-10314580D01*
X9726904Y-10314580D02*
X9688809Y-10219342D01*
X9688809Y-10219342D02*
X9688809Y-9981247D01*
X9688809Y-9981247D02*
X9726904Y-9886009D01*
X9726904Y-9886009D02*
X9764999Y-9838390D01*
X9764999Y-9838390D02*
X9841190Y-9790771D01*
X9841190Y-9790771D02*
X9993571Y-9790771D01*
X9993571Y-9790771D02*
X10069761Y-9838390D01*
X10069761Y-9838390D02*
X10107856Y-9886009D01*
X10107856Y-9886009D02*
X10145952Y-9981247D01*
X12660238Y-2143152D02*
X12660238Y-2809819D01*
X12850714Y-1762200D02*
X13041191Y-2476485D01*
X13041191Y-2476485D02*
X12545952Y-2476485D01*
X12317381Y-1809819D02*
X11822143Y-1809819D01*
X11822143Y-1809819D02*
X12088809Y-2190771D01*
X12088809Y-2190771D02*
X11974524Y-2190771D01*
X11974524Y-2190771D02*
X11898333Y-2238390D01*
X11898333Y-2238390D02*
X11860238Y-2286009D01*
X11860238Y-2286009D02*
X11822143Y-2381247D01*
X11822143Y-2381247D02*
X11822143Y-2619342D01*
X11822143Y-2619342D02*
X11860238Y-2714580D01*
X11860238Y-2714580D02*
X11898333Y-2762200D01*
X11898333Y-2762200D02*
X11974524Y-2809819D01*
X11974524Y-2809819D02*
X12203095Y-2809819D01*
X12203095Y-2809819D02*
X12279286Y-2762200D01*
X12279286Y-2762200D02*
X12317381Y-2714580D01*
X10526904Y-2143152D02*
X10526904Y-2809819D01*
X10717380Y-1762200D02*
X10907857Y-2476485D01*
X10907857Y-2476485D02*
X10412618Y-2476485D01*
X10145952Y-1905057D02*
X10107856Y-1857438D01*
X10107856Y-1857438D02*
X10031666Y-1809819D01*
X10031666Y-1809819D02*
X9841190Y-1809819D01*
X9841190Y-1809819D02*
X9764999Y-1857438D01*
X9764999Y-1857438D02*
X9726904Y-1905057D01*
X9726904Y-1905057D02*
X9688809Y-2000295D01*
X9688809Y-2000295D02*
X9688809Y-2095533D01*
X9688809Y-2095533D02*
X9726904Y-2238390D01*
X9726904Y-2238390D02*
X10184047Y-2809819D01*
X10184047Y-2809819D02*
X9688809Y-2809819D01*
X11771077Y-3243866D02*
X11723458Y-3196247D01*
X11723458Y-3196247D02*
X11628220Y-3148628D01*
X11628220Y-3148628D02*
X11437744Y-3243866D01*
X11437744Y-3243866D02*
X11342506Y-3196247D01*
X11342506Y-3196247D02*
X11294887Y-3148628D01*
X11974523Y6042562D02*
X12050713Y6090181D01*
X12050713Y6090181D02*
X12164999Y6090181D01*
X12164999Y6090181D02*
X12279285Y6042562D01*
X12279285Y6042562D02*
X12355475Y5947324D01*
X12355475Y5947324D02*
X12393570Y5852086D01*
X12393570Y5852086D02*
X12431666Y5661610D01*
X12431666Y5661610D02*
X12431666Y5518753D01*
X12431666Y5518753D02*
X12393570Y5328277D01*
X12393570Y5328277D02*
X12355475Y5233039D01*
X12355475Y5233039D02*
X12279285Y5137800D01*
X12279285Y5137800D02*
X12164999Y5090181D01*
X12164999Y5090181D02*
X12088808Y5090181D01*
X12088808Y5090181D02*
X11974523Y5137800D01*
X11974523Y5137800D02*
X11936427Y5185420D01*
X11936427Y5185420D02*
X11936427Y5518753D01*
X11936427Y5518753D02*
X12088808Y5518753D01*
X11593570Y5090181D02*
X11593570Y6090181D01*
X11593570Y6090181D02*
X11136427Y5090181D01*
X11136427Y5090181D02*
X11136427Y6090181D01*
X10755475Y5090181D02*
X10755475Y6090181D01*
X10755475Y6090181D02*
X10564999Y6090181D01*
X10564999Y6090181D02*
X10450713Y6042562D01*
X10450713Y6042562D02*
X10374523Y5947324D01*
X10374523Y5947324D02*
X10336428Y5852086D01*
X10336428Y5852086D02*
X10298332Y5661610D01*
X10298332Y5661610D02*
X10298332Y5518753D01*
X10298332Y5518753D02*
X10336428Y5328277D01*
X10336428Y5328277D02*
X10374523Y5233039D01*
X10374523Y5233039D02*
X10450713Y5137800D01*
X10450713Y5137800D02*
X10564999Y5090181D01*
X10564999Y5090181D02*
X10755475Y5090181D01*
X9771077Y-643866D02*
X9723458Y-596247D01*
X9723458Y-596247D02*
X9628220Y-548628D01*
X9628220Y-548628D02*
X9437744Y-643866D01*
X9437744Y-643866D02*
X9342506Y-596247D01*
X9342506Y-596247D02*
X9294887Y-548628D01*
D12*
X-8810354Y-44396845D02*
X-8572259Y-44277797D01*
X-8572259Y-44277797D02*
X-8215116Y-44277797D01*
X-8215116Y-44277797D02*
X-7857973Y-44396845D01*
X-7857973Y-44396845D02*
X-7619878Y-44634940D01*
X-7619878Y-44634940D02*
X-7500831Y-44873035D01*
X-7500831Y-44873035D02*
X-7381783Y-45349226D01*
X-7381783Y-45349226D02*
X-7381783Y-45706369D01*
X-7381783Y-45706369D02*
X-7500831Y-46182559D01*
X-7500831Y-46182559D02*
X-7619878Y-46420654D01*
X-7619878Y-46420654D02*
X-7857973Y-46658750D01*
X-7857973Y-46658750D02*
X-8215116Y-46777797D01*
X-8215116Y-46777797D02*
X-8453212Y-46777797D01*
X-8453212Y-46777797D02*
X-8810354Y-46658750D01*
X-8810354Y-46658750D02*
X-8929402Y-46539702D01*
X-8929402Y-46539702D02*
X-8929402Y-45706369D01*
X-8929402Y-45706369D02*
X-8453212Y-45706369D01*
X-11072259Y-46777797D02*
X-11072259Y-45468273D01*
X-11072259Y-45468273D02*
X-10953212Y-45230178D01*
X-10953212Y-45230178D02*
X-10715116Y-45111130D01*
X-10715116Y-45111130D02*
X-10238926Y-45111130D01*
X-10238926Y-45111130D02*
X-10000831Y-45230178D01*
X-11072259Y-46658750D02*
X-10834164Y-46777797D01*
X-10834164Y-46777797D02*
X-10238926Y-46777797D01*
X-10238926Y-46777797D02*
X-10000831Y-46658750D01*
X-10000831Y-46658750D02*
X-9881783Y-46420654D01*
X-9881783Y-46420654D02*
X-9881783Y-46182559D01*
X-9881783Y-46182559D02*
X-10000831Y-45944464D01*
X-10000831Y-45944464D02*
X-10238926Y-45825416D01*
X-10238926Y-45825416D02*
X-10834164Y-45825416D01*
X-10834164Y-45825416D02*
X-11072259Y-45706369D01*
X-12262736Y-46777797D02*
X-12262736Y-45111130D01*
X-12262736Y-45349226D02*
X-12381783Y-45230178D01*
X-12381783Y-45230178D02*
X-12619878Y-45111130D01*
X-12619878Y-45111130D02*
X-12977021Y-45111130D01*
X-12977021Y-45111130D02*
X-13215117Y-45230178D01*
X-13215117Y-45230178D02*
X-13334164Y-45468273D01*
X-13334164Y-45468273D02*
X-13334164Y-46777797D01*
X-13334164Y-45468273D02*
X-13453212Y-45230178D01*
X-13453212Y-45230178D02*
X-13691307Y-45111130D01*
X-13691307Y-45111130D02*
X-14048450Y-45111130D01*
X-14048450Y-45111130D02*
X-14286545Y-45230178D01*
X-14286545Y-45230178D02*
X-14405593Y-45468273D01*
X-14405593Y-45468273D02*
X-14405593Y-46777797D01*
X-16548450Y-46658750D02*
X-16310354Y-46777797D01*
X-16310354Y-46777797D02*
X-15834164Y-46777797D01*
X-15834164Y-46777797D02*
X-15596069Y-46658750D01*
X-15596069Y-46658750D02*
X-15477021Y-46420654D01*
X-15477021Y-46420654D02*
X-15477021Y-45468273D01*
X-15477021Y-45468273D02*
X-15596069Y-45230178D01*
X-15596069Y-45230178D02*
X-15834164Y-45111130D01*
X-15834164Y-45111130D02*
X-16310354Y-45111130D01*
X-16310354Y-45111130D02*
X-16548450Y-45230178D01*
X-16548450Y-45230178D02*
X-16667497Y-45468273D01*
X-16667497Y-45468273D02*
X-16667497Y-45706369D01*
X-16667497Y-45706369D02*
X-15477021Y-45944464D01*
X-17619878Y-46658750D02*
X-17857973Y-46777797D01*
X-17857973Y-46777797D02*
X-18334164Y-46777797D01*
X-18334164Y-46777797D02*
X-18572259Y-46658750D01*
X-18572259Y-46658750D02*
X-18691307Y-46420654D01*
X-18691307Y-46420654D02*
X-18691307Y-46301607D01*
X-18691307Y-46301607D02*
X-18572259Y-46063511D01*
X-18572259Y-46063511D02*
X-18334164Y-45944464D01*
X-18334164Y-45944464D02*
X-17977021Y-45944464D01*
X-17977021Y-45944464D02*
X-17738926Y-45825416D01*
X-17738926Y-45825416D02*
X-17619878Y-45587321D01*
X-17619878Y-45587321D02*
X-17619878Y-45468273D01*
X-17619878Y-45468273D02*
X-17738926Y-45230178D01*
X-17738926Y-45230178D02*
X-17977021Y-45111130D01*
X-17977021Y-45111130D02*
X-18334164Y-45111130D01*
X-18334164Y-45111130D02*
X-18572259Y-45230178D01*
X-19405593Y-45111130D02*
X-20357974Y-45111130D01*
X-19762736Y-44277797D02*
X-19762736Y-46420654D01*
X-19762736Y-46420654D02*
X-19881783Y-46658750D01*
X-19881783Y-46658750D02*
X-20119878Y-46777797D01*
X-20119878Y-46777797D02*
X-20357974Y-46777797D01*
X-22143688Y-46658750D02*
X-21905592Y-46777797D01*
X-21905592Y-46777797D02*
X-21429402Y-46777797D01*
X-21429402Y-46777797D02*
X-21191307Y-46658750D01*
X-21191307Y-46658750D02*
X-21072259Y-46420654D01*
X-21072259Y-46420654D02*
X-21072259Y-45468273D01*
X-21072259Y-45468273D02*
X-21191307Y-45230178D01*
X-21191307Y-45230178D02*
X-21429402Y-45111130D01*
X-21429402Y-45111130D02*
X-21905592Y-45111130D01*
X-21905592Y-45111130D02*
X-22143688Y-45230178D01*
X-22143688Y-45230178D02*
X-22262735Y-45468273D01*
X-22262735Y-45468273D02*
X-22262735Y-45706369D01*
X-22262735Y-45706369D02*
X-21072259Y-45944464D01*
X-24286545Y-46658750D02*
X-24048449Y-46777797D01*
X-24048449Y-46777797D02*
X-23572259Y-46777797D01*
X-23572259Y-46777797D02*
X-23334164Y-46658750D01*
X-23334164Y-46658750D02*
X-23215116Y-46420654D01*
X-23215116Y-46420654D02*
X-23215116Y-45468273D01*
X-23215116Y-45468273D02*
X-23334164Y-45230178D01*
X-23334164Y-45230178D02*
X-23572259Y-45111130D01*
X-23572259Y-45111130D02*
X-24048449Y-45111130D01*
X-24048449Y-45111130D02*
X-24286545Y-45230178D01*
X-24286545Y-45230178D02*
X-24405592Y-45468273D01*
X-24405592Y-45468273D02*
X-24405592Y-45706369D01*
X-24405592Y-45706369D02*
X-23215116Y-45944464D01*
X-25477021Y-46777797D02*
X-25477021Y-45111130D01*
X-25477021Y-45587321D02*
X-25596068Y-45349226D01*
X-25596068Y-45349226D02*
X-25715116Y-45230178D01*
X-25715116Y-45230178D02*
X-25953211Y-45111130D01*
X-25953211Y-45111130D02*
X-26191306Y-45111130D01*
X-30357973Y-46777797D02*
X-29524640Y-45587321D01*
X-28929402Y-46777797D02*
X-28929402Y-44277797D01*
X-28929402Y-44277797D02*
X-29881783Y-44277797D01*
X-29881783Y-44277797D02*
X-30119878Y-44396845D01*
X-30119878Y-44396845D02*
X-30238925Y-44515892D01*
X-30238925Y-44515892D02*
X-30357973Y-44753988D01*
X-30357973Y-44753988D02*
X-30357973Y-45111130D01*
X-30357973Y-45111130D02*
X-30238925Y-45349226D01*
X-30238925Y-45349226D02*
X-30119878Y-45468273D01*
X-30119878Y-45468273D02*
X-29881783Y-45587321D01*
X-29881783Y-45587321D02*
X-28929402Y-45587321D01*
X-32857973Y-46539702D02*
X-32738925Y-46658750D01*
X-32738925Y-46658750D02*
X-32381783Y-46777797D01*
X-32381783Y-46777797D02*
X-32143687Y-46777797D01*
X-32143687Y-46777797D02*
X-31786544Y-46658750D01*
X-31786544Y-46658750D02*
X-31548449Y-46420654D01*
X-31548449Y-46420654D02*
X-31429402Y-46182559D01*
X-31429402Y-46182559D02*
X-31310354Y-45706369D01*
X-31310354Y-45706369D02*
X-31310354Y-45349226D01*
X-31310354Y-45349226D02*
X-31429402Y-44873035D01*
X-31429402Y-44873035D02*
X-31548449Y-44634940D01*
X-31548449Y-44634940D02*
X-31786544Y-44396845D01*
X-31786544Y-44396845D02*
X-32143687Y-44277797D01*
X-32143687Y-44277797D02*
X-32381783Y-44277797D01*
X-32381783Y-44277797D02*
X-32738925Y-44396845D01*
X-32738925Y-44396845D02*
X-32857973Y-44515892D01*
D10*
X11771077Y-5843866D02*
X11723458Y-5796247D01*
X11723458Y-5796247D02*
X11628220Y-5748628D01*
X11628220Y-5748628D02*
X11437744Y-5843866D01*
X11437744Y-5843866D02*
X11342506Y-5796247D01*
X11342506Y-5796247D02*
X11294887Y-5748628D01*
X-13090477Y-12754819D02*
X-13090477Y-13469104D01*
X-13090477Y-13469104D02*
X-13042858Y-13611961D01*
X-13042858Y-13611961D02*
X-12947620Y-13707200D01*
X-12947620Y-13707200D02*
X-12804763Y-13754819D01*
X-12804763Y-13754819D02*
X-12709525Y-13754819D01*
X-14090477Y-13754819D02*
X-13519049Y-13754819D01*
X-13804763Y-13754819D02*
X-13804763Y-12754819D01*
X-13804763Y-12754819D02*
X-13709525Y-12897676D01*
X-13709525Y-12897676D02*
X-13614287Y-12992914D01*
X-13614287Y-12992914D02*
X-13519049Y-13040533D01*
X-14709525Y-12754819D02*
X-14804763Y-12754819D01*
X-14804763Y-12754819D02*
X-14900001Y-12802438D01*
X-14900001Y-12802438D02*
X-14947620Y-12850057D01*
X-14947620Y-12850057D02*
X-14995239Y-12945295D01*
X-14995239Y-12945295D02*
X-15042858Y-13135771D01*
X-15042858Y-13135771D02*
X-15042858Y-13373866D01*
X-15042858Y-13373866D02*
X-14995239Y-13564342D01*
X-14995239Y-13564342D02*
X-14947620Y-13659580D01*
X-14947620Y-13659580D02*
X-14900001Y-13707200D01*
X-14900001Y-13707200D02*
X-14804763Y-13754819D01*
X-14804763Y-13754819D02*
X-14709525Y-13754819D01*
X-14709525Y-13754819D02*
X-14614287Y-13707200D01*
X-14614287Y-13707200D02*
X-14566668Y-13659580D01*
X-14566668Y-13659580D02*
X-14519049Y-13564342D01*
X-14519049Y-13564342D02*
X-14471430Y-13373866D01*
X-14471430Y-13373866D02*
X-14471430Y-13135771D01*
X-14471430Y-13135771D02*
X-14519049Y-12945295D01*
X-14519049Y-12945295D02*
X-14566668Y-12850057D01*
X-14566668Y-12850057D02*
X-14614287Y-12802438D01*
X-14614287Y-12802438D02*
X-14709525Y-12754819D01*
X9771077Y1756134D02*
X9723458Y1803753D01*
X9723458Y1803753D02*
X9628220Y1851372D01*
X9628220Y1851372D02*
X9437744Y1756134D01*
X9437744Y1756134D02*
X9342506Y1803753D01*
X9342506Y1803753D02*
X9294887Y1851372D01*
X11771077Y-643866D02*
X11723458Y-596247D01*
X11723458Y-596247D02*
X11628220Y-548628D01*
X11628220Y-548628D02*
X11437744Y-643866D01*
X11437744Y-643866D02*
X11342506Y-596247D01*
X11342506Y-596247D02*
X11294887Y-548628D01*
X12660238Y2856848D02*
X12660238Y2190181D01*
X12850714Y3237800D02*
X13041191Y2523515D01*
X13041191Y2523515D02*
X12545952Y2523515D01*
X12317381Y3190181D02*
X11784047Y3190181D01*
X11784047Y3190181D02*
X12126905Y2190181D01*
X10526904Y2856848D02*
X10526904Y2190181D01*
X10717380Y3237800D02*
X10907857Y2523515D01*
X10907857Y2523515D02*
X10412618Y2523515D01*
X9764999Y3190181D02*
X9917380Y3190181D01*
X9917380Y3190181D02*
X9993571Y3142562D01*
X9993571Y3142562D02*
X10031666Y3094943D01*
X10031666Y3094943D02*
X10107856Y2952086D01*
X10107856Y2952086D02*
X10145952Y2761610D01*
X10145952Y2761610D02*
X10145952Y2380658D01*
X10145952Y2380658D02*
X10107856Y2285420D01*
X10107856Y2285420D02*
X10069761Y2237800D01*
X10069761Y2237800D02*
X9993571Y2190181D01*
X9993571Y2190181D02*
X9841190Y2190181D01*
X9841190Y2190181D02*
X9764999Y2237800D01*
X9764999Y2237800D02*
X9726904Y2285420D01*
X9726904Y2285420D02*
X9688809Y2380658D01*
X9688809Y2380658D02*
X9688809Y2618753D01*
X9688809Y2618753D02*
X9726904Y2713991D01*
X9726904Y2713991D02*
X9764999Y2761610D01*
X9764999Y2761610D02*
X9841190Y2809229D01*
X9841190Y2809229D02*
X9993571Y2809229D01*
X9993571Y2809229D02*
X10069761Y2761610D01*
X10069761Y2761610D02*
X10107856Y2713991D01*
X10107856Y2713991D02*
X10145952Y2618753D01*
X12660238Y-4743152D02*
X12660238Y-5409819D01*
X12850714Y-4362200D02*
X13041191Y-5076485D01*
X13041191Y-5076485D02*
X12545952Y-5076485D01*
X11822143Y-5409819D02*
X12279286Y-5409819D01*
X12050714Y-5409819D02*
X12050714Y-4409819D01*
X12050714Y-4409819D02*
X12126905Y-4552676D01*
X12126905Y-4552676D02*
X12203095Y-4647914D01*
X12203095Y-4647914D02*
X12279286Y-4695533D01*
X10526904Y-4743152D02*
X10526904Y-5409819D01*
X10717380Y-4362200D02*
X10907857Y-5076485D01*
X10907857Y-5076485D02*
X10412618Y-5076485D01*
X9955475Y-4409819D02*
X9879285Y-4409819D01*
X9879285Y-4409819D02*
X9803094Y-4457438D01*
X9803094Y-4457438D02*
X9764999Y-4505057D01*
X9764999Y-4505057D02*
X9726904Y-4600295D01*
X9726904Y-4600295D02*
X9688809Y-4790771D01*
X9688809Y-4790771D02*
X9688809Y-5028866D01*
X9688809Y-5028866D02*
X9726904Y-5219342D01*
X9726904Y-5219342D02*
X9764999Y-5314580D01*
X9764999Y-5314580D02*
X9803094Y-5362200D01*
X9803094Y-5362200D02*
X9879285Y-5409819D01*
X9879285Y-5409819D02*
X9955475Y-5409819D01*
X9955475Y-5409819D02*
X10031666Y-5362200D01*
X10031666Y-5362200D02*
X10069761Y-5314580D01*
X10069761Y-5314580D02*
X10107856Y-5219342D01*
X10107856Y-5219342D02*
X10145952Y-5028866D01*
X10145952Y-5028866D02*
X10145952Y-4790771D01*
X10145952Y-4790771D02*
X10107856Y-4600295D01*
X10107856Y-4600295D02*
X10069761Y-4505057D01*
X10069761Y-4505057D02*
X10031666Y-4457438D01*
X10031666Y-4457438D02*
X9955475Y-4409819D01*
X16233333Y-14254819D02*
X16233333Y-14969104D01*
X16233333Y-14969104D02*
X16280952Y-15111961D01*
X16280952Y-15111961D02*
X16376190Y-15207200D01*
X16376190Y-15207200D02*
X16519047Y-15254819D01*
X16519047Y-15254819D02*
X16614285Y-15254819D01*
X15709523Y-15254819D02*
X15519047Y-15254819D01*
X15519047Y-15254819D02*
X15423809Y-15207200D01*
X15423809Y-15207200D02*
X15376190Y-15159580D01*
X15376190Y-15159580D02*
X15280952Y-15016723D01*
X15280952Y-15016723D02*
X15233333Y-14826247D01*
X15233333Y-14826247D02*
X15233333Y-14445295D01*
X15233333Y-14445295D02*
X15280952Y-14350057D01*
X15280952Y-14350057D02*
X15328571Y-14302438D01*
X15328571Y-14302438D02*
X15423809Y-14254819D01*
X15423809Y-14254819D02*
X15614285Y-14254819D01*
X15614285Y-14254819D02*
X15709523Y-14302438D01*
X15709523Y-14302438D02*
X15757142Y-14350057D01*
X15757142Y-14350057D02*
X15804761Y-14445295D01*
X15804761Y-14445295D02*
X15804761Y-14683390D01*
X15804761Y-14683390D02*
X15757142Y-14778628D01*
X15757142Y-14778628D02*
X15709523Y-14826247D01*
X15709523Y-14826247D02*
X15614285Y-14873866D01*
X15614285Y-14873866D02*
X15423809Y-14873866D01*
X15423809Y-14873866D02*
X15328571Y-14826247D01*
X15328571Y-14826247D02*
X15280952Y-14778628D01*
X15280952Y-14778628D02*
X15233333Y-14683390D01*
D13*
X166165Y-50180870D02*
X532832Y-50180870D01*
X532832Y-50757060D02*
X532832Y-49657060D01*
X532832Y-49657060D02*
X9022Y-49657060D01*
X-410025Y-50757060D02*
X-410025Y-50023727D01*
X-410025Y-50233251D02*
X-462406Y-50128489D01*
X-462406Y-50128489D02*
X-514787Y-50076108D01*
X-514787Y-50076108D02*
X-619549Y-50023727D01*
X-619549Y-50023727D02*
X-724311Y-50023727D01*
X-1248120Y-50757060D02*
X-1143358Y-50704680D01*
X-1143358Y-50704680D02*
X-1090977Y-50652299D01*
X-1090977Y-50652299D02*
X-1038596Y-50547537D01*
X-1038596Y-50547537D02*
X-1038596Y-50233251D01*
X-1038596Y-50233251D02*
X-1090977Y-50128489D01*
X-1090977Y-50128489D02*
X-1143358Y-50076108D01*
X-1143358Y-50076108D02*
X-1248120Y-50023727D01*
X-1248120Y-50023727D02*
X-1405263Y-50023727D01*
X-1405263Y-50023727D02*
X-1510025Y-50076108D01*
X-1510025Y-50076108D02*
X-1562406Y-50128489D01*
X-1562406Y-50128489D02*
X-1614787Y-50233251D01*
X-1614787Y-50233251D02*
X-1614787Y-50547537D01*
X-1614787Y-50547537D02*
X-1562406Y-50652299D01*
X-1562406Y-50652299D02*
X-1510025Y-50704680D01*
X-1510025Y-50704680D02*
X-1405263Y-50757060D01*
X-1405263Y-50757060D02*
X-1248120Y-50757060D01*
X-2086215Y-50757060D02*
X-2086215Y-50023727D01*
X-2086215Y-50128489D02*
X-2138596Y-50076108D01*
X-2138596Y-50076108D02*
X-2243358Y-50023727D01*
X-2243358Y-50023727D02*
X-2400501Y-50023727D01*
X-2400501Y-50023727D02*
X-2505263Y-50076108D01*
X-2505263Y-50076108D02*
X-2557644Y-50180870D01*
X-2557644Y-50180870D02*
X-2557644Y-50757060D01*
X-2557644Y-50180870D02*
X-2610025Y-50076108D01*
X-2610025Y-50076108D02*
X-2714787Y-50023727D01*
X-2714787Y-50023727D02*
X-2871930Y-50023727D01*
X-2871930Y-50023727D02*
X-2976691Y-50076108D01*
X-2976691Y-50076108D02*
X-3029072Y-50180870D01*
X-3029072Y-50180870D02*
X-3029072Y-50757060D01*
X-4705263Y-49657060D02*
X-4705263Y-50442775D01*
X-4705263Y-50442775D02*
X-4652882Y-50599918D01*
X-4652882Y-50599918D02*
X-4548120Y-50704680D01*
X-4548120Y-50704680D02*
X-4390977Y-50757060D01*
X-4390977Y-50757060D02*
X-4286215Y-50757060D01*
X-5386215Y-50757060D02*
X-5281453Y-50704680D01*
X-5281453Y-50704680D02*
X-5229072Y-50652299D01*
X-5229072Y-50652299D02*
X-5176691Y-50547537D01*
X-5176691Y-50547537D02*
X-5176691Y-50233251D01*
X-5176691Y-50233251D02*
X-5229072Y-50128489D01*
X-5229072Y-50128489D02*
X-5281453Y-50076108D01*
X-5281453Y-50076108D02*
X-5386215Y-50023727D01*
X-5386215Y-50023727D02*
X-5543358Y-50023727D01*
X-5543358Y-50023727D02*
X-5648120Y-50076108D01*
X-5648120Y-50076108D02*
X-5700501Y-50128489D01*
X-5700501Y-50128489D02*
X-5752882Y-50233251D01*
X-5752882Y-50233251D02*
X-5752882Y-50547537D01*
X-5752882Y-50547537D02*
X-5700501Y-50652299D01*
X-5700501Y-50652299D02*
X-5648120Y-50704680D01*
X-5648120Y-50704680D02*
X-5543358Y-50757060D01*
X-5543358Y-50757060D02*
X-5386215Y-50757060D01*
X-6171929Y-50704680D02*
X-6276691Y-50757060D01*
X-6276691Y-50757060D02*
X-6486215Y-50757060D01*
X-6486215Y-50757060D02*
X-6590977Y-50704680D01*
X-6590977Y-50704680D02*
X-6643358Y-50599918D01*
X-6643358Y-50599918D02*
X-6643358Y-50547537D01*
X-6643358Y-50547537D02*
X-6590977Y-50442775D01*
X-6590977Y-50442775D02*
X-6486215Y-50390394D01*
X-6486215Y-50390394D02*
X-6329072Y-50390394D01*
X-6329072Y-50390394D02*
X-6224310Y-50338013D01*
X-6224310Y-50338013D02*
X-6171929Y-50233251D01*
X-6171929Y-50233251D02*
X-6171929Y-50180870D01*
X-6171929Y-50180870D02*
X-6224310Y-50076108D01*
X-6224310Y-50076108D02*
X-6329072Y-50023727D01*
X-6329072Y-50023727D02*
X-6486215Y-50023727D01*
X-6486215Y-50023727D02*
X-6590977Y-50076108D01*
X-7114786Y-50757060D02*
X-7114786Y-49657060D01*
X-7586215Y-50757060D02*
X-7586215Y-50180870D01*
X-7586215Y-50180870D02*
X-7533834Y-50076108D01*
X-7533834Y-50076108D02*
X-7429072Y-50023727D01*
X-7429072Y-50023727D02*
X-7271929Y-50023727D01*
X-7271929Y-50023727D02*
X-7167167Y-50076108D01*
X-7167167Y-50076108D02*
X-7114786Y-50128489D01*
X-8581453Y-50023727D02*
X-8581453Y-50757060D01*
X-8110024Y-50023727D02*
X-8110024Y-50599918D01*
X-8110024Y-50599918D02*
X-8162405Y-50704680D01*
X-8162405Y-50704680D02*
X-8267167Y-50757060D01*
X-8267167Y-50757060D02*
X-8424310Y-50757060D01*
X-8424310Y-50757060D02*
X-8529072Y-50704680D01*
X-8529072Y-50704680D02*
X-8581453Y-50652299D01*
X-9576691Y-50757060D02*
X-9576691Y-50180870D01*
X-9576691Y-50180870D02*
X-9524310Y-50076108D01*
X-9524310Y-50076108D02*
X-9419548Y-50023727D01*
X-9419548Y-50023727D02*
X-9210024Y-50023727D01*
X-9210024Y-50023727D02*
X-9105262Y-50076108D01*
X-9576691Y-50704680D02*
X-9471929Y-50757060D01*
X-9471929Y-50757060D02*
X-9210024Y-50757060D01*
X-9210024Y-50757060D02*
X-9105262Y-50704680D01*
X-9105262Y-50704680D02*
X-9052881Y-50599918D01*
X-9052881Y-50599918D02*
X-9052881Y-50495156D01*
X-9052881Y-50495156D02*
X-9105262Y-50390394D01*
X-9105262Y-50390394D02*
X-9210024Y-50338013D01*
X-9210024Y-50338013D02*
X-9471929Y-50338013D01*
X-9471929Y-50338013D02*
X-9576691Y-50285632D01*
X-10886214Y-50442775D02*
X-11410024Y-50442775D01*
X-10781452Y-50757060D02*
X-11148119Y-49657060D01*
X-11148119Y-49657060D02*
X-11514786Y-50757060D01*
X-12352881Y-50757060D02*
X-12352881Y-49657060D01*
X-12352881Y-50704680D02*
X-12248119Y-50757060D01*
X-12248119Y-50757060D02*
X-12038595Y-50757060D01*
X-12038595Y-50757060D02*
X-11933833Y-50704680D01*
X-11933833Y-50704680D02*
X-11881452Y-50652299D01*
X-11881452Y-50652299D02*
X-11829071Y-50547537D01*
X-11829071Y-50547537D02*
X-11829071Y-50233251D01*
X-11829071Y-50233251D02*
X-11881452Y-50128489D01*
X-11881452Y-50128489D02*
X-11933833Y-50076108D01*
X-11933833Y-50076108D02*
X-12038595Y-50023727D01*
X-12038595Y-50023727D02*
X-12248119Y-50023727D01*
X-12248119Y-50023727D02*
X-12352881Y-50076108D01*
X-12876690Y-50757060D02*
X-12876690Y-50023727D01*
X-12876690Y-50233251D02*
X-12929071Y-50128489D01*
X-12929071Y-50128489D02*
X-12981452Y-50076108D01*
X-12981452Y-50076108D02*
X-13086214Y-50023727D01*
X-13086214Y-50023727D02*
X-13190976Y-50023727D01*
X-13557642Y-50757060D02*
X-13557642Y-50023727D01*
X-13557642Y-49657060D02*
X-13505261Y-49709441D01*
X-13505261Y-49709441D02*
X-13557642Y-49761822D01*
X-13557642Y-49761822D02*
X-13610023Y-49709441D01*
X-13610023Y-49709441D02*
X-13557642Y-49657060D01*
X-13557642Y-49657060D02*
X-13557642Y-49761822D01*
X-14552881Y-50757060D02*
X-14552881Y-50180870D01*
X-14552881Y-50180870D02*
X-14500500Y-50076108D01*
X-14500500Y-50076108D02*
X-14395738Y-50023727D01*
X-14395738Y-50023727D02*
X-14186214Y-50023727D01*
X-14186214Y-50023727D02*
X-14081452Y-50076108D01*
X-14552881Y-50704680D02*
X-14448119Y-50757060D01*
X-14448119Y-50757060D02*
X-14186214Y-50757060D01*
X-14186214Y-50757060D02*
X-14081452Y-50704680D01*
X-14081452Y-50704680D02*
X-14029071Y-50599918D01*
X-14029071Y-50599918D02*
X-14029071Y-50495156D01*
X-14029071Y-50495156D02*
X-14081452Y-50390394D01*
X-14081452Y-50390394D02*
X-14186214Y-50338013D01*
X-14186214Y-50338013D02*
X-14448119Y-50338013D01*
X-14448119Y-50338013D02*
X-14552881Y-50285632D01*
X-15076690Y-50023727D02*
X-15076690Y-50757060D01*
X-15076690Y-50128489D02*
X-15129071Y-50076108D01*
X-15129071Y-50076108D02*
X-15233833Y-50023727D01*
X-15233833Y-50023727D02*
X-15390976Y-50023727D01*
X-15390976Y-50023727D02*
X-15495738Y-50076108D01*
X-15495738Y-50076108D02*
X-15548119Y-50180870D01*
X-15548119Y-50180870D02*
X-15548119Y-50757060D01*
X-16229071Y-50757060D02*
X-16124309Y-50704680D01*
X-16124309Y-50704680D02*
X-16071928Y-50652299D01*
X-16071928Y-50652299D02*
X-16019547Y-50547537D01*
X-16019547Y-50547537D02*
X-16019547Y-50233251D01*
X-16019547Y-50233251D02*
X-16071928Y-50128489D01*
X-16071928Y-50128489D02*
X-16124309Y-50076108D01*
X-16124309Y-50076108D02*
X-16229071Y-50023727D01*
X-16229071Y-50023727D02*
X-16386214Y-50023727D01*
X-16386214Y-50023727D02*
X-16490976Y-50076108D01*
X-16490976Y-50076108D02*
X-16543357Y-50128489D01*
X-16543357Y-50128489D02*
X-16595738Y-50233251D01*
X-16595738Y-50233251D02*
X-16595738Y-50547537D01*
X-16595738Y-50547537D02*
X-16543357Y-50652299D01*
X-16543357Y-50652299D02*
X-16490976Y-50704680D01*
X-16490976Y-50704680D02*
X-16386214Y-50757060D01*
X-16386214Y-50757060D02*
X-16229071Y-50757060D01*
X-18376690Y-50757060D02*
X-18376690Y-50180870D01*
X-18376690Y-50180870D02*
X-18324309Y-50076108D01*
X-18324309Y-50076108D02*
X-18219547Y-50023727D01*
X-18219547Y-50023727D02*
X-18010023Y-50023727D01*
X-18010023Y-50023727D02*
X-17905261Y-50076108D01*
X-18376690Y-50704680D02*
X-18271928Y-50757060D01*
X-18271928Y-50757060D02*
X-18010023Y-50757060D01*
X-18010023Y-50757060D02*
X-17905261Y-50704680D01*
X-17905261Y-50704680D02*
X-17852880Y-50599918D01*
X-17852880Y-50599918D02*
X-17852880Y-50495156D01*
X-17852880Y-50495156D02*
X-17905261Y-50390394D01*
X-17905261Y-50390394D02*
X-18010023Y-50338013D01*
X-18010023Y-50338013D02*
X-18271928Y-50338013D01*
X-18271928Y-50338013D02*
X-18376690Y-50285632D01*
X-18900499Y-50023727D02*
X-18900499Y-50757060D01*
X-18900499Y-50128489D02*
X-18952880Y-50076108D01*
X-18952880Y-50076108D02*
X-19057642Y-50023727D01*
X-19057642Y-50023727D02*
X-19214785Y-50023727D01*
X-19214785Y-50023727D02*
X-19319547Y-50076108D01*
X-19319547Y-50076108D02*
X-19371928Y-50180870D01*
X-19371928Y-50180870D02*
X-19371928Y-50757060D01*
X-20367166Y-50757060D02*
X-20367166Y-49657060D01*
X-20367166Y-50704680D02*
X-20262404Y-50757060D01*
X-20262404Y-50757060D02*
X-20052880Y-50757060D01*
X-20052880Y-50757060D02*
X-19948118Y-50704680D01*
X-19948118Y-50704680D02*
X-19895737Y-50652299D01*
X-19895737Y-50652299D02*
X-19843356Y-50547537D01*
X-19843356Y-50547537D02*
X-19843356Y-50233251D01*
X-19843356Y-50233251D02*
X-19895737Y-50128489D01*
X-19895737Y-50128489D02*
X-19948118Y-50076108D01*
X-19948118Y-50076108D02*
X-20052880Y-50023727D01*
X-20052880Y-50023727D02*
X-20262404Y-50023727D01*
X-20262404Y-50023727D02*
X-20367166Y-50076108D01*
X-21729070Y-50757060D02*
X-21729070Y-49657060D01*
X-21729070Y-49657060D02*
X-22148118Y-49657060D01*
X-22148118Y-49657060D02*
X-22252880Y-49709441D01*
X-22252880Y-49709441D02*
X-22305261Y-49761822D01*
X-22305261Y-49761822D02*
X-22357642Y-49866584D01*
X-22357642Y-49866584D02*
X-22357642Y-50023727D01*
X-22357642Y-50023727D02*
X-22305261Y-50128489D01*
X-22305261Y-50128489D02*
X-22252880Y-50180870D01*
X-22252880Y-50180870D02*
X-22148118Y-50233251D01*
X-22148118Y-50233251D02*
X-21729070Y-50233251D01*
X-23300499Y-50757060D02*
X-23300499Y-50180870D01*
X-23300499Y-50180870D02*
X-23248118Y-50076108D01*
X-23248118Y-50076108D02*
X-23143356Y-50023727D01*
X-23143356Y-50023727D02*
X-22933832Y-50023727D01*
X-22933832Y-50023727D02*
X-22829070Y-50076108D01*
X-23300499Y-50704680D02*
X-23195737Y-50757060D01*
X-23195737Y-50757060D02*
X-22933832Y-50757060D01*
X-22933832Y-50757060D02*
X-22829070Y-50704680D01*
X-22829070Y-50704680D02*
X-22776689Y-50599918D01*
X-22776689Y-50599918D02*
X-22776689Y-50495156D01*
X-22776689Y-50495156D02*
X-22829070Y-50390394D01*
X-22829070Y-50390394D02*
X-22933832Y-50338013D01*
X-22933832Y-50338013D02*
X-23195737Y-50338013D01*
X-23195737Y-50338013D02*
X-23300499Y-50285632D01*
X-23667165Y-50023727D02*
X-24086213Y-50023727D01*
X-23824308Y-49657060D02*
X-23824308Y-50599918D01*
X-23824308Y-50599918D02*
X-23876689Y-50704680D01*
X-23876689Y-50704680D02*
X-23981451Y-50757060D01*
X-23981451Y-50757060D02*
X-24086213Y-50757060D01*
X-24452879Y-50757060D02*
X-24452879Y-50023727D01*
X-24452879Y-50233251D02*
X-24505260Y-50128489D01*
X-24505260Y-50128489D02*
X-24557641Y-50076108D01*
X-24557641Y-50076108D02*
X-24662403Y-50023727D01*
X-24662403Y-50023727D02*
X-24767165Y-50023727D01*
X-25133831Y-50757060D02*
X-25133831Y-50023727D01*
X-25133831Y-49657060D02*
X-25081450Y-49709441D01*
X-25081450Y-49709441D02*
X-25133831Y-49761822D01*
X-25133831Y-49761822D02*
X-25186212Y-49709441D01*
X-25186212Y-49709441D02*
X-25133831Y-49657060D01*
X-25133831Y-49657060D02*
X-25133831Y-49761822D01*
X-26129070Y-50704680D02*
X-26024308Y-50757060D01*
X-26024308Y-50757060D02*
X-25814784Y-50757060D01*
X-25814784Y-50757060D02*
X-25710022Y-50704680D01*
X-25710022Y-50704680D02*
X-25657641Y-50652299D01*
X-25657641Y-50652299D02*
X-25605260Y-50547537D01*
X-25605260Y-50547537D02*
X-25605260Y-50233251D01*
X-25605260Y-50233251D02*
X-25657641Y-50128489D01*
X-25657641Y-50128489D02*
X-25710022Y-50076108D01*
X-25710022Y-50076108D02*
X-25814784Y-50023727D01*
X-25814784Y-50023727D02*
X-26024308Y-50023727D01*
X-26024308Y-50023727D02*
X-26129070Y-50076108D01*
X-26600498Y-50757060D02*
X-26600498Y-49657060D01*
X-26705260Y-50338013D02*
X-27019546Y-50757060D01*
X-27019546Y-50023727D02*
X-26600498Y-50442775D01*
X-28852879Y-50757060D02*
X-28329069Y-50757060D01*
X-28329069Y-50757060D02*
X-28329069Y-49657060D01*
X-29638593Y-50704680D02*
X-29533831Y-50757060D01*
X-29533831Y-50757060D02*
X-29324307Y-50757060D01*
X-29324307Y-50757060D02*
X-29219545Y-50704680D01*
X-29219545Y-50704680D02*
X-29167164Y-50599918D01*
X-29167164Y-50599918D02*
X-29167164Y-50180870D01*
X-29167164Y-50180870D02*
X-29219545Y-50076108D01*
X-29219545Y-50076108D02*
X-29324307Y-50023727D01*
X-29324307Y-50023727D02*
X-29533831Y-50023727D01*
X-29533831Y-50023727D02*
X-29638593Y-50076108D01*
X-29638593Y-50076108D02*
X-29690974Y-50180870D01*
X-29690974Y-50180870D02*
X-29690974Y-50285632D01*
X-29690974Y-50285632D02*
X-29167164Y-50390394D01*
X-30162402Y-50757060D02*
X-30162402Y-50023727D01*
X-30162402Y-49657060D02*
X-30110021Y-49709441D01*
X-30110021Y-49709441D02*
X-30162402Y-49761822D01*
X-30162402Y-49761822D02*
X-30214783Y-49709441D01*
X-30214783Y-49709441D02*
X-30162402Y-49657060D01*
X-30162402Y-49657060D02*
X-30162402Y-49761822D01*
X-30633831Y-50704680D02*
X-30738593Y-50757060D01*
X-30738593Y-50757060D02*
X-30948117Y-50757060D01*
X-30948117Y-50757060D02*
X-31052879Y-50704680D01*
X-31052879Y-50704680D02*
X-31105260Y-50599918D01*
X-31105260Y-50599918D02*
X-31105260Y-50547537D01*
X-31105260Y-50547537D02*
X-31052879Y-50442775D01*
X-31052879Y-50442775D02*
X-30948117Y-50390394D01*
X-30948117Y-50390394D02*
X-30790974Y-50390394D01*
X-30790974Y-50390394D02*
X-30686212Y-50338013D01*
X-30686212Y-50338013D02*
X-30633831Y-50233251D01*
X-30633831Y-50233251D02*
X-30633831Y-50180870D01*
X-30633831Y-50180870D02*
X-30686212Y-50076108D01*
X-30686212Y-50076108D02*
X-30790974Y-50023727D01*
X-30790974Y-50023727D02*
X-30948117Y-50023727D01*
X-30948117Y-50023727D02*
X-31052879Y-50076108D01*
X-31995736Y-50704680D02*
X-31890974Y-50757060D01*
X-31890974Y-50757060D02*
X-31681450Y-50757060D01*
X-31681450Y-50757060D02*
X-31576688Y-50704680D01*
X-31576688Y-50704680D02*
X-31524307Y-50599918D01*
X-31524307Y-50599918D02*
X-31524307Y-50180870D01*
X-31524307Y-50180870D02*
X-31576688Y-50076108D01*
X-31576688Y-50076108D02*
X-31681450Y-50023727D01*
X-31681450Y-50023727D02*
X-31890974Y-50023727D01*
X-31890974Y-50023727D02*
X-31995736Y-50076108D01*
X-31995736Y-50076108D02*
X-32048117Y-50180870D01*
X-32048117Y-50180870D02*
X-32048117Y-50285632D01*
X-32048117Y-50285632D02*
X-31524307Y-50390394D01*
X-32519545Y-50757060D02*
X-32519545Y-50023727D01*
X-32519545Y-50233251D02*
X-32571926Y-50128489D01*
X-32571926Y-50128489D02*
X-32624307Y-50076108D01*
X-32624307Y-50076108D02*
X-32729069Y-50023727D01*
X-32729069Y-50023727D02*
X-32833831Y-50023727D01*
D10*
X13079286Y-12009819D02*
X12584048Y-12009819D01*
X12584048Y-12009819D02*
X12850714Y-12390771D01*
X12850714Y-12390771D02*
X12736429Y-12390771D01*
X12736429Y-12390771D02*
X12660238Y-12438390D01*
X12660238Y-12438390D02*
X12622143Y-12486009D01*
X12622143Y-12486009D02*
X12584048Y-12581247D01*
X12584048Y-12581247D02*
X12584048Y-12819342D01*
X12584048Y-12819342D02*
X12622143Y-12914580D01*
X12622143Y-12914580D02*
X12660238Y-12962200D01*
X12660238Y-12962200D02*
X12736429Y-13009819D01*
X12736429Y-13009819D02*
X12965000Y-13009819D01*
X12965000Y-13009819D02*
X13041191Y-12962200D01*
X13041191Y-12962200D02*
X13079286Y-12914580D01*
X11860238Y-12009819D02*
X12241190Y-12009819D01*
X12241190Y-12009819D02*
X12279286Y-12486009D01*
X12279286Y-12486009D02*
X12241190Y-12438390D01*
X12241190Y-12438390D02*
X12165000Y-12390771D01*
X12165000Y-12390771D02*
X11974524Y-12390771D01*
X11974524Y-12390771D02*
X11898333Y-12438390D01*
X11898333Y-12438390D02*
X11860238Y-12486009D01*
X11860238Y-12486009D02*
X11822143Y-12581247D01*
X11822143Y-12581247D02*
X11822143Y-12819342D01*
X11822143Y-12819342D02*
X11860238Y-12914580D01*
X11860238Y-12914580D02*
X11898333Y-12962200D01*
X11898333Y-12962200D02*
X11974524Y-13009819D01*
X11974524Y-13009819D02*
X12165000Y-13009819D01*
X12165000Y-13009819D02*
X12241190Y-12962200D01*
X12241190Y-12962200D02*
X12279286Y-12914580D01*
X10945952Y-12009819D02*
X10450714Y-12009819D01*
X10450714Y-12009819D02*
X10717380Y-12390771D01*
X10717380Y-12390771D02*
X10603095Y-12390771D01*
X10603095Y-12390771D02*
X10526904Y-12438390D01*
X10526904Y-12438390D02*
X10488809Y-12486009D01*
X10488809Y-12486009D02*
X10450714Y-12581247D01*
X10450714Y-12581247D02*
X10450714Y-12819342D01*
X10450714Y-12819342D02*
X10488809Y-12914580D01*
X10488809Y-12914580D02*
X10526904Y-12962200D01*
X10526904Y-12962200D02*
X10603095Y-13009819D01*
X10603095Y-13009819D02*
X10831666Y-13009819D01*
X10831666Y-13009819D02*
X10907857Y-12962200D01*
X10907857Y-12962200D02*
X10945952Y-12914580D01*
X9764999Y-12343152D02*
X9764999Y-13009819D01*
X9955475Y-11962200D02*
X10145952Y-12676485D01*
X10145952Y-12676485D02*
X9650713Y-12676485D01*
X12355475Y4442562D02*
X12431665Y4490181D01*
X12431665Y4490181D02*
X12545951Y4490181D01*
X12545951Y4490181D02*
X12660237Y4442562D01*
X12660237Y4442562D02*
X12736427Y4347324D01*
X12736427Y4347324D02*
X12774522Y4252086D01*
X12774522Y4252086D02*
X12812618Y4061610D01*
X12812618Y4061610D02*
X12812618Y3918753D01*
X12812618Y3918753D02*
X12774522Y3728277D01*
X12774522Y3728277D02*
X12736427Y3633039D01*
X12736427Y3633039D02*
X12660237Y3537800D01*
X12660237Y3537800D02*
X12545951Y3490181D01*
X12545951Y3490181D02*
X12469760Y3490181D01*
X12469760Y3490181D02*
X12355475Y3537800D01*
X12355475Y3537800D02*
X12317379Y3585420D01*
X12317379Y3585420D02*
X12317379Y3918753D01*
X12317379Y3918753D02*
X12469760Y3918753D01*
X11974522Y3490181D02*
X11974522Y4490181D01*
X11974522Y4490181D02*
X11669760Y4490181D01*
X11669760Y4490181D02*
X11593570Y4442562D01*
X11593570Y4442562D02*
X11555475Y4394943D01*
X11555475Y4394943D02*
X11517379Y4299705D01*
X11517379Y4299705D02*
X11517379Y4156848D01*
X11517379Y4156848D02*
X11555475Y4061610D01*
X11555475Y4061610D02*
X11593570Y4013991D01*
X11593570Y4013991D02*
X11669760Y3966372D01*
X11669760Y3966372D02*
X11974522Y3966372D01*
X11174522Y3490181D02*
X11174522Y4490181D01*
X10641189Y4490181D02*
X10488808Y4490181D01*
X10488808Y4490181D02*
X10412618Y4442562D01*
X10412618Y4442562D02*
X10336427Y4347324D01*
X10336427Y4347324D02*
X10298332Y4156848D01*
X10298332Y4156848D02*
X10298332Y3823515D01*
X10298332Y3823515D02*
X10336427Y3633039D01*
X10336427Y3633039D02*
X10412618Y3537800D01*
X10412618Y3537800D02*
X10488808Y3490181D01*
X10488808Y3490181D02*
X10641189Y3490181D01*
X10641189Y3490181D02*
X10717380Y3537800D01*
X10717380Y3537800D02*
X10793570Y3633039D01*
X10793570Y3633039D02*
X10831666Y3823515D01*
X10831666Y3823515D02*
X10831666Y4156848D01*
X10831666Y4156848D02*
X10793570Y4347324D01*
X10793570Y4347324D02*
X10717380Y4442562D01*
X10717380Y4442562D02*
X10641189Y4490181D01*
X9955475Y3585420D02*
X9917380Y3537800D01*
X9917380Y3537800D02*
X9955475Y3490181D01*
X9955475Y3490181D02*
X9993571Y3537800D01*
X9993571Y3537800D02*
X9955475Y3585420D01*
X9955475Y3585420D02*
X9955475Y3490181D01*
X9955475Y4109229D02*
X9917380Y4061610D01*
X9917380Y4061610D02*
X9955475Y4013991D01*
X9955475Y4013991D02*
X9993571Y4061610D01*
X9993571Y4061610D02*
X9955475Y4109229D01*
X9955475Y4109229D02*
X9955475Y4013991D01*
X12660238Y456848D02*
X12660238Y-209819D01*
X12850714Y837800D02*
X13041191Y123515D01*
X13041191Y123515D02*
X12545952Y123515D01*
X11860238Y790181D02*
X12241190Y790181D01*
X12241190Y790181D02*
X12279286Y313991D01*
X12279286Y313991D02*
X12241190Y361610D01*
X12241190Y361610D02*
X12165000Y409229D01*
X12165000Y409229D02*
X11974524Y409229D01*
X11974524Y409229D02*
X11898333Y361610D01*
X11898333Y361610D02*
X11860238Y313991D01*
X11860238Y313991D02*
X11822143Y218753D01*
X11822143Y218753D02*
X11822143Y-19342D01*
X11822143Y-19342D02*
X11860238Y-114580D01*
X11860238Y-114580D02*
X11898333Y-162200D01*
X11898333Y-162200D02*
X11974524Y-209819D01*
X11974524Y-209819D02*
X12165000Y-209819D01*
X12165000Y-209819D02*
X12241190Y-162200D01*
X12241190Y-162200D02*
X12279286Y-114580D01*
X10526904Y456848D02*
X10526904Y-209819D01*
X10717380Y837800D02*
X10907857Y123515D01*
X10907857Y123515D02*
X10412618Y123515D01*
X9764999Y456848D02*
X9764999Y-209819D01*
X9955475Y837800D02*
X10145952Y123515D01*
X10145952Y123515D02*
X9650713Y123515D01*
X9771077Y-5843866D02*
X9723458Y-5796247D01*
X9723458Y-5796247D02*
X9628220Y-5748628D01*
X9628220Y-5748628D02*
X9437744Y-5843866D01*
X9437744Y-5843866D02*
X9342506Y-5796247D01*
X9342506Y-5796247D02*
X9294887Y-5748628D01*
X15906077Y10111134D02*
X15858458Y10158753D01*
X15858458Y10158753D02*
X15763220Y10206372D01*
X15763220Y10206372D02*
X15572744Y10111134D01*
X15572744Y10111134D02*
X15477506Y10158753D01*
X15477506Y10158753D02*
X15429887Y10206372D01*
X13079286Y-6809819D02*
X12584048Y-6809819D01*
X12584048Y-6809819D02*
X12850714Y-7190771D01*
X12850714Y-7190771D02*
X12736429Y-7190771D01*
X12736429Y-7190771D02*
X12660238Y-7238390D01*
X12660238Y-7238390D02*
X12622143Y-7286009D01*
X12622143Y-7286009D02*
X12584048Y-7381247D01*
X12584048Y-7381247D02*
X12584048Y-7619342D01*
X12584048Y-7619342D02*
X12622143Y-7714580D01*
X12622143Y-7714580D02*
X12660238Y-7762200D01*
X12660238Y-7762200D02*
X12736429Y-7809819D01*
X12736429Y-7809819D02*
X12965000Y-7809819D01*
X12965000Y-7809819D02*
X13041191Y-7762200D01*
X13041191Y-7762200D02*
X13079286Y-7714580D01*
X12203095Y-7809819D02*
X12050714Y-7809819D01*
X12050714Y-7809819D02*
X11974524Y-7762200D01*
X11974524Y-7762200D02*
X11936428Y-7714580D01*
X11936428Y-7714580D02*
X11860238Y-7571723D01*
X11860238Y-7571723D02*
X11822143Y-7381247D01*
X11822143Y-7381247D02*
X11822143Y-7000295D01*
X11822143Y-7000295D02*
X11860238Y-6905057D01*
X11860238Y-6905057D02*
X11898333Y-6857438D01*
X11898333Y-6857438D02*
X11974524Y-6809819D01*
X11974524Y-6809819D02*
X12126905Y-6809819D01*
X12126905Y-6809819D02*
X12203095Y-6857438D01*
X12203095Y-6857438D02*
X12241190Y-6905057D01*
X12241190Y-6905057D02*
X12279286Y-7000295D01*
X12279286Y-7000295D02*
X12279286Y-7238390D01*
X12279286Y-7238390D02*
X12241190Y-7333628D01*
X12241190Y-7333628D02*
X12203095Y-7381247D01*
X12203095Y-7381247D02*
X12126905Y-7428866D01*
X12126905Y-7428866D02*
X11974524Y-7428866D01*
X11974524Y-7428866D02*
X11898333Y-7381247D01*
X11898333Y-7381247D02*
X11860238Y-7333628D01*
X11860238Y-7333628D02*
X11822143Y-7238390D01*
X10945952Y-6809819D02*
X10450714Y-6809819D01*
X10450714Y-6809819D02*
X10717380Y-7190771D01*
X10717380Y-7190771D02*
X10603095Y-7190771D01*
X10603095Y-7190771D02*
X10526904Y-7238390D01*
X10526904Y-7238390D02*
X10488809Y-7286009D01*
X10488809Y-7286009D02*
X10450714Y-7381247D01*
X10450714Y-7381247D02*
X10450714Y-7619342D01*
X10450714Y-7619342D02*
X10488809Y-7714580D01*
X10488809Y-7714580D02*
X10526904Y-7762200D01*
X10526904Y-7762200D02*
X10603095Y-7809819D01*
X10603095Y-7809819D02*
X10831666Y-7809819D01*
X10831666Y-7809819D02*
X10907857Y-7762200D01*
X10907857Y-7762200D02*
X10945952Y-7714580D01*
X9993571Y-7238390D02*
X10069761Y-7190771D01*
X10069761Y-7190771D02*
X10107856Y-7143152D01*
X10107856Y-7143152D02*
X10145952Y-7047914D01*
X10145952Y-7047914D02*
X10145952Y-7000295D01*
X10145952Y-7000295D02*
X10107856Y-6905057D01*
X10107856Y-6905057D02*
X10069761Y-6857438D01*
X10069761Y-6857438D02*
X9993571Y-6809819D01*
X9993571Y-6809819D02*
X9841190Y-6809819D01*
X9841190Y-6809819D02*
X9764999Y-6857438D01*
X9764999Y-6857438D02*
X9726904Y-6905057D01*
X9726904Y-6905057D02*
X9688809Y-7000295D01*
X9688809Y-7000295D02*
X9688809Y-7047914D01*
X9688809Y-7047914D02*
X9726904Y-7143152D01*
X9726904Y-7143152D02*
X9764999Y-7190771D01*
X9764999Y-7190771D02*
X9841190Y-7238390D01*
X9841190Y-7238390D02*
X9993571Y-7238390D01*
X9993571Y-7238390D02*
X10069761Y-7286009D01*
X10069761Y-7286009D02*
X10107856Y-7333628D01*
X10107856Y-7333628D02*
X10145952Y-7428866D01*
X10145952Y-7428866D02*
X10145952Y-7619342D01*
X10145952Y-7619342D02*
X10107856Y-7714580D01*
X10107856Y-7714580D02*
X10069761Y-7762200D01*
X10069761Y-7762200D02*
X9993571Y-7809819D01*
X9993571Y-7809819D02*
X9841190Y-7809819D01*
X9841190Y-7809819D02*
X9764999Y-7762200D01*
X9764999Y-7762200D02*
X9726904Y-7714580D01*
X9726904Y-7714580D02*
X9688809Y-7619342D01*
X9688809Y-7619342D02*
X9688809Y-7428866D01*
X9688809Y-7428866D02*
X9726904Y-7333628D01*
X9726904Y-7333628D02*
X9764999Y-7286009D01*
X9764999Y-7286009D02*
X9841190Y-7238390D01*
X16648935Y10815896D02*
X16267982Y10815896D01*
X16725125Y10530181D02*
X16458458Y11530181D01*
X16458458Y11530181D02*
X16191792Y10530181D01*
X15925125Y10530181D02*
X15925125Y11530181D01*
X15925125Y11530181D02*
X15734649Y11530181D01*
X15734649Y11530181D02*
X15620363Y11482562D01*
X15620363Y11482562D02*
X15544173Y11387324D01*
X15544173Y11387324D02*
X15506078Y11292086D01*
X15506078Y11292086D02*
X15467982Y11101610D01*
X15467982Y11101610D02*
X15467982Y10958753D01*
X15467982Y10958753D02*
X15506078Y10768277D01*
X15506078Y10768277D02*
X15544173Y10673039D01*
X15544173Y10673039D02*
X15620363Y10577800D01*
X15620363Y10577800D02*
X15734649Y10530181D01*
X15734649Y10530181D02*
X15925125Y10530181D01*
X14667982Y10625420D02*
X14706078Y10577800D01*
X14706078Y10577800D02*
X14820363Y10530181D01*
X14820363Y10530181D02*
X14896554Y10530181D01*
X14896554Y10530181D02*
X15010840Y10577800D01*
X15010840Y10577800D02*
X15087030Y10673039D01*
X15087030Y10673039D02*
X15125125Y10768277D01*
X15125125Y10768277D02*
X15163221Y10958753D01*
X15163221Y10958753D02*
X15163221Y11101610D01*
X15163221Y11101610D02*
X15125125Y11292086D01*
X15125125Y11292086D02*
X15087030Y11387324D01*
X15087030Y11387324D02*
X15010840Y11482562D01*
X15010840Y11482562D02*
X14896554Y11530181D01*
X14896554Y11530181D02*
X14820363Y11530181D01*
X14820363Y11530181D02*
X14706078Y11482562D01*
X14706078Y11482562D02*
X14667982Y11434943D01*
X11671077Y1756134D02*
X11623458Y1803753D01*
X11623458Y1803753D02*
X11528220Y1851372D01*
X11528220Y1851372D02*
X11337744Y1756134D01*
X11337744Y1756134D02*
X11242506Y1803753D01*
X11242506Y1803753D02*
X11194887Y1851372D01*
D13*
X-95740Y-48657060D02*
X270927Y-48133251D01*
X532832Y-48657060D02*
X532832Y-47557060D01*
X532832Y-47557060D02*
X113784Y-47557060D01*
X113784Y-47557060D02*
X9022Y-47609441D01*
X9022Y-47609441D02*
X-43359Y-47661822D01*
X-43359Y-47661822D02*
X-95740Y-47766584D01*
X-95740Y-47766584D02*
X-95740Y-47923727D01*
X-95740Y-47923727D02*
X-43359Y-48028489D01*
X-43359Y-48028489D02*
X9022Y-48080870D01*
X9022Y-48080870D02*
X113784Y-48133251D01*
X113784Y-48133251D02*
X532832Y-48133251D01*
X-986216Y-48604680D02*
X-881454Y-48657060D01*
X-881454Y-48657060D02*
X-671930Y-48657060D01*
X-671930Y-48657060D02*
X-567168Y-48604680D01*
X-567168Y-48604680D02*
X-514787Y-48499918D01*
X-514787Y-48499918D02*
X-514787Y-48080870D01*
X-514787Y-48080870D02*
X-567168Y-47976108D01*
X-567168Y-47976108D02*
X-671930Y-47923727D01*
X-671930Y-47923727D02*
X-881454Y-47923727D01*
X-881454Y-47923727D02*
X-986216Y-47976108D01*
X-986216Y-47976108D02*
X-1038597Y-48080870D01*
X-1038597Y-48080870D02*
X-1038597Y-48185632D01*
X-1038597Y-48185632D02*
X-514787Y-48290394D01*
X-1510025Y-47923727D02*
X-1510025Y-48866584D01*
X-1510025Y-48866584D02*
X-1457644Y-48971346D01*
X-1457644Y-48971346D02*
X-1352882Y-49023727D01*
X-1352882Y-49023727D02*
X-1300501Y-49023727D01*
X-1510025Y-47557060D02*
X-1457644Y-47609441D01*
X-1457644Y-47609441D02*
X-1510025Y-47661822D01*
X-1510025Y-47661822D02*
X-1562406Y-47609441D01*
X-1562406Y-47609441D02*
X-1510025Y-47557060D01*
X-1510025Y-47557060D02*
X-1510025Y-47661822D01*
X-2452883Y-48604680D02*
X-2348121Y-48657060D01*
X-2348121Y-48657060D02*
X-2138597Y-48657060D01*
X-2138597Y-48657060D02*
X-2033835Y-48604680D01*
X-2033835Y-48604680D02*
X-1981454Y-48499918D01*
X-1981454Y-48499918D02*
X-1981454Y-48080870D01*
X-1981454Y-48080870D02*
X-2033835Y-47976108D01*
X-2033835Y-47976108D02*
X-2138597Y-47923727D01*
X-2138597Y-47923727D02*
X-2348121Y-47923727D01*
X-2348121Y-47923727D02*
X-2452883Y-47976108D01*
X-2452883Y-47976108D02*
X-2505264Y-48080870D01*
X-2505264Y-48080870D02*
X-2505264Y-48185632D01*
X-2505264Y-48185632D02*
X-1981454Y-48290394D01*
X-3448121Y-48604680D02*
X-3343359Y-48657060D01*
X-3343359Y-48657060D02*
X-3133835Y-48657060D01*
X-3133835Y-48657060D02*
X-3029073Y-48604680D01*
X-3029073Y-48604680D02*
X-2976692Y-48552299D01*
X-2976692Y-48552299D02*
X-2924311Y-48447537D01*
X-2924311Y-48447537D02*
X-2924311Y-48133251D01*
X-2924311Y-48133251D02*
X-2976692Y-48028489D01*
X-2976692Y-48028489D02*
X-3029073Y-47976108D01*
X-3029073Y-47976108D02*
X-3133835Y-47923727D01*
X-3133835Y-47923727D02*
X-3343359Y-47923727D01*
X-3343359Y-47923727D02*
X-3448121Y-47976108D01*
X-3762406Y-47923727D02*
X-4181454Y-47923727D01*
X-3919549Y-47557060D02*
X-3919549Y-48499918D01*
X-3919549Y-48499918D02*
X-3971930Y-48604680D01*
X-3971930Y-48604680D02*
X-4076692Y-48657060D01*
X-4076692Y-48657060D02*
X-4181454Y-48657060D01*
X-6014787Y-48657060D02*
X-5648120Y-48133251D01*
X-5386215Y-48657060D02*
X-5386215Y-47557060D01*
X-5386215Y-47557060D02*
X-5805263Y-47557060D01*
X-5805263Y-47557060D02*
X-5910025Y-47609441D01*
X-5910025Y-47609441D02*
X-5962406Y-47661822D01*
X-5962406Y-47661822D02*
X-6014787Y-47766584D01*
X-6014787Y-47766584D02*
X-6014787Y-47923727D01*
X-6014787Y-47923727D02*
X-5962406Y-48028489D01*
X-5962406Y-48028489D02*
X-5910025Y-48080870D01*
X-5910025Y-48080870D02*
X-5805263Y-48133251D01*
X-5805263Y-48133251D02*
X-5386215Y-48133251D01*
X-6643358Y-48657060D02*
X-6538596Y-48604680D01*
X-6538596Y-48604680D02*
X-6486215Y-48552299D01*
X-6486215Y-48552299D02*
X-6433834Y-48447537D01*
X-6433834Y-48447537D02*
X-6433834Y-48133251D01*
X-6433834Y-48133251D02*
X-6486215Y-48028489D01*
X-6486215Y-48028489D02*
X-6538596Y-47976108D01*
X-6538596Y-47976108D02*
X-6643358Y-47923727D01*
X-6643358Y-47923727D02*
X-6800501Y-47923727D01*
X-6800501Y-47923727D02*
X-6905263Y-47976108D01*
X-6905263Y-47976108D02*
X-6957644Y-48028489D01*
X-6957644Y-48028489D02*
X-7010025Y-48133251D01*
X-7010025Y-48133251D02*
X-7010025Y-48447537D01*
X-7010025Y-48447537D02*
X-6957644Y-48552299D01*
X-6957644Y-48552299D02*
X-6905263Y-48604680D01*
X-6905263Y-48604680D02*
X-6800501Y-48657060D01*
X-6800501Y-48657060D02*
X-6643358Y-48657060D01*
X-7481453Y-48657060D02*
X-7481453Y-47557060D01*
X-7481453Y-47976108D02*
X-7586215Y-47923727D01*
X-7586215Y-47923727D02*
X-7795739Y-47923727D01*
X-7795739Y-47923727D02*
X-7900501Y-47976108D01*
X-7900501Y-47976108D02*
X-7952882Y-48028489D01*
X-7952882Y-48028489D02*
X-8005263Y-48133251D01*
X-8005263Y-48133251D02*
X-8005263Y-48447537D01*
X-8005263Y-48447537D02*
X-7952882Y-48552299D01*
X-7952882Y-48552299D02*
X-7900501Y-48604680D01*
X-7900501Y-48604680D02*
X-7795739Y-48657060D01*
X-7795739Y-48657060D02*
X-7586215Y-48657060D01*
X-7586215Y-48657060D02*
X-7481453Y-48604680D01*
X-8633834Y-48657060D02*
X-8529072Y-48604680D01*
X-8529072Y-48604680D02*
X-8476691Y-48552299D01*
X-8476691Y-48552299D02*
X-8424310Y-48447537D01*
X-8424310Y-48447537D02*
X-8424310Y-48133251D01*
X-8424310Y-48133251D02*
X-8476691Y-48028489D01*
X-8476691Y-48028489D02*
X-8529072Y-47976108D01*
X-8529072Y-47976108D02*
X-8633834Y-47923727D01*
X-8633834Y-47923727D02*
X-8790977Y-47923727D01*
X-8790977Y-47923727D02*
X-8895739Y-47976108D01*
X-8895739Y-47976108D02*
X-8948120Y-48028489D01*
X-8948120Y-48028489D02*
X-9000501Y-48133251D01*
X-9000501Y-48133251D02*
X-9000501Y-48447537D01*
X-9000501Y-48447537D02*
X-8948120Y-48552299D01*
X-8948120Y-48552299D02*
X-8895739Y-48604680D01*
X-8895739Y-48604680D02*
X-8790977Y-48657060D01*
X-8790977Y-48657060D02*
X-8633834Y-48657060D01*
X-9314786Y-47923727D02*
X-9733834Y-47923727D01*
X-9471929Y-47557060D02*
X-9471929Y-48499918D01*
X-9471929Y-48499918D02*
X-9524310Y-48604680D01*
X-9524310Y-48604680D02*
X-9629072Y-48657060D01*
X-9629072Y-48657060D02*
X-9733834Y-48657060D01*
X-10100500Y-48657060D02*
X-10100500Y-47923727D01*
X-10100500Y-47557060D02*
X-10048119Y-47609441D01*
X-10048119Y-47609441D02*
X-10100500Y-47661822D01*
X-10100500Y-47661822D02*
X-10152881Y-47609441D01*
X-10152881Y-47609441D02*
X-10100500Y-47557060D01*
X-10100500Y-47557060D02*
X-10100500Y-47661822D01*
X-11095739Y-48604680D02*
X-10990977Y-48657060D01*
X-10990977Y-48657060D02*
X-10781453Y-48657060D01*
X-10781453Y-48657060D02*
X-10676691Y-48604680D01*
X-10676691Y-48604680D02*
X-10624310Y-48552299D01*
X-10624310Y-48552299D02*
X-10571929Y-48447537D01*
X-10571929Y-48447537D02*
X-10571929Y-48133251D01*
X-10571929Y-48133251D02*
X-10624310Y-48028489D01*
X-10624310Y-48028489D02*
X-10676691Y-47976108D01*
X-10676691Y-47976108D02*
X-10781453Y-47923727D01*
X-10781453Y-47923727D02*
X-10990977Y-47923727D01*
X-10990977Y-47923727D02*
X-11095739Y-47976108D01*
X-11514786Y-48604680D02*
X-11619548Y-48657060D01*
X-11619548Y-48657060D02*
X-11829072Y-48657060D01*
X-11829072Y-48657060D02*
X-11933834Y-48604680D01*
X-11933834Y-48604680D02*
X-11986215Y-48499918D01*
X-11986215Y-48499918D02*
X-11986215Y-48447537D01*
X-11986215Y-48447537D02*
X-11933834Y-48342775D01*
X-11933834Y-48342775D02*
X-11829072Y-48290394D01*
X-11829072Y-48290394D02*
X-11671929Y-48290394D01*
X-11671929Y-48290394D02*
X-11567167Y-48238013D01*
X-11567167Y-48238013D02*
X-11514786Y-48133251D01*
X-11514786Y-48133251D02*
X-11514786Y-48080870D01*
X-11514786Y-48080870D02*
X-11567167Y-47976108D01*
X-11567167Y-47976108D02*
X-11671929Y-47923727D01*
X-11671929Y-47923727D02*
X-11829072Y-47923727D01*
X-11829072Y-47923727D02*
X-11933834Y-47976108D01*
X-14186214Y-48657060D02*
X-14133833Y-48657060D01*
X-14133833Y-48657060D02*
X-14029072Y-48604680D01*
X-14029072Y-48604680D02*
X-13871929Y-48447537D01*
X-13871929Y-48447537D02*
X-13610024Y-48133251D01*
X-13610024Y-48133251D02*
X-13505262Y-47976108D01*
X-13505262Y-47976108D02*
X-13452881Y-47818965D01*
X-13452881Y-47818965D02*
X-13452881Y-47714203D01*
X-13452881Y-47714203D02*
X-13505262Y-47609441D01*
X-13505262Y-47609441D02*
X-13610024Y-47557060D01*
X-13610024Y-47557060D02*
X-13662405Y-47557060D01*
X-13662405Y-47557060D02*
X-13767167Y-47609441D01*
X-13767167Y-47609441D02*
X-13819548Y-47714203D01*
X-13819548Y-47714203D02*
X-13819548Y-47766584D01*
X-13819548Y-47766584D02*
X-13767167Y-47871346D01*
X-13767167Y-47871346D02*
X-13714786Y-47923727D01*
X-13714786Y-47923727D02*
X-13400500Y-48133251D01*
X-13400500Y-48133251D02*
X-13348119Y-48185632D01*
X-13348119Y-48185632D02*
X-13295738Y-48290394D01*
X-13295738Y-48290394D02*
X-13295738Y-48447537D01*
X-13295738Y-48447537D02*
X-13348119Y-48552299D01*
X-13348119Y-48552299D02*
X-13400500Y-48604680D01*
X-13400500Y-48604680D02*
X-13505262Y-48657060D01*
X-13505262Y-48657060D02*
X-13662405Y-48657060D01*
X-13662405Y-48657060D02*
X-13767167Y-48604680D01*
X-13767167Y-48604680D02*
X-13819548Y-48552299D01*
X-13819548Y-48552299D02*
X-13976691Y-48342775D01*
X-13976691Y-48342775D02*
X-14029072Y-48185632D01*
X-14029072Y-48185632D02*
X-14029072Y-48080870D01*
X-15495738Y-48657060D02*
X-15495738Y-47557060D01*
X-15495738Y-47557060D02*
X-15914786Y-47557060D01*
X-15914786Y-47557060D02*
X-16019548Y-47609441D01*
X-16019548Y-47609441D02*
X-16071929Y-47661822D01*
X-16071929Y-47661822D02*
X-16124310Y-47766584D01*
X-16124310Y-47766584D02*
X-16124310Y-47923727D01*
X-16124310Y-47923727D02*
X-16071929Y-48028489D01*
X-16071929Y-48028489D02*
X-16019548Y-48080870D01*
X-16019548Y-48080870D02*
X-15914786Y-48133251D01*
X-15914786Y-48133251D02*
X-15495738Y-48133251D01*
X-17067167Y-48657060D02*
X-17067167Y-48080870D01*
X-17067167Y-48080870D02*
X-17014786Y-47976108D01*
X-17014786Y-47976108D02*
X-16910024Y-47923727D01*
X-16910024Y-47923727D02*
X-16700500Y-47923727D01*
X-16700500Y-47923727D02*
X-16595738Y-47976108D01*
X-17067167Y-48604680D02*
X-16962405Y-48657060D01*
X-16962405Y-48657060D02*
X-16700500Y-48657060D01*
X-16700500Y-48657060D02*
X-16595738Y-48604680D01*
X-16595738Y-48604680D02*
X-16543357Y-48499918D01*
X-16543357Y-48499918D02*
X-16543357Y-48395156D01*
X-16543357Y-48395156D02*
X-16595738Y-48290394D01*
X-16595738Y-48290394D02*
X-16700500Y-48238013D01*
X-16700500Y-48238013D02*
X-16962405Y-48238013D01*
X-16962405Y-48238013D02*
X-17067167Y-48185632D01*
X-17433833Y-47923727D02*
X-17852881Y-47923727D01*
X-17590976Y-47557060D02*
X-17590976Y-48499918D01*
X-17590976Y-48499918D02*
X-17643357Y-48604680D01*
X-17643357Y-48604680D02*
X-17748119Y-48657060D01*
X-17748119Y-48657060D02*
X-17852881Y-48657060D01*
X-18219547Y-48657060D02*
X-18219547Y-47923727D01*
X-18219547Y-48133251D02*
X-18271928Y-48028489D01*
X-18271928Y-48028489D02*
X-18324309Y-47976108D01*
X-18324309Y-47976108D02*
X-18429071Y-47923727D01*
X-18429071Y-47923727D02*
X-18533833Y-47923727D01*
X-19057642Y-48657060D02*
X-18952880Y-48604680D01*
X-18952880Y-48604680D02*
X-18900499Y-48552299D01*
X-18900499Y-48552299D02*
X-18848118Y-48447537D01*
X-18848118Y-48447537D02*
X-18848118Y-48133251D01*
X-18848118Y-48133251D02*
X-18900499Y-48028489D01*
X-18900499Y-48028489D02*
X-18952880Y-47976108D01*
X-18952880Y-47976108D02*
X-19057642Y-47923727D01*
X-19057642Y-47923727D02*
X-19214785Y-47923727D01*
X-19214785Y-47923727D02*
X-19319547Y-47976108D01*
X-19319547Y-47976108D02*
X-19371928Y-48028489D01*
X-19371928Y-48028489D02*
X-19424309Y-48133251D01*
X-19424309Y-48133251D02*
X-19424309Y-48447537D01*
X-19424309Y-48447537D02*
X-19371928Y-48552299D01*
X-19371928Y-48552299D02*
X-19319547Y-48604680D01*
X-19319547Y-48604680D02*
X-19214785Y-48657060D01*
X-19214785Y-48657060D02*
X-19057642Y-48657060D01*
X-19895737Y-47923727D02*
X-19895737Y-48657060D01*
X-19895737Y-48028489D02*
X-19948118Y-47976108D01*
X-19948118Y-47976108D02*
X-20052880Y-47923727D01*
X-20052880Y-47923727D02*
X-20210023Y-47923727D01*
X-20210023Y-47923727D02*
X-20314785Y-47976108D01*
X-20314785Y-47976108D02*
X-20367166Y-48080870D01*
X-20367166Y-48080870D02*
X-20367166Y-48657060D01*
X-20890975Y-48657060D02*
X-20890975Y-47923727D01*
X-20890975Y-47557060D02*
X-20838594Y-47609441D01*
X-20838594Y-47609441D02*
X-20890975Y-47661822D01*
X-20890975Y-47661822D02*
X-20943356Y-47609441D01*
X-20943356Y-47609441D02*
X-20890975Y-47557060D01*
X-20890975Y-47557060D02*
X-20890975Y-47661822D01*
X-21886214Y-48604680D02*
X-21781452Y-48657060D01*
X-21781452Y-48657060D02*
X-21571928Y-48657060D01*
X-21571928Y-48657060D02*
X-21467166Y-48604680D01*
X-21467166Y-48604680D02*
X-21414785Y-48552299D01*
X-21414785Y-48552299D02*
X-21362404Y-48447537D01*
X-21362404Y-48447537D02*
X-21362404Y-48133251D01*
X-21362404Y-48133251D02*
X-21414785Y-48028489D01*
X-21414785Y-48028489D02*
X-21467166Y-47976108D01*
X-21467166Y-47976108D02*
X-21571928Y-47923727D01*
X-21571928Y-47923727D02*
X-21781452Y-47923727D01*
X-21781452Y-47923727D02*
X-21886214Y-47976108D01*
X-22305261Y-48604680D02*
X-22410023Y-48657060D01*
X-22410023Y-48657060D02*
X-22619547Y-48657060D01*
X-22619547Y-48657060D02*
X-22724309Y-48604680D01*
X-22724309Y-48604680D02*
X-22776690Y-48499918D01*
X-22776690Y-48499918D02*
X-22776690Y-48447537D01*
X-22776690Y-48447537D02*
X-22724309Y-48342775D01*
X-22724309Y-48342775D02*
X-22619547Y-48290394D01*
X-22619547Y-48290394D02*
X-22462404Y-48290394D01*
X-22462404Y-48290394D02*
X-22357642Y-48238013D01*
X-22357642Y-48238013D02*
X-22305261Y-48133251D01*
X-22305261Y-48133251D02*
X-22305261Y-48080870D01*
X-22305261Y-48080870D02*
X-22357642Y-47976108D01*
X-22357642Y-47976108D02*
X-22462404Y-47923727D01*
X-22462404Y-47923727D02*
X-22619547Y-47923727D01*
X-22619547Y-47923727D02*
X-22724309Y-47976108D01*
X-24086213Y-48080870D02*
X-24452880Y-48080870D01*
X-24610023Y-48657060D02*
X-24086213Y-48657060D01*
X-24086213Y-48657060D02*
X-24086213Y-47557060D01*
X-24086213Y-47557060D02*
X-24610023Y-47557060D01*
X-25238594Y-48657060D02*
X-25133832Y-48604680D01*
X-25133832Y-48604680D02*
X-25081451Y-48499918D01*
X-25081451Y-48499918D02*
X-25081451Y-47557060D01*
X-26076689Y-48604680D02*
X-25971927Y-48657060D01*
X-25971927Y-48657060D02*
X-25762403Y-48657060D01*
X-25762403Y-48657060D02*
X-25657641Y-48604680D01*
X-25657641Y-48604680D02*
X-25605260Y-48499918D01*
X-25605260Y-48499918D02*
X-25605260Y-48080870D01*
X-25605260Y-48080870D02*
X-25657641Y-47976108D01*
X-25657641Y-47976108D02*
X-25762403Y-47923727D01*
X-25762403Y-47923727D02*
X-25971927Y-47923727D01*
X-25971927Y-47923727D02*
X-26076689Y-47976108D01*
X-26076689Y-47976108D02*
X-26129070Y-48080870D01*
X-26129070Y-48080870D02*
X-26129070Y-48185632D01*
X-26129070Y-48185632D02*
X-25605260Y-48290394D01*
X-27071927Y-48604680D02*
X-26967165Y-48657060D01*
X-26967165Y-48657060D02*
X-26757641Y-48657060D01*
X-26757641Y-48657060D02*
X-26652879Y-48604680D01*
X-26652879Y-48604680D02*
X-26600498Y-48552299D01*
X-26600498Y-48552299D02*
X-26548117Y-48447537D01*
X-26548117Y-48447537D02*
X-26548117Y-48133251D01*
X-26548117Y-48133251D02*
X-26600498Y-48028489D01*
X-26600498Y-48028489D02*
X-26652879Y-47976108D01*
X-26652879Y-47976108D02*
X-26757641Y-47923727D01*
X-26757641Y-47923727D02*
X-26967165Y-47923727D01*
X-26967165Y-47923727D02*
X-27071927Y-47976108D01*
X-27386212Y-47923727D02*
X-27805260Y-47923727D01*
X-27543355Y-47557060D02*
X-27543355Y-48499918D01*
X-27543355Y-48499918D02*
X-27595736Y-48604680D01*
X-27595736Y-48604680D02*
X-27700498Y-48657060D01*
X-27700498Y-48657060D02*
X-27805260Y-48657060D01*
X-28171926Y-48657060D02*
X-28171926Y-47923727D01*
X-28171926Y-48133251D02*
X-28224307Y-48028489D01*
X-28224307Y-48028489D02*
X-28276688Y-47976108D01*
X-28276688Y-47976108D02*
X-28381450Y-47923727D01*
X-28381450Y-47923727D02*
X-28486212Y-47923727D01*
X-29010021Y-48657060D02*
X-28905259Y-48604680D01*
X-28905259Y-48604680D02*
X-28852878Y-48552299D01*
X-28852878Y-48552299D02*
X-28800497Y-48447537D01*
X-28800497Y-48447537D02*
X-28800497Y-48133251D01*
X-28800497Y-48133251D02*
X-28852878Y-48028489D01*
X-28852878Y-48028489D02*
X-28905259Y-47976108D01*
X-28905259Y-47976108D02*
X-29010021Y-47923727D01*
X-29010021Y-47923727D02*
X-29167164Y-47923727D01*
X-29167164Y-47923727D02*
X-29271926Y-47976108D01*
X-29271926Y-47976108D02*
X-29324307Y-48028489D01*
X-29324307Y-48028489D02*
X-29376688Y-48133251D01*
X-29376688Y-48133251D02*
X-29376688Y-48447537D01*
X-29376688Y-48447537D02*
X-29324307Y-48552299D01*
X-29324307Y-48552299D02*
X-29271926Y-48604680D01*
X-29271926Y-48604680D02*
X-29167164Y-48657060D01*
X-29167164Y-48657060D02*
X-29010021Y-48657060D01*
X-29848116Y-47923727D02*
X-29848116Y-48657060D01*
X-29848116Y-48028489D02*
X-29900497Y-47976108D01*
X-29900497Y-47976108D02*
X-30005259Y-47923727D01*
X-30005259Y-47923727D02*
X-30162402Y-47923727D01*
X-30162402Y-47923727D02*
X-30267164Y-47976108D01*
X-30267164Y-47976108D02*
X-30319545Y-48080870D01*
X-30319545Y-48080870D02*
X-30319545Y-48657060D01*
X-30843354Y-48657060D02*
X-30843354Y-47923727D01*
X-30843354Y-47557060D02*
X-30790973Y-47609441D01*
X-30790973Y-47609441D02*
X-30843354Y-47661822D01*
X-30843354Y-47661822D02*
X-30895735Y-47609441D01*
X-30895735Y-47609441D02*
X-30843354Y-47557060D01*
X-30843354Y-47557060D02*
X-30843354Y-47661822D01*
X-31838593Y-48604680D02*
X-31733831Y-48657060D01*
X-31733831Y-48657060D02*
X-31524307Y-48657060D01*
X-31524307Y-48657060D02*
X-31419545Y-48604680D01*
X-31419545Y-48604680D02*
X-31367164Y-48552299D01*
X-31367164Y-48552299D02*
X-31314783Y-48447537D01*
X-31314783Y-48447537D02*
X-31314783Y-48133251D01*
X-31314783Y-48133251D02*
X-31367164Y-48028489D01*
X-31367164Y-48028489D02*
X-31419545Y-47976108D01*
X-31419545Y-47976108D02*
X-31524307Y-47923727D01*
X-31524307Y-47923727D02*
X-31733831Y-47923727D01*
X-31733831Y-47923727D02*
X-31838593Y-47976108D01*
X-32257640Y-48604680D02*
X-32362402Y-48657060D01*
X-32362402Y-48657060D02*
X-32571926Y-48657060D01*
X-32571926Y-48657060D02*
X-32676688Y-48604680D01*
X-32676688Y-48604680D02*
X-32729069Y-48499918D01*
X-32729069Y-48499918D02*
X-32729069Y-48447537D01*
X-32729069Y-48447537D02*
X-32676688Y-48342775D01*
X-32676688Y-48342775D02*
X-32571926Y-48290394D01*
X-32571926Y-48290394D02*
X-32414783Y-48290394D01*
X-32414783Y-48290394D02*
X-32310021Y-48238013D01*
X-32310021Y-48238013D02*
X-32257640Y-48133251D01*
X-32257640Y-48133251D02*
X-32257640Y-48080870D01*
X-32257640Y-48080870D02*
X-32310021Y-47976108D01*
X-32310021Y-47976108D02*
X-32414783Y-47923727D01*
X-32414783Y-47923727D02*
X-32571926Y-47923727D01*
X-32571926Y-47923727D02*
X-32676688Y-47976108D01*
D10*
X11431667Y8290181D02*
X10998333Y8290181D01*
X10998333Y8290181D02*
X11231667Y7909229D01*
X11231667Y7909229D02*
X11131667Y7909229D01*
X11131667Y7909229D02*
X11065000Y7861610D01*
X11065000Y7861610D02*
X11031667Y7813991D01*
X11031667Y7813991D02*
X10998333Y7718753D01*
X10998333Y7718753D02*
X10998333Y7480658D01*
X10998333Y7480658D02*
X11031667Y7385420D01*
X11031667Y7385420D02*
X11065000Y7337800D01*
X11065000Y7337800D02*
X11131667Y7290181D01*
X11131667Y7290181D02*
X11331667Y7290181D01*
X11331667Y7290181D02*
X11398333Y7337800D01*
X11398333Y7337800D02*
X11431667Y7385420D01*
X10798333Y8290181D02*
X10565000Y7290181D01*
X10565000Y7290181D02*
X10331666Y8290181D01*
X10165000Y8290181D02*
X9731666Y8290181D01*
X9731666Y8290181D02*
X9965000Y7909229D01*
X9965000Y7909229D02*
X9865000Y7909229D01*
X9865000Y7909229D02*
X9798333Y7861610D01*
X9798333Y7861610D02*
X9765000Y7813991D01*
X9765000Y7813991D02*
X9731666Y7718753D01*
X9731666Y7718753D02*
X9731666Y7480658D01*
X9731666Y7480658D02*
X9765000Y7385420D01*
X9765000Y7385420D02*
X9798333Y7337800D01*
X9798333Y7337800D02*
X9865000Y7290181D01*
X9865000Y7290181D02*
X10065000Y7290181D01*
X10065000Y7290181D02*
X10131666Y7337800D01*
X10131666Y7337800D02*
X10165000Y7385420D01*
X-6238096Y9745181D02*
X-6238096Y8935658D01*
X-6238096Y8935658D02*
X-6285715Y8840420D01*
X-6285715Y8840420D02*
X-6333334Y8792800D01*
X-6333334Y8792800D02*
X-6428572Y8745181D01*
X-6428572Y8745181D02*
X-6619048Y8745181D01*
X-6619048Y8745181D02*
X-6714286Y8792800D01*
X-6714286Y8792800D02*
X-6761905Y8840420D01*
X-6761905Y8840420D02*
X-6809524Y8935658D01*
X-6809524Y8935658D02*
X-6809524Y9745181D01*
X-7714286Y9411848D02*
X-7714286Y8745181D01*
X-7476191Y9792800D02*
X-7238096Y9078515D01*
X-7238096Y9078515D02*
X-7857143Y9078515D01*
X-6257143Y19545181D02*
X-5923810Y20021372D01*
X-5685715Y19545181D02*
X-5685715Y20545181D01*
X-5685715Y20545181D02*
X-6066667Y20545181D01*
X-6066667Y20545181D02*
X-6161905Y20497562D01*
X-6161905Y20497562D02*
X-6209524Y20449943D01*
X-6209524Y20449943D02*
X-6257143Y20354705D01*
X-6257143Y20354705D02*
X-6257143Y20211848D01*
X-6257143Y20211848D02*
X-6209524Y20116610D01*
X-6209524Y20116610D02*
X-6161905Y20068991D01*
X-6161905Y20068991D02*
X-6066667Y20021372D01*
X-6066667Y20021372D02*
X-5685715Y20021372D01*
X-7209524Y19545181D02*
X-6638096Y19545181D01*
X-6923810Y19545181D02*
X-6923810Y20545181D01*
X-6923810Y20545181D02*
X-6828572Y20402324D01*
X-6828572Y20402324D02*
X-6733334Y20307086D01*
X-6733334Y20307086D02*
X-6638096Y20259467D01*
X-8161905Y19545181D02*
X-7590477Y19545181D01*
X-7876191Y19545181D02*
X-7876191Y20545181D01*
X-7876191Y20545181D02*
X-7780953Y20402324D01*
X-7780953Y20402324D02*
X-7685715Y20307086D01*
X-7685715Y20307086D02*
X-7590477Y20259467D01*
X-8057143Y16275181D02*
X-7723810Y16751372D01*
X-7485715Y16275181D02*
X-7485715Y17275181D01*
X-7485715Y17275181D02*
X-7866667Y17275181D01*
X-7866667Y17275181D02*
X-7961905Y17227562D01*
X-7961905Y17227562D02*
X-8009524Y17179943D01*
X-8009524Y17179943D02*
X-8057143Y17084705D01*
X-8057143Y17084705D02*
X-8057143Y16941848D01*
X-8057143Y16941848D02*
X-8009524Y16846610D01*
X-8009524Y16846610D02*
X-7961905Y16798991D01*
X-7961905Y16798991D02*
X-7866667Y16751372D01*
X-7866667Y16751372D02*
X-7485715Y16751372D01*
X-9009524Y16275181D02*
X-8438096Y16275181D01*
X-8723810Y16275181D02*
X-8723810Y17275181D01*
X-8723810Y17275181D02*
X-8628572Y17132324D01*
X-8628572Y17132324D02*
X-8533334Y17037086D01*
X-8533334Y17037086D02*
X-8438096Y16989467D01*
X-9342858Y17275181D02*
X-9961905Y17275181D01*
X-9961905Y17275181D02*
X-9628572Y16894229D01*
X-9628572Y16894229D02*
X-9771429Y16894229D01*
X-9771429Y16894229D02*
X-9866667Y16846610D01*
X-9866667Y16846610D02*
X-9914286Y16798991D01*
X-9914286Y16798991D02*
X-9961905Y16703753D01*
X-9961905Y16703753D02*
X-9961905Y16465658D01*
X-9961905Y16465658D02*
X-9914286Y16370420D01*
X-9914286Y16370420D02*
X-9866667Y16322800D01*
X-9866667Y16322800D02*
X-9771429Y16275181D01*
X-9771429Y16275181D02*
X-9485715Y16275181D01*
X-9485715Y16275181D02*
X-9390477Y16322800D01*
X-9390477Y16322800D02*
X-9342858Y16370420D01*
X-10757143Y18700420D02*
X-10709524Y18652800D01*
X-10709524Y18652800D02*
X-10566667Y18605181D01*
X-10566667Y18605181D02*
X-10471429Y18605181D01*
X-10471429Y18605181D02*
X-10328572Y18652800D01*
X-10328572Y18652800D02*
X-10233334Y18748039D01*
X-10233334Y18748039D02*
X-10185715Y18843277D01*
X-10185715Y18843277D02*
X-10138096Y19033753D01*
X-10138096Y19033753D02*
X-10138096Y19176610D01*
X-10138096Y19176610D02*
X-10185715Y19367086D01*
X-10185715Y19367086D02*
X-10233334Y19462324D01*
X-10233334Y19462324D02*
X-10328572Y19557562D01*
X-10328572Y19557562D02*
X-10471429Y19605181D01*
X-10471429Y19605181D02*
X-10566667Y19605181D01*
X-10566667Y19605181D02*
X-10709524Y19557562D01*
X-10709524Y19557562D02*
X-10757143Y19509943D01*
X-11138096Y19509943D02*
X-11185715Y19557562D01*
X-11185715Y19557562D02*
X-11280953Y19605181D01*
X-11280953Y19605181D02*
X-11519048Y19605181D01*
X-11519048Y19605181D02*
X-11614286Y19557562D01*
X-11614286Y19557562D02*
X-11661905Y19509943D01*
X-11661905Y19509943D02*
X-11709524Y19414705D01*
X-11709524Y19414705D02*
X-11709524Y19319467D01*
X-11709524Y19319467D02*
X-11661905Y19176610D01*
X-11661905Y19176610D02*
X-11090477Y18605181D01*
X-11090477Y18605181D02*
X-11709524Y18605181D01*
X-12090477Y19509943D02*
X-12138096Y19557562D01*
X-12138096Y19557562D02*
X-12233334Y19605181D01*
X-12233334Y19605181D02*
X-12471429Y19605181D01*
X-12471429Y19605181D02*
X-12566667Y19557562D01*
X-12566667Y19557562D02*
X-12614286Y19509943D01*
X-12614286Y19509943D02*
X-12661905Y19414705D01*
X-12661905Y19414705D02*
X-12661905Y19319467D01*
X-12661905Y19319467D02*
X-12614286Y19176610D01*
X-12614286Y19176610D02*
X-12042858Y18605181D01*
X-12042858Y18605181D02*
X-12661905Y18605181D01*
D11*
%TO.C,U4*%
X-9725000Y15525000D02*
X-9725000Y15265000D01*
X-9725000Y10075000D02*
X-9725000Y10335000D01*
X-7000000Y15525000D02*
X-9725000Y15525000D01*
X-7000000Y15525000D02*
X-4275000Y15525000D01*
X-7000000Y10075000D02*
X-9725000Y10075000D01*
X-7000000Y10075000D02*
X-4275000Y10075000D01*
X-4275000Y15525000D02*
X-4275000Y15265000D01*
X-4275000Y15265000D02*
X-2600000Y15265000D01*
X-4275000Y10075000D02*
X-4275000Y10335000D01*
%TO.C,R11*%
X-7280000Y18563641D02*
X-7280000Y18256359D01*
X-6520000Y18563641D02*
X-6520000Y18256359D01*
%TO.C,R13*%
X-8853641Y18280000D02*
X-8546359Y18280000D01*
X-8853641Y17520000D02*
X-8546359Y17520000D01*
%TO.C,C22*%
X-11292164Y18260000D02*
X-11507836Y18260000D01*
X-11292164Y17540000D02*
X-11507836Y17540000D01*
%TD*%
%LPC*%
D14*
%TO.C,H2*%
X14300000Y26340000D03*
%TD*%
%TO.C,H3*%
X14300000Y-49860000D03*
%TD*%
%TO.C,H1*%
X-36500000Y26340000D03*
%TD*%
%TO.C,H4*%
X-36500000Y-49860000D03*
%TD*%
D15*
%TO.C,J9*%
X14565000Y7775000D03*
D16*
X17105000Y7775000D03*
X14565000Y5235000D03*
X17105000Y5235000D03*
X14565000Y2695000D03*
X17105000Y2695000D03*
X14565000Y155000D03*
X17105000Y155000D03*
X14565000Y-2385000D03*
X17105000Y-2385000D03*
X14565000Y-4925000D03*
X17105000Y-4925000D03*
X14565000Y-7465000D03*
X17105000Y-7465000D03*
X14565000Y-10005000D03*
X17105000Y-10005000D03*
X14565000Y-12545000D03*
X17105000Y-12545000D03*
%TD*%
D17*
%TO.C,J4*%
X11055800Y-21178200D03*
D16*
X13595800Y-21178200D03*
X16135800Y-21178200D03*
%TD*%
D18*
%TO.C,DS1*%
X-31140000Y20915800D03*
X-31140000Y-12104200D03*
X6960000Y20915800D03*
X6960000Y-12104200D03*
D15*
X-19710000Y20915800D03*
D16*
X-17170000Y20915800D03*
X-14630000Y20915800D03*
X-12090000Y20905800D03*
X-9550000Y20915800D03*
X-7010000Y20915800D03*
X-4470000Y20915800D03*
%TD*%
D19*
%TO.C,J8*%
X-29257200Y2708200D03*
D20*
X-29257200Y208200D03*
X-29257200Y-1791800D03*
X-29257200Y-4291800D03*
D21*
X-31967200Y5778200D03*
X-31967200Y-7361800D03*
%TD*%
D22*
%TO.C,J6*%
X-35673600Y15853400D03*
X-35673600Y10073400D03*
D23*
X-35153600Y17283400D03*
D24*
X-39353600Y17283400D03*
D23*
X-35153600Y8643400D03*
D24*
X-39353600Y8643400D03*
%TD*%
D17*
%TO.C,J1*%
X-31210000Y28375000D03*
D16*
X-31210000Y25835000D03*
X-28670000Y28375000D03*
X-28670000Y25835000D03*
X-26130000Y28375000D03*
X-26130000Y25835000D03*
X-23590000Y28375000D03*
X-23590000Y25835000D03*
X-21050000Y28375000D03*
X-21050000Y25835000D03*
X-18510000Y28375000D03*
X-18510000Y25835000D03*
%TD*%
D25*
%TO.C,J10*%
X-13205000Y-11565000D03*
D26*
X-14475000Y-11565000D03*
X-13205000Y-10295000D03*
X-14475000Y-10295000D03*
X-13205000Y-9025000D03*
X-14475000Y-9025000D03*
%TD*%
D27*
%TO.C,U1*%
X-1133333Y1133333D03*
X-1133333Y0D03*
X-1133333Y-1133333D03*
X0Y1133333D03*
X0Y0D03*
X0Y-1133333D03*
X1133333Y1133333D03*
X1133333Y0D03*
X1133333Y-1133333D03*
%TD*%
D28*
%TO.C,J7*%
X-39290200Y-35656600D03*
D16*
X-39290200Y-33116600D03*
X-39290200Y-30576600D03*
X-39290200Y-28036600D03*
X-39290200Y-25496600D03*
X-39290200Y-22956600D03*
X-39290200Y-20416600D03*
X-39290200Y-17876600D03*
%TD*%
D22*
%TO.C,J5*%
X2982200Y25616400D03*
X-2797800Y25616400D03*
D29*
X4412200Y25096400D03*
D30*
X4412200Y29296400D03*
D29*
X-4227800Y25096400D03*
D30*
X-4227800Y29296400D03*
%TD*%
D31*
%TO.C,U4*%
X-3400000Y14705000D03*
X-3400000Y13435000D03*
X-3400000Y12165000D03*
X-3400000Y10895000D03*
X-10600000Y10895000D03*
X-10600000Y12165000D03*
X-10600000Y13435000D03*
X-10600000Y14705000D03*
%TD*%
D32*
%TO.C,R11*%
X-6900000Y18920000D03*
X-6900000Y17900000D03*
%TD*%
D33*
%TO.C,R13*%
X-9210000Y17900000D03*
X-8190000Y17900000D03*
%TD*%
D34*
%TO.C,C22*%
X-10920000Y17900000D03*
X-11880000Y17900000D03*
%TD*%
%LPD*%
M02*
