M48
; DRILL file {KiCad 9.0.7} date 2026-02-11T15:04:46-0800
; FORMAT={-:-/ absolute / inch / decimal}
; #@! TF.CreationDate,2026-02-11T15:04:46-08:00
; #@! TF.GenerationSoftware,Kicad,Pcbnew,9.0.7
; #@! TF.FileFunction,Plated,1,4,PTH
FMAT,2
INCH
; #@! TA.AperFunction,Plated,PTH,ViaDrill
T1C0.0098
; #@! TA.AperFunction,Plated,PTH,ComponentDrill
T2C0.0098
; #@! TA.AperFunction,Plated,PTH,ViaDrill
T3C0.0138
; #@! TA.AperFunction,Plated,PTH,ComponentDrill
T4C0.0236
; #@! TA.AperFunction,Plated,PTH,ComponentDrill
T5C0.0256
; #@! TA.AperFunction,Plated,PTH,ComponentDrill
T6C0.0362
; #@! TA.AperFunction,Plated,PTH,ComponentDrill
T7C0.0394
; #@! TA.AperFunction,Plated,PTH,ComponentDrill
T8C0.0906
%
G90
G05
T1
X-0.5161Y1.0353
X-0.5126Y0.7454
X-0.4173Y0.3937
X-0.3937Y0.7047
X-0.3661Y0.5157
X-0.3661Y0.4646
X-0.363Y0.0079
X-0.3628Y0.1142
X-0.3622Y-0.0866
X-0.3583Y0.748
X-0.2756Y0.3189
X-0.2677Y0.0079
X-0.2323Y-0.2864
X-0.2008Y0.6772
X-0.185Y0.5433
X-0.185Y0.4921
X-0.185Y0.4409
X-0.1063Y-0.4747
X-0.1024Y-0.4102
X-0.0827Y-0.3465
X-0.0394Y0.3937
X0.0315Y-0.2843
X0.0669Y0.2835
X0.0669Y0.2598
X0.0866Y-0.3472
X0.1063Y-0.5377
X0.1102Y-0.4102
X0.1614Y0.2736
X0.1614Y0.25
X0.189Y0.2087
X0.2677Y0.0079
X0.3307Y0.189
X0.3431Y-0.1772
X0.363Y0.0197
X0.363Y-0.0197
X0.3898Y0.4016
X0.5727Y0.8238
X0.5974Y-1.4339
T2
X-0.0446Y0.0446
X-0.0446Y0.0
X-0.0446Y-0.0446
X0.0Y0.0446
X0.0Y0.0
X0.0Y-0.0446
X0.0446Y0.0446
X0.0446Y0.0
X0.0446Y-0.0446
T3
X-1.3465Y-1.3228
X-1.2848Y-1.3502
X-1.269Y0.603
X-1.257Y0.417
X-1.1286Y0.4254
X-1.101Y0.477
X-1.061Y0.475
X-0.905Y0.525
X-0.8701Y0.5748
X-0.855Y0.021
X-0.827Y0.333
X-0.8228Y0.2283
X-0.817Y0.731
X-0.7587Y-0.7742
X-0.7047Y0.5748
X-0.697Y0.099
X-0.6945Y0.0374
X-0.6878Y-1.3537
X-0.6752Y-0.0173
X-0.6746Y-0.2096
X-0.6445Y-0.2362
X-0.6378Y0.5
X-0.6154Y-1.023
X-0.606Y0.747
X-0.4921Y0.7008
X-0.4764Y0.0157
X-0.4528Y-0.0118
X-0.378Y-0.4331
X-0.355Y-0.559
X-0.355Y-1.309
X-0.3543Y-0.2677
X-0.3268Y0.1654
X-0.3228Y-0.4331
X-0.315Y-0.2677
X-0.285Y1.007
X-0.2598Y-1.3553
X-0.2583Y-1.0238
X-0.2559Y-1.686
X-0.2094Y0.7169
X-0.1614Y0.0866
X-0.1614Y-0.0709
X-0.1227Y-0.9427
X-0.1165Y-0.7762
X-0.1024Y-0.1614
X-0.0924Y0.907
X-0.0866Y0.1614
X-0.0236Y-0.1614
X0.0981Y0.9094
X0.1224Y0.1496
X0.1457Y-0.0248
X0.1567Y-0.1508
X0.169Y-0.615
X0.189Y-0.591
X0.203Y-0.395
X0.2347Y-0.9427
X0.2417Y-1.3533
X0.2421Y-0.7736
X0.2425Y-1.8242
X0.3022Y0.6575
X0.3362Y0.4902
X0.3583Y-0.3704
X0.435Y-0.7571
X0.4843Y-0.7559
X0.486Y0.6882
X0.486Y0.6256
X0.486Y0.565
X0.486Y0.4348
X0.5354Y-0.7559
X0.5866Y-0.7559
X0.6039Y0.4929
X0.6319Y0.7512
X0.6355Y-0.7524
T5
X-0.5699Y-0.3553
X-0.5699Y-0.4053
X-0.5699Y-0.4553
X-0.5199Y-0.3553
X-0.5199Y-0.4053
X-0.5199Y-0.4553
T6
X-1.1519Y0.1066
X-1.1519Y0.0082
X-1.1519Y-0.0705
X-1.1519Y-0.169
T7
X-1.5469Y-0.7038
X-1.5469Y-0.8038
X-1.5469Y-0.9038
X-1.5469Y-1.0038
X-1.5469Y-1.1038
X-1.5469Y-1.2038
X-1.5469Y-1.3038
X-1.5469Y-1.4038
X-1.2287Y1.1171
X-1.2287Y1.0171
X-1.1287Y1.1171
X-1.1287Y1.0171
X-1.0287Y1.1171
X-1.0287Y1.0171
X-0.9287Y1.1171
X-0.9287Y1.0171
X-0.8287Y1.1171
X-0.8287Y1.0171
X-0.776Y0.8235
X-0.7287Y1.1171
X-0.7287Y1.0171
X-0.676Y0.8235
X-0.576Y0.8235
X-0.476Y0.8231
X-0.376Y0.8235
X-0.276Y0.8235
X-0.176Y0.8235
X0.4353Y-0.8338
X0.5353Y-0.8338
X0.5734Y0.3061
X0.5734Y0.2061
X0.5734Y0.1061
X0.5734Y0.0061
X0.5734Y-0.0939
X0.5734Y-0.1939
X0.5734Y-0.2939
X0.5734Y-0.3939
X0.5734Y-0.4939
X0.6353Y-0.8338
X0.6734Y0.3061
X0.6734Y0.2061
X0.6734Y0.1061
X0.6734Y0.0061
X0.6734Y-0.0939
X0.6734Y-0.1939
X0.6734Y-0.2939
X0.6734Y-0.3939
X0.6734Y-0.4939
T8
X-1.2586Y0.2275
X-1.2586Y-0.2898
T4
G00X-1.5336Y0.6804
M15
G01X-1.5651Y0.6804
M16
G05
G00X-1.5336Y0.3403
M15
G01X-1.5651Y0.3403
M16
G05
G00X-1.3623Y0.6804
M15
G01X-1.4057Y0.6804
M16
G05
G00X-1.3623Y0.3403
M15
G01X-1.4057Y0.3403
M16
G05
G00X-0.1664Y1.1377
M15
G01X-0.1664Y1.1691
M16
G05
G00X-0.1664Y0.9664
M15
G01X-0.1664Y1.0097
M16
G05
G00X0.1737Y1.1377
M15
G01X0.1737Y1.1691
M16
G05
G00X0.1737Y0.9664
M15
G01X0.1737Y1.0097
M16
G05
M30
