%TF.GenerationSoftware,KiCad,Pcbnew,10.0.1*%
%TF.CreationDate,2026-05-08T00:24:29-07:00*%
%TF.ProjectId,multi-module_controller_PCB,6d756c74-692d-46d6-9f64-756c655f636f,REV3*%
%TF.SameCoordinates,Original*%
%TF.FileFunction,Copper,L4,Bot*%
%TF.FilePolarity,Positive*%
%FSLAX46Y46*%
G04 Gerber Fmt 4.6, Leading zero omitted, Abs format (unit mm)*
G04 Created by KiCad (PCBNEW 10.0.1) date 2026-05-08 00:24:29*
%MOMM*%
%LPD*%
G01*
G04 APERTURE LIST*
G04 Aperture macros list*
%AMRoundRect*
0 Rectangle with rounded corners*
0 $1 Rounding radius*
0 $2 $3 $4 $5 $6 $7 $8 $9 X,Y pos of 4 corners*
0 Add a 4 corners polygon primitive as box body*
4,1,4,$2,$3,$4,$5,$6,$7,$8,$9,$2,$3,0*
0 Add four circle primitives for the rounded corners*
1,1,$1+$1,$2,$3*
1,1,$1+$1,$4,$5*
1,1,$1+$1,$6,$7*
1,1,$1+$1,$8,$9*
0 Add four rect primitives between the rounded corners*
20,1,$1+$1,$2,$3,$4,$5,0*
20,1,$1+$1,$4,$5,$6,$7,0*
20,1,$1+$1,$6,$7,$8,$9,0*
20,1,$1+$1,$8,$9,$2,$3,0*%
G04 Aperture macros list end*
%TA.AperFunction,ComponentPad*%
%ADD10R,1.700000X1.700000*%
%TD*%
%TA.AperFunction,ComponentPad*%
%ADD11C,1.700000*%
%TD*%
%TA.AperFunction,WasherPad*%
%ADD12C,3.800000*%
%TD*%
%TA.AperFunction,ComponentPad*%
%ADD13RoundRect,0.250000X-0.512000X0.512000X-0.512000X-0.512000X0.512000X-0.512000X0.512000X0.512000X0*%
%TD*%
%TA.AperFunction,ComponentPad*%
%ADD14C,1.524000*%
%TD*%
%TA.AperFunction,ComponentPad*%
%ADD15C,3.500000*%
%TD*%
%TA.AperFunction,HeatsinkPad*%
%ADD16O,2.100000X1.000000*%
%TD*%
%TA.AperFunction,HeatsinkPad*%
%ADD17O,1.800000X1.000000*%
%TD*%
%TA.AperFunction,ComponentPad*%
%ADD18R,1.000000X1.000000*%
%TD*%
%TA.AperFunction,ComponentPad*%
%ADD19C,1.000000*%
%TD*%
%TA.AperFunction,ComponentPad*%
%ADD20C,0.600000*%
%TD*%
%TA.AperFunction,HeatsinkPad*%
%ADD21O,1.000000X2.100000*%
%TD*%
%TA.AperFunction,HeatsinkPad*%
%ADD22O,1.000000X1.800000*%
%TD*%
%TA.AperFunction,SMDPad,CuDef*%
%ADD23RoundRect,0.150000X0.650000X0.150000X-0.650000X0.150000X-0.650000X-0.150000X0.650000X-0.150000X0*%
%TD*%
%TA.AperFunction,SMDPad,CuDef*%
%ADD24RoundRect,0.135000X-0.185000X0.135000X-0.185000X-0.135000X0.185000X-0.135000X0.185000X0.135000X0*%
%TD*%
%TA.AperFunction,SMDPad,CuDef*%
%ADD25RoundRect,0.135000X-0.135000X-0.185000X0.135000X-0.185000X0.135000X0.185000X-0.135000X0.185000X0*%
%TD*%
%TA.AperFunction,SMDPad,CuDef*%
%ADD26RoundRect,0.140000X0.140000X0.170000X-0.140000X0.170000X-0.140000X-0.170000X0.140000X-0.170000X0*%
%TD*%
%TA.AperFunction,ViaPad*%
%ADD27C,0.600000*%
%TD*%
%TA.AperFunction,Conductor*%
%ADD28C,0.150000*%
%TD*%
%TA.AperFunction,Conductor*%
%ADD29C,1.000000*%
%TD*%
%TA.AperFunction,Conductor*%
%ADD30C,0.400000*%
%TD*%
%TA.AperFunction,Conductor*%
%ADD31C,0.600000*%
%TD*%
G04 APERTURE END LIST*
D10*
%TO.P,J9,1,Pin_1_1*%
%TO.N,+3V3*%
X14565000Y7775000D03*
D11*
%TO.P,J9,2,Pin_2_2*%
%TO.N,VBUS*%
X17105000Y7775000D03*
%TO.P,J9,3,Pin_3_3*%
%TO.N,GND*%
X14565000Y5235000D03*
%TO.P,J9,4,Pin_4_4*%
X17105000Y5235000D03*
%TO.P,J9,5,Pin_5_5*%
%TO.N,/GPIO46_ADC6*%
X14565000Y2695000D03*
%TO.P,J9,6,Pin_6_6*%
%TO.N,/GPIO47_ADC7*%
X17105000Y2695000D03*
%TO.P,J9,7,Pin_7_7*%
%TO.N,/GPIO44_ADC4*%
X14565000Y155000D03*
%TO.P,J9,8,Pin_8_8*%
%TO.N,/GPIO45_ADC5*%
X17105000Y155000D03*
%TO.P,J9,9,Pin_9_9*%
%TO.N,/GPIO42_ADC2*%
X14565000Y-2385000D03*
%TO.P,J9,10,Pin_10_10*%
%TO.N,/GPIO43_ADC3*%
X17105000Y-2385000D03*
%TO.P,J9,11,Pin_11_11*%
%TO.N,/GPIO40_ADC0*%
X14565000Y-4925000D03*
%TO.P,J9,12,Pin_12_12*%
%TO.N,/GPIO41_ADC1*%
X17105000Y-4925000D03*
%TO.P,J9,13,Pin_13_13*%
%TO.N,/GPIO38*%
X14565000Y-7465000D03*
%TO.P,J9,14,Pin_14_14*%
%TO.N,/GPIO39*%
X17105000Y-7465000D03*
%TO.P,J9,15,Pin_15_15*%
%TO.N,/GPIO36*%
X14565000Y-10005000D03*
%TO.P,J9,16,Pin_16_16*%
%TO.N,/GPIO37*%
X17105000Y-10005000D03*
%TO.P,J9,17,Pin_17_17*%
%TO.N,/GPIO34*%
X14565000Y-12545000D03*
%TO.P,J9,18,Pin_18_18*%
%TO.N,/GPIO35*%
X17105000Y-12545000D03*
%TD*%
D10*
%TO.P,J4,1,Pin_1_1*%
%TO.N,/SWCLK*%
X11055800Y-21178200D03*
D11*
%TO.P,J4,2,Pin_2_2*%
%TO.N,GND*%
X13595800Y-21178200D03*
%TO.P,J4,3,Pin_3_3*%
%TO.N,/SWD*%
X16135800Y-21178200D03*
%TD*%
D12*
%TO.P,DS1,*%
%TO.N,*%
X-31140000Y20915800D03*
X-31140000Y-12104200D03*
X6960000Y20915800D03*
X6960000Y-12104200D03*
D10*
%TO.P,DS1,1,RST_1*%
%TO.N,/GPIO5*%
X-19710000Y20915800D03*
D11*
%TO.P,DS1,2,DC_2*%
%TO.N,/GPIO4*%
X-17170000Y20915800D03*
%TO.P,DS1,3,CS_3*%
%TO.N,/GPIO1*%
X-14630000Y20915800D03*
%TO.P,DS1,4,CLK_4*%
%TO.N,/GPIO2*%
X-12090000Y20905800D03*
%TO.P,DS1,5,DIN_5*%
%TO.N,/GPIO3*%
X-9550000Y20915800D03*
%TO.P,DS1,6,GND_6*%
%TO.N,GND*%
X-7010000Y20915800D03*
%TO.P,DS1,7,VCC_7*%
%TO.N,+3V3*%
X-4470000Y20915800D03*
%TD*%
D13*
%TO.P,J8,1,VBUS_1*%
%TO.N,Net-(J8-VBUS)*%
X-29257200Y2708200D03*
D14*
%TO.P,J8,2,D-_2*%
%TO.N,Net-(J8-D-)*%
X-29257200Y208200D03*
%TO.P,J8,3,D+_3*%
%TO.N,Net-(J8-D+)*%
X-29257200Y-1791800D03*
%TO.P,J8,4,GND_4*%
%TO.N,GND*%
X-29257200Y-4291800D03*
D15*
%TO.P,J8,5,Shield_5*%
X-31967200Y5778200D03*
X-31967200Y-7361800D03*
%TD*%
D16*
%TO.P,J6,S1,SHIELD_S1*%
%TO.N,GND*%
X-35153600Y17283400D03*
D17*
X-39353600Y17283400D03*
D16*
X-35153600Y8643400D03*
D17*
X-39353600Y8643400D03*
%TD*%
D10*
%TO.P,J1,1,Pin_1_1*%
%TO.N,GND*%
X-31210000Y28375000D03*
D11*
%TO.P,J1,2,Pin_2_2*%
%TO.N,VBUS*%
X-31210000Y25835000D03*
%TO.P,J1,3,Pin_3_3*%
%TO.N,GND*%
X-28670000Y28375000D03*
%TO.P,J1,4,Pin_4_4*%
%TO.N,VBUS*%
X-28670000Y25835000D03*
%TO.P,J1,5,Pin_5_5*%
%TO.N,GND*%
X-26130000Y28375000D03*
%TO.P,J1,6,Pin_6_6*%
%TO.N,VBUS*%
X-26130000Y25835000D03*
%TO.P,J1,7,Pin_7_7*%
%TO.N,GND*%
X-23590000Y28375000D03*
%TO.P,J1,8,Pin_8_8*%
%TO.N,+3V3*%
X-23590000Y25835000D03*
%TO.P,J1,9,Pin_9_9*%
%TO.N,GND*%
X-21050000Y28375000D03*
%TO.P,J1,10,Pin_10_10*%
%TO.N,+3V3*%
X-21050000Y25835000D03*
%TO.P,J1,11,Pin_11_11*%
%TO.N,GND*%
X-18510000Y28375000D03*
%TO.P,J1,12,Pin_12_12*%
%TO.N,+3V3*%
X-18510000Y25835000D03*
%TD*%
D18*
%TO.P,J10,1,Pin_1_1*%
%TO.N,GND*%
X-13205000Y-11565000D03*
D19*
%TO.P,J10,2,Pin_2_2*%
%TO.N,/GPIO18*%
X-14475000Y-11565000D03*
%TO.P,J10,3,Pin_3_3*%
%TO.N,/GPIO17*%
X-13205000Y-10295000D03*
%TO.P,J10,4,Pin_4_4*%
%TO.N,/GPIO19*%
X-14475000Y-10295000D03*
%TO.P,J10,5,Pin_5_5*%
%TO.N,/GPIO21*%
X-13205000Y-9025000D03*
%TO.P,J10,6,Pin_6_6*%
%TO.N,/GPIO20*%
X-14475000Y-9025000D03*
%TD*%
D20*
%TO.P,U1,81,GND_81*%
%TO.N,GND*%
X-1133333Y1133333D03*
X-1133333Y0D03*
X-1133333Y-1133333D03*
X0Y1133333D03*
X0Y0D03*
X0Y-1133333D03*
X1133333Y1133333D03*
X1133333Y0D03*
X1133333Y-1133333D03*
%TD*%
D10*
%TO.P,J7,1,Pin_1_1*%
%TO.N,Net-(J7-Pin_1)*%
X-39300000Y-43260000D03*
D11*
%TO.P,J7,2,Pin_2_2*%
%TO.N,GND*%
X-39300000Y-40720000D03*
%TO.P,J7,3,Pin_3_3*%
%TO.N,VBUS*%
X-39300000Y-38180000D03*
%TO.P,J7,4,Pin_4_4*%
%TO.N,Net-(J7-Pin_4)*%
X-39300000Y-35640000D03*
%TO.P,J7,5,Pin_5_5*%
%TO.N,Net-(J7-Pin_5)*%
X-39300000Y-33100000D03*
%TO.P,J7,6,Pin_6_6*%
%TO.N,unconnected-(J7-Pin_6-Pad6)*%
X-39300000Y-30560000D03*
%TO.P,J7,7,Pin_7_7*%
%TO.N,unconnected-(J7-Pin_7-Pad7)*%
X-39300000Y-28020000D03*
%TO.P,J7,8,Pin_8_8*%
%TO.N,unconnected-(J7-Pin_8-Pad8)*%
X-39300000Y-25480000D03*
%TD*%
D21*
%TO.P,J5,S1,SHIELD_S1*%
%TO.N,GND*%
X4412200Y25096400D03*
D22*
X4412200Y29296400D03*
D21*
X-4227800Y25096400D03*
D22*
X-4227800Y29296400D03*
%TD*%
D23*
%TO.P,U4,1,~{CS}_1*%
%TO.N,/FLASH2_SS*%
X-3400000Y14705000D03*
%TO.P,U4,2,DO(IO1)_2*%
%TO.N,/QSPI_SD1*%
X-3400000Y13435000D03*
%TO.P,U4,3,IO2_3*%
%TO.N,/QSPI_SD2*%
X-3400000Y12165000D03*
%TO.P,U4,4,GND_4*%
%TO.N,GND*%
X-3400000Y10895000D03*
%TO.P,U4,5,DI(IO0)_5*%
%TO.N,/QSPI_SD0*%
X-10600000Y10895000D03*
%TO.P,U4,6,CLK_6*%
%TO.N,/QSPI_SCLK*%
X-10600000Y12165000D03*
%TO.P,U4,7,IO3_7*%
%TO.N,/QSPI_SD3*%
X-10600000Y13435000D03*
%TO.P,U4,8,VCC_8*%
%TO.N,+3V3*%
X-10600000Y14705000D03*
%TD*%
D24*
%TO.P,R11,1*%
%TO.N,/GPIO0*%
X-6900000Y18920000D03*
%TO.P,R11,2*%
%TO.N,/FLASH2_SS*%
X-6900000Y17900000D03*
%TD*%
D25*
%TO.P,R13,1*%
%TO.N,+3V3*%
X-9210000Y17900000D03*
%TO.P,R13,2*%
%TO.N,/FLASH2_SS*%
X-8190000Y17900000D03*
%TD*%
D26*
%TO.P,C22,1*%
%TO.N,+3V3*%
X-10920000Y17900000D03*
%TO.P,C22,2*%
%TO.N,GND*%
X-11880000Y17900000D03*
%TD*%
D27*
%TO.N,+3V3*%
X8539000Y12451000D03*
X12343400Y11043400D03*
X3980000Y-3830000D03*
X-9600000Y-11000000D03*
X-4100000Y2200000D03*
X-5320000Y18210000D03*
X12343400Y14350000D03*
X-8200000Y-11000000D03*
X-2600000Y-4100000D03*
X-10000000Y17900000D03*
X-16200000Y12700000D03*
X12343400Y15890000D03*
X-2200000Y4100000D03*
X3110000Y3800000D03*
X12343400Y17480000D03*
X-600000Y-4100000D03*
X15340000Y12520000D03*
X-4100000Y-1800000D03*
X3700000Y-630000D03*
%TO.N,GND*%
X2700000Y-13657000D03*
X-2700000Y-12057000D03*
X-2100000Y-8800000D03*
X6160000Y-46335000D03*
X-15630000Y-25985000D03*
X-12500000Y17800000D03*
X-20752000Y18567600D03*
X15173200Y-36420000D03*
X-8000000Y-6800000D03*
X-5100000Y17200000D03*
X-5900000Y-7275500D03*
X14547400Y20924400D03*
X6140000Y-34375000D03*
X-1000000Y10000000D03*
X14900000Y-19200000D03*
X12300000Y-19200000D03*
X-17470000Y-34385000D03*
X-22987200Y13335200D03*
X2200000Y-8820000D03*
X4100000Y6350000D03*
X6150000Y-19650000D03*
X-10600000Y10000000D03*
X-6560000Y-26005000D03*
X-9220000Y200000D03*
X-6500000Y-42825000D03*
X9900000Y10200000D03*
X2800000Y-10420000D03*
X8715000Y-4500000D03*
X-21006000Y8458400D03*
X9220000Y-500000D03*
X4100000Y6950000D03*
X8400000Y4800000D03*
X-19270000Y-19665000D03*
X13600000Y-19200000D03*
X-17704000Y2514800D03*
X9220000Y500000D03*
X-9215000Y2900000D03*
X-2600000Y-10420000D03*
X-9000000Y-6800000D03*
X-9200000Y-2200000D03*
X16050000Y19080000D03*
X-7000000Y8100000D03*
X-2960000Y-19715000D03*
X4800000Y5300000D03*
X-6600000Y-34425000D03*
X-13109800Y26296600D03*
%TO.N,VBUS*%
X2492200Y23100000D03*
X-21717200Y533600D03*
X-26949600Y12065200D03*
X-2347900Y23037900D03*
X7675000Y16700000D03*
%TO.N,/QSPI_SD1*%
X-9300000Y13100000D03*
%TO.N,/QSPI_SD2*%
X-9300000Y11800000D03*
%TO.N,/QSPI_SD0*%
X-4700000Y11200000D03*
%TO.N,/QSPI_SCLK*%
X-4700000Y12500000D03*
%TO.N,/QSPI_SD3*%
X-4700000Y13800000D03*
%TO.N,/GPIO30*%
X-3117600Y-23945200D03*
X5962000Y-23945200D03*
%TO.N,/SWCLK*%
X4292400Y-15620800D03*
X11048800Y-19230400D03*
%TO.N,/SWD*%
X4800400Y-15011200D03*
X16142800Y-19111200D03*
%TO.N,/GPIO3*%
X-15392600Y18974000D03*
%TO.N,Net-(J8-VBUS)*%
X-27965600Y12116000D03*
%TO.N,+1V1*%
X6800000Y200000D03*
X1700000Y6600000D03*
X800000Y-7220000D03*
X-6800000Y200000D03*
X1700000Y7200000D03*
%TO.N,/GPIO12*%
X-12100000Y400000D03*
X-34209800Y-42103400D03*
%TO.N,Net-(U6-OUTA)*%
X-32232800Y15316400D03*
X-31928000Y10592000D03*
X-28666600Y10805400D03*
%TO.N,/GPIO7*%
X-20900000Y5800000D03*
X-8300000Y4200000D03*
%TO.N,/GPIO13*%
X-11500000Y-300000D03*
X-32644800Y-41898400D03*
%TO.N,/GPIO0*%
X-13018800Y18932000D03*
X-9100000Y19000000D03*
%TO.N,/GPIO26*%
X-9017200Y-33248400D03*
X-9017200Y-14198400D03*
%TO.N,/GPIO23*%
X-16370000Y-6000000D03*
X-17640000Y950000D03*
%TO.N,/GPIO22*%
X-17135322Y-5324678D03*
X-17150000Y-440000D03*
%TO.N,/GPIO11*%
X-17900000Y14600000D03*
X-22100000Y14600000D03*
%TO.N,/RUN*%
X10000000Y-8800000D03*
X5156000Y-10032800D03*
%TD*%
%TO.N,+3V3*%
D28*
X-10920000Y17220000D02*
X-10600000Y16900000D01*
X-10920000Y17900000D02*
X-10000000Y17900000D01*
X-10920000Y17900000D02*
X-10920000Y17220000D01*
D29*
X-23590000Y25835000D02*
X-21050000Y25835000D01*
D28*
X-10600000Y16900000D02*
X-10600000Y14705000D01*
D29*
X-18510000Y25835000D02*
X-21050000Y25835000D01*
D28*
X-9210000Y17900000D02*
X-10000000Y17900000D01*
%TO.N,GND*%
X-3400000Y10895000D02*
X-1895000Y10895000D01*
X-11880000Y17900000D02*
X-12400000Y17900000D01*
X-1895000Y10895000D02*
X-1000000Y10000000D01*
D29*
X-31210000Y28375000D02*
X-23590000Y28375000D01*
D28*
X-12400000Y17900000D02*
X-12500000Y17800000D01*
D29*
X-18510000Y28375000D02*
X-23590000Y28375000D01*
%TO.N,VBUS*%
X16905000Y8977081D02*
X16905000Y7975000D01*
X-26949600Y12065200D02*
X-26949600Y9474400D01*
X16905000Y7975000D02*
X17105000Y7775000D01*
X10851000Y11190882D02*
X11949482Y10092400D01*
X-21717200Y-7617200D02*
X-37106800Y-23006800D01*
X-26130000Y25835000D02*
X-28670000Y25835000D01*
X2492200Y23100000D02*
X-2285800Y23100000D01*
X-22163900Y21463900D02*
X-26949600Y16678200D01*
X-26949600Y16678200D02*
X-26949600Y12065200D01*
X-37106800Y-23006800D02*
X-37106800Y-29400400D01*
X-22163900Y21868900D02*
X-26130000Y25835000D01*
X-37106800Y-29400400D02*
X-37116600Y-29410200D01*
X-21717200Y533600D02*
X-21717200Y-7617200D01*
X-31210000Y25835000D02*
X-28670000Y25835000D01*
X-37116600Y-29410200D02*
X-37116600Y-35996600D01*
X-37116600Y-35996600D02*
X-39300000Y-38180000D01*
X10851000Y13524000D02*
X10851000Y11190882D01*
X-26949600Y9474400D02*
X-21717200Y4242000D01*
X11949482Y10092400D02*
X15789681Y10092400D01*
X7675000Y16700000D02*
X10851000Y13524000D01*
X-20285000Y23342800D02*
X-22163900Y21463900D01*
X15789681Y10092400D02*
X16905000Y8977081D01*
X-21717200Y4242000D02*
X-21717200Y533600D01*
X-2347900Y23037900D02*
X-2652800Y23342800D01*
X-2652800Y23342800D02*
X-20285000Y23342800D01*
X-22163900Y21463900D02*
X-22163900Y21868900D01*
%TO.N,/QSPI_SD1*%
D28*
X-9300000Y13100000D02*
X-4300000Y13100000D01*
X-3435000Y13400000D02*
X-3400000Y13435000D01*
X-4300000Y13100000D02*
X-4000000Y13400000D01*
X-4000000Y13400000D02*
X-3435000Y13400000D01*
%TO.N,/QSPI_SD2*%
X-9275000Y11775000D02*
X-4307500Y11775000D01*
X-4307500Y11775000D02*
X-3917500Y12165000D01*
X-9300000Y11800000D02*
X-9275000Y11775000D01*
X-3917500Y12165000D02*
X-3400000Y12165000D01*
%TO.N,/QSPI_SD0*%
X-5005000Y10895000D02*
X-10600000Y10895000D01*
X-4700000Y11200000D02*
X-5005000Y10895000D01*
%TO.N,/QSPI_SCLK*%
X-9700000Y12500000D02*
X-10035000Y12165000D01*
X-4700000Y12500000D02*
X-9700000Y12500000D01*
X-10035000Y12165000D02*
X-10600000Y12165000D01*
%TO.N,/QSPI_SD3*%
X-9700000Y13800000D02*
X-10065000Y13435000D01*
X-10065000Y13435000D02*
X-10600000Y13435000D01*
X-4700000Y13800000D02*
X-9700000Y13800000D01*
%TO.N,/GPIO30*%
X5962000Y-23945200D02*
X-3117600Y-23945200D01*
%TO.N,/SWCLK*%
X10220800Y-15620800D02*
X11048800Y-16448800D01*
X4292400Y-15620800D02*
X10220800Y-15620800D01*
X11048800Y-16448800D02*
X11048800Y-19230400D01*
%TO.N,/SWD*%
X16142800Y-16911200D02*
X16142800Y-19111200D01*
X14242800Y-15011200D02*
X16142800Y-16911200D01*
X4800400Y-15011200D02*
X14242800Y-15011200D01*
X16100000Y-19068400D02*
X16142800Y-19111200D01*
%TO.N,/GPIO3*%
X-10882200Y19583600D02*
X-9550000Y20915800D01*
X-15392600Y18974000D02*
X-14783000Y19583600D01*
X-14783000Y19583600D02*
X-10882200Y19583600D01*
%TO.N,Net-(J8-VBUS)*%
D30*
X-27965600Y3999800D02*
X-29257200Y2708200D01*
X-27965600Y12116000D02*
X-27965600Y3999800D01*
X-27957200Y12107600D02*
X-27965600Y12116000D01*
%TO.N,+1V1*%
D31*
X-2200000Y200000D02*
X-6800000Y200000D01*
X800000Y-2300000D02*
X800000Y-7220000D01*
X1700000Y7200000D02*
X1700000Y2200000D01*
X2300000Y200000D02*
X6800000Y200000D01*
%TO.N,/GPIO12*%
D28*
X-34209800Y-42103400D02*
X-34103400Y-42103400D01*
X-29600000Y-29000000D02*
X-29600000Y-20300000D01*
X-29600000Y-20300000D02*
X-18600000Y-9300000D01*
X-33150000Y-41150000D02*
X-33150000Y-32550000D01*
X-33150000Y-32550000D02*
X-29600000Y-29000000D01*
X-18200000Y-9300000D02*
X-12100000Y-3200000D01*
X-34103400Y-42103400D02*
X-33150000Y-41150000D01*
X-18600000Y-9300000D02*
X-18200000Y-9300000D01*
X-12100000Y-3200000D02*
X-12100000Y400000D01*
%TO.N,Net-(U6-OUTA)*%
D30*
X-31714600Y10805400D02*
X-31714600Y14798200D01*
X-31714600Y14798200D02*
X-32232800Y15316400D01*
X-31714600Y10805400D02*
X-31928000Y10592000D01*
X-28666600Y10805400D02*
X-31714600Y10805400D01*
%TO.N,/GPIO7*%
D28*
X-20300000Y5200000D02*
X-20900000Y5800000D01*
X-9300000Y5200000D02*
X-20300000Y5200000D01*
X-8300000Y4200000D02*
X-9300000Y5200000D01*
%TO.N,/GPIO13*%
X-29000000Y-29400000D02*
X-29000000Y-21000000D01*
X-29800000Y-30179800D02*
X-29779800Y-30179800D01*
X-29000000Y-21000000D02*
X-11500000Y-3500000D01*
X-32709800Y-41803400D02*
X-32709800Y-33089600D01*
X-29779800Y-30179800D02*
X-29000000Y-29400000D01*
X-11500000Y-3500000D02*
X-11500000Y-300000D01*
X-11500000Y-300000D02*
X-11500000Y-200000D01*
X-32709800Y-33089600D02*
X-29800000Y-30179800D01*
%TO.N,/GPIO0*%
X-9100000Y19000000D02*
X-12900000Y19000000D01*
X-9100000Y19000000D02*
X-6980000Y19000000D01*
X-6980000Y19000000D02*
X-6900000Y18920000D01*
%TO.N,/GPIO26*%
X-9017200Y-14198400D02*
X-9017200Y-33248400D01*
%TO.N,/GPIO23*%
X-16370000Y-320000D02*
X-17640000Y950000D01*
X-16370000Y-6000000D02*
X-16370000Y-320000D01*
%TO.N,/GPIO22*%
X-17135322Y-454678D02*
X-17150000Y-440000D01*
X-17135322Y-5324678D02*
X-17135322Y-454678D01*
%TO.N,/GPIO11*%
X-22100000Y14600000D02*
X-17900000Y14600000D01*
%TO.N,/RUN*%
X9392200Y-9407800D02*
X5781000Y-9407800D01*
X10000000Y-8800000D02*
X9392200Y-9407800D01*
X5781000Y-9407800D02*
X5156000Y-10032800D01*
%TO.N,/FLASH2_SS*%
X-6900000Y17900000D02*
X-6900000Y15500000D01*
X-6900000Y17900000D02*
X-8190000Y17900000D01*
X-6900000Y15500000D02*
X-6105000Y14705000D01*
X-6105000Y14705000D02*
X-3400000Y14705000D01*
%TD*%
%TA.AperFunction,Conductor*%
%TO.N,+1V1*%
G36*
X2559191Y2581093D02*
G01*
X2595155Y2531593D01*
X2600000Y2501000D01*
X2600000Y-2501000D01*
X2581093Y-2559191D01*
X2531593Y-2595155D01*
X2501000Y-2600000D01*
X-2501000Y-2600000D01*
X-2559191Y-2581093D01*
X-2595155Y-2531593D01*
X-2600000Y-2501000D01*
X-2600000Y1199225D01*
X-1633833Y1199225D01*
X-1633833Y1067441D01*
X-1619755Y1014901D01*
X-1599724Y940143D01*
X-1533837Y826024D01*
X-1533835Y826022D01*
X-1533833Y826019D01*
X-1440647Y732833D01*
X-1440645Y732832D01*
X-1440643Y732830D01*
X-1326523Y666943D01*
X-1326522Y666943D01*
X-1326519Y666941D01*
X-1309173Y662294D01*
X-1257859Y628971D01*
X-1235932Y571850D01*
X-1251767Y512749D01*
X-1299316Y474243D01*
X-1309170Y471041D01*
X-1326522Y466392D01*
X-1326523Y466391D01*
X-1440643Y400504D01*
X-1533837Y307310D01*
X-1599724Y193191D01*
X-1599725Y193186D01*
X-1633833Y65892D01*
X-1633833Y-65892D01*
X-1619755Y-118432D01*
X-1599724Y-193190D01*
X-1533837Y-307309D01*
X-1533835Y-307311D01*
X-1533833Y-307314D01*
X-1440647Y-400500D01*
X-1440645Y-400501D01*
X-1440643Y-400503D01*
X-1326523Y-466390D01*
X-1326522Y-466390D01*
X-1326519Y-466392D01*
X-1309173Y-471039D01*
X-1257859Y-504362D01*
X-1235932Y-561483D01*
X-1251767Y-620584D01*
X-1299316Y-659090D01*
X-1309170Y-662292D01*
X-1326522Y-666941D01*
X-1326523Y-666942D01*
X-1440643Y-732829D01*
X-1533837Y-826023D01*
X-1599724Y-940142D01*
X-1599725Y-940147D01*
X-1633833Y-1067441D01*
X-1633833Y-1199225D01*
X-1619755Y-1251765D01*
X-1599724Y-1326523D01*
X-1533837Y-1440642D01*
X-1533835Y-1440644D01*
X-1533833Y-1440647D01*
X-1440647Y-1533833D01*
X-1440645Y-1533834D01*
X-1440643Y-1533836D01*
X-1326523Y-1599723D01*
X-1326525Y-1599723D01*
X-1326521Y-1599724D01*
X-1326519Y-1599725D01*
X-1199225Y-1633833D01*
X-1199223Y-1633833D01*
X-1067443Y-1633833D01*
X-1067441Y-1633833D01*
X-940147Y-1599725D01*
X-940145Y-1599723D01*
X-940143Y-1599723D01*
X-826024Y-1533836D01*
X-826024Y-1533835D01*
X-826019Y-1533833D01*
X-732833Y-1440647D01*
X-666941Y-1326519D01*
X-662294Y-1309172D01*
X-628972Y-1257859D01*
X-571851Y-1235931D01*
X-512750Y-1251765D01*
X-474243Y-1299314D01*
X-471041Y-1309170D01*
X-466392Y-1326520D01*
X-466391Y-1326522D01*
X-400504Y-1440642D01*
X-400502Y-1440644D01*
X-400500Y-1440647D01*
X-307314Y-1533833D01*
X-307312Y-1533834D01*
X-307310Y-1533836D01*
X-193190Y-1599723D01*
X-193192Y-1599723D01*
X-193188Y-1599724D01*
X-193186Y-1599725D01*
X-65892Y-1633833D01*
X-65890Y-1633833D01*
X65890Y-1633833D01*
X65892Y-1633833D01*
X193186Y-1599725D01*
X193188Y-1599723D01*
X193190Y-1599723D01*
X307309Y-1533836D01*
X307309Y-1533835D01*
X307314Y-1533833D01*
X400500Y-1440647D01*
X466392Y-1326519D01*
X471039Y-1309172D01*
X504361Y-1257859D01*
X561482Y-1235931D01*
X620583Y-1251765D01*
X659090Y-1299314D01*
X662292Y-1309170D01*
X666941Y-1326520D01*
X666942Y-1326522D01*
X732829Y-1440642D01*
X732831Y-1440644D01*
X732833Y-1440647D01*
X826019Y-1533833D01*
X826021Y-1533834D01*
X826023Y-1533836D01*
X940143Y-1599723D01*
X940141Y-1599723D01*
X940145Y-1599724D01*
X940147Y-1599725D01*
X1067441Y-1633833D01*
X1067443Y-1633833D01*
X1199223Y-1633833D01*
X1199225Y-1633833D01*
X1326519Y-1599725D01*
X1326521Y-1599723D01*
X1326523Y-1599723D01*
X1440642Y-1533836D01*
X1440642Y-1533835D01*
X1440647Y-1533833D01*
X1533833Y-1440647D01*
X1599725Y-1326519D01*
X1633833Y-1199225D01*
X1633833Y-1067441D01*
X1599725Y-940147D01*
X1599723Y-940144D01*
X1599723Y-940142D01*
X1533836Y-826023D01*
X1533834Y-826021D01*
X1533833Y-826019D01*
X1440647Y-732833D01*
X1440644Y-732831D01*
X1440642Y-732829D01*
X1326522Y-666942D01*
X1326520Y-666941D01*
X1309170Y-662292D01*
X1257857Y-628968D01*
X1235931Y-571846D01*
X1251767Y-512745D01*
X1299318Y-474241D01*
X1309164Y-471042D01*
X1326519Y-466392D01*
X1440647Y-400500D01*
X1533833Y-307314D01*
X1599725Y-193186D01*
X1633833Y-65892D01*
X1633833Y65892D01*
X1599725Y193186D01*
X1599723Y193189D01*
X1599723Y193191D01*
X1533836Y307310D01*
X1533834Y307312D01*
X1533833Y307314D01*
X1440647Y400500D01*
X1440644Y400502D01*
X1440642Y400504D01*
X1326522Y466391D01*
X1326520Y466392D01*
X1309170Y471041D01*
X1257857Y504365D01*
X1235931Y561487D01*
X1251767Y620588D01*
X1299318Y659092D01*
X1309164Y662291D01*
X1326519Y666941D01*
X1440647Y732833D01*
X1533833Y826019D01*
X1599725Y940147D01*
X1633833Y1067441D01*
X1633833Y1199225D01*
X1599725Y1326519D01*
X1599723Y1326522D01*
X1599723Y1326524D01*
X1533836Y1440643D01*
X1533834Y1440645D01*
X1533833Y1440647D01*
X1440647Y1533833D01*
X1440644Y1533835D01*
X1440642Y1533837D01*
X1326522Y1599724D01*
X1326524Y1599724D01*
X1277132Y1612958D01*
X1199225Y1633833D01*
X1067441Y1633833D01*
X989533Y1612958D01*
X940142Y1599724D01*
X826023Y1533837D01*
X732829Y1440643D01*
X666942Y1326523D01*
X666941Y1326522D01*
X662292Y1309170D01*
X628967Y1257857D01*
X571845Y1235932D01*
X512745Y1251769D01*
X474241Y1299320D01*
X471042Y1309165D01*
X466392Y1326519D01*
X466389Y1326524D01*
X400503Y1440643D01*
X400501Y1440645D01*
X400500Y1440647D01*
X307314Y1533833D01*
X307311Y1533835D01*
X307309Y1533837D01*
X193189Y1599724D01*
X193191Y1599724D01*
X143799Y1612958D01*
X65892Y1633833D01*
X-65892Y1633833D01*
X-143800Y1612958D01*
X-193191Y1599724D01*
X-307310Y1533837D01*
X-400504Y1440643D01*
X-466391Y1326523D01*
X-466392Y1326522D01*
X-471041Y1309170D01*
X-504366Y1257857D01*
X-561488Y1235932D01*
X-620588Y1251769D01*
X-659092Y1299320D01*
X-662291Y1309165D01*
X-666941Y1326519D01*
X-666944Y1326524D01*
X-732830Y1440643D01*
X-732832Y1440645D01*
X-732833Y1440647D01*
X-826019Y1533833D01*
X-826022Y1533835D01*
X-826024Y1533837D01*
X-940144Y1599724D01*
X-940142Y1599724D01*
X-989534Y1612958D01*
X-1067441Y1633833D01*
X-1199225Y1633833D01*
X-1277133Y1612958D01*
X-1326524Y1599724D01*
X-1440643Y1533837D01*
X-1533837Y1440643D01*
X-1599724Y1326524D01*
X-1599725Y1326519D01*
X-1633833Y1199225D01*
X-2600000Y1199225D01*
X-2600000Y2501000D01*
X-2581093Y2559191D01*
X-2531593Y2595155D01*
X-2501000Y2600000D01*
X2501000Y2600000D01*
X2559191Y2581093D01*
G37*
%TD.AperFunction*%
%TD*%
M02*
