%TF.GenerationSoftware,KiCad,Pcbnew,9.0.6*%
%TF.CreationDate,2025-12-18T17:51:45-08:00*%
%TF.ProjectId,multi-module_controller_PCB,6d756c74-692d-46d6-9f64-756c655f636f,REV3*%
%TF.SameCoordinates,Original*%
%TF.FileFunction,Soldermask,Bot*%
%TF.FilePolarity,Negative*%
%FSLAX46Y46*%
G04 Gerber Fmt 4.6, Leading zero omitted, Abs format (unit mm)*
G04 Created by KiCad (PCBNEW 9.0.6) date 2025-12-18 17:51:45*
%MOMM*%
%LPD*%
G01*
G04 APERTURE LIST*
G04 Aperture macros list*
%AMRoundRect*
0 Rectangle with rounded corners*
0 $1 Rounding radius*
0 $2 $3 $4 $5 $6 $7 $8 $9 X,Y pos of 4 corners*
0 Add a 4 corners polygon primitive as box body*
4,1,4,$2,$3,$4,$5,$6,$7,$8,$9,$2,$3,0*
0 Add four circle primitives for the rounded corners*
1,1,$1+$1,$2,$3*
1,1,$1+$1,$4,$5*
1,1,$1+$1,$6,$7*
1,1,$1+$1,$8,$9*
0 Add four rect primitives between the rounded corners*
20,1,$1+$1,$2,$3,$4,$5,0*
20,1,$1+$1,$4,$5,$6,$7,0*
20,1,$1+$1,$6,$7,$8,$9,0*
20,1,$1+$1,$8,$9,$2,$3,0*%
G04 Aperture macros list end*
%ADD10C,2.760000*%
%ADD11RoundRect,0.030000X-0.850000X-0.850000X0.850000X-0.850000X0.850000X0.850000X-0.850000X0.850000X0*%
%ADD12C,1.760000*%
%ADD13RoundRect,0.030000X0.850000X-0.850000X0.850000X0.850000X-0.850000X0.850000X-0.850000X-0.850000X0*%
%ADD14C,2.560000*%
%ADD15RoundRect,0.259843X-0.532157X0.532157X-0.532157X-0.532157X0.532157X-0.532157X0.532157X0.532157X0*%
%ADD16C,1.584000*%
%ADD17C,3.560000*%
%ADD18C,0.710000*%
%ADD19O,2.160000X1.060000*%
%ADD20O,1.860000X1.060000*%
%ADD21RoundRect,0.030000X0.500000X0.500000X-0.500000X0.500000X-0.500000X-0.500000X0.500000X-0.500000X0*%
%ADD22C,1.060000*%
%ADD23C,0.660000*%
%ADD24RoundRect,0.030000X0.850000X0.850000X-0.850000X0.850000X-0.850000X-0.850000X0.850000X-0.850000X0*%
%ADD25O,1.060000X2.160000*%
%ADD26O,1.060000X1.860000*%
%ADD27RoundRect,0.165000X0.665000X0.165000X-0.665000X0.165000X-0.665000X-0.165000X0.665000X-0.165000X0*%
%ADD28RoundRect,0.150000X-0.200000X0.150000X-0.200000X-0.150000X0.200000X-0.150000X0.200000X0.150000X0*%
%ADD29RoundRect,0.150000X-0.150000X-0.200000X0.150000X-0.200000X0.150000X0.200000X-0.150000X0.200000X0*%
%ADD30RoundRect,0.155000X0.155000X0.185000X-0.155000X0.185000X-0.155000X-0.185000X0.155000X-0.185000X0*%
G04 APERTURE END LIST*
D10*
%TO.C,H2*%
X14300000Y26340000D03*
%TD*%
%TO.C,H3*%
X14300000Y-49860000D03*
%TD*%
%TO.C,H1*%
X-36500000Y26340000D03*
%TD*%
%TO.C,H4*%
X-36500000Y-49860000D03*
%TD*%
D11*
%TO.C,J9*%
X14565000Y7775000D03*
D12*
X17105000Y7775000D03*
X14565000Y5235000D03*
X17105000Y5235000D03*
X14565000Y2695000D03*
X17105000Y2695000D03*
X14565000Y155000D03*
X17105000Y155000D03*
X14565000Y-2385000D03*
X17105000Y-2385000D03*
X14565000Y-4925000D03*
X17105000Y-4925000D03*
X14565000Y-7465000D03*
X17105000Y-7465000D03*
X14565000Y-10005000D03*
X17105000Y-10005000D03*
X14565000Y-12545000D03*
X17105000Y-12545000D03*
%TD*%
D13*
%TO.C,J4*%
X11055800Y-21178200D03*
D12*
X13595800Y-21178200D03*
X16135800Y-21178200D03*
%TD*%
D14*
%TO.C,DS1*%
X-31140000Y20915800D03*
X-31140000Y-12104200D03*
X6960000Y20915800D03*
X6960000Y-12104200D03*
D11*
X-19710000Y20915800D03*
D12*
X-17170000Y20915800D03*
X-14630000Y20915800D03*
X-12090000Y20905800D03*
X-9550000Y20915800D03*
X-7010000Y20915800D03*
X-4470000Y20915800D03*
%TD*%
D15*
%TO.C,J8*%
X-29257200Y2708200D03*
D16*
X-29257200Y208200D03*
X-29257200Y-1791800D03*
X-29257200Y-4291800D03*
D17*
X-31967200Y5778200D03*
X-31967200Y-7361800D03*
%TD*%
D18*
%TO.C,J6*%
X-35673600Y15853400D03*
X-35673600Y10073400D03*
D19*
X-35153600Y17283400D03*
D20*
X-39353600Y17283400D03*
D19*
X-35153600Y8643400D03*
D20*
X-39353600Y8643400D03*
%TD*%
D13*
%TO.C,J1*%
X-31210000Y28375000D03*
D12*
X-31210000Y25835000D03*
X-28670000Y28375000D03*
X-28670000Y25835000D03*
X-26130000Y28375000D03*
X-26130000Y25835000D03*
X-23590000Y28375000D03*
X-23590000Y25835000D03*
X-21050000Y28375000D03*
X-21050000Y25835000D03*
X-18510000Y28375000D03*
X-18510000Y25835000D03*
%TD*%
D21*
%TO.C,J10*%
X-13205000Y-11565000D03*
D22*
X-14475000Y-11565000D03*
X-13205000Y-10295000D03*
X-14475000Y-10295000D03*
X-13205000Y-9025000D03*
X-14475000Y-9025000D03*
%TD*%
D23*
%TO.C,U1*%
X-1133333Y1133333D03*
X-1133333Y0D03*
X-1133333Y-1133333D03*
X0Y1133333D03*
X0Y0D03*
X0Y-1133333D03*
X1133333Y1133333D03*
X1133333Y0D03*
X1133333Y-1133333D03*
%TD*%
D24*
%TO.C,J7*%
X-39290200Y-35656600D03*
D12*
X-39290200Y-33116600D03*
X-39290200Y-30576600D03*
X-39290200Y-28036600D03*
X-39290200Y-25496600D03*
X-39290200Y-22956600D03*
X-39290200Y-20416600D03*
X-39290200Y-17876600D03*
%TD*%
D18*
%TO.C,J5*%
X2982200Y25616400D03*
X-2797800Y25616400D03*
D25*
X4412200Y25096400D03*
D26*
X4412200Y29296400D03*
D25*
X-4227800Y25096400D03*
D26*
X-4227800Y29296400D03*
%TD*%
D27*
%TO.C,U4*%
X-3400000Y14705000D03*
X-3400000Y13435000D03*
X-3400000Y12165000D03*
X-3400000Y10895000D03*
X-10600000Y10895000D03*
X-10600000Y12165000D03*
X-10600000Y13435000D03*
X-10600000Y14705000D03*
%TD*%
D28*
%TO.C,R11*%
X-6900000Y18920000D03*
X-6900000Y17900000D03*
%TD*%
D29*
%TO.C,R13*%
X-9210000Y17900000D03*
X-8190000Y17900000D03*
%TD*%
D30*
%TO.C,C22*%
X-10920000Y17900000D03*
X-11880000Y17900000D03*
%TD*%
M02*
