%TF.GenerationSoftware,KiCad,Pcbnew,9.0.6*%
%TF.CreationDate,2025-12-18T17:47:21-08:00*%
%TF.ProjectId,multi-module_controller_PCB,6d756c74-692d-46d6-9f64-756c655f636f,REV3*%
%TF.SameCoordinates,Original*%
%TF.FileFunction,Copper,L3,Inr*%
%TF.FilePolarity,Positive*%
%FSLAX46Y46*%
G04 Gerber Fmt 4.6, Leading zero omitted, Abs format (unit mm)*
G04 Created by KiCad (PCBNEW 9.0.6) date 2025-12-18 17:47:21*
%MOMM*%
%LPD*%
G01*
G04 APERTURE LIST*
G04 Aperture macros list*
%AMRoundRect*
0 Rectangle with rounded corners*
0 $1 Rounding radius*
0 $2 $3 $4 $5 $6 $7 $8 $9 X,Y pos of 4 corners*
0 Add a 4 corners polygon primitive as box body*
4,1,4,$2,$3,$4,$5,$6,$7,$8,$9,$2,$3,0*
0 Add four circle primitives for the rounded corners*
1,1,$1+$1,$2,$3*
1,1,$1+$1,$4,$5*
1,1,$1+$1,$6,$7*
1,1,$1+$1,$8,$9*
0 Add four rect primitives between the rounded corners*
20,1,$1+$1,$2,$3,$4,$5,0*
20,1,$1+$1,$4,$5,$6,$7,0*
20,1,$1+$1,$6,$7,$8,$9,0*
20,1,$1+$1,$8,$9,$2,$3,0*%
G04 Aperture macros list end*
%TA.AperFunction,ComponentPad*%
%ADD10R,1.700000X1.700000*%
%TD*%
%TA.AperFunction,ComponentPad*%
%ADD11C,1.700000*%
%TD*%
%TA.AperFunction,WasherPad*%
%ADD12C,2.500000*%
%TD*%
%TA.AperFunction,ComponentPad*%
%ADD13RoundRect,0.250000X-0.512000X0.512000X-0.512000X-0.512000X0.512000X-0.512000X0.512000X0.512000X0*%
%TD*%
%TA.AperFunction,ComponentPad*%
%ADD14C,1.524000*%
%TD*%
%TA.AperFunction,ComponentPad*%
%ADD15C,3.500000*%
%TD*%
%TA.AperFunction,HeatsinkPad*%
%ADD16O,2.100000X1.000000*%
%TD*%
%TA.AperFunction,HeatsinkPad*%
%ADD17O,1.800000X1.000000*%
%TD*%
%TA.AperFunction,ComponentPad*%
%ADD18R,1.000000X1.000000*%
%TD*%
%TA.AperFunction,ComponentPad*%
%ADD19C,1.000000*%
%TD*%
%TA.AperFunction,ComponentPad*%
%ADD20C,0.600000*%
%TD*%
%TA.AperFunction,HeatsinkPad*%
%ADD21O,1.000000X2.100000*%
%TD*%
%TA.AperFunction,HeatsinkPad*%
%ADD22O,1.000000X1.800000*%
%TD*%
%TA.AperFunction,ViaPad*%
%ADD23C,0.600000*%
%TD*%
G04 APERTURE END LIST*
D10*
%TO.N,+3V3*%
%TO.C,J9*%
X14565000Y7775000D03*
D11*
%TO.N,VBUS*%
X17105000Y7775000D03*
%TO.N,GND*%
X14565000Y5235000D03*
X17105000Y5235000D03*
%TO.N,/GPIO46_ADC6*%
X14565000Y2695000D03*
%TO.N,/GPIO47_ADC7*%
X17105000Y2695000D03*
%TO.N,/GPIO44_ADC4*%
X14565000Y155000D03*
%TO.N,/GPIO45_ADC5*%
X17105000Y155000D03*
%TO.N,/GPIO42_ADC2*%
X14565000Y-2385000D03*
%TO.N,/GPIO43_ADC3*%
X17105000Y-2385000D03*
%TO.N,/GPIO40_ADC0*%
X14565000Y-4925000D03*
%TO.N,/GPIO41_ADC1*%
X17105000Y-4925000D03*
%TO.N,/GPIO38*%
X14565000Y-7465000D03*
%TO.N,/GPIO39*%
X17105000Y-7465000D03*
%TO.N,/GPIO36*%
X14565000Y-10005000D03*
%TO.N,/GPIO37*%
X17105000Y-10005000D03*
%TO.N,/GPIO34*%
X14565000Y-12545000D03*
%TO.N,/GPIO35*%
X17105000Y-12545000D03*
%TD*%
D10*
%TO.N,/SWCLK*%
%TO.C,J4*%
X11055800Y-21178200D03*
D11*
%TO.N,GND*%
X13595800Y-21178200D03*
%TO.N,/SWD*%
X16135800Y-21178200D03*
%TD*%
D12*
%TO.N,*%
%TO.C,DS1*%
X-31140000Y20915800D03*
X-31140000Y-12104200D03*
X6960000Y20915800D03*
X6960000Y-12104200D03*
D10*
%TO.N,/GPIO5*%
X-19710000Y20915800D03*
D11*
%TO.N,/GPIO4*%
X-17170000Y20915800D03*
%TO.N,/GPIO1*%
X-14630000Y20915800D03*
%TO.N,/GPIO2*%
X-12090000Y20905800D03*
%TO.N,/GPIO3*%
X-9550000Y20915800D03*
%TO.N,GND*%
X-7010000Y20915800D03*
%TO.N,VBUS*%
X-4470000Y20915800D03*
%TD*%
D13*
%TO.N,Net-(J8-VBUS)*%
%TO.C,J8*%
X-29257200Y2708200D03*
D14*
%TO.N,Net-(J8-D-)*%
X-29257200Y208200D03*
%TO.N,Net-(J8-D+)*%
X-29257200Y-1791800D03*
%TO.N,GND*%
X-29257200Y-4291800D03*
D15*
X-31967200Y5778200D03*
X-31967200Y-7361800D03*
%TD*%
D16*
%TO.N,GND*%
%TO.C,J6*%
X-35153600Y17283400D03*
D17*
X-39353600Y17283400D03*
D16*
X-35153600Y8643400D03*
D17*
X-39353600Y8643400D03*
%TD*%
D10*
%TO.N,GND*%
%TO.C,J1*%
X-31210000Y28375000D03*
D11*
%TO.N,VBUS*%
X-31210000Y25835000D03*
%TO.N,GND*%
X-28670000Y28375000D03*
%TO.N,VBUS*%
X-28670000Y25835000D03*
%TO.N,GND*%
X-26130000Y28375000D03*
%TO.N,VBUS*%
X-26130000Y25835000D03*
%TO.N,GND*%
X-23590000Y28375000D03*
%TO.N,+3V3*%
X-23590000Y25835000D03*
%TO.N,GND*%
X-21050000Y28375000D03*
%TO.N,+3V3*%
X-21050000Y25835000D03*
%TO.N,GND*%
X-18510000Y28375000D03*
%TO.N,+3V3*%
X-18510000Y25835000D03*
%TD*%
D18*
%TO.N,GND*%
%TO.C,J10*%
X-13205000Y-11565000D03*
D19*
%TO.N,/GPIO18*%
X-14475000Y-11565000D03*
%TO.N,/GPIO17*%
X-13205000Y-10295000D03*
%TO.N,/GPIO19*%
X-14475000Y-10295000D03*
%TO.N,/GPIO21*%
X-13205000Y-9025000D03*
%TO.N,/GPIO20*%
X-14475000Y-9025000D03*
%TD*%
D20*
%TO.N,GND*%
%TO.C,U1*%
X-1133333Y1133333D03*
X-1133333Y0D03*
X-1133333Y-1133333D03*
X0Y1133333D03*
X0Y0D03*
X0Y-1133333D03*
X1133333Y1133333D03*
X1133333Y0D03*
X1133333Y-1133333D03*
%TD*%
D10*
%TO.N,/GPIO13*%
%TO.C,J7*%
X-39290200Y-35656600D03*
D11*
%TO.N,GND*%
X-39290200Y-33116600D03*
%TO.N,VBUS*%
X-39290200Y-30576600D03*
%TO.N,Net-(J7-Pin_4)*%
X-39290200Y-28036600D03*
%TO.N,Net-(J7-Pin_5)*%
X-39290200Y-25496600D03*
%TO.N,unconnected-(J7-Pin_6-Pad6)*%
X-39290200Y-22956600D03*
%TO.N,unconnected-(J7-Pin_7-Pad7)*%
X-39290200Y-20416600D03*
%TO.N,unconnected-(J7-Pin_8-Pad8)*%
X-39290200Y-17876600D03*
%TD*%
D21*
%TO.N,GND*%
%TO.C,J5*%
X4412200Y25096400D03*
D22*
X4412200Y29296400D03*
D21*
X-4227800Y25096400D03*
D22*
X-4227800Y29296400D03*
%TD*%
D23*
%TO.N,GND*%
X2700000Y-13657000D03*
X-2700000Y-12057000D03*
X-2100000Y-8800000D03*
X6160000Y-46335000D03*
X-15630000Y-25985000D03*
X-12500000Y17800000D03*
X-20752000Y18567600D03*
X15173200Y-36420000D03*
X-8000000Y-6800000D03*
X-5100000Y17200000D03*
X-5900000Y-7275500D03*
X14547400Y20924400D03*
X-7239200Y25578000D03*
X6140000Y-34375000D03*
X-1000000Y10000000D03*
X14900000Y-19200000D03*
X12300000Y-19200000D03*
X-17470000Y-34385000D03*
X-22987200Y13335200D03*
X2200000Y-8820000D03*
X4100000Y6350000D03*
X6150000Y-19650000D03*
X-10600000Y10000000D03*
X-6560000Y-26005000D03*
X-9220000Y200000D03*
X-6500000Y-42825000D03*
X9900000Y10200000D03*
X2800000Y-10420000D03*
X8715000Y-4500000D03*
X-21006000Y8458400D03*
X9220000Y-500000D03*
X4100000Y6950000D03*
X8400000Y4800000D03*
X-19270000Y-19665000D03*
X13600000Y-19200000D03*
X-17704000Y2514800D03*
X9220000Y500000D03*
X-9215000Y2900000D03*
X-2600000Y-10420000D03*
X-9000000Y-6800000D03*
X-9200000Y-2200000D03*
X16050000Y19080000D03*
X-7000000Y8100000D03*
X-2960000Y-19715000D03*
X4800000Y5300000D03*
X-6600000Y-34425000D03*
X-13109800Y26296600D03*
%TO.N,VBUS*%
X2492200Y23100000D03*
X-21717200Y533600D03*
X-26949600Y12065200D03*
X-2347900Y23037900D03*
X7675000Y16700000D03*
%TO.N,+3V3*%
X8539000Y12451000D03*
X12343400Y11043400D03*
X3980000Y-3830000D03*
X-9600000Y-11000000D03*
X-4100000Y2200000D03*
X-5320000Y18210000D03*
X12343400Y14350000D03*
X-8200000Y-11000000D03*
X-2600000Y-4100000D03*
X-10000000Y17900000D03*
X-16200000Y12700000D03*
X12343400Y15890000D03*
X-2200000Y4100000D03*
X3110000Y3800000D03*
X12343400Y17480000D03*
X-600000Y-4100000D03*
X15340000Y12520000D03*
X-4100000Y-1800000D03*
X3700000Y-630000D03*
%TO.N,+1V1*%
X6800000Y200000D03*
X1700000Y6600000D03*
X800000Y-7220000D03*
X-6800000Y200000D03*
X1700000Y7200000D03*
%TO.N,/GPIO13*%
X-11500000Y-300000D03*
X-34360100Y-34739900D03*
%TO.N,/GPIO12*%
X-12100000Y400000D03*
X-34200000Y-33600000D03*
%TO.N,/GPIO11*%
X-17900000Y14600000D03*
X-22100000Y14600000D03*
%TO.N,/GPIO7*%
X-20900000Y5800000D03*
X-8300000Y4200000D03*
%TO.N,/GPIO3*%
X-15392600Y18974000D03*
%TO.N,/GPIO0*%
X-13018800Y18932000D03*
X-9100000Y19000000D03*
%TO.N,/GPIO23*%
X-16370000Y-6000000D03*
X-17640000Y950000D03*
%TO.N,/GPIO22*%
X-17135322Y-5324678D03*
X-17150000Y-440000D03*
%TO.N,/RUN*%
X9100000Y-9407800D03*
X5156000Y-10032800D03*
%TO.N,/SWD*%
X4800400Y-15011200D03*
X16142800Y-19111200D03*
%TO.N,/SWCLK*%
X4292400Y-15620800D03*
X11048800Y-19230400D03*
%TO.N,/QSPI_SD3*%
X-4700000Y13800000D03*
%TO.N,/QSPI_SCLK*%
X-4700000Y12500000D03*
%TO.N,/QSPI_SD0*%
X-4700000Y11200000D03*
%TO.N,/QSPI_SD2*%
X-9300000Y11800000D03*
%TO.N,/QSPI_SD1*%
X-9300000Y13100000D03*
%TO.N,/GPIO30*%
X-3117600Y-23945200D03*
X5962000Y-23945200D03*
%TO.N,/GPIO26*%
X-9017200Y-33248400D03*
X-9017200Y-14198400D03*
%TO.N,Net-(J8-VBUS)*%
X-27965600Y12116000D03*
%TO.N,Net-(U6-OUTA)*%
X-32232800Y15316400D03*
X-31928000Y10592000D03*
X-28666600Y10805400D03*
%TD*%
%TA.AperFunction,Conductor*%
%TO.N,+3V3*%
G36*
X18499026Y30532826D02*
G01*
X18520700Y30480500D01*
X18520700Y-53219300D01*
X18499026Y-53271626D01*
X18446700Y-53293300D01*
X-30961721Y-53293300D01*
X-30962177Y-53293299D01*
X-40570956Y-53234076D01*
X-40623147Y-53212079D01*
X-40644500Y-53160077D01*
X-40644500Y-49734036D01*
X-38100500Y-49734036D01*
X-38100500Y-49985963D01*
X-38061091Y-50234782D01*
X-38061088Y-50234795D01*
X-37983244Y-50474373D01*
X-37868871Y-50698845D01*
X-37720797Y-50902651D01*
X-37720793Y-50902656D01*
X-37542656Y-51080793D01*
X-37542653Y-51080795D01*
X-37542652Y-51080796D01*
X-37338846Y-51228870D01*
X-37230655Y-51283995D01*
X-37114379Y-51343241D01*
X-37114377Y-51343241D01*
X-37114374Y-51343243D01*
X-36874796Y-51421087D01*
X-36874790Y-51421088D01*
X-36874785Y-51421090D01*
X-36750374Y-51440795D01*
X-36625964Y-51460500D01*
X-36625962Y-51460500D01*
X-36374036Y-51460500D01*
X-36274509Y-51444736D01*
X-36125215Y-51421090D01*
X-36125208Y-51421087D01*
X-36125205Y-51421087D01*
X-35885627Y-51343243D01*
X-35885627Y-51343242D01*
X-35885621Y-51343241D01*
X-35661155Y-51228870D01*
X-35457344Y-51080793D01*
X-35279207Y-50902656D01*
X-35131130Y-50698845D01*
X-35016759Y-50474379D01*
X-34938910Y-50234785D01*
X-34899500Y-49985962D01*
X-34899500Y-49734038D01*
X-34899500Y-49734036D01*
X12699500Y-49734036D01*
X12699500Y-49985963D01*
X12738909Y-50234782D01*
X12738912Y-50234795D01*
X12816756Y-50474373D01*
X12931129Y-50698845D01*
X13079203Y-50902651D01*
X13079207Y-50902656D01*
X13257344Y-51080793D01*
X13257347Y-51080795D01*
X13257348Y-51080796D01*
X13461154Y-51228870D01*
X13569345Y-51283995D01*
X13685621Y-51343241D01*
X13685623Y-51343241D01*
X13685626Y-51343243D01*
X13925204Y-51421087D01*
X13925210Y-51421088D01*
X13925215Y-51421090D01*
X14049626Y-51440795D01*
X14174036Y-51460500D01*
X14174038Y-51460500D01*
X14425964Y-51460500D01*
X14525491Y-51444736D01*
X14674785Y-51421090D01*
X14674792Y-51421087D01*
X14674795Y-51421087D01*
X14914373Y-51343243D01*
X14914373Y-51343242D01*
X14914379Y-51343241D01*
X15138845Y-51228870D01*
X15342656Y-51080793D01*
X15520793Y-50902656D01*
X15668870Y-50698845D01*
X15783241Y-50474379D01*
X15861090Y-50234785D01*
X15900500Y-49985962D01*
X15900500Y-49734038D01*
X15861090Y-49485215D01*
X15861088Y-49485210D01*
X15861087Y-49485204D01*
X15783243Y-49245626D01*
X15783241Y-49245623D01*
X15783241Y-49245621D01*
X15723995Y-49129345D01*
X15668870Y-49021154D01*
X15520796Y-48817348D01*
X15520795Y-48817347D01*
X15520793Y-48817344D01*
X15342656Y-48639207D01*
X15342653Y-48639204D01*
X15342651Y-48639203D01*
X15138845Y-48491129D01*
X14914373Y-48376756D01*
X14674795Y-48298912D01*
X14674782Y-48298909D01*
X14425964Y-48259500D01*
X14425962Y-48259500D01*
X14174038Y-48259500D01*
X14174036Y-48259500D01*
X13925217Y-48298909D01*
X13925204Y-48298912D01*
X13685626Y-48376756D01*
X13461154Y-48491129D01*
X13257348Y-48639203D01*
X13079203Y-48817348D01*
X12931129Y-49021154D01*
X12816756Y-49245626D01*
X12738912Y-49485204D01*
X12738909Y-49485217D01*
X12699500Y-49734036D01*
X-34899500Y-49734036D01*
X-34938910Y-49485215D01*
X-34938912Y-49485210D01*
X-34938913Y-49485204D01*
X-35016757Y-49245626D01*
X-35016759Y-49245623D01*
X-35016759Y-49245621D01*
X-35076005Y-49129345D01*
X-35131130Y-49021154D01*
X-35279204Y-48817348D01*
X-35279205Y-48817347D01*
X-35279207Y-48817344D01*
X-35457344Y-48639207D01*
X-35457347Y-48639204D01*
X-35457349Y-48639203D01*
X-35661155Y-48491129D01*
X-35885627Y-48376756D01*
X-36125205Y-48298912D01*
X-36125218Y-48298909D01*
X-36374036Y-48259500D01*
X-36374038Y-48259500D01*
X-36625962Y-48259500D01*
X-36625964Y-48259500D01*
X-36874783Y-48298909D01*
X-36874796Y-48298912D01*
X-37114374Y-48376756D01*
X-37338846Y-48491129D01*
X-37542652Y-48639203D01*
X-37720797Y-48817348D01*
X-37868871Y-49021154D01*
X-37983244Y-49245626D01*
X-38061088Y-49485204D01*
X-38061091Y-49485217D01*
X-38100500Y-49734036D01*
X-40644500Y-49734036D01*
X-40644500Y-46269105D01*
X5659500Y-46269105D01*
X5659500Y-46400894D01*
X5693606Y-46528181D01*
X5693607Y-46528184D01*
X5693608Y-46528186D01*
X5759500Y-46642314D01*
X5852686Y-46735500D01*
X5966814Y-46801392D01*
X6094105Y-46835499D01*
X6094106Y-46835500D01*
X6094108Y-46835500D01*
X6225894Y-46835500D01*
X6225894Y-46835499D01*
X6353186Y-46801392D01*
X6467314Y-46735500D01*
X6560500Y-46642314D01*
X6626392Y-46528186D01*
X6660499Y-46400894D01*
X6660500Y-46400894D01*
X6660500Y-46269106D01*
X6660499Y-46269105D01*
X6626393Y-46141818D01*
X6626392Y-46141814D01*
X6560500Y-46027686D01*
X6467314Y-45934500D01*
X6353190Y-45868610D01*
X6353181Y-45868606D01*
X6225894Y-45834500D01*
X6225892Y-45834500D01*
X6094108Y-45834500D01*
X6094106Y-45834500D01*
X5966818Y-45868606D01*
X5966809Y-45868610D01*
X5852685Y-45934500D01*
X5759500Y-46027685D01*
X5693610Y-46141809D01*
X5693606Y-46141818D01*
X5659500Y-46269105D01*
X-40644500Y-46269105D01*
X-40644500Y-42759105D01*
X-7000500Y-42759105D01*
X-7000500Y-42890894D01*
X-6966394Y-43018181D01*
X-6966393Y-43018184D01*
X-6966392Y-43018186D01*
X-6900500Y-43132314D01*
X-6807314Y-43225500D01*
X-6693186Y-43291392D01*
X-6565895Y-43325499D01*
X-6565894Y-43325500D01*
X-6565892Y-43325500D01*
X-6434106Y-43325500D01*
X-6434106Y-43325499D01*
X-6306814Y-43291392D01*
X-6192686Y-43225500D01*
X-6099500Y-43132314D01*
X-6033608Y-43018186D01*
X-5999501Y-42890894D01*
X-5999500Y-42890894D01*
X-5999500Y-42759106D01*
X-5999501Y-42759105D01*
X-6033607Y-42631818D01*
X-6033608Y-42631814D01*
X-6099500Y-42517686D01*
X-6192686Y-42424500D01*
X-6306810Y-42358610D01*
X-6306819Y-42358606D01*
X-6434106Y-42324500D01*
X-6434108Y-42324500D01*
X-6565892Y-42324500D01*
X-6565894Y-42324500D01*
X-6693182Y-42358606D01*
X-6693191Y-42358610D01*
X-6807315Y-42424500D01*
X-6900500Y-42517685D01*
X-6966390Y-42631809D01*
X-6966394Y-42631818D01*
X-7000500Y-42759105D01*
X-40644500Y-42759105D01*
X-40644500Y-34786853D01*
X-40340700Y-34786853D01*
X-40340700Y-36526346D01*
X-40329067Y-36584832D01*
X-40310118Y-36613190D01*
X-40284752Y-36651152D01*
X-40240640Y-36680627D01*
X-40218433Y-36695466D01*
X-40218432Y-36695466D01*
X-40218431Y-36695467D01*
X-40159948Y-36707100D01*
X-40159946Y-36707100D01*
X-38420454Y-36707100D01*
X-38420452Y-36707100D01*
X-38361969Y-36695467D01*
X-38295648Y-36651152D01*
X-38251333Y-36584831D01*
X-38239700Y-36526348D01*
X-38239700Y-36354105D01*
X14672700Y-36354105D01*
X14672700Y-36485894D01*
X14706806Y-36613181D01*
X14706810Y-36613190D01*
X14754313Y-36695467D01*
X14772700Y-36727314D01*
X14865886Y-36820500D01*
X14980014Y-36886392D01*
X15107305Y-36920499D01*
X15107306Y-36920500D01*
X15107308Y-36920500D01*
X15239094Y-36920500D01*
X15239094Y-36920499D01*
X15366386Y-36886392D01*
X15480514Y-36820500D01*
X15573700Y-36727314D01*
X15639592Y-36613186D01*
X15673699Y-36485894D01*
X15673700Y-36485894D01*
X15673700Y-36354106D01*
X15673699Y-36354105D01*
X15639593Y-36226818D01*
X15639592Y-36226814D01*
X15573700Y-36112686D01*
X15480514Y-36019500D01*
X15366390Y-35953610D01*
X15366381Y-35953606D01*
X15239094Y-35919500D01*
X15239092Y-35919500D01*
X15107308Y-35919500D01*
X15107306Y-35919500D01*
X14980018Y-35953606D01*
X14980009Y-35953610D01*
X14865885Y-36019500D01*
X14772700Y-36112685D01*
X14706810Y-36226809D01*
X14706806Y-36226818D01*
X14672700Y-36354105D01*
X-38239700Y-36354105D01*
X-38239700Y-34786852D01*
X-38251333Y-34728369D01*
X-38251334Y-34728367D01*
X-38263426Y-34710270D01*
X-38275425Y-34692314D01*
X-38287659Y-34674005D01*
X-34860600Y-34674005D01*
X-34860600Y-34805794D01*
X-34826494Y-34933081D01*
X-34826493Y-34933084D01*
X-34826492Y-34933086D01*
X-34760600Y-35047214D01*
X-34667414Y-35140400D01*
X-34553286Y-35206292D01*
X-34425995Y-35240399D01*
X-34425994Y-35240400D01*
X-34425992Y-35240400D01*
X-34294206Y-35240400D01*
X-34294206Y-35240399D01*
X-34166914Y-35206292D01*
X-34052786Y-35140400D01*
X-33959600Y-35047214D01*
X-33893708Y-34933086D01*
X-33859601Y-34805794D01*
X-33859600Y-34805794D01*
X-33859600Y-34674006D01*
X-33859601Y-34674005D01*
X-33862805Y-34662049D01*
X-33893708Y-34546714D01*
X-33959600Y-34432586D01*
X-34052786Y-34339400D01*
X-34087938Y-34319105D01*
X-17970500Y-34319105D01*
X-17970500Y-34450894D01*
X-17936394Y-34578181D01*
X-17936390Y-34578190D01*
X-17913301Y-34618181D01*
X-17870500Y-34692314D01*
X-17777314Y-34785500D01*
X-17663186Y-34851392D01*
X-17535895Y-34885499D01*
X-17535894Y-34885500D01*
X-17535892Y-34885500D01*
X-17404106Y-34885500D01*
X-17404106Y-34885499D01*
X-17276814Y-34851392D01*
X-17162686Y-34785500D01*
X-17069500Y-34692314D01*
X-17003608Y-34578186D01*
X-16969501Y-34450894D01*
X-16969500Y-34450894D01*
X-16969500Y-34359105D01*
X-7100500Y-34359105D01*
X-7100500Y-34490894D01*
X-7066394Y-34618181D01*
X-7066393Y-34618184D01*
X-7066392Y-34618186D01*
X-7000500Y-34732314D01*
X-6907314Y-34825500D01*
X-6793186Y-34891392D01*
X-6665895Y-34925499D01*
X-6665894Y-34925500D01*
X-6665892Y-34925500D01*
X-6534106Y-34925500D01*
X-6534106Y-34925499D01*
X-6406814Y-34891392D01*
X-6292686Y-34825500D01*
X-6199500Y-34732314D01*
X-6133608Y-34618186D01*
X-6099501Y-34490894D01*
X-6099500Y-34490894D01*
X-6099500Y-34359108D01*
X-6109065Y-34323410D01*
X-6109065Y-34323408D01*
X-6112898Y-34309105D01*
X5639500Y-34309105D01*
X5639500Y-34440894D01*
X5673606Y-34568181D01*
X5673610Y-34568190D01*
X5739500Y-34682314D01*
X5832686Y-34775500D01*
X5946814Y-34841392D01*
X6074105Y-34875499D01*
X6074106Y-34875500D01*
X6074108Y-34875500D01*
X6205894Y-34875500D01*
X6205894Y-34875499D01*
X6333186Y-34841392D01*
X6447314Y-34775500D01*
X6540500Y-34682314D01*
X6606392Y-34568186D01*
X6640499Y-34440894D01*
X6640500Y-34440894D01*
X6640500Y-34309106D01*
X6640499Y-34309105D01*
X6630961Y-34273510D01*
X6606392Y-34181814D01*
X6540500Y-34067686D01*
X6447314Y-33974500D01*
X6419785Y-33958606D01*
X6333190Y-33908610D01*
X6333181Y-33908606D01*
X6205894Y-33874500D01*
X6205892Y-33874500D01*
X6074108Y-33874500D01*
X6074106Y-33874500D01*
X5946818Y-33908606D01*
X5946809Y-33908610D01*
X5832685Y-33974500D01*
X5739500Y-34067685D01*
X5673610Y-34181809D01*
X5673606Y-34181818D01*
X5639500Y-34309105D01*
X-6112898Y-34309105D01*
X-6133607Y-34231818D01*
X-6133608Y-34231814D01*
X-6199500Y-34117686D01*
X-6292686Y-34024500D01*
X-6379288Y-33974500D01*
X-6406810Y-33958610D01*
X-6406819Y-33958606D01*
X-6534106Y-33924500D01*
X-6534108Y-33924500D01*
X-6665892Y-33924500D01*
X-6665894Y-33924500D01*
X-6793182Y-33958606D01*
X-6793191Y-33958610D01*
X-6907315Y-34024500D01*
X-7000500Y-34117685D01*
X-7066390Y-34231809D01*
X-7066394Y-34231818D01*
X-7100500Y-34359105D01*
X-16969500Y-34359105D01*
X-16969500Y-34319106D01*
X-16969501Y-34319105D01*
X-16972180Y-34309108D01*
X-17003608Y-34191814D01*
X-17069500Y-34077686D01*
X-17162686Y-33984500D01*
X-17180006Y-33974500D01*
X-17276810Y-33918610D01*
X-17276819Y-33918606D01*
X-17404106Y-33884500D01*
X-17404108Y-33884500D01*
X-17535892Y-33884500D01*
X-17535894Y-33884500D01*
X-17663182Y-33918606D01*
X-17663191Y-33918610D01*
X-17777315Y-33984500D01*
X-17870500Y-34077685D01*
X-17936390Y-34191809D01*
X-17936394Y-34191818D01*
X-17970500Y-34319105D01*
X-34087938Y-34319105D01*
X-34105253Y-34309108D01*
X-34166910Y-34273510D01*
X-34166919Y-34273506D01*
X-34265752Y-34247024D01*
X-34265759Y-34247023D01*
X-34294208Y-34239400D01*
X-34425992Y-34239400D01*
X-34425994Y-34239400D01*
X-34553282Y-34273506D01*
X-34553291Y-34273510D01*
X-34667415Y-34339400D01*
X-34760600Y-34432585D01*
X-34826490Y-34546709D01*
X-34826494Y-34546718D01*
X-34860600Y-34674005D01*
X-38287659Y-34674005D01*
X-38295648Y-34662048D01*
X-38317857Y-34647208D01*
X-38361968Y-34617733D01*
X-38361967Y-34617733D01*
X-38391211Y-34611916D01*
X-38420452Y-34606100D01*
X-40159948Y-34606100D01*
X-40189190Y-34611916D01*
X-40218433Y-34617733D01*
X-40284751Y-34662047D01*
X-40284753Y-34662049D01*
X-40329067Y-34728367D01*
X-40340700Y-34786853D01*
X-40644500Y-34786853D01*
X-40644500Y-33013135D01*
X-40340700Y-33013135D01*
X-40340700Y-33220064D01*
X-40300332Y-33423013D01*
X-40300330Y-33423020D01*
X-40221141Y-33614198D01*
X-40131138Y-33748899D01*
X-40106177Y-33786255D01*
X-39959855Y-33932577D01*
X-39787798Y-34047541D01*
X-39596620Y-34126730D01*
X-39393665Y-34167100D01*
X-39393664Y-34167100D01*
X-39186736Y-34167100D01*
X-39186735Y-34167100D01*
X-38983780Y-34126730D01*
X-38792602Y-34047541D01*
X-38620545Y-33932577D01*
X-38474223Y-33786255D01*
X-38359259Y-33614198D01*
X-38326083Y-33534105D01*
X-34700500Y-33534105D01*
X-34700500Y-33665894D01*
X-34666394Y-33793181D01*
X-34666393Y-33793184D01*
X-34666392Y-33793186D01*
X-34600500Y-33907314D01*
X-34507314Y-34000500D01*
X-34393186Y-34066392D01*
X-34265892Y-34100500D01*
X-34244838Y-34100500D01*
X-34134106Y-34100500D01*
X-34134106Y-34100499D01*
X-34006814Y-34066392D01*
X-33892686Y-34000500D01*
X-33799500Y-33907314D01*
X-33733608Y-33793186D01*
X-33699501Y-33665894D01*
X-33699500Y-33665894D01*
X-33699500Y-33534106D01*
X-33699501Y-33534105D01*
X-33733607Y-33406818D01*
X-33733608Y-33406814D01*
X-33799500Y-33292686D01*
X-33892686Y-33199500D01*
X-33922122Y-33182505D01*
X-9517700Y-33182505D01*
X-9517700Y-33314294D01*
X-9483594Y-33441581D01*
X-9483593Y-33441584D01*
X-9483592Y-33441586D01*
X-9417700Y-33555714D01*
X-9324514Y-33648900D01*
X-9210386Y-33714792D01*
X-9083095Y-33748899D01*
X-9083094Y-33748900D01*
X-9083092Y-33748900D01*
X-8951306Y-33748900D01*
X-8951306Y-33748899D01*
X-8824014Y-33714792D01*
X-8709886Y-33648900D01*
X-8616700Y-33555714D01*
X-8550808Y-33441586D01*
X-8516701Y-33314294D01*
X-8516700Y-33314294D01*
X-8516700Y-33182506D01*
X-8516701Y-33182505D01*
X-8550807Y-33055218D01*
X-8550808Y-33055214D01*
X-8616700Y-32941086D01*
X-8709886Y-32847900D01*
X-8775208Y-32810186D01*
X-8824010Y-32782010D01*
X-8824019Y-32782006D01*
X-8951306Y-32747900D01*
X-8951308Y-32747900D01*
X-9083092Y-32747900D01*
X-9083094Y-32747900D01*
X-9210382Y-32782006D01*
X-9210391Y-32782010D01*
X-9324515Y-32847900D01*
X-9417700Y-32941085D01*
X-9483590Y-33055209D01*
X-9483594Y-33055218D01*
X-9517700Y-33182505D01*
X-33922122Y-33182505D01*
X-34006810Y-33133610D01*
X-34006819Y-33133606D01*
X-34134106Y-33099500D01*
X-34134108Y-33099500D01*
X-34265892Y-33099500D01*
X-34265894Y-33099500D01*
X-34393182Y-33133606D01*
X-34393191Y-33133610D01*
X-34507315Y-33199500D01*
X-34600500Y-33292685D01*
X-34666390Y-33406809D01*
X-34666394Y-33406818D01*
X-34700500Y-33534105D01*
X-38326083Y-33534105D01*
X-38280070Y-33423020D01*
X-38239700Y-33220065D01*
X-38239700Y-33013135D01*
X-38280070Y-32810180D01*
X-38359259Y-32619002D01*
X-38474223Y-32446945D01*
X-38620545Y-32300623D01*
X-38792602Y-32185659D01*
X-38983780Y-32106470D01*
X-38983787Y-32106468D01*
X-39136684Y-32076055D01*
X-39186735Y-32066100D01*
X-39393665Y-32066100D01*
X-39433815Y-32074086D01*
X-39596614Y-32106468D01*
X-39596621Y-32106470D01*
X-39787799Y-32185659D01*
X-39959855Y-32300622D01*
X-39959856Y-32300624D01*
X-40106176Y-32446944D01*
X-40106178Y-32446945D01*
X-40221141Y-32619001D01*
X-40300330Y-32810179D01*
X-40300332Y-32810186D01*
X-40340700Y-33013135D01*
X-40644500Y-33013135D01*
X-40644500Y-30473135D01*
X-40340700Y-30473135D01*
X-40340700Y-30680064D01*
X-40300332Y-30883013D01*
X-40300330Y-30883020D01*
X-40221141Y-31074198D01*
X-40106177Y-31246255D01*
X-39959855Y-31392577D01*
X-39787798Y-31507541D01*
X-39596620Y-31586730D01*
X-39393665Y-31627100D01*
X-39393664Y-31627100D01*
X-39186736Y-31627100D01*
X-39186735Y-31627100D01*
X-38983780Y-31586730D01*
X-38792602Y-31507541D01*
X-38620545Y-31392577D01*
X-38474223Y-31246255D01*
X-38359259Y-31074198D01*
X-38280070Y-30883020D01*
X-38239700Y-30680065D01*
X-38239700Y-30473135D01*
X-38280070Y-30270180D01*
X-38359259Y-30079002D01*
X-38474223Y-29906945D01*
X-38620545Y-29760623D01*
X-38792602Y-29645659D01*
X-38983780Y-29566470D01*
X-38983787Y-29566468D01*
X-39136684Y-29536055D01*
X-39186735Y-29526100D01*
X-39393665Y-29526100D01*
X-39433815Y-29534086D01*
X-39596614Y-29566468D01*
X-39596621Y-29566470D01*
X-39787799Y-29645659D01*
X-39959855Y-29760622D01*
X-39959856Y-29760624D01*
X-40106176Y-29906944D01*
X-40106178Y-29906945D01*
X-40221141Y-30079001D01*
X-40300330Y-30270179D01*
X-40300332Y-30270186D01*
X-40340700Y-30473135D01*
X-40644500Y-30473135D01*
X-40644500Y-27933135D01*
X-40340700Y-27933135D01*
X-40340700Y-28140064D01*
X-40300332Y-28343013D01*
X-40300330Y-28343020D01*
X-40221141Y-28534198D01*
X-40106177Y-28706255D01*
X-39959855Y-28852577D01*
X-39787798Y-28967541D01*
X-39596620Y-29046730D01*
X-39393665Y-29087100D01*
X-39393664Y-29087100D01*
X-39186736Y-29087100D01*
X-39186735Y-29087100D01*
X-38983780Y-29046730D01*
X-38792602Y-28967541D01*
X-38620545Y-28852577D01*
X-38474223Y-28706255D01*
X-38359259Y-28534198D01*
X-38280070Y-28343020D01*
X-38239700Y-28140065D01*
X-38239700Y-27933135D01*
X-38280070Y-27730180D01*
X-38359259Y-27539002D01*
X-38474223Y-27366945D01*
X-38620545Y-27220623D01*
X-38792602Y-27105659D01*
X-38983780Y-27026470D01*
X-38983787Y-27026468D01*
X-39136684Y-26996055D01*
X-39186735Y-26986100D01*
X-39393665Y-26986100D01*
X-39433815Y-26994086D01*
X-39596614Y-27026468D01*
X-39596621Y-27026470D01*
X-39787799Y-27105659D01*
X-39959855Y-27220622D01*
X-39959856Y-27220624D01*
X-40106176Y-27366944D01*
X-40106178Y-27366945D01*
X-40221141Y-27539001D01*
X-40300330Y-27730179D01*
X-40300332Y-27730186D01*
X-40340700Y-27933135D01*
X-40644500Y-27933135D01*
X-40644500Y-25393135D01*
X-40340700Y-25393135D01*
X-40340700Y-25600064D01*
X-40300332Y-25803013D01*
X-40300330Y-25803020D01*
X-40221141Y-25994198D01*
X-40106177Y-26166255D01*
X-39959855Y-26312577D01*
X-39787798Y-26427541D01*
X-39596620Y-26506730D01*
X-39393665Y-26547100D01*
X-39393664Y-26547100D01*
X-39186736Y-26547100D01*
X-39186735Y-26547100D01*
X-38983780Y-26506730D01*
X-38792602Y-26427541D01*
X-38620545Y-26312577D01*
X-38474223Y-26166255D01*
X-38359259Y-25994198D01*
X-38328154Y-25919105D01*
X-16130500Y-25919105D01*
X-16130500Y-26050894D01*
X-16096394Y-26178181D01*
X-16096393Y-26178184D01*
X-16096392Y-26178186D01*
X-16030500Y-26292314D01*
X-15937314Y-26385500D01*
X-15823186Y-26451392D01*
X-15695895Y-26485499D01*
X-15695894Y-26485500D01*
X-15695892Y-26485500D01*
X-15564106Y-26485500D01*
X-15564106Y-26485499D01*
X-15436814Y-26451392D01*
X-15322686Y-26385500D01*
X-15229500Y-26292314D01*
X-15163608Y-26178186D01*
X-15129501Y-26050894D01*
X-15129500Y-26050894D01*
X-15129500Y-25939105D01*
X-7060500Y-25939105D01*
X-7060500Y-26070894D01*
X-7026394Y-26198181D01*
X-7026393Y-26198184D01*
X-7026392Y-26198186D01*
X-6960500Y-26312314D01*
X-6867314Y-26405500D01*
X-6753186Y-26471392D01*
X-6625895Y-26505499D01*
X-6625894Y-26505500D01*
X-6625892Y-26505500D01*
X-6494106Y-26505500D01*
X-6494106Y-26505499D01*
X-6366814Y-26471392D01*
X-6252686Y-26405500D01*
X-6159500Y-26312314D01*
X-6093608Y-26198186D01*
X-6059501Y-26070894D01*
X-6059500Y-26070894D01*
X-6059500Y-25939106D01*
X-6059501Y-25939105D01*
X-6064860Y-25919106D01*
X-6093608Y-25811814D01*
X-6159500Y-25697686D01*
X-6252686Y-25604500D01*
X-6287327Y-25584500D01*
X-6366810Y-25538610D01*
X-6366819Y-25538606D01*
X-6494106Y-25504500D01*
X-6494108Y-25504500D01*
X-6625892Y-25504500D01*
X-6625894Y-25504500D01*
X-6753182Y-25538606D01*
X-6753191Y-25538610D01*
X-6867315Y-25604500D01*
X-6960500Y-25697685D01*
X-7026390Y-25811809D01*
X-7026394Y-25811818D01*
X-7060500Y-25939105D01*
X-15129500Y-25939105D01*
X-15129500Y-25919106D01*
X-15129501Y-25919105D01*
X-15163607Y-25791818D01*
X-15163608Y-25791814D01*
X-15229500Y-25677686D01*
X-15322686Y-25584500D01*
X-15436810Y-25518610D01*
X-15436819Y-25518606D01*
X-15564106Y-25484500D01*
X-15564108Y-25484500D01*
X-15695892Y-25484500D01*
X-15695894Y-25484500D01*
X-15823182Y-25518606D01*
X-15823191Y-25518610D01*
X-15937315Y-25584500D01*
X-16030500Y-25677685D01*
X-16096390Y-25791809D01*
X-16096394Y-25791818D01*
X-16130500Y-25919105D01*
X-38328154Y-25919105D01*
X-38280070Y-25803020D01*
X-38239700Y-25600065D01*
X-38239700Y-25393135D01*
X-38280070Y-25190180D01*
X-38359259Y-24999002D01*
X-38474223Y-24826945D01*
X-38620545Y-24680623D01*
X-38792602Y-24565659D01*
X-38956851Y-24497624D01*
X-38983776Y-24486471D01*
X-38983787Y-24486468D01*
X-39136684Y-24456055D01*
X-39186735Y-24446100D01*
X-39393665Y-24446100D01*
X-39433815Y-24454086D01*
X-39596614Y-24486468D01*
X-39596621Y-24486470D01*
X-39787799Y-24565659D01*
X-39959855Y-24680622D01*
X-39959856Y-24680624D01*
X-40106176Y-24826944D01*
X-40106178Y-24826945D01*
X-40221141Y-24999001D01*
X-40300330Y-25190179D01*
X-40300332Y-25190186D01*
X-40340700Y-25393135D01*
X-40644500Y-25393135D01*
X-40644500Y-24434105D01*
X-33900500Y-24434105D01*
X-33900500Y-24565894D01*
X-33866394Y-24693181D01*
X-33866393Y-24693184D01*
X-33866392Y-24693186D01*
X-33800500Y-24807314D01*
X-33707314Y-24900500D01*
X-33593186Y-24966392D01*
X-33465895Y-25000499D01*
X-33465894Y-25000500D01*
X-33465892Y-25000500D01*
X-33334106Y-25000500D01*
X-33334106Y-25000499D01*
X-33206814Y-24966392D01*
X-33092686Y-24900500D01*
X-32999500Y-24807314D01*
X-32933608Y-24693186D01*
X-32899501Y-24565894D01*
X-32899500Y-24565894D01*
X-32899500Y-24434106D01*
X-32899501Y-24434105D01*
X-32933607Y-24306818D01*
X-32933608Y-24306814D01*
X-32999500Y-24192686D01*
X-33092686Y-24099500D01*
X-33206810Y-24033610D01*
X-33206819Y-24033606D01*
X-33334106Y-23999500D01*
X-33334108Y-23999500D01*
X-33465892Y-23999500D01*
X-33465894Y-23999500D01*
X-33593182Y-24033606D01*
X-33593191Y-24033610D01*
X-33707315Y-24099500D01*
X-33800500Y-24192685D01*
X-33866390Y-24306809D01*
X-33866394Y-24306818D01*
X-33900500Y-24434105D01*
X-40644500Y-24434105D01*
X-40644500Y-22853135D01*
X-40340700Y-22853135D01*
X-40340700Y-23060064D01*
X-40300332Y-23263013D01*
X-40300330Y-23263020D01*
X-40221141Y-23454198D01*
X-40106177Y-23626255D01*
X-39959855Y-23772577D01*
X-39787798Y-23887541D01*
X-39596620Y-23966730D01*
X-39393665Y-24007100D01*
X-39393664Y-24007100D01*
X-39186736Y-24007100D01*
X-39186735Y-24007100D01*
X-38983780Y-23966730D01*
X-38792602Y-23887541D01*
X-38780276Y-23879305D01*
X-3618100Y-23879305D01*
X-3618100Y-24011094D01*
X-3583994Y-24138381D01*
X-3583990Y-24138390D01*
X-3552642Y-24192686D01*
X-3518100Y-24252514D01*
X-3424914Y-24345700D01*
X-3310786Y-24411592D01*
X-3183495Y-24445699D01*
X-3183494Y-24445700D01*
X-3183492Y-24445700D01*
X-3051706Y-24445700D01*
X-3051706Y-24445699D01*
X-2924414Y-24411592D01*
X-2810286Y-24345700D01*
X-2717100Y-24252514D01*
X-2651208Y-24138386D01*
X-2617101Y-24011094D01*
X-2617100Y-24011094D01*
X-2617100Y-23879306D01*
X-2617101Y-23879305D01*
X5461500Y-23879305D01*
X5461500Y-24011094D01*
X5495606Y-24138381D01*
X5495610Y-24138390D01*
X5526958Y-24192686D01*
X5561500Y-24252514D01*
X5654686Y-24345700D01*
X5768814Y-24411592D01*
X5896105Y-24445699D01*
X5896106Y-24445700D01*
X5896108Y-24445700D01*
X6027894Y-24445700D01*
X6027894Y-24445699D01*
X6155186Y-24411592D01*
X6269314Y-24345700D01*
X6362500Y-24252514D01*
X6428392Y-24138386D01*
X6462499Y-24011094D01*
X6462500Y-24011094D01*
X6462500Y-23879306D01*
X6462499Y-23879305D01*
X6433901Y-23772576D01*
X6428392Y-23752014D01*
X6362500Y-23637886D01*
X6269314Y-23544700D01*
X6155190Y-23478810D01*
X6155181Y-23478806D01*
X6027894Y-23444700D01*
X6027892Y-23444700D01*
X5896108Y-23444700D01*
X5896106Y-23444700D01*
X5768818Y-23478806D01*
X5768809Y-23478810D01*
X5654685Y-23544700D01*
X5561500Y-23637885D01*
X5495610Y-23752009D01*
X5495606Y-23752018D01*
X5461500Y-23879305D01*
X-2617101Y-23879305D01*
X-2645699Y-23772576D01*
X-2651208Y-23752014D01*
X-2717100Y-23637886D01*
X-2810286Y-23544700D01*
X-2924410Y-23478810D01*
X-2924419Y-23478806D01*
X-3051706Y-23444700D01*
X-3051708Y-23444700D01*
X-3183492Y-23444700D01*
X-3183494Y-23444700D01*
X-3310782Y-23478806D01*
X-3310791Y-23478810D01*
X-3424915Y-23544700D01*
X-3518100Y-23637885D01*
X-3583990Y-23752009D01*
X-3583994Y-23752018D01*
X-3618100Y-23879305D01*
X-38780276Y-23879305D01*
X-38620545Y-23772577D01*
X-38474223Y-23626255D01*
X-38359259Y-23454198D01*
X-38280070Y-23263020D01*
X-38239700Y-23060065D01*
X-38239700Y-22853135D01*
X-38280070Y-22650180D01*
X-38359259Y-22459002D01*
X-38474223Y-22286945D01*
X-38620545Y-22140623D01*
X-38671716Y-22106432D01*
X-38792602Y-22025659D01*
X-38983780Y-21946470D01*
X-38983787Y-21946468D01*
X-39136684Y-21916055D01*
X-39186735Y-21906100D01*
X-39393665Y-21906100D01*
X-39433815Y-21914086D01*
X-39596614Y-21946468D01*
X-39596621Y-21946470D01*
X-39787799Y-22025659D01*
X-39959855Y-22140622D01*
X-39959856Y-22140624D01*
X-40106176Y-22286944D01*
X-40106178Y-22286945D01*
X-40221141Y-22459001D01*
X-40300330Y-22650179D01*
X-40300332Y-22650186D01*
X-40340700Y-22853135D01*
X-40644500Y-22853135D01*
X-40644500Y-20313135D01*
X-40340700Y-20313135D01*
X-40340700Y-20520064D01*
X-40300332Y-20723013D01*
X-40300330Y-20723020D01*
X-40221141Y-20914198D01*
X-40113875Y-21074735D01*
X-40106177Y-21086255D01*
X-39959855Y-21232577D01*
X-39787798Y-21347541D01*
X-39596620Y-21426730D01*
X-39393665Y-21467100D01*
X-39393664Y-21467100D01*
X-39186736Y-21467100D01*
X-39186735Y-21467100D01*
X-38983780Y-21426730D01*
X-38792602Y-21347541D01*
X-38620545Y-21232577D01*
X-38474223Y-21086255D01*
X-38359259Y-20914198D01*
X-38280070Y-20723020D01*
X-38239700Y-20520065D01*
X-38239700Y-20313135D01*
X-38240631Y-20308453D01*
X10005300Y-20308453D01*
X10005300Y-22047946D01*
X10016933Y-22106432D01*
X10039779Y-22140622D01*
X10061248Y-22172752D01*
X10105360Y-22202227D01*
X10127567Y-22217066D01*
X10127568Y-22217066D01*
X10127569Y-22217067D01*
X10186052Y-22228700D01*
X10186054Y-22228700D01*
X11925546Y-22228700D01*
X11925548Y-22228700D01*
X11984031Y-22217067D01*
X12050352Y-22172752D01*
X12094667Y-22106431D01*
X12106300Y-22047948D01*
X12106300Y-21074735D01*
X12545300Y-21074735D01*
X12545300Y-21281664D01*
X12585668Y-21484613D01*
X12585670Y-21484620D01*
X12664859Y-21675798D01*
X12779823Y-21847855D01*
X12926145Y-21994177D01*
X13098202Y-22109141D01*
X13289380Y-22188330D01*
X13492335Y-22228700D01*
X13492336Y-22228700D01*
X13699264Y-22228700D01*
X13699265Y-22228700D01*
X13902220Y-22188330D01*
X14093398Y-22109141D01*
X14265455Y-21994177D01*
X14411777Y-21847855D01*
X14526741Y-21675798D01*
X14605930Y-21484620D01*
X14646300Y-21281665D01*
X14646300Y-21074735D01*
X15085300Y-21074735D01*
X15085300Y-21281664D01*
X15125668Y-21484613D01*
X15125670Y-21484620D01*
X15204859Y-21675798D01*
X15319823Y-21847855D01*
X15466145Y-21994177D01*
X15638202Y-22109141D01*
X15829380Y-22188330D01*
X16032335Y-22228700D01*
X16032336Y-22228700D01*
X16239264Y-22228700D01*
X16239265Y-22228700D01*
X16442220Y-22188330D01*
X16633398Y-22109141D01*
X16805455Y-21994177D01*
X16951777Y-21847855D01*
X17066741Y-21675798D01*
X17145930Y-21484620D01*
X17186300Y-21281665D01*
X17186300Y-21074735D01*
X17145930Y-20871780D01*
X17066741Y-20680602D01*
X16951777Y-20508545D01*
X16805455Y-20362223D01*
X16724980Y-20308452D01*
X16633398Y-20247259D01*
X16442220Y-20168070D01*
X16442213Y-20168068D01*
X16289316Y-20137655D01*
X16239265Y-20127700D01*
X16032335Y-20127700D01*
X16013774Y-20131392D01*
X15829386Y-20168068D01*
X15829379Y-20168070D01*
X15638201Y-20247259D01*
X15466145Y-20362222D01*
X15466144Y-20362224D01*
X15319824Y-20508544D01*
X15319822Y-20508545D01*
X15204859Y-20680601D01*
X15125670Y-20871779D01*
X15125668Y-20871786D01*
X15085300Y-21074735D01*
X14646300Y-21074735D01*
X14605930Y-20871780D01*
X14526741Y-20680602D01*
X14411777Y-20508545D01*
X14265455Y-20362223D01*
X14184980Y-20308452D01*
X14093398Y-20247259D01*
X13902220Y-20168070D01*
X13902213Y-20168068D01*
X13749316Y-20137655D01*
X13699265Y-20127700D01*
X13492335Y-20127700D01*
X13473774Y-20131392D01*
X13289386Y-20168068D01*
X13289379Y-20168070D01*
X13098201Y-20247259D01*
X12926145Y-20362222D01*
X12926144Y-20362224D01*
X12779824Y-20508544D01*
X12779822Y-20508545D01*
X12664859Y-20680601D01*
X12585670Y-20871779D01*
X12585668Y-20871786D01*
X12545300Y-21074735D01*
X12106300Y-21074735D01*
X12106300Y-20308452D01*
X12094667Y-20249969D01*
X12092856Y-20247259D01*
X12071635Y-20215500D01*
X12050352Y-20183648D01*
X12023191Y-20165499D01*
X11984032Y-20139333D01*
X11984033Y-20139333D01*
X11954789Y-20133516D01*
X11925548Y-20127700D01*
X10186052Y-20127700D01*
X10156810Y-20133516D01*
X10127567Y-20139333D01*
X10061249Y-20183647D01*
X10061247Y-20183649D01*
X10016933Y-20249967D01*
X10005300Y-20308453D01*
X-38240631Y-20308453D01*
X-38280070Y-20110180D01*
X-38359259Y-19919002D01*
X-38474223Y-19746945D01*
X-38620545Y-19600623D01*
X-38620731Y-19600499D01*
X-38622817Y-19599105D01*
X-19770500Y-19599105D01*
X-19770500Y-19730894D01*
X-19736394Y-19858181D01*
X-19736390Y-19858190D01*
X-19707522Y-19908190D01*
X-19670500Y-19972314D01*
X-19577314Y-20065500D01*
X-19463186Y-20131392D01*
X-19335895Y-20165499D01*
X-19335894Y-20165500D01*
X-19335892Y-20165500D01*
X-19204106Y-20165500D01*
X-19204106Y-20165499D01*
X-19076814Y-20131392D01*
X-18962686Y-20065500D01*
X-18869500Y-19972314D01*
X-18803608Y-19858186D01*
X-18769501Y-19730894D01*
X-18769500Y-19730894D01*
X-18769500Y-19649105D01*
X-3460500Y-19649105D01*
X-3460500Y-19780894D01*
X-3426394Y-19908181D01*
X-3426390Y-19908190D01*
X-3398028Y-19957314D01*
X-3360500Y-20022314D01*
X-3267314Y-20115500D01*
X-3153186Y-20181392D01*
X-3025895Y-20215499D01*
X-3025894Y-20215500D01*
X-3025892Y-20215500D01*
X-2894106Y-20215500D01*
X-2894106Y-20215499D01*
X-2766814Y-20181392D01*
X-2652686Y-20115500D01*
X-2559500Y-20022314D01*
X-2493608Y-19908186D01*
X-2459501Y-19780894D01*
X-2459500Y-19780894D01*
X-2459500Y-19649106D01*
X-2459501Y-19649105D01*
X-2473084Y-19598411D01*
X-2473085Y-19598410D01*
X-2476918Y-19584105D01*
X5649500Y-19584105D01*
X5649500Y-19715894D01*
X5683606Y-19843181D01*
X5683610Y-19843190D01*
X5721133Y-19908181D01*
X5749500Y-19957314D01*
X5842686Y-20050500D01*
X5956814Y-20116392D01*
X6084105Y-20150499D01*
X6084106Y-20150500D01*
X6084108Y-20150500D01*
X6215894Y-20150500D01*
X6215894Y-20150499D01*
X6343186Y-20116392D01*
X6457314Y-20050500D01*
X6550500Y-19957314D01*
X6616392Y-19843186D01*
X6650499Y-19715894D01*
X6650500Y-19715894D01*
X6650500Y-19584106D01*
X6650499Y-19584105D01*
X6633809Y-19521818D01*
X6616392Y-19456814D01*
X6550500Y-19342686D01*
X6457314Y-19249500D01*
X6343186Y-19183608D01*
X6343183Y-19183607D01*
X6343181Y-19183606D01*
X6271898Y-19164506D01*
X10548300Y-19164506D01*
X10548300Y-19296294D01*
X10582406Y-19423581D01*
X10582410Y-19423590D01*
X10639120Y-19521814D01*
X10648300Y-19537714D01*
X10741486Y-19630900D01*
X10855614Y-19696792D01*
X10982905Y-19730899D01*
X10982906Y-19730900D01*
X10982908Y-19730900D01*
X11114694Y-19730900D01*
X11114694Y-19730899D01*
X11241986Y-19696792D01*
X11356114Y-19630900D01*
X11449300Y-19537714D01*
X11515192Y-19423586D01*
X11549299Y-19296294D01*
X11549300Y-19296294D01*
X11549300Y-19164506D01*
X11544987Y-19148412D01*
X11544987Y-19148411D01*
X11544986Y-19148410D01*
X11541153Y-19134105D01*
X11799500Y-19134105D01*
X11799500Y-19265894D01*
X11833606Y-19393181D01*
X11833610Y-19393190D01*
X11851159Y-19423586D01*
X11899500Y-19507314D01*
X11992686Y-19600500D01*
X12106814Y-19666392D01*
X12234105Y-19700499D01*
X12234106Y-19700500D01*
X12234108Y-19700500D01*
X12365894Y-19700500D01*
X12365894Y-19700499D01*
X12493186Y-19666392D01*
X12607314Y-19600500D01*
X12700500Y-19507314D01*
X12766392Y-19393186D01*
X12800499Y-19265894D01*
X12800500Y-19265894D01*
X12800500Y-19134106D01*
X12800499Y-19134105D01*
X13099500Y-19134105D01*
X13099500Y-19265894D01*
X13133606Y-19393181D01*
X13133610Y-19393190D01*
X13151159Y-19423586D01*
X13199500Y-19507314D01*
X13292686Y-19600500D01*
X13406814Y-19666392D01*
X13534105Y-19700499D01*
X13534106Y-19700500D01*
X13534108Y-19700500D01*
X13665894Y-19700500D01*
X13665894Y-19700499D01*
X13793186Y-19666392D01*
X13907314Y-19600500D01*
X14000500Y-19507314D01*
X14066392Y-19393186D01*
X14100499Y-19265894D01*
X14100500Y-19265894D01*
X14100500Y-19134106D01*
X14100499Y-19134105D01*
X14399500Y-19134105D01*
X14399500Y-19265894D01*
X14433606Y-19393181D01*
X14433610Y-19393190D01*
X14451159Y-19423586D01*
X14499500Y-19507314D01*
X14592686Y-19600500D01*
X14706814Y-19666392D01*
X14834105Y-19700499D01*
X14834106Y-19700500D01*
X14834108Y-19700500D01*
X14965894Y-19700500D01*
X14965894Y-19700499D01*
X15093186Y-19666392D01*
X15207314Y-19600500D01*
X15300500Y-19507314D01*
X15366392Y-19393186D01*
X15400499Y-19265894D01*
X15400500Y-19265894D01*
X15400500Y-19134106D01*
X15400499Y-19134105D01*
X15376705Y-19045305D01*
X15642300Y-19045305D01*
X15642300Y-19177094D01*
X15676406Y-19304381D01*
X15676410Y-19304390D01*
X15707180Y-19357685D01*
X15742300Y-19418514D01*
X15835486Y-19511700D01*
X15949614Y-19577592D01*
X16076905Y-19611699D01*
X16076906Y-19611700D01*
X16076908Y-19611700D01*
X16208694Y-19611700D01*
X16208694Y-19611699D01*
X16335986Y-19577592D01*
X16450114Y-19511700D01*
X16543300Y-19418514D01*
X16609192Y-19304386D01*
X16643299Y-19177094D01*
X16643300Y-19177094D01*
X16643300Y-19045306D01*
X16643299Y-19045305D01*
X16611626Y-18927100D01*
X16609192Y-18918014D01*
X16543300Y-18803886D01*
X16450114Y-18710700D01*
X16418724Y-18692577D01*
X16335990Y-18644810D01*
X16335981Y-18644806D01*
X16208694Y-18610700D01*
X16208692Y-18610700D01*
X16076908Y-18610700D01*
X16076906Y-18610700D01*
X15949618Y-18644806D01*
X15949609Y-18644810D01*
X15835485Y-18710700D01*
X15742300Y-18803885D01*
X15676410Y-18918009D01*
X15676406Y-18918018D01*
X15642300Y-19045305D01*
X15376705Y-19045305D01*
X15366392Y-19006814D01*
X15300500Y-18892686D01*
X15207314Y-18799500D01*
X15145837Y-18764006D01*
X15093190Y-18733610D01*
X15093181Y-18733606D01*
X14965894Y-18699500D01*
X14965892Y-18699500D01*
X14834108Y-18699500D01*
X14834106Y-18699500D01*
X14706818Y-18733606D01*
X14706809Y-18733610D01*
X14592685Y-18799500D01*
X14499500Y-18892685D01*
X14433610Y-19006809D01*
X14433606Y-19006818D01*
X14399500Y-19134105D01*
X14100499Y-19134105D01*
X14080539Y-19059614D01*
X14066392Y-19006814D01*
X14000500Y-18892686D01*
X13907314Y-18799500D01*
X13845837Y-18764006D01*
X13793190Y-18733610D01*
X13793181Y-18733606D01*
X13665894Y-18699500D01*
X13665892Y-18699500D01*
X13534108Y-18699500D01*
X13534106Y-18699500D01*
X13406818Y-18733606D01*
X13406809Y-18733610D01*
X13292685Y-18799500D01*
X13199500Y-18892685D01*
X13133610Y-19006809D01*
X13133606Y-19006818D01*
X13099500Y-19134105D01*
X12800499Y-19134105D01*
X12780539Y-19059614D01*
X12766392Y-19006814D01*
X12700500Y-18892686D01*
X12607314Y-18799500D01*
X12545837Y-18764006D01*
X12493190Y-18733610D01*
X12493181Y-18733606D01*
X12365894Y-18699500D01*
X12365892Y-18699500D01*
X12234108Y-18699500D01*
X12234106Y-18699500D01*
X12106818Y-18733606D01*
X12106809Y-18733610D01*
X11992685Y-18799500D01*
X11899500Y-18892685D01*
X11833610Y-19006809D01*
X11833606Y-19006818D01*
X11799500Y-19134105D01*
X11541153Y-19134105D01*
X11515192Y-19037214D01*
X11449300Y-18923086D01*
X11356114Y-18829900D01*
X11317387Y-18807541D01*
X11241990Y-18764010D01*
X11241981Y-18764006D01*
X11114694Y-18729900D01*
X11114692Y-18729900D01*
X10982908Y-18729900D01*
X10982906Y-18729900D01*
X10855618Y-18764006D01*
X10855609Y-18764010D01*
X10741485Y-18829900D01*
X10648300Y-18923085D01*
X10582410Y-19037209D01*
X10582406Y-19037218D01*
X10548301Y-19164500D01*
X10548300Y-19164506D01*
X6271898Y-19164506D01*
X6215894Y-19149500D01*
X6215892Y-19149500D01*
X6084108Y-19149500D01*
X6084106Y-19149500D01*
X5956818Y-19183606D01*
X5956809Y-19183610D01*
X5842685Y-19249500D01*
X5749500Y-19342685D01*
X5683610Y-19456809D01*
X5683606Y-19456818D01*
X5649500Y-19584105D01*
X-2476918Y-19584105D01*
X-2493608Y-19521814D01*
X-2559500Y-19407686D01*
X-2652686Y-19314500D01*
X-2670204Y-19304386D01*
X-2766810Y-19248610D01*
X-2766819Y-19248606D01*
X-2894106Y-19214500D01*
X-2894108Y-19214500D01*
X-3025892Y-19214500D01*
X-3025894Y-19214500D01*
X-3153182Y-19248606D01*
X-3153191Y-19248610D01*
X-3267315Y-19314500D01*
X-3360500Y-19407685D01*
X-3426390Y-19521809D01*
X-3426394Y-19521818D01*
X-3460500Y-19649105D01*
X-18769500Y-19649105D01*
X-18769500Y-19599106D01*
X-18769501Y-19599105D01*
X-18803607Y-19471818D01*
X-18803608Y-19471814D01*
X-18869500Y-19357686D01*
X-18962686Y-19264500D01*
X-19049288Y-19214500D01*
X-19076810Y-19198610D01*
X-19076819Y-19198606D01*
X-19204106Y-19164500D01*
X-19204108Y-19164500D01*
X-19335892Y-19164500D01*
X-19335894Y-19164500D01*
X-19463182Y-19198606D01*
X-19463191Y-19198610D01*
X-19577315Y-19264500D01*
X-19670500Y-19357685D01*
X-19736390Y-19471809D01*
X-19736394Y-19471818D01*
X-19770500Y-19599105D01*
X-38622817Y-19599105D01*
X-38792602Y-19485659D01*
X-38983780Y-19406470D01*
X-38983787Y-19406468D01*
X-39136684Y-19376055D01*
X-39186735Y-19366100D01*
X-39393665Y-19366100D01*
X-39433815Y-19374086D01*
X-39596614Y-19406468D01*
X-39596621Y-19406470D01*
X-39787799Y-19485659D01*
X-39959855Y-19600622D01*
X-39959856Y-19600624D01*
X-40106176Y-19746944D01*
X-40106178Y-19746945D01*
X-40221141Y-19919001D01*
X-40300330Y-20110179D01*
X-40300332Y-20110186D01*
X-40340700Y-20313135D01*
X-40644500Y-20313135D01*
X-40644500Y-17773135D01*
X-40340700Y-17773135D01*
X-40340700Y-17980064D01*
X-40300332Y-18183013D01*
X-40300330Y-18183020D01*
X-40221141Y-18374198D01*
X-40106177Y-18546255D01*
X-39959855Y-18692577D01*
X-39787798Y-18807541D01*
X-39596620Y-18886730D01*
X-39393665Y-18927100D01*
X-39393664Y-18927100D01*
X-39186736Y-18927100D01*
X-39186735Y-18927100D01*
X-38983780Y-18886730D01*
X-38792602Y-18807541D01*
X-38620545Y-18692577D01*
X-38474223Y-18546255D01*
X-38359259Y-18374198D01*
X-38280070Y-18183020D01*
X-38239700Y-17980065D01*
X-38239700Y-17773135D01*
X-38280070Y-17570180D01*
X-38359259Y-17379002D01*
X-38474223Y-17206945D01*
X-38620545Y-17060623D01*
X-38792602Y-16945659D01*
X-38983780Y-16866470D01*
X-38983787Y-16866468D01*
X-39136684Y-16836055D01*
X-39186735Y-16826100D01*
X-39393665Y-16826100D01*
X-39433815Y-16834086D01*
X-39596614Y-16866468D01*
X-39596621Y-16866470D01*
X-39787799Y-16945659D01*
X-39959855Y-17060622D01*
X-39959856Y-17060624D01*
X-40106176Y-17206944D01*
X-40106178Y-17206945D01*
X-40221141Y-17379001D01*
X-40300330Y-17570179D01*
X-40300332Y-17570186D01*
X-40340700Y-17773135D01*
X-40644500Y-17773135D01*
X-40644500Y-15554905D01*
X3791900Y-15554905D01*
X3791900Y-15686694D01*
X3826006Y-15813981D01*
X3826007Y-15813984D01*
X3826008Y-15813986D01*
X3891900Y-15928114D01*
X3985086Y-16021300D01*
X4099214Y-16087192D01*
X4226505Y-16121299D01*
X4226506Y-16121300D01*
X4226508Y-16121300D01*
X4358294Y-16121300D01*
X4358294Y-16121299D01*
X4485586Y-16087192D01*
X4599714Y-16021300D01*
X4692900Y-15928114D01*
X4758792Y-15813986D01*
X4792899Y-15686694D01*
X4792900Y-15686694D01*
X4792900Y-15585700D01*
X4814574Y-15533374D01*
X4861685Y-15513859D01*
X4861485Y-15512333D01*
X4866286Y-15511700D01*
X4866292Y-15511700D01*
X4993586Y-15477592D01*
X5107714Y-15411700D01*
X5200900Y-15318514D01*
X5266792Y-15204386D01*
X5300899Y-15077094D01*
X5300900Y-15077094D01*
X5300900Y-14945306D01*
X5300899Y-14945305D01*
X5266793Y-14818018D01*
X5266792Y-14818014D01*
X5200900Y-14703886D01*
X5107714Y-14610700D01*
X5087274Y-14598899D01*
X4993590Y-14544810D01*
X4993581Y-14544806D01*
X4866294Y-14510700D01*
X4866292Y-14510700D01*
X4734508Y-14510700D01*
X4734506Y-14510700D01*
X4607218Y-14544806D01*
X4607209Y-14544810D01*
X4493085Y-14610700D01*
X4399900Y-14703885D01*
X4334010Y-14818009D01*
X4334006Y-14818018D01*
X4299900Y-14945305D01*
X4299900Y-15046300D01*
X4278226Y-15098626D01*
X4231114Y-15118140D01*
X4231315Y-15119667D01*
X4226505Y-15120300D01*
X4099218Y-15154406D01*
X4099209Y-15154410D01*
X3985085Y-15220300D01*
X3891900Y-15313485D01*
X3826010Y-15427609D01*
X3826006Y-15427618D01*
X3791900Y-15554905D01*
X-40644500Y-15554905D01*
X-40644500Y-14132505D01*
X-9517700Y-14132505D01*
X-9517700Y-14264294D01*
X-9483594Y-14391581D01*
X-9483593Y-14391584D01*
X-9483592Y-14391586D01*
X-9417700Y-14505714D01*
X-9324514Y-14598900D01*
X-9210386Y-14664792D01*
X-9083095Y-14698899D01*
X-9083094Y-14698900D01*
X-9083092Y-14698900D01*
X-8951306Y-14698900D01*
X-8951306Y-14698899D01*
X-8824014Y-14664792D01*
X-8709886Y-14598900D01*
X-8616700Y-14505714D01*
X-8550808Y-14391586D01*
X-8516701Y-14264294D01*
X-8516700Y-14264294D01*
X-8516700Y-14132506D01*
X-8516701Y-14132505D01*
X-8519143Y-14123393D01*
X-8550808Y-14005214D01*
X-8616700Y-13891086D01*
X-8709886Y-13797900D01*
X-8824010Y-13732010D01*
X-8824019Y-13732006D01*
X-8951306Y-13697900D01*
X-8951308Y-13697900D01*
X-9083092Y-13697900D01*
X-9083094Y-13697900D01*
X-9210382Y-13732006D01*
X-9210391Y-13732010D01*
X-9324515Y-13797900D01*
X-9417700Y-13891085D01*
X-9483590Y-14005209D01*
X-9483594Y-14005218D01*
X-9517700Y-14132505D01*
X-40644500Y-14132505D01*
X-40644500Y-13591105D01*
X2199500Y-13591105D01*
X2199500Y-13722894D01*
X2233606Y-13850181D01*
X2233610Y-13850190D01*
X2299500Y-13964314D01*
X2392686Y-14057500D01*
X2506814Y-14123392D01*
X2634105Y-14157499D01*
X2634106Y-14157500D01*
X2634108Y-14157500D01*
X2765894Y-14157500D01*
X2765894Y-14157499D01*
X2893186Y-14123392D01*
X3007314Y-14057500D01*
X3100500Y-13964314D01*
X3166392Y-13850186D01*
X3200499Y-13722894D01*
X3200500Y-13722894D01*
X3200500Y-13591106D01*
X3200499Y-13591105D01*
X3190859Y-13555129D01*
X3166392Y-13463814D01*
X3100500Y-13349686D01*
X3007314Y-13256500D01*
X2893190Y-13190610D01*
X2893181Y-13190606D01*
X2765894Y-13156500D01*
X2765892Y-13156500D01*
X2634108Y-13156500D01*
X2634106Y-13156500D01*
X2506818Y-13190606D01*
X2506809Y-13190610D01*
X2392685Y-13256500D01*
X2299500Y-13349685D01*
X2233610Y-13463809D01*
X2233606Y-13463818D01*
X2199500Y-13591105D01*
X-40644500Y-13591105D01*
X-40644500Y-11990042D01*
X-32590500Y-11990042D01*
X-32590500Y-12218357D01*
X-32554785Y-12443857D01*
X-32554782Y-12443870D01*
X-32484234Y-12660993D01*
X-32387211Y-12851413D01*
X-32380579Y-12864428D01*
X-32246379Y-13049137D01*
X-32084937Y-13210579D01*
X-31900228Y-13344779D01*
X-31696799Y-13448431D01*
X-31696797Y-13448431D01*
X-31696794Y-13448433D01*
X-31479671Y-13518981D01*
X-31479665Y-13518982D01*
X-31479660Y-13518984D01*
X-31329325Y-13542794D01*
X-31254158Y-13554700D01*
X-31254157Y-13554700D01*
X-31025842Y-13554700D01*
X-30969468Y-13545771D01*
X-30800340Y-13518984D01*
X-30800333Y-13518981D01*
X-30800330Y-13518981D01*
X-30790785Y-13515880D01*
X-30583207Y-13448433D01*
X-30583207Y-13448432D01*
X-30583201Y-13448431D01*
X-30379772Y-13344779D01*
X-30195063Y-13210579D01*
X-30033621Y-13049137D01*
X-29899421Y-12864428D01*
X-29795769Y-12660999D01*
X-29751058Y-12523393D01*
X-29725219Y-12443870D01*
X-29725219Y-12443867D01*
X-29725216Y-12443860D01*
X-29689500Y-12218357D01*
X-29689500Y-11990043D01*
X-29725216Y-11764540D01*
X-29725218Y-11764535D01*
X-29725219Y-11764529D01*
X-29795767Y-11547406D01*
X-29795769Y-11547403D01*
X-29795769Y-11547401D01*
X-29899421Y-11343972D01*
X-30033621Y-11159263D01*
X-30195063Y-10997821D01*
X-30195066Y-10997818D01*
X-30195068Y-10997817D01*
X-30379773Y-10863620D01*
X-30583207Y-10759966D01*
X-30800330Y-10689418D01*
X-30800343Y-10689415D01*
X-31025842Y-10653700D01*
X-31025843Y-10653700D01*
X-31254157Y-10653700D01*
X-31254158Y-10653700D01*
X-31479658Y-10689415D01*
X-31479671Y-10689418D01*
X-31696794Y-10759966D01*
X-31900228Y-10863620D01*
X-32084933Y-10997817D01*
X-32246383Y-11159267D01*
X-32380580Y-11343972D01*
X-32484234Y-11547406D01*
X-32554782Y-11764529D01*
X-32554785Y-11764542D01*
X-32590500Y-11990042D01*
X-40644500Y-11990042D01*
X-40644500Y-7233958D01*
X-33917700Y-7233958D01*
X-33917700Y-7489641D01*
X-33884327Y-7743138D01*
X-33818151Y-7990109D01*
X-33818149Y-7990116D01*
X-33720308Y-8226326D01*
X-33720305Y-8226334D01*
X-33592464Y-8447761D01*
X-33592460Y-8447767D01*
X-33436810Y-8650613D01*
X-33256014Y-8831409D01*
X-33053168Y-8987059D01*
X-33053162Y-8987063D01*
X-32867957Y-9093991D01*
X-32831735Y-9114904D01*
X-32595513Y-9212750D01*
X-32348540Y-9278926D01*
X-32095043Y-9312300D01*
X-32095041Y-9312300D01*
X-31839359Y-9312300D01*
X-31839357Y-9312300D01*
X-31585860Y-9278926D01*
X-31338887Y-9212750D01*
X-31102665Y-9114904D01*
X-30881235Y-8987061D01*
X-30840765Y-8956007D01*
X-15175500Y-8956007D01*
X-15175500Y-9093993D01*
X-15171340Y-9114907D01*
X-15148582Y-9229322D01*
X-15148579Y-9229332D01*
X-15095777Y-9356808D01*
X-15062114Y-9407189D01*
X-15019114Y-9471542D01*
X-14921542Y-9569114D01*
X-14921539Y-9569116D01*
X-14921537Y-9569118D01*
X-14877606Y-9598472D01*
X-14846141Y-9645564D01*
X-14857191Y-9701113D01*
X-14877606Y-9721528D01*
X-14921537Y-9750881D01*
X-15019117Y-9848461D01*
X-15095777Y-9963191D01*
X-15148579Y-10090667D01*
X-15148582Y-10090677D01*
X-15171055Y-10203656D01*
X-15175496Y-10225990D01*
X-15175500Y-10226008D01*
X-15175500Y-10363991D01*
X-15148582Y-10499322D01*
X-15148579Y-10499332D01*
X-15095777Y-10626808D01*
X-15053298Y-10690383D01*
X-15019114Y-10741542D01*
X-14921542Y-10839114D01*
X-14921539Y-10839116D01*
X-14921537Y-10839118D01*
X-14877606Y-10868472D01*
X-14846141Y-10915564D01*
X-14857191Y-10971113D01*
X-14877606Y-10991528D01*
X-14921537Y-11020881D01*
X-15019117Y-11118461D01*
X-15095777Y-11233191D01*
X-15148579Y-11360667D01*
X-15148582Y-11360677D01*
X-15175500Y-11496008D01*
X-15175500Y-11633991D01*
X-15148582Y-11769322D01*
X-15148579Y-11769332D01*
X-15095777Y-11896808D01*
X-15095776Y-11896810D01*
X-15095775Y-11896811D01*
X-15019114Y-12011542D01*
X-14921542Y-12109114D01*
X-14806811Y-12185775D01*
X-14679328Y-12238580D01*
X-14543993Y-12265500D01*
X-14543991Y-12265500D01*
X-14406009Y-12265500D01*
X-14406007Y-12265500D01*
X-14270672Y-12238580D01*
X-14143189Y-12185775D01*
X-14028458Y-12109114D01*
X-14019752Y-12100407D01*
X-13967430Y-12078733D01*
X-13915103Y-12100405D01*
X-13894850Y-12138293D01*
X-13893868Y-12143229D01*
X-13893867Y-12143232D01*
X-13865440Y-12185775D01*
X-13849552Y-12209552D01*
X-13806112Y-12238578D01*
X-13783233Y-12253866D01*
X-13783232Y-12253866D01*
X-13783231Y-12253867D01*
X-13724748Y-12265500D01*
X-13724746Y-12265500D01*
X-12685254Y-12265500D01*
X-12685252Y-12265500D01*
X-12626769Y-12253867D01*
X-12560448Y-12209552D01*
X-12516133Y-12143231D01*
X-12504500Y-12084748D01*
X-12504500Y-11991105D01*
X-3200500Y-11991105D01*
X-3200500Y-12122894D01*
X-3166394Y-12250181D01*
X-3166390Y-12250190D01*
X-3100500Y-12364314D01*
X-3007314Y-12457500D01*
X-2893186Y-12523392D01*
X-2765895Y-12557499D01*
X-2765894Y-12557500D01*
X-2765892Y-12557500D01*
X-2634106Y-12557500D01*
X-2634106Y-12557499D01*
X-2506814Y-12523392D01*
X-2392686Y-12457500D01*
X-2299500Y-12364314D01*
X-2233608Y-12250186D01*
X-2199501Y-12122894D01*
X-2199500Y-12122894D01*
X-2199500Y-11991106D01*
X-2199501Y-11991105D01*
X-2199786Y-11990043D01*
X-2199786Y-11990042D01*
X5509500Y-11990042D01*
X5509500Y-12218357D01*
X5545215Y-12443857D01*
X5545218Y-12443870D01*
X5615766Y-12660993D01*
X5712789Y-12851413D01*
X5719421Y-12864428D01*
X5853621Y-13049137D01*
X6015063Y-13210579D01*
X6199772Y-13344779D01*
X6403201Y-13448431D01*
X6403203Y-13448431D01*
X6403206Y-13448433D01*
X6620329Y-13518981D01*
X6620335Y-13518982D01*
X6620340Y-13518984D01*
X6770675Y-13542794D01*
X6845842Y-13554700D01*
X6845843Y-13554700D01*
X7074158Y-13554700D01*
X7130532Y-13545771D01*
X7299660Y-13518984D01*
X7299667Y-13518981D01*
X7299670Y-13518981D01*
X7516793Y-13448433D01*
X7516793Y-13448432D01*
X7516799Y-13448431D01*
X7720228Y-13344779D01*
X7904937Y-13210579D01*
X8066379Y-13049137D01*
X8200579Y-12864428D01*
X8304231Y-12660999D01*
X8348942Y-12523393D01*
X8374781Y-12443870D01*
X8374781Y-12443867D01*
X8374784Y-12443860D01*
X8375152Y-12441535D01*
X13514500Y-12441535D01*
X13514500Y-12648464D01*
X13554868Y-12851413D01*
X13554870Y-12851420D01*
X13634059Y-13042598D01*
X13746301Y-13210582D01*
X13749023Y-13214655D01*
X13895345Y-13360977D01*
X14067402Y-13475941D01*
X14258580Y-13555130D01*
X14461535Y-13595500D01*
X14461536Y-13595500D01*
X14668464Y-13595500D01*
X14668465Y-13595500D01*
X14871420Y-13555130D01*
X15062598Y-13475941D01*
X15234655Y-13360977D01*
X15380977Y-13214655D01*
X15495941Y-13042598D01*
X15575130Y-12851420D01*
X15615500Y-12648465D01*
X15615500Y-12441535D01*
X16054500Y-12441535D01*
X16054500Y-12648464D01*
X16094868Y-12851413D01*
X16094870Y-12851420D01*
X16174059Y-13042598D01*
X16286301Y-13210582D01*
X16289023Y-13214655D01*
X16435345Y-13360977D01*
X16607402Y-13475941D01*
X16798580Y-13555130D01*
X17001535Y-13595500D01*
X17001536Y-13595500D01*
X17208464Y-13595500D01*
X17208465Y-13595500D01*
X17411420Y-13555130D01*
X17602598Y-13475941D01*
X17774655Y-13360977D01*
X17920977Y-13214655D01*
X18035941Y-13042598D01*
X18115130Y-12851420D01*
X18155500Y-12648465D01*
X18155500Y-12441535D01*
X18115130Y-12238580D01*
X18035941Y-12047402D01*
X17920977Y-11875345D01*
X17774655Y-11729023D01*
X17602598Y-11614059D01*
X17411420Y-11534870D01*
X17411413Y-11534868D01*
X17258516Y-11504455D01*
X17208465Y-11494500D01*
X17001535Y-11494500D01*
X16961385Y-11502486D01*
X16798586Y-11534868D01*
X16798579Y-11534870D01*
X16607401Y-11614059D01*
X16435345Y-11729022D01*
X16435344Y-11729024D01*
X16289024Y-11875344D01*
X16289022Y-11875345D01*
X16174059Y-12047401D01*
X16094870Y-12238579D01*
X16094868Y-12238586D01*
X16054500Y-12441535D01*
X15615500Y-12441535D01*
X15575130Y-12238580D01*
X15495941Y-12047402D01*
X15380977Y-11875345D01*
X15234655Y-11729023D01*
X15062598Y-11614059D01*
X14871420Y-11534870D01*
X14871413Y-11534868D01*
X14718516Y-11504455D01*
X14668465Y-11494500D01*
X14461535Y-11494500D01*
X14421385Y-11502486D01*
X14258586Y-11534868D01*
X14258579Y-11534870D01*
X14067401Y-11614059D01*
X13895345Y-11729022D01*
X13895344Y-11729024D01*
X13749024Y-11875344D01*
X13749022Y-11875345D01*
X13634059Y-12047401D01*
X13554870Y-12238579D01*
X13554868Y-12238586D01*
X13514500Y-12441535D01*
X8375152Y-12441535D01*
X8410500Y-12218357D01*
X8410500Y-11990043D01*
X8374784Y-11764540D01*
X8374782Y-11764535D01*
X8374781Y-11764529D01*
X8304233Y-11547406D01*
X8304231Y-11547403D01*
X8304231Y-11547401D01*
X8200579Y-11343972D01*
X8066379Y-11159263D01*
X7904937Y-10997821D01*
X7904934Y-10997818D01*
X7904932Y-10997817D01*
X7720227Y-10863620D01*
X7516793Y-10759966D01*
X7299670Y-10689418D01*
X7299657Y-10689415D01*
X7074158Y-10653700D01*
X7074157Y-10653700D01*
X6845843Y-10653700D01*
X6845842Y-10653700D01*
X6620342Y-10689415D01*
X6620329Y-10689418D01*
X6403206Y-10759966D01*
X6199772Y-10863620D01*
X6015067Y-10997817D01*
X5853617Y-11159267D01*
X5719420Y-11343972D01*
X5615766Y-11547406D01*
X5545218Y-11764529D01*
X5545215Y-11764542D01*
X5509500Y-11990042D01*
X-2199786Y-11990042D01*
X-2233608Y-11863814D01*
X-2299500Y-11749686D01*
X-2392686Y-11656500D01*
X-2431669Y-11633993D01*
X-2506810Y-11590610D01*
X-2506819Y-11590606D01*
X-2634106Y-11556500D01*
X-2634108Y-11556500D01*
X-2765892Y-11556500D01*
X-2765894Y-11556500D01*
X-2893182Y-11590606D01*
X-2893191Y-11590610D01*
X-3007315Y-11656500D01*
X-3100500Y-11749685D01*
X-3166390Y-11863809D01*
X-3166394Y-11863818D01*
X-3200500Y-11991105D01*
X-12504500Y-11991105D01*
X-12504500Y-11045252D01*
X-12516133Y-10986769D01*
X-12560448Y-10920448D01*
X-12607680Y-10888888D01*
X-12626768Y-10876133D01*
X-12626771Y-10876132D01*
X-12631707Y-10875150D01*
X-12678798Y-10843683D01*
X-12689844Y-10788133D01*
X-12669594Y-10750249D01*
X-12660886Y-10741542D01*
X-12584225Y-10626811D01*
X-12531420Y-10499328D01*
X-12504500Y-10363993D01*
X-12504500Y-10354105D01*
X-3100500Y-10354105D01*
X-3100500Y-10485894D01*
X-3066394Y-10613181D01*
X-3066390Y-10613190D01*
X-3022379Y-10689418D01*
X-3000500Y-10727314D01*
X-2907314Y-10820500D01*
X-2793186Y-10886392D01*
X-2665895Y-10920499D01*
X-2665894Y-10920500D01*
X-2665892Y-10920500D01*
X-2534106Y-10920500D01*
X-2534106Y-10920499D01*
X-2406814Y-10886392D01*
X-2292686Y-10820500D01*
X-2199500Y-10727314D01*
X-2133608Y-10613186D01*
X-2099501Y-10485894D01*
X-2099500Y-10485894D01*
X-2099500Y-10354106D01*
X-2099501Y-10354105D01*
X2299500Y-10354105D01*
X2299500Y-10485894D01*
X2333606Y-10613181D01*
X2333610Y-10613190D01*
X2377621Y-10689418D01*
X2399500Y-10727314D01*
X2492686Y-10820500D01*
X2606814Y-10886392D01*
X2734105Y-10920499D01*
X2734106Y-10920500D01*
X2734108Y-10920500D01*
X2865894Y-10920500D01*
X2865894Y-10920499D01*
X2993186Y-10886392D01*
X3107314Y-10820500D01*
X3200500Y-10727314D01*
X3266392Y-10613186D01*
X3300499Y-10485894D01*
X3300500Y-10485894D01*
X3300500Y-10354106D01*
X3300499Y-10354105D01*
X3266393Y-10226818D01*
X3266392Y-10226814D01*
X3200500Y-10112686D01*
X3107314Y-10019500D01*
X3069263Y-9997531D01*
X3016217Y-9966905D01*
X4655500Y-9966905D01*
X4655500Y-10098694D01*
X4689606Y-10225981D01*
X4689610Y-10225990D01*
X4690083Y-10226809D01*
X4755500Y-10340114D01*
X4848686Y-10433300D01*
X4962814Y-10499192D01*
X5090105Y-10533299D01*
X5090106Y-10533300D01*
X5090108Y-10533300D01*
X5221894Y-10533300D01*
X5221894Y-10533299D01*
X5349186Y-10499192D01*
X5463314Y-10433300D01*
X5556500Y-10340114D01*
X5622392Y-10225986D01*
X5656499Y-10098694D01*
X5656500Y-10098694D01*
X5656500Y-9966906D01*
X5656499Y-9966905D01*
X5655503Y-9963189D01*
X5622392Y-9839614D01*
X5556500Y-9725486D01*
X5463314Y-9632300D01*
X5409068Y-9600981D01*
X5349190Y-9566410D01*
X5349181Y-9566406D01*
X5221894Y-9532300D01*
X5221892Y-9532300D01*
X5090108Y-9532300D01*
X5090106Y-9532300D01*
X4962818Y-9566406D01*
X4962809Y-9566410D01*
X4848685Y-9632300D01*
X4755500Y-9725485D01*
X4689610Y-9839609D01*
X4689606Y-9839618D01*
X4655500Y-9966905D01*
X3016217Y-9966905D01*
X2993190Y-9953610D01*
X2993181Y-9953606D01*
X2865894Y-9919500D01*
X2865892Y-9919500D01*
X2734108Y-9919500D01*
X2734106Y-9919500D01*
X2606818Y-9953606D01*
X2606809Y-9953610D01*
X2492685Y-10019500D01*
X2399500Y-10112685D01*
X2333610Y-10226809D01*
X2333606Y-10226818D01*
X2299500Y-10354105D01*
X-2099501Y-10354105D01*
X-2133607Y-10226818D01*
X-2133608Y-10226814D01*
X-2199500Y-10112686D01*
X-2292686Y-10019500D01*
X-2330737Y-9997531D01*
X-2406810Y-9953610D01*
X-2406819Y-9953606D01*
X-2534106Y-9919500D01*
X-2534108Y-9919500D01*
X-2665892Y-9919500D01*
X-2665894Y-9919500D01*
X-2793182Y-9953606D01*
X-2793191Y-9953610D01*
X-2907315Y-10019500D01*
X-3000500Y-10112685D01*
X-3066390Y-10226809D01*
X-3066394Y-10226818D01*
X-3100500Y-10354105D01*
X-12504500Y-10354105D01*
X-12504500Y-10226007D01*
X-12531420Y-10090672D01*
X-12570000Y-9997531D01*
X-12584224Y-9963191D01*
X-12590626Y-9953610D01*
X-12660886Y-9848458D01*
X-12758458Y-9750886D01*
X-12802395Y-9721528D01*
X-12833860Y-9674437D01*
X-12822811Y-9618888D01*
X-12802394Y-9598471D01*
X-12758458Y-9569114D01*
X-12660886Y-9471542D01*
X-12584225Y-9356811D01*
X-12578051Y-9341905D01*
X8599500Y-9341905D01*
X8599500Y-9473694D01*
X8633606Y-9600981D01*
X8633610Y-9600990D01*
X8691416Y-9701113D01*
X8699500Y-9715114D01*
X8792686Y-9808300D01*
X8906814Y-9874192D01*
X9034105Y-9908299D01*
X9034106Y-9908300D01*
X9034108Y-9908300D01*
X9165894Y-9908300D01*
X9165894Y-9908299D01*
X9191138Y-9901535D01*
X13514500Y-9901535D01*
X13514500Y-10108465D01*
X13515340Y-10112686D01*
X13554868Y-10311413D01*
X13554870Y-10311420D01*
X13634059Y-10502598D01*
X13707953Y-10613190D01*
X13749023Y-10674655D01*
X13895345Y-10820977D01*
X14067402Y-10935941D01*
X14258580Y-11015130D01*
X14461535Y-11055500D01*
X14461536Y-11055500D01*
X14668464Y-11055500D01*
X14668465Y-11055500D01*
X14871420Y-11015130D01*
X15062598Y-10935941D01*
X15234655Y-10820977D01*
X15380977Y-10674655D01*
X15495941Y-10502598D01*
X15575130Y-10311420D01*
X15615500Y-10108465D01*
X15615500Y-9901535D01*
X16054500Y-9901535D01*
X16054500Y-10108465D01*
X16055340Y-10112686D01*
X16094868Y-10311413D01*
X16094870Y-10311420D01*
X16174059Y-10502598D01*
X16247953Y-10613190D01*
X16289023Y-10674655D01*
X16435345Y-10820977D01*
X16607402Y-10935941D01*
X16798580Y-11015130D01*
X17001535Y-11055500D01*
X17001536Y-11055500D01*
X17208464Y-11055500D01*
X17208465Y-11055500D01*
X17411420Y-11015130D01*
X17602598Y-10935941D01*
X17774655Y-10820977D01*
X17920977Y-10674655D01*
X18035941Y-10502598D01*
X18115130Y-10311420D01*
X18155500Y-10108465D01*
X18155500Y-9901535D01*
X18115130Y-9698580D01*
X18035941Y-9507402D01*
X17920977Y-9335345D01*
X17774655Y-9189023D01*
X17682300Y-9127314D01*
X17602598Y-9074059D01*
X17411420Y-8994870D01*
X17411413Y-8994868D01*
X17258516Y-8964455D01*
X17208465Y-8954500D01*
X17001535Y-8954500D01*
X16961385Y-8962486D01*
X16798586Y-8994868D01*
X16798579Y-8994870D01*
X16607401Y-9074059D01*
X16435345Y-9189022D01*
X16435344Y-9189024D01*
X16289024Y-9335344D01*
X16289022Y-9335345D01*
X16174059Y-9507401D01*
X16094870Y-9698579D01*
X16094868Y-9698586D01*
X16059939Y-9874189D01*
X16054500Y-9901535D01*
X15615500Y-9901535D01*
X15575130Y-9698580D01*
X15495941Y-9507402D01*
X15380977Y-9335345D01*
X15234655Y-9189023D01*
X15142300Y-9127314D01*
X15062598Y-9074059D01*
X14871420Y-8994870D01*
X14871413Y-8994868D01*
X14718516Y-8964455D01*
X14668465Y-8954500D01*
X14461535Y-8954500D01*
X14421385Y-8962486D01*
X14258586Y-8994868D01*
X14258579Y-8994870D01*
X14067401Y-9074059D01*
X13895345Y-9189022D01*
X13895344Y-9189024D01*
X13749024Y-9335344D01*
X13749022Y-9335345D01*
X13634059Y-9507401D01*
X13554870Y-9698579D01*
X13554868Y-9698586D01*
X13519939Y-9874189D01*
X13514500Y-9901535D01*
X9191138Y-9901535D01*
X9293186Y-9874192D01*
X9353077Y-9839614D01*
X9363123Y-9833814D01*
X9371933Y-9828727D01*
X9407314Y-9808300D01*
X9500500Y-9715114D01*
X9566392Y-9600986D01*
X9600499Y-9473694D01*
X9600500Y-9473694D01*
X9600500Y-9341906D01*
X9600499Y-9341905D01*
X9594763Y-9320499D01*
X9566392Y-9214614D01*
X9500500Y-9100486D01*
X9407314Y-9007300D01*
X9318474Y-8956008D01*
X9293190Y-8941410D01*
X9293181Y-8941406D01*
X9165894Y-8907300D01*
X9165892Y-8907300D01*
X9034108Y-8907300D01*
X9034106Y-8907300D01*
X8906818Y-8941406D01*
X8906809Y-8941410D01*
X8792685Y-9007300D01*
X8699500Y-9100485D01*
X8633610Y-9214609D01*
X8633606Y-9214618D01*
X8599500Y-9341905D01*
X-12578051Y-9341905D01*
X-12531420Y-9229328D01*
X-12504500Y-9093993D01*
X-12504500Y-8956007D01*
X-12531420Y-8820672D01*
X-12557555Y-8757576D01*
X-12567277Y-8734105D01*
X-2600500Y-8734105D01*
X-2600500Y-8865894D01*
X-2566394Y-8993181D01*
X-2566390Y-8993190D01*
X-2554848Y-9013181D01*
X-2500500Y-9107314D01*
X-2407314Y-9200500D01*
X-2293186Y-9266392D01*
X-2165895Y-9300499D01*
X-2165894Y-9300500D01*
X-2165892Y-9300500D01*
X-2034106Y-9300500D01*
X-2034106Y-9300499D01*
X-1906814Y-9266392D01*
X-1792686Y-9200500D01*
X-1699500Y-9107314D01*
X-1633608Y-8993186D01*
X-1599501Y-8865894D01*
X-1599500Y-8865894D01*
X-1599500Y-8754105D01*
X1699500Y-8754105D01*
X1699500Y-8885894D01*
X1733606Y-9013181D01*
X1733607Y-9013184D01*
X1733608Y-9013186D01*
X1799500Y-9127314D01*
X1892686Y-9220500D01*
X2006814Y-9286392D01*
X2134105Y-9320499D01*
X2134106Y-9320500D01*
X2134108Y-9320500D01*
X2265894Y-9320500D01*
X2265894Y-9320499D01*
X2393186Y-9286392D01*
X2507314Y-9220500D01*
X2600500Y-9127314D01*
X2666392Y-9013186D01*
X2700499Y-8885894D01*
X2700500Y-8885894D01*
X2700500Y-8754106D01*
X2700499Y-8754105D01*
X2695140Y-8734106D01*
X2666392Y-8626814D01*
X2600500Y-8512686D01*
X2507314Y-8419500D01*
X2466507Y-8395940D01*
X2393190Y-8353610D01*
X2393181Y-8353606D01*
X2265894Y-8319500D01*
X2265892Y-8319500D01*
X2134108Y-8319500D01*
X2134106Y-8319500D01*
X2006818Y-8353606D01*
X2006809Y-8353610D01*
X1892685Y-8419500D01*
X1799500Y-8512685D01*
X1733610Y-8626809D01*
X1733606Y-8626818D01*
X1699500Y-8754105D01*
X-1599500Y-8754105D01*
X-1599500Y-8734106D01*
X-1599501Y-8734105D01*
X-1621003Y-8653859D01*
X-1633608Y-8606814D01*
X-1699500Y-8492686D01*
X-1792686Y-8399500D01*
X-1798852Y-8395940D01*
X-1906810Y-8333610D01*
X-1906819Y-8333606D01*
X-2034106Y-8299500D01*
X-2034108Y-8299500D01*
X-2165892Y-8299500D01*
X-2165894Y-8299500D01*
X-2293182Y-8333606D01*
X-2293191Y-8333610D01*
X-2407315Y-8399500D01*
X-2500500Y-8492685D01*
X-2566390Y-8606809D01*
X-2566394Y-8606818D01*
X-2600500Y-8734105D01*
X-12567277Y-8734105D01*
X-12584224Y-8693191D01*
X-12612674Y-8650613D01*
X-12660886Y-8578458D01*
X-12758458Y-8480886D01*
X-12767071Y-8475131D01*
X-12873192Y-8404223D01*
X-13000668Y-8351421D01*
X-13000678Y-8351418D01*
X-13091306Y-8333391D01*
X-13136007Y-8324500D01*
X-13273993Y-8324500D01*
X-13312358Y-8332131D01*
X-13409323Y-8351418D01*
X-13409333Y-8351421D01*
X-13536809Y-8404223D01*
X-13651539Y-8480883D01*
X-13749119Y-8578463D01*
X-13778472Y-8622394D01*
X-13825564Y-8653859D01*
X-13881113Y-8642809D01*
X-13901528Y-8622394D01*
X-13930882Y-8578463D01*
X-13930884Y-8578461D01*
X-13930886Y-8578458D01*
X-14028458Y-8480886D01*
X-14037071Y-8475131D01*
X-14143192Y-8404223D01*
X-14270668Y-8351421D01*
X-14270678Y-8351418D01*
X-14361306Y-8333391D01*
X-14406007Y-8324500D01*
X-14543993Y-8324500D01*
X-14582358Y-8332131D01*
X-14679323Y-8351418D01*
X-14679333Y-8351421D01*
X-14806809Y-8404223D01*
X-14921539Y-8480883D01*
X-15019117Y-8578461D01*
X-15095777Y-8693191D01*
X-15148579Y-8820667D01*
X-15148582Y-8820677D01*
X-15161554Y-8885894D01*
X-15175500Y-8956007D01*
X-30840765Y-8956007D01*
X-30678387Y-8831410D01*
X-30497590Y-8650613D01*
X-30341939Y-8447765D01*
X-30214096Y-8226335D01*
X-30116250Y-7990113D01*
X-30050074Y-7743140D01*
X-30016700Y-7489643D01*
X-30016700Y-7233957D01*
X-30050074Y-6980460D01*
X-30099675Y-6795345D01*
X-30112251Y-6748411D01*
X-30112251Y-6748408D01*
X-30116084Y-6734105D01*
X-9500500Y-6734105D01*
X-9500500Y-6865894D01*
X-9466394Y-6993181D01*
X-9466390Y-6993190D01*
X-9400500Y-7107314D01*
X-9307314Y-7200500D01*
X-9193186Y-7266392D01*
X-9065895Y-7300499D01*
X-9065894Y-7300500D01*
X-9065892Y-7300500D01*
X-8934106Y-7300500D01*
X-8934106Y-7300499D01*
X-8806814Y-7266392D01*
X-8692686Y-7200500D01*
X-8599500Y-7107314D01*
X-8564086Y-7045974D01*
X-8519153Y-7011496D01*
X-8463000Y-7018889D01*
X-8435915Y-7045974D01*
X-8400500Y-7107314D01*
X-8307314Y-7200500D01*
X-8193186Y-7266392D01*
X-8065895Y-7300499D01*
X-8065894Y-7300500D01*
X-8065892Y-7300500D01*
X-7934106Y-7300500D01*
X-7934106Y-7300499D01*
X-7806814Y-7266392D01*
X-7708456Y-7209605D01*
X-6400500Y-7209605D01*
X-6400500Y-7341394D01*
X-6366394Y-7468681D01*
X-6366390Y-7468690D01*
X-6332543Y-7527314D01*
X-6300500Y-7582814D01*
X-6207314Y-7676000D01*
X-6093186Y-7741892D01*
X-5965895Y-7775999D01*
X-5965894Y-7776000D01*
X-5965892Y-7776000D01*
X-5834106Y-7776000D01*
X-5834106Y-7775999D01*
X-5706814Y-7741892D01*
X-5592686Y-7676000D01*
X-5499500Y-7582814D01*
X-5433608Y-7468686D01*
X-5399501Y-7341394D01*
X-5399500Y-7341394D01*
X-5399500Y-7209609D01*
X-5399501Y-7209605D01*
X-5413173Y-7158580D01*
X-5414372Y-7154105D01*
X299500Y-7154105D01*
X299500Y-7285894D01*
X333606Y-7413181D01*
X333610Y-7413190D01*
X399500Y-7527314D01*
X492686Y-7620500D01*
X606814Y-7686392D01*
X734105Y-7720499D01*
X734106Y-7720500D01*
X734108Y-7720500D01*
X865894Y-7720500D01*
X865894Y-7720499D01*
X993186Y-7686392D01*
X1107314Y-7620500D01*
X1200500Y-7527314D01*
X1266392Y-7413186D01*
X1280232Y-7361535D01*
X13514500Y-7361535D01*
X13514500Y-7568464D01*
X13554868Y-7771413D01*
X13554870Y-7771420D01*
X13634059Y-7962598D01*
X13749023Y-8134655D01*
X13895345Y-8280977D01*
X14067402Y-8395941D01*
X14258580Y-8475130D01*
X14461535Y-8515500D01*
X14461536Y-8515500D01*
X14668464Y-8515500D01*
X14668465Y-8515500D01*
X14871420Y-8475130D01*
X15062598Y-8395941D01*
X15234655Y-8280977D01*
X15380977Y-8134655D01*
X15495941Y-7962598D01*
X15575130Y-7771420D01*
X15615500Y-7568465D01*
X15615500Y-7361535D01*
X16054500Y-7361535D01*
X16054500Y-7568464D01*
X16094868Y-7771413D01*
X16094870Y-7771420D01*
X16174059Y-7962598D01*
X16289023Y-8134655D01*
X16435345Y-8280977D01*
X16607402Y-8395941D01*
X16798580Y-8475130D01*
X17001535Y-8515500D01*
X17001536Y-8515500D01*
X17208464Y-8515500D01*
X17208465Y-8515500D01*
X17411420Y-8475130D01*
X17602598Y-8395941D01*
X17774655Y-8280977D01*
X17920977Y-8134655D01*
X18035941Y-7962598D01*
X18115130Y-7771420D01*
X18155500Y-7568465D01*
X18155500Y-7361535D01*
X18115130Y-7158580D01*
X18035941Y-6967402D01*
X17920977Y-6795345D01*
X17774655Y-6649023D01*
X17711490Y-6606818D01*
X17602598Y-6534059D01*
X17411420Y-6454870D01*
X17411413Y-6454868D01*
X17258516Y-6424455D01*
X17208465Y-6414500D01*
X17001535Y-6414500D01*
X16961385Y-6422486D01*
X16798586Y-6454868D01*
X16798579Y-6454870D01*
X16607401Y-6534059D01*
X16435345Y-6649022D01*
X16435344Y-6649024D01*
X16289024Y-6795344D01*
X16289022Y-6795345D01*
X16174059Y-6967401D01*
X16094870Y-7158579D01*
X16094868Y-7158586D01*
X16054500Y-7361535D01*
X15615500Y-7361535D01*
X15575130Y-7158580D01*
X15495941Y-6967402D01*
X15380977Y-6795345D01*
X15234655Y-6649023D01*
X15171490Y-6606818D01*
X15062598Y-6534059D01*
X14871420Y-6454870D01*
X14871413Y-6454868D01*
X14718516Y-6424455D01*
X14668465Y-6414500D01*
X14461535Y-6414500D01*
X14421385Y-6422486D01*
X14258586Y-6454868D01*
X14258579Y-6454870D01*
X14067401Y-6534059D01*
X13895345Y-6649022D01*
X13895344Y-6649024D01*
X13749024Y-6795344D01*
X13749022Y-6795345D01*
X13634059Y-6967401D01*
X13554870Y-7158579D01*
X13554868Y-7158586D01*
X13514500Y-7361535D01*
X1280232Y-7361535D01*
X1286338Y-7338747D01*
X1300499Y-7285894D01*
X1300500Y-7285894D01*
X1300500Y-7154106D01*
X1300499Y-7154105D01*
X1266393Y-7026818D01*
X1266392Y-7026814D01*
X1200500Y-6912686D01*
X1107314Y-6819500D01*
X1089311Y-6809106D01*
X993190Y-6753610D01*
X993181Y-6753606D01*
X865894Y-6719500D01*
X865892Y-6719500D01*
X734108Y-6719500D01*
X734106Y-6719500D01*
X606818Y-6753606D01*
X606809Y-6753610D01*
X492685Y-6819500D01*
X399500Y-6912685D01*
X333610Y-7026809D01*
X333606Y-7026818D01*
X299500Y-7154105D01*
X-5414372Y-7154105D01*
X-5433607Y-7082318D01*
X-5433608Y-7082314D01*
X-5499500Y-6968186D01*
X-5592686Y-6875000D01*
X-5608461Y-6865892D01*
X-5706810Y-6809110D01*
X-5706819Y-6809106D01*
X-5834106Y-6775000D01*
X-5834108Y-6775000D01*
X-5965892Y-6775000D01*
X-5965894Y-6775000D01*
X-6093182Y-6809106D01*
X-6093191Y-6809110D01*
X-6207315Y-6875000D01*
X-6300500Y-6968185D01*
X-6366390Y-7082309D01*
X-6366394Y-7082318D01*
X-6400500Y-7209605D01*
X-7708456Y-7209605D01*
X-7692686Y-7200500D01*
X-7599500Y-7107314D01*
X-7533608Y-6993186D01*
X-7499501Y-6865894D01*
X-7499500Y-6865894D01*
X-7499500Y-6734106D01*
X-7499501Y-6734105D01*
X-7499667Y-6733487D01*
X-7533608Y-6606814D01*
X-7599500Y-6492686D01*
X-7692686Y-6399500D01*
X-7806810Y-6333610D01*
X-7806819Y-6333606D01*
X-7934106Y-6299500D01*
X-7934108Y-6299500D01*
X-8065892Y-6299500D01*
X-8065894Y-6299500D01*
X-8193182Y-6333606D01*
X-8193191Y-6333610D01*
X-8307315Y-6399500D01*
X-8400500Y-6492685D01*
X-8435914Y-6554024D01*
X-8480848Y-6588503D01*
X-8537000Y-6581110D01*
X-8564086Y-6554024D01*
X-8596852Y-6497273D01*
X-8599500Y-6492686D01*
X-8692686Y-6399500D01*
X-8806810Y-6333610D01*
X-8806819Y-6333606D01*
X-8934106Y-6299500D01*
X-8934108Y-6299500D01*
X-9065892Y-6299500D01*
X-9065894Y-6299500D01*
X-9193182Y-6333606D01*
X-9193191Y-6333610D01*
X-9307315Y-6399500D01*
X-9400500Y-6492685D01*
X-9466390Y-6606809D01*
X-9466394Y-6606818D01*
X-9500500Y-6734105D01*
X-30116084Y-6734105D01*
X-30116245Y-6733504D01*
X-30116248Y-6733497D01*
X-30116250Y-6733487D01*
X-30214096Y-6497265D01*
X-30238574Y-6454868D01*
X-30341937Y-6275838D01*
X-30341941Y-6275832D01*
X-30497591Y-6072986D01*
X-30678387Y-5892190D01*
X-30881233Y-5736540D01*
X-30881239Y-5736536D01*
X-31102666Y-5608695D01*
X-31102674Y-5608692D01*
X-31338884Y-5510851D01*
X-31338886Y-5510850D01*
X-31338887Y-5510850D01*
X-31381246Y-5499500D01*
X-31585862Y-5444673D01*
X-31772611Y-5420087D01*
X-31839357Y-5411300D01*
X-32095043Y-5411300D01*
X-32154024Y-5419065D01*
X-32348539Y-5444673D01*
X-32595510Y-5510849D01*
X-32595517Y-5510851D01*
X-32831727Y-5608692D01*
X-32831735Y-5608695D01*
X-33053162Y-5736536D01*
X-33053168Y-5736540D01*
X-33256014Y-5892190D01*
X-33436810Y-6072986D01*
X-33592460Y-6275832D01*
X-33592464Y-6275838D01*
X-33720305Y-6497265D01*
X-33720308Y-6497273D01*
X-33818149Y-6733483D01*
X-33818151Y-6733490D01*
X-33884327Y-6980461D01*
X-33917700Y-7233958D01*
X-40644500Y-7233958D01*
X-40644500Y-5258783D01*
X-17635822Y-5258783D01*
X-17635822Y-5390572D01*
X-17601716Y-5517859D01*
X-17601712Y-5517868D01*
X-17592624Y-5533608D01*
X-17535822Y-5631992D01*
X-17442636Y-5725178D01*
X-17328508Y-5791070D01*
X-17201217Y-5825177D01*
X-17201216Y-5825178D01*
X-17201214Y-5825178D01*
X-17069428Y-5825178D01*
X-17069428Y-5825177D01*
X-16947471Y-5792499D01*
X-16891321Y-5799891D01*
X-16856842Y-5844824D01*
X-16856841Y-5883129D01*
X-16870500Y-5934108D01*
X-16870500Y-6065894D01*
X-16836394Y-6193181D01*
X-16836390Y-6193190D01*
X-16788673Y-6275838D01*
X-16770500Y-6307314D01*
X-16677314Y-6400500D01*
X-16563186Y-6466392D01*
X-16435895Y-6500499D01*
X-16435894Y-6500500D01*
X-16435892Y-6500500D01*
X-16304106Y-6500500D01*
X-16304106Y-6500499D01*
X-16176814Y-6466392D01*
X-16062686Y-6400500D01*
X-15969500Y-6307314D01*
X-15903608Y-6193186D01*
X-15869501Y-6065894D01*
X-15869500Y-6065894D01*
X-15869500Y-5934106D01*
X-15869501Y-5934105D01*
X-15898688Y-5825178D01*
X-15903608Y-5806814D01*
X-15969500Y-5692686D01*
X-16062686Y-5599500D01*
X-16071079Y-5594654D01*
X-16176810Y-5533610D01*
X-16176819Y-5533606D01*
X-16304106Y-5499500D01*
X-16304108Y-5499500D01*
X-16435892Y-5499500D01*
X-16435894Y-5499500D01*
X-16557850Y-5532178D01*
X-16614003Y-5524786D01*
X-16648481Y-5479853D01*
X-16648481Y-5441547D01*
X-16634823Y-5390572D01*
X-16634822Y-5390572D01*
X-16634822Y-5258784D01*
X-16634823Y-5258783D01*
X-16668929Y-5131496D01*
X-16668930Y-5131492D01*
X-16734822Y-5017364D01*
X-16828008Y-4924178D01*
X-16869021Y-4900499D01*
X-16942132Y-4858288D01*
X-16942141Y-4858284D01*
X-17069428Y-4824178D01*
X-17069430Y-4824178D01*
X-17201214Y-4824178D01*
X-17201216Y-4824178D01*
X-17328504Y-4858284D01*
X-17328513Y-4858288D01*
X-17442637Y-4924178D01*
X-17535822Y-5017363D01*
X-17601712Y-5131487D01*
X-17601716Y-5131496D01*
X-17635822Y-5258783D01*
X-40644500Y-5258783D01*
X-40644500Y-4197002D01*
X-30219700Y-4197002D01*
X-30219700Y-4386597D01*
X-30182714Y-4572544D01*
X-30182712Y-4572551D01*
X-30110157Y-4747714D01*
X-30008069Y-4900499D01*
X-30004822Y-4905358D01*
X-29870758Y-5039422D01*
X-29713115Y-5144756D01*
X-29537951Y-5217312D01*
X-29351998Y-5254300D01*
X-29351997Y-5254300D01*
X-29162403Y-5254300D01*
X-29162402Y-5254300D01*
X-28976449Y-5217312D01*
X-28801285Y-5144756D01*
X-28643642Y-5039422D01*
X-28509578Y-4905358D01*
X-28404244Y-4747715D01*
X-28331688Y-4572551D01*
X-28304150Y-4434105D01*
X8214500Y-4434105D01*
X8214500Y-4565894D01*
X8248606Y-4693181D01*
X8248607Y-4693184D01*
X8248608Y-4693186D01*
X8314500Y-4807314D01*
X8407686Y-4900500D01*
X8521814Y-4966392D01*
X8649105Y-5000499D01*
X8649106Y-5000500D01*
X8649108Y-5000500D01*
X8780894Y-5000500D01*
X8780894Y-5000499D01*
X8908186Y-4966392D01*
X9022314Y-4900500D01*
X9101279Y-4821535D01*
X13514500Y-4821535D01*
X13514500Y-5028465D01*
X13516680Y-5039424D01*
X13554868Y-5231413D01*
X13554870Y-5231420D01*
X13634059Y-5422598D01*
X13708231Y-5533606D01*
X13749023Y-5594655D01*
X13895345Y-5740977D01*
X14067402Y-5855941D01*
X14258580Y-5935130D01*
X14461535Y-5975500D01*
X14461536Y-5975500D01*
X14668464Y-5975500D01*
X14668465Y-5975500D01*
X14871420Y-5935130D01*
X15062598Y-5855941D01*
X15234655Y-5740977D01*
X15380977Y-5594655D01*
X15495941Y-5422598D01*
X15575130Y-5231420D01*
X15615500Y-5028465D01*
X15615500Y-4821535D01*
X16054500Y-4821535D01*
X16054500Y-5028465D01*
X16056680Y-5039424D01*
X16094868Y-5231413D01*
X16094870Y-5231420D01*
X16174059Y-5422598D01*
X16248231Y-5533606D01*
X16289023Y-5594655D01*
X16435345Y-5740977D01*
X16607402Y-5855941D01*
X16798580Y-5935130D01*
X17001535Y-5975500D01*
X17001536Y-5975500D01*
X17208464Y-5975500D01*
X17208465Y-5975500D01*
X17411420Y-5935130D01*
X17602598Y-5855941D01*
X17774655Y-5740977D01*
X17920977Y-5594655D01*
X18035941Y-5422598D01*
X18115130Y-5231420D01*
X18155500Y-5028465D01*
X18155500Y-4821535D01*
X18115130Y-4618580D01*
X18035941Y-4427402D01*
X17920977Y-4255345D01*
X17774655Y-4109023D01*
X17628034Y-4011055D01*
X17602598Y-3994059D01*
X17411420Y-3914870D01*
X17411413Y-3914868D01*
X17258516Y-3884455D01*
X17208465Y-3874500D01*
X17001535Y-3874500D01*
X16961385Y-3882486D01*
X16798586Y-3914868D01*
X16798579Y-3914870D01*
X16607401Y-3994059D01*
X16435345Y-4109022D01*
X16435344Y-4109024D01*
X16289024Y-4255344D01*
X16289022Y-4255345D01*
X16174059Y-4427401D01*
X16094870Y-4618579D01*
X16094868Y-4618586D01*
X16062583Y-4780900D01*
X16054500Y-4821535D01*
X15615500Y-4821535D01*
X15575130Y-4618580D01*
X15495941Y-4427402D01*
X15380977Y-4255345D01*
X15234655Y-4109023D01*
X15088034Y-4011055D01*
X15062598Y-3994059D01*
X14871420Y-3914870D01*
X14871413Y-3914868D01*
X14718516Y-3884455D01*
X14668465Y-3874500D01*
X14461535Y-3874500D01*
X14421385Y-3882486D01*
X14258586Y-3914868D01*
X14258579Y-3914870D01*
X14067401Y-3994059D01*
X13895345Y-4109022D01*
X13895344Y-4109024D01*
X13749024Y-4255344D01*
X13749022Y-4255345D01*
X13634059Y-4427401D01*
X13554870Y-4618579D01*
X13554868Y-4618586D01*
X13522583Y-4780900D01*
X13514500Y-4821535D01*
X9101279Y-4821535D01*
X9115500Y-4807314D01*
X9181392Y-4693186D01*
X9215499Y-4565894D01*
X9215500Y-4565894D01*
X9215500Y-4434106D01*
X9215499Y-4434105D01*
X9202769Y-4386597D01*
X9181392Y-4306814D01*
X9115500Y-4192686D01*
X9022314Y-4099500D01*
X8908190Y-4033610D01*
X8908181Y-4033606D01*
X8780894Y-3999500D01*
X8780892Y-3999500D01*
X8649108Y-3999500D01*
X8649106Y-3999500D01*
X8521818Y-4033606D01*
X8521809Y-4033610D01*
X8407685Y-4099500D01*
X8314500Y-4192685D01*
X8248610Y-4306809D01*
X8248606Y-4306818D01*
X8214500Y-4434105D01*
X-28304150Y-4434105D01*
X-28294700Y-4386598D01*
X-28294700Y-4197002D01*
X-28331688Y-4011049D01*
X-28404244Y-3835885D01*
X-28509578Y-3678242D01*
X-28643642Y-3544178D01*
X-28801285Y-3438844D01*
X-28801284Y-3438844D01*
X-28801286Y-3438843D01*
X-28976449Y-3366288D01*
X-28976456Y-3366286D01*
X-29116545Y-3338421D01*
X-29162402Y-3329300D01*
X-29351998Y-3329300D01*
X-29388784Y-3336617D01*
X-29537945Y-3366286D01*
X-29537952Y-3366288D01*
X-29713115Y-3438843D01*
X-29870755Y-3544175D01*
X-30004825Y-3678245D01*
X-30110157Y-3835885D01*
X-30182712Y-4011048D01*
X-30182714Y-4011055D01*
X-30219700Y-4197002D01*
X-40644500Y-4197002D01*
X-40644500Y302998D01*
X-30219700Y302998D01*
X-30219700Y113403D01*
X-30182714Y-72544D01*
X-30182712Y-72551D01*
X-30110157Y-247714D01*
X-30031191Y-365894D01*
X-30004822Y-405358D01*
X-29870758Y-539422D01*
X-29713115Y-644756D01*
X-29537951Y-717312D01*
X-29537947Y-717312D01*
X-29537946Y-717313D01*
X-29528350Y-719222D01*
X-29481258Y-750688D01*
X-29470209Y-806237D01*
X-29501675Y-853329D01*
X-29528350Y-864378D01*
X-29537946Y-866286D01*
X-29537952Y-866288D01*
X-29713115Y-938843D01*
X-29870755Y-1044175D01*
X-30004825Y-1178245D01*
X-30110157Y-1335885D01*
X-30182712Y-1511048D01*
X-30182714Y-1511055D01*
X-30219700Y-1697002D01*
X-30219700Y-1886597D01*
X-30182714Y-2072544D01*
X-30182712Y-2072551D01*
X-30110157Y-2247714D01*
X-30004826Y-2405352D01*
X-30004822Y-2405358D01*
X-29870758Y-2539422D01*
X-29713115Y-2644756D01*
X-29537951Y-2717312D01*
X-29351998Y-2754300D01*
X-29351997Y-2754300D01*
X-29162403Y-2754300D01*
X-29162402Y-2754300D01*
X-28976449Y-2717312D01*
X-28801285Y-2644756D01*
X-28643642Y-2539422D01*
X-28538325Y-2434105D01*
X-13300500Y-2434105D01*
X-13300500Y-2565894D01*
X-13266394Y-2693181D01*
X-13266390Y-2693190D01*
X-13252463Y-2717312D01*
X-13200500Y-2807314D01*
X-13107314Y-2900500D01*
X-12993186Y-2966392D01*
X-12865895Y-3000499D01*
X-12865894Y-3000500D01*
X-12865892Y-3000500D01*
X-12734106Y-3000500D01*
X-12734106Y-3000499D01*
X-12606814Y-2966392D01*
X-12492686Y-2900500D01*
X-12399500Y-2807314D01*
X-12333608Y-2693186D01*
X-12299501Y-2565894D01*
X-12299500Y-2565894D01*
X-12299500Y-2434106D01*
X-12299501Y-2434105D01*
X-12307204Y-2405358D01*
X-12333608Y-2306814D01*
X-12399500Y-2192686D01*
X-12458081Y-2134105D01*
X-9700500Y-2134105D01*
X-9700500Y-2265894D01*
X-9666394Y-2393181D01*
X-9666390Y-2393190D01*
X-9642767Y-2434106D01*
X-9600500Y-2507314D01*
X-9507314Y-2600500D01*
X-9393186Y-2666392D01*
X-9265895Y-2700499D01*
X-9265894Y-2700500D01*
X-9265892Y-2700500D01*
X-9134106Y-2700500D01*
X-9134106Y-2700499D01*
X-9006814Y-2666392D01*
X-8892686Y-2600500D01*
X-8799500Y-2507314D01*
X-8733608Y-2393186D01*
X-8710465Y-2306814D01*
X-8703691Y-2281535D01*
X13514500Y-2281535D01*
X13514500Y-2488464D01*
X13554868Y-2691413D01*
X13554870Y-2691420D01*
X13634059Y-2882598D01*
X13690048Y-2966393D01*
X13749023Y-3054655D01*
X13895345Y-3200977D01*
X14067402Y-3315941D01*
X14258580Y-3395130D01*
X14461535Y-3435500D01*
X14461536Y-3435500D01*
X14668464Y-3435500D01*
X14668465Y-3435500D01*
X14871420Y-3395130D01*
X15062598Y-3315941D01*
X15234655Y-3200977D01*
X15380977Y-3054655D01*
X15495941Y-2882598D01*
X15575130Y-2691420D01*
X15615500Y-2488465D01*
X15615500Y-2281535D01*
X16054500Y-2281535D01*
X16054500Y-2488464D01*
X16094868Y-2691413D01*
X16094870Y-2691420D01*
X16174059Y-2882598D01*
X16230048Y-2966393D01*
X16289023Y-3054655D01*
X16435345Y-3200977D01*
X16607402Y-3315941D01*
X16798580Y-3395130D01*
X17001535Y-3435500D01*
X17001536Y-3435500D01*
X17208464Y-3435500D01*
X17208465Y-3435500D01*
X17411420Y-3395130D01*
X17602598Y-3315941D01*
X17774655Y-3200977D01*
X17920977Y-3054655D01*
X18035941Y-2882598D01*
X18115130Y-2691420D01*
X18155500Y-2488465D01*
X18155500Y-2281535D01*
X18115130Y-2078580D01*
X18035941Y-1887402D01*
X17920977Y-1715345D01*
X17774655Y-1569023D01*
X17602598Y-1454059D01*
X17411420Y-1374870D01*
X17411413Y-1374868D01*
X17258516Y-1344455D01*
X17208465Y-1334500D01*
X17001535Y-1334500D01*
X16961385Y-1342486D01*
X16798586Y-1374868D01*
X16798579Y-1374870D01*
X16607401Y-1454059D01*
X16435345Y-1569022D01*
X16435344Y-1569024D01*
X16289024Y-1715344D01*
X16289022Y-1715345D01*
X16174059Y-1887401D01*
X16094870Y-2078579D01*
X16094868Y-2078586D01*
X16054500Y-2281535D01*
X15615500Y-2281535D01*
X15575130Y-2078580D01*
X15495941Y-1887402D01*
X15380977Y-1715345D01*
X15234655Y-1569023D01*
X15062598Y-1454059D01*
X14871420Y-1374870D01*
X14871413Y-1374868D01*
X14718516Y-1344455D01*
X14668465Y-1334500D01*
X14461535Y-1334500D01*
X14421385Y-1342486D01*
X14258586Y-1374868D01*
X14258579Y-1374870D01*
X14067401Y-1454059D01*
X13895345Y-1569022D01*
X13895344Y-1569024D01*
X13749024Y-1715344D01*
X13749022Y-1715345D01*
X13634059Y-1887401D01*
X13554870Y-2078579D01*
X13554868Y-2078586D01*
X13514500Y-2281535D01*
X-8703691Y-2281535D01*
X-8699500Y-2265894D01*
X-8699500Y-2134106D01*
X-8699501Y-2134105D01*
X-8733607Y-2006818D01*
X-8733608Y-2006814D01*
X-8799500Y-1892686D01*
X-8892686Y-1799500D01*
X-9006810Y-1733610D01*
X-9006819Y-1733606D01*
X-9134106Y-1699500D01*
X-9134108Y-1699500D01*
X-9265892Y-1699500D01*
X-9265894Y-1699500D01*
X-9393182Y-1733606D01*
X-9393191Y-1733610D01*
X-9507315Y-1799500D01*
X-9600500Y-1892685D01*
X-9666390Y-2006809D01*
X-9666394Y-2006818D01*
X-9700500Y-2134105D01*
X-12458081Y-2134105D01*
X-12492686Y-2099500D01*
X-12539375Y-2072544D01*
X-12606810Y-2033610D01*
X-12606819Y-2033606D01*
X-12734106Y-1999500D01*
X-12734108Y-1999500D01*
X-12865892Y-1999500D01*
X-12865894Y-1999500D01*
X-12993182Y-2033606D01*
X-12993191Y-2033610D01*
X-13107315Y-2099500D01*
X-13200500Y-2192685D01*
X-13266390Y-2306809D01*
X-13266394Y-2306818D01*
X-13300500Y-2434105D01*
X-28538325Y-2434105D01*
X-28509578Y-2405358D01*
X-28509405Y-2405098D01*
X-28498076Y-2388145D01*
X-28453423Y-2321314D01*
X-28404244Y-2247715D01*
X-28331688Y-2072551D01*
X-28294700Y-1886598D01*
X-28294700Y-1697002D01*
X-28331688Y-1511049D01*
X-28404244Y-1335885D01*
X-28509578Y-1178242D01*
X-28643642Y-1044178D01*
X-28643646Y-1044175D01*
X-28801286Y-938843D01*
X-28976449Y-866288D01*
X-28976456Y-866286D01*
X-28986050Y-864378D01*
X-29033143Y-832913D01*
X-29044192Y-777364D01*
X-29012727Y-730271D01*
X-28986050Y-719222D01*
X-28982222Y-718460D01*
X-28976449Y-717312D01*
X-28801285Y-644756D01*
X-28643642Y-539422D01*
X-28509578Y-405358D01*
X-28488695Y-374105D01*
X-17650500Y-374105D01*
X-17650500Y-505894D01*
X-17616394Y-633181D01*
X-17616390Y-633190D01*
X-17581754Y-693181D01*
X-17550500Y-747314D01*
X-17457314Y-840500D01*
X-17343186Y-906392D01*
X-17215895Y-940499D01*
X-17215894Y-940500D01*
X-17215892Y-940500D01*
X-17084106Y-940500D01*
X-17084106Y-940499D01*
X-16956814Y-906392D01*
X-16842686Y-840500D01*
X-16749500Y-747314D01*
X-16683608Y-633186D01*
X-16649501Y-505894D01*
X-16649500Y-505894D01*
X-16649500Y-374106D01*
X-16649501Y-374105D01*
X-16651702Y-365892D01*
X-16683608Y-246814D01*
X-16749500Y-132686D01*
X-16842686Y-39500D01*
X-16877928Y-19153D01*
X-16956810Y26390D01*
X-16956819Y26394D01*
X-17084106Y60500D01*
X-17084108Y60500D01*
X-17215892Y60500D01*
X-17215894Y60500D01*
X-17343182Y26394D01*
X-17343191Y26390D01*
X-17457315Y-39500D01*
X-17550500Y-132685D01*
X-17616390Y-246809D01*
X-17616394Y-246818D01*
X-17650500Y-374105D01*
X-28488695Y-374105D01*
X-28404244Y-247715D01*
X-28331688Y-72551D01*
X-28294700Y113402D01*
X-28294700Y302998D01*
X-28331688Y488951D01*
X-28377477Y599495D01*
X-22217700Y599495D01*
X-22217700Y467706D01*
X-22183594Y340419D01*
X-22183590Y340410D01*
X-22140568Y265895D01*
X-22117700Y226286D01*
X-22024514Y133100D01*
X-21910386Y67208D01*
X-21783095Y33101D01*
X-21783094Y33100D01*
X-21783092Y33100D01*
X-21651306Y33100D01*
X-21651306Y33101D01*
X-21524014Y67208D01*
X-21409886Y133100D01*
X-21316700Y226286D01*
X-21250808Y340414D01*
X-21216701Y467706D01*
X-21216700Y467706D01*
X-21216700Y599494D01*
X-21216701Y599495D01*
X-21250807Y726782D01*
X-21250808Y726786D01*
X-21316700Y840914D01*
X-21409886Y934100D01*
X-21420368Y940152D01*
X-21448954Y956656D01*
X-21524010Y999990D01*
X-21524019Y999994D01*
X-21583363Y1015895D01*
X-18140500Y1015895D01*
X-18140500Y884106D01*
X-18106394Y756819D01*
X-18106390Y756810D01*
X-18089053Y726782D01*
X-18040500Y642686D01*
X-17947314Y549500D01*
X-17833186Y483608D01*
X-17705895Y449501D01*
X-17705894Y449500D01*
X-17705892Y449500D01*
X-17574106Y449500D01*
X-17574106Y449501D01*
X-17512921Y465895D01*
X-12600500Y465895D01*
X-12600500Y334106D01*
X-12566394Y206819D01*
X-12566390Y206810D01*
X-12543054Y166392D01*
X-12500500Y92686D01*
X-12407314Y-500D01*
X-12293186Y-66392D01*
X-12165895Y-100499D01*
X-12165894Y-100500D01*
X-12061139Y-100500D01*
X-12008813Y-122174D01*
X-11987139Y-174500D01*
X-11989660Y-193652D01*
X-12000500Y-234108D01*
X-12000500Y-365894D01*
X-11966394Y-493181D01*
X-11966390Y-493190D01*
X-11935026Y-547513D01*
X-11900500Y-607314D01*
X-11807314Y-700500D01*
X-11693186Y-766392D01*
X-11565895Y-800499D01*
X-11565894Y-800500D01*
X-11565892Y-800500D01*
X-11434106Y-800500D01*
X-11434106Y-800499D01*
X-11306814Y-766392D01*
X-11192686Y-700500D01*
X-11099500Y-607314D01*
X-11033608Y-493186D01*
X-10999501Y-365894D01*
X-10999500Y-365894D01*
X-10999500Y-234106D01*
X-10999501Y-234105D01*
X-11008506Y-200499D01*
X-11033608Y-106814D01*
X-11099500Y7314D01*
X-11192686Y100500D01*
X-11215033Y113402D01*
X-11306810Y166390D01*
X-11306819Y166394D01*
X-11421144Y197027D01*
X-11421147Y197028D01*
X-11434108Y200500D01*
X-11539930Y200500D01*
X-11541024Y200532D01*
X-11565939Y211716D01*
X-11591187Y222174D01*
X-11591633Y223250D01*
X-11592694Y223726D01*
X-11602404Y249253D01*
X-11609297Y265895D01*
X-9720500Y265895D01*
X-9720500Y134106D01*
X-9686394Y6819D01*
X-9686390Y6810D01*
X-9625011Y-99500D01*
X-9620500Y-107314D01*
X-9527314Y-200500D01*
X-9413186Y-266392D01*
X-9285895Y-300499D01*
X-9285894Y-300500D01*
X-9285892Y-300500D01*
X-9154106Y-300500D01*
X-9154106Y-300499D01*
X-9026814Y-266392D01*
X-8912686Y-200500D01*
X-8819500Y-107314D01*
X-8753608Y6814D01*
X-8719501Y134106D01*
X-8719500Y134106D01*
X-8719500Y265894D01*
X-8719501Y265895D01*
X-7300500Y265895D01*
X-7300500Y134106D01*
X-7266394Y6819D01*
X-7266390Y6810D01*
X-7205011Y-99500D01*
X-7200500Y-107314D01*
X-7107314Y-200500D01*
X-6993186Y-266392D01*
X-6865895Y-300499D01*
X-6865894Y-300500D01*
X-6865892Y-300500D01*
X-6734106Y-300500D01*
X-6734106Y-300499D01*
X-6606814Y-266392D01*
X-6492686Y-200500D01*
X-6399500Y-107314D01*
X-6333608Y6814D01*
X-6299501Y134106D01*
X-6299500Y134106D01*
X-6299500Y265894D01*
X-6299501Y265895D01*
X-6301807Y274500D01*
X-6333608Y393186D01*
X-6399500Y507314D01*
X-6492686Y600500D01*
X-6498171Y603667D01*
X-6606810Y666390D01*
X-6606819Y666394D01*
X-6734106Y700500D01*
X-6734108Y700500D01*
X-6865892Y700500D01*
X-6865894Y700500D01*
X-6993182Y666394D01*
X-6993191Y666390D01*
X-7107315Y600500D01*
X-7200500Y507315D01*
X-7266390Y393191D01*
X-7266394Y393182D01*
X-7300500Y265895D01*
X-8719501Y265895D01*
X-8721807Y274500D01*
X-8753608Y393186D01*
X-8819500Y507314D01*
X-8912686Y600500D01*
X-8918171Y603667D01*
X-9026810Y666390D01*
X-9026819Y666394D01*
X-9154106Y700500D01*
X-9154108Y700500D01*
X-9285892Y700500D01*
X-9285894Y700500D01*
X-9413182Y666394D01*
X-9413191Y666390D01*
X-9527315Y600500D01*
X-9620500Y507315D01*
X-9686390Y393191D01*
X-9686394Y393182D01*
X-9720500Y265895D01*
X-11609297Y265895D01*
X-11612861Y274500D01*
X-11612642Y276170D01*
X-11612829Y276663D01*
X-11612472Y277460D01*
X-11610340Y293652D01*
X-11599500Y334109D01*
X-11599500Y465894D01*
X-11599501Y465895D01*
X-11599634Y466390D01*
X-11633608Y593186D01*
X-11699500Y707314D01*
X-11792686Y800500D01*
X-11804490Y807315D01*
X-11906810Y866390D01*
X-11906819Y866394D01*
X-12034106Y900500D01*
X-12034108Y900500D01*
X-12165892Y900500D01*
X-12165894Y900500D01*
X-12293182Y866394D01*
X-12293191Y866390D01*
X-12407315Y800500D01*
X-12500500Y707315D01*
X-12566390Y593191D01*
X-12566394Y593182D01*
X-12600500Y465895D01*
X-17512921Y465895D01*
X-17446814Y483608D01*
X-17332686Y549500D01*
X-17239500Y642686D01*
X-17173608Y756814D01*
X-17139501Y884106D01*
X-17139500Y884106D01*
X-17139500Y1015894D01*
X-17139501Y1015895D01*
X-17148001Y1047616D01*
X-17173608Y1143186D01*
X-17186277Y1165130D01*
X-17187400Y1167075D01*
X-17205964Y1199228D01*
X-1633833Y1199228D01*
X-1633833Y1067439D01*
X-1599727Y940152D01*
X-1599723Y940143D01*
X-1557141Y866390D01*
X-1533833Y826019D01*
X-1440647Y732833D01*
X-1326519Y666941D01*
X-1219050Y638145D01*
X-1174118Y603667D01*
X-1166725Y547514D01*
X-1201204Y502581D01*
X-1219051Y495189D01*
X-1326515Y466394D01*
X-1326524Y466390D01*
X-1440648Y400500D01*
X-1533833Y307315D01*
X-1599723Y193191D01*
X-1599727Y193182D01*
X-1633833Y65895D01*
X-1633833Y-65894D01*
X-1599727Y-193181D01*
X-1599723Y-193190D01*
X-1568243Y-247714D01*
X-1533833Y-307314D01*
X-1440647Y-400500D01*
X-1326519Y-466392D01*
X-1219050Y-495188D01*
X-1174118Y-529666D01*
X-1166725Y-585819D01*
X-1201204Y-630752D01*
X-1219051Y-638144D01*
X-1326515Y-666939D01*
X-1326524Y-666943D01*
X-1440648Y-732833D01*
X-1533833Y-826018D01*
X-1599723Y-940142D01*
X-1599727Y-940151D01*
X-1633833Y-1067438D01*
X-1633833Y-1199227D01*
X-1599727Y-1326514D01*
X-1599723Y-1326523D01*
X-1533833Y-1440647D01*
X-1440647Y-1533833D01*
X-1326519Y-1599725D01*
X-1199228Y-1633832D01*
X-1199227Y-1633833D01*
X-1199225Y-1633833D01*
X-1067439Y-1633833D01*
X-1067439Y-1633832D01*
X-940147Y-1599725D01*
X-826019Y-1533833D01*
X-732833Y-1440647D01*
X-666941Y-1326519D01*
X-638145Y-1219049D01*
X-603667Y-1174117D01*
X-547515Y-1166724D01*
X-502581Y-1201203D01*
X-495189Y-1219050D01*
X-466394Y-1326514D01*
X-466390Y-1326523D01*
X-400500Y-1440647D01*
X-307314Y-1533833D01*
X-193186Y-1599725D01*
X-65895Y-1633832D01*
X-65894Y-1633833D01*
X-65892Y-1633833D01*
X65894Y-1633833D01*
X65894Y-1633832D01*
X193186Y-1599725D01*
X307314Y-1533833D01*
X400500Y-1440647D01*
X466392Y-1326519D01*
X495188Y-1219049D01*
X529666Y-1174117D01*
X585818Y-1166724D01*
X630752Y-1201203D01*
X638144Y-1219050D01*
X666939Y-1326514D01*
X666943Y-1326523D01*
X732833Y-1440647D01*
X826019Y-1533833D01*
X940147Y-1599725D01*
X1067438Y-1633832D01*
X1067439Y-1633833D01*
X1067441Y-1633833D01*
X1199227Y-1633833D01*
X1199227Y-1633832D01*
X1326519Y-1599725D01*
X1440647Y-1533833D01*
X1533833Y-1440647D01*
X1599725Y-1326519D01*
X1633832Y-1199227D01*
X1633833Y-1199227D01*
X1633833Y-1067439D01*
X1633832Y-1067438D01*
X1606757Y-966393D01*
X1599725Y-940147D01*
X1533833Y-826019D01*
X1440647Y-732833D01*
X1326523Y-666943D01*
X1326514Y-666939D01*
X1219050Y-638144D01*
X1174117Y-603666D01*
X1166725Y-547513D01*
X1201203Y-502580D01*
X1219046Y-495188D01*
X1326519Y-466392D01*
X1440647Y-400500D01*
X1533833Y-307314D01*
X1599725Y-193186D01*
X1633832Y-65894D01*
X1633833Y-65894D01*
X1633833Y65894D01*
X1633832Y65895D01*
X1633480Y67207D01*
X1599725Y193186D01*
X1582989Y222174D01*
X1576310Y233742D01*
X1557746Y265895D01*
X6299500Y265895D01*
X6299500Y134106D01*
X6333606Y6819D01*
X6333610Y6810D01*
X6394989Y-99500D01*
X6399500Y-107314D01*
X6492686Y-200500D01*
X6606814Y-266392D01*
X6734105Y-300499D01*
X6734106Y-300500D01*
X6734108Y-300500D01*
X6865894Y-300500D01*
X6865894Y-300499D01*
X6993186Y-266392D01*
X7107314Y-200500D01*
X7200500Y-107314D01*
X7266392Y6814D01*
X7300499Y134106D01*
X7300500Y134106D01*
X7300500Y265894D01*
X7300499Y265895D01*
X7298193Y274500D01*
X7266392Y393186D01*
X7200500Y507314D01*
X7141919Y565895D01*
X8719500Y565895D01*
X8719500Y434106D01*
X8753606Y306819D01*
X8753610Y306810D01*
X8777233Y265894D01*
X8819500Y192686D01*
X8912686Y99500D01*
X8936557Y85718D01*
X8974024Y64086D01*
X9008503Y19152D01*
X9001110Y-37000D01*
X8974024Y-64086D01*
X8912685Y-99500D01*
X8819500Y-192685D01*
X8753610Y-306809D01*
X8753606Y-306818D01*
X8719500Y-434105D01*
X8719500Y-565894D01*
X8753606Y-693181D01*
X8753610Y-693190D01*
X8767537Y-717312D01*
X8819500Y-807314D01*
X8912686Y-900500D01*
X9026814Y-966392D01*
X9154105Y-1000499D01*
X9154106Y-1000500D01*
X9154108Y-1000500D01*
X9285894Y-1000500D01*
X9285894Y-1000499D01*
X9413186Y-966392D01*
X9527314Y-900500D01*
X9620500Y-807314D01*
X9686392Y-693186D01*
X9720499Y-565894D01*
X9720500Y-565894D01*
X9720500Y-434106D01*
X9720499Y-434105D01*
X9712796Y-405358D01*
X9686392Y-306814D01*
X9620500Y-192686D01*
X9527314Y-99500D01*
X9465974Y-64085D01*
X9431496Y-19153D01*
X9438889Y37000D01*
X9465975Y64086D01*
X9469103Y65892D01*
X9527314Y99500D01*
X9620500Y192686D01*
X9658478Y258465D01*
X13514500Y258465D01*
X13514500Y51536D01*
X13554868Y-151413D01*
X13554870Y-151420D01*
X13634059Y-342598D01*
X13743167Y-505892D01*
X13749023Y-514655D01*
X13895345Y-660977D01*
X14067402Y-775941D01*
X14258580Y-855130D01*
X14461535Y-895500D01*
X14461536Y-895500D01*
X14668464Y-895500D01*
X14668465Y-895500D01*
X14871420Y-855130D01*
X15062598Y-775941D01*
X15234655Y-660977D01*
X15380977Y-514655D01*
X15495941Y-342598D01*
X15575130Y-151420D01*
X15615500Y51535D01*
X15615500Y258465D01*
X16054500Y258465D01*
X16054500Y51536D01*
X16094868Y-151413D01*
X16094870Y-151420D01*
X16174059Y-342598D01*
X16283167Y-505892D01*
X16289023Y-514655D01*
X16435345Y-660977D01*
X16607402Y-775941D01*
X16798580Y-855130D01*
X17001535Y-895500D01*
X17001536Y-895500D01*
X17208464Y-895500D01*
X17208465Y-895500D01*
X17411420Y-855130D01*
X17602598Y-775941D01*
X17774655Y-660977D01*
X17920977Y-514655D01*
X18035941Y-342598D01*
X18115130Y-151420D01*
X18155500Y51535D01*
X18155500Y258465D01*
X18115130Y461420D01*
X18035941Y652598D01*
X17920977Y824655D01*
X17774655Y970977D01*
X17730470Y1000500D01*
X17602598Y1085941D01*
X17411420Y1165130D01*
X17411413Y1165132D01*
X17258516Y1195545D01*
X17208465Y1205500D01*
X17001535Y1205500D01*
X16969988Y1199225D01*
X16798586Y1165132D01*
X16798579Y1165130D01*
X16607401Y1085941D01*
X16435345Y970978D01*
X16435344Y970976D01*
X16289024Y824656D01*
X16289022Y824655D01*
X16174059Y652599D01*
X16094870Y461421D01*
X16094868Y461414D01*
X16054500Y258465D01*
X15615500Y258465D01*
X15575130Y461420D01*
X15495941Y652598D01*
X15380977Y824655D01*
X15234655Y970977D01*
X15190470Y1000500D01*
X15062598Y1085941D01*
X14871420Y1165130D01*
X14871413Y1165132D01*
X14718516Y1195545D01*
X14668465Y1205500D01*
X14461535Y1205500D01*
X14429988Y1199225D01*
X14258586Y1165132D01*
X14258579Y1165130D01*
X14067401Y1085941D01*
X13895345Y970978D01*
X13895344Y970976D01*
X13749024Y824656D01*
X13749022Y824655D01*
X13634059Y652599D01*
X13554870Y461421D01*
X13554868Y461414D01*
X13514500Y258465D01*
X9658478Y258465D01*
X9686392Y306814D01*
X9720499Y434106D01*
X9720500Y434106D01*
X9720500Y565894D01*
X9720499Y565895D01*
X9713186Y593186D01*
X9686392Y693186D01*
X9620500Y807314D01*
X9527314Y900500D01*
X9413190Y966390D01*
X9413181Y966394D01*
X9285894Y1000500D01*
X9285892Y1000500D01*
X9154108Y1000500D01*
X9154106Y1000500D01*
X9026818Y966394D01*
X9026809Y966390D01*
X8912685Y900500D01*
X8819500Y807315D01*
X8753610Y693191D01*
X8753606Y693182D01*
X8719500Y565895D01*
X7141919Y565895D01*
X7107314Y600500D01*
X7101829Y603667D01*
X6993190Y666390D01*
X6993181Y666394D01*
X6865894Y700500D01*
X6865892Y700500D01*
X6734108Y700500D01*
X6734106Y700500D01*
X6606818Y666394D01*
X6606809Y666390D01*
X6492685Y600500D01*
X6399500Y507315D01*
X6333610Y393191D01*
X6333606Y393182D01*
X6299500Y265895D01*
X1557746Y265895D01*
X1551069Y277460D01*
X1533833Y307314D01*
X1440647Y400500D01*
X1382440Y434106D01*
X1326523Y466390D01*
X1326514Y466394D01*
X1219050Y495189D01*
X1174117Y529667D01*
X1166725Y585820D01*
X1201203Y630753D01*
X1219046Y638145D01*
X1326519Y666941D01*
X1440647Y732833D01*
X1533833Y826019D01*
X1599725Y940147D01*
X1633832Y1067439D01*
X1633833Y1067439D01*
X1633833Y1199227D01*
X1633832Y1199228D01*
X1632151Y1205500D01*
X1599725Y1326519D01*
X1533833Y1440647D01*
X1440647Y1533833D01*
X1326523Y1599723D01*
X1326514Y1599727D01*
X1199227Y1633833D01*
X1199225Y1633833D01*
X1067441Y1633833D01*
X1067439Y1633833D01*
X940151Y1599727D01*
X940142Y1599723D01*
X826018Y1533833D01*
X732833Y1440648D01*
X666943Y1326524D01*
X666939Y1326515D01*
X638144Y1219051D01*
X603665Y1174118D01*
X547513Y1166726D01*
X502580Y1201205D01*
X495188Y1219047D01*
X466392Y1326519D01*
X400500Y1440647D01*
X307314Y1533833D01*
X193190Y1599723D01*
X193181Y1599727D01*
X65894Y1633833D01*
X65892Y1633833D01*
X-65892Y1633833D01*
X-65894Y1633833D01*
X-193182Y1599727D01*
X-193191Y1599723D01*
X-307315Y1533833D01*
X-400500Y1440648D01*
X-466390Y1326524D01*
X-466394Y1326515D01*
X-495189Y1219051D01*
X-529668Y1174118D01*
X-585820Y1166726D01*
X-630753Y1201205D01*
X-638145Y1219047D01*
X-666941Y1326519D01*
X-732833Y1440647D01*
X-826019Y1533833D01*
X-940143Y1599723D01*
X-940152Y1599727D01*
X-1067439Y1633833D01*
X-1067441Y1633833D01*
X-1199225Y1633833D01*
X-1199227Y1633833D01*
X-1326515Y1599727D01*
X-1326524Y1599723D01*
X-1440648Y1533833D01*
X-1533833Y1440648D01*
X-1599723Y1326524D01*
X-1599727Y1326515D01*
X-1633833Y1199228D01*
X-17205964Y1199228D01*
X-17239501Y1257315D01*
X-17332686Y1350500D01*
X-17446810Y1416390D01*
X-17446819Y1416394D01*
X-17574106Y1450500D01*
X-17574108Y1450500D01*
X-17705892Y1450500D01*
X-17705894Y1450500D01*
X-17833182Y1416394D01*
X-17833191Y1416390D01*
X-17947315Y1350500D01*
X-18040500Y1257315D01*
X-18106390Y1143191D01*
X-18106394Y1143182D01*
X-18140500Y1015895D01*
X-21583363Y1015895D01*
X-21651306Y1034100D01*
X-21651308Y1034100D01*
X-21783092Y1034100D01*
X-21783094Y1034100D01*
X-21910382Y999994D01*
X-21910391Y999990D01*
X-22024515Y934100D01*
X-22117700Y840915D01*
X-22183590Y726791D01*
X-22183594Y726782D01*
X-22217700Y599495D01*
X-28377477Y599495D01*
X-28404244Y664115D01*
X-28509578Y821758D01*
X-28643642Y955822D01*
X-28666324Y970978D01*
X-28801286Y1061157D01*
X-28976449Y1133712D01*
X-28976456Y1133714D01*
X-29116545Y1161579D01*
X-29162402Y1170700D01*
X-29351998Y1170700D01*
X-29388784Y1163383D01*
X-29537945Y1133714D01*
X-29537952Y1133712D01*
X-29713115Y1061157D01*
X-29870755Y955825D01*
X-30004825Y821755D01*
X-30110157Y664115D01*
X-30182712Y488952D01*
X-30182714Y488945D01*
X-30219700Y302998D01*
X-40644500Y302998D01*
X-40644500Y3274466D01*
X-30219700Y3274466D01*
X-30219700Y2141934D01*
X-30216846Y2111501D01*
X-30216846Y2111499D01*
X-30216845Y2111496D01*
X-30171994Y1983319D01*
X-30171993Y1983317D01*
X-30091354Y1874054D01*
X-30091347Y1874047D01*
X-29982084Y1793408D01*
X-29982082Y1793407D01*
X-29853905Y1748556D01*
X-29853899Y1748554D01*
X-29823466Y1745700D01*
X-29823459Y1745700D01*
X-28690942Y1745700D01*
X-28690934Y1745700D01*
X-28660501Y1748554D01*
X-28532318Y1793407D01*
X-28423050Y1874050D01*
X-28342407Y1983318D01*
X-28297554Y2111501D01*
X-28294700Y2141934D01*
X-28294700Y2580695D01*
X-18204500Y2580695D01*
X-18204500Y2448906D01*
X-18170394Y2321619D01*
X-18170393Y2321616D01*
X-18170392Y2321614D01*
X-18104500Y2207486D01*
X-18011314Y2114300D01*
X-17897186Y2048408D01*
X-17769895Y2014301D01*
X-17769894Y2014300D01*
X-17769892Y2014300D01*
X-17638106Y2014300D01*
X-17638106Y2014301D01*
X-17510814Y2048408D01*
X-17396686Y2114300D01*
X-17303500Y2207486D01*
X-17237608Y2321614D01*
X-17203501Y2448906D01*
X-17203500Y2448906D01*
X-17203500Y2580694D01*
X-17203501Y2580695D01*
X-17206406Y2591535D01*
X-17237608Y2707986D01*
X-17303500Y2822114D01*
X-17396686Y2915300D01*
X-17484318Y2965895D01*
X-9715500Y2965895D01*
X-9715500Y2834106D01*
X-9681394Y2706819D01*
X-9681393Y2706816D01*
X-9681392Y2706814D01*
X-9615500Y2592686D01*
X-9522314Y2499500D01*
X-9408186Y2433608D01*
X-9280895Y2399501D01*
X-9280894Y2399500D01*
X-9280892Y2399500D01*
X-9149106Y2399500D01*
X-9149106Y2399501D01*
X-9021814Y2433608D01*
X-8907686Y2499500D01*
X-8814500Y2592686D01*
X-8748608Y2706814D01*
X-8724050Y2798465D01*
X13514500Y2798465D01*
X13514500Y2591535D01*
X13516657Y2580692D01*
X13554868Y2388587D01*
X13554870Y2388580D01*
X13634059Y2197402D01*
X13733613Y2048407D01*
X13749023Y2025345D01*
X13895345Y1879023D01*
X14067402Y1764059D01*
X14258580Y1684870D01*
X14461535Y1644500D01*
X14461536Y1644500D01*
X14668464Y1644500D01*
X14668465Y1644500D01*
X14871420Y1684870D01*
X15062598Y1764059D01*
X15234655Y1879023D01*
X15380977Y2025345D01*
X15495941Y2197402D01*
X15575130Y2388580D01*
X15615500Y2591535D01*
X15615500Y2798465D01*
X16054500Y2798465D01*
X16054500Y2591535D01*
X16056657Y2580692D01*
X16094868Y2388587D01*
X16094870Y2388580D01*
X16174059Y2197402D01*
X16273613Y2048407D01*
X16289023Y2025345D01*
X16435345Y1879023D01*
X16607402Y1764059D01*
X16798580Y1684870D01*
X17001535Y1644500D01*
X17001536Y1644500D01*
X17208464Y1644500D01*
X17208465Y1644500D01*
X17411420Y1684870D01*
X17602598Y1764059D01*
X17774655Y1879023D01*
X17920977Y2025345D01*
X18035941Y2197402D01*
X18115130Y2388580D01*
X18155500Y2591535D01*
X18155500Y2798465D01*
X18115130Y3001420D01*
X18035941Y3192598D01*
X17920977Y3364655D01*
X17774655Y3510977D01*
X17727706Y3542347D01*
X17602598Y3625941D01*
X17411420Y3705130D01*
X17411413Y3705132D01*
X17258516Y3735545D01*
X17208465Y3745500D01*
X17001535Y3745500D01*
X16961385Y3737514D01*
X16798586Y3705132D01*
X16798579Y3705130D01*
X16607401Y3625941D01*
X16435345Y3510978D01*
X16435344Y3510976D01*
X16289024Y3364656D01*
X16289022Y3364655D01*
X16174059Y3192599D01*
X16094870Y3001421D01*
X16094868Y3001414D01*
X16061590Y2834108D01*
X16054500Y2798465D01*
X15615500Y2798465D01*
X15575130Y3001420D01*
X15495941Y3192598D01*
X15380977Y3364655D01*
X15234655Y3510977D01*
X15187706Y3542347D01*
X15062598Y3625941D01*
X14871420Y3705130D01*
X14871413Y3705132D01*
X14718516Y3735545D01*
X14668465Y3745500D01*
X14461535Y3745500D01*
X14421385Y3737514D01*
X14258586Y3705132D01*
X14258579Y3705130D01*
X14067401Y3625941D01*
X13895345Y3510978D01*
X13895344Y3510976D01*
X13749024Y3364656D01*
X13749022Y3364655D01*
X13634059Y3192599D01*
X13554870Y3001421D01*
X13554868Y3001414D01*
X13521590Y2834108D01*
X13514500Y2798465D01*
X-8724050Y2798465D01*
X-8717713Y2822114D01*
X-8714501Y2834106D01*
X-8714500Y2834106D01*
X-8714500Y2965894D01*
X-8714501Y2965895D01*
X-8748607Y3093182D01*
X-8748608Y3093186D01*
X-8814500Y3207314D01*
X-8907686Y3300500D01*
X-9018807Y3364656D01*
X-9021810Y3366390D01*
X-9021819Y3366394D01*
X-9149106Y3400500D01*
X-9149108Y3400500D01*
X-9280892Y3400500D01*
X-9280894Y3400500D01*
X-9408182Y3366394D01*
X-9408191Y3366390D01*
X-9522315Y3300500D01*
X-9615500Y3207315D01*
X-9681390Y3093191D01*
X-9681394Y3093182D01*
X-9715500Y2965895D01*
X-17484318Y2965895D01*
X-17510810Y2981190D01*
X-17510819Y2981194D01*
X-17638106Y3015300D01*
X-17638108Y3015300D01*
X-17769892Y3015300D01*
X-17769894Y3015300D01*
X-17897182Y2981194D01*
X-17897191Y2981190D01*
X-18011315Y2915300D01*
X-18104500Y2822115D01*
X-18170390Y2707991D01*
X-18170394Y2707982D01*
X-18204500Y2580695D01*
X-28294700Y2580695D01*
X-28294700Y3274466D01*
X-28297554Y3304899D01*
X-28319071Y3366390D01*
X-28342407Y3433082D01*
X-28342408Y3433084D01*
X-28423047Y3542347D01*
X-28423054Y3542354D01*
X-28532317Y3622993D01*
X-28532319Y3622994D01*
X-28660496Y3667845D01*
X-28660495Y3667845D01*
X-28660500Y3667846D01*
X-28660501Y3667846D01*
X-28690934Y3670700D01*
X-29823466Y3670700D01*
X-29853899Y3667846D01*
X-29853901Y3667846D01*
X-29853905Y3667845D01*
X-29982082Y3622994D01*
X-29982084Y3622993D01*
X-30091347Y3542354D01*
X-30091354Y3542347D01*
X-30171993Y3433084D01*
X-30171994Y3433082D01*
X-30216845Y3304905D01*
X-30216846Y3304901D01*
X-30216846Y3304899D01*
X-30219700Y3274466D01*
X-40644500Y3274466D01*
X-40644500Y5906042D01*
X-33917700Y5906042D01*
X-33917700Y5650359D01*
X-33884327Y5396862D01*
X-33818151Y5149891D01*
X-33818149Y5149884D01*
X-33720308Y4913674D01*
X-33720305Y4913666D01*
X-33592464Y4692239D01*
X-33592460Y4692233D01*
X-33495095Y4565345D01*
X-33436810Y4489387D01*
X-33256013Y4308590D01*
X-33200368Y4265892D01*
X-33053168Y4152941D01*
X-33053162Y4152937D01*
X-32831735Y4025096D01*
X-32595513Y3927250D01*
X-32348540Y3861074D01*
X-32095043Y3827700D01*
X-32095041Y3827700D01*
X-31839359Y3827700D01*
X-31839357Y3827700D01*
X-31585860Y3861074D01*
X-31338887Y3927250D01*
X-31102665Y4025096D01*
X-30881235Y4152939D01*
X-30734028Y4265895D01*
X-8800500Y4265895D01*
X-8800500Y4134106D01*
X-8766394Y4006819D01*
X-8766393Y4006816D01*
X-8766392Y4006814D01*
X-8700500Y3892686D01*
X-8607314Y3799500D01*
X-8493186Y3733608D01*
X-8365895Y3699501D01*
X-8365894Y3699500D01*
X-8365892Y3699500D01*
X-8234106Y3699500D01*
X-8234106Y3699501D01*
X-8106814Y3733608D01*
X-7992686Y3799500D01*
X-7899500Y3892686D01*
X-7833608Y4006814D01*
X-7799501Y4134106D01*
X-7799500Y4134106D01*
X-7799500Y4265894D01*
X-7799501Y4265895D01*
X-7808506Y4299501D01*
X-7833608Y4393186D01*
X-7899500Y4507314D01*
X-7992686Y4600500D01*
X-8003631Y4606819D01*
X-8106810Y4666390D01*
X-8106819Y4666394D01*
X-8234106Y4700500D01*
X-8234108Y4700500D01*
X-8365892Y4700500D01*
X-8365894Y4700500D01*
X-8493182Y4666394D01*
X-8493191Y4666390D01*
X-8607315Y4600500D01*
X-8700500Y4507315D01*
X-8766390Y4393191D01*
X-8766394Y4393182D01*
X-8800500Y4265895D01*
X-30734028Y4265895D01*
X-30678387Y4308590D01*
X-30497590Y4489387D01*
X-30341939Y4692235D01*
X-30214096Y4913665D01*
X-30116250Y5149887D01*
X-30050074Y5396860D01*
X-30016700Y5650357D01*
X-30016700Y5865895D01*
X-21400500Y5865895D01*
X-21400500Y5734106D01*
X-21366394Y5606819D01*
X-21366393Y5606816D01*
X-21366392Y5606814D01*
X-21300500Y5492686D01*
X-21207314Y5399500D01*
X-21093186Y5333608D01*
X-20965895Y5299501D01*
X-20965894Y5299500D01*
X-20965892Y5299500D01*
X-20834106Y5299500D01*
X-20834106Y5299501D01*
X-20706814Y5333608D01*
X-20650891Y5365895D01*
X4299500Y5365895D01*
X4299500Y5234106D01*
X4333606Y5106819D01*
X4333607Y5106816D01*
X4333608Y5106814D01*
X4399500Y4992686D01*
X4492686Y4899500D01*
X4606814Y4833608D01*
X4734105Y4799501D01*
X4734106Y4799500D01*
X4734108Y4799500D01*
X4865894Y4799500D01*
X4865894Y4799501D01*
X4993186Y4833608D01*
X5049109Y4865895D01*
X7899500Y4865895D01*
X7899500Y4734106D01*
X7933606Y4606819D01*
X7933610Y4606810D01*
X7957550Y4565345D01*
X7999500Y4492686D01*
X8092686Y4399500D01*
X8206814Y4333608D01*
X8334105Y4299501D01*
X8334106Y4299500D01*
X8334108Y4299500D01*
X8465894Y4299500D01*
X8465894Y4299501D01*
X8593186Y4333608D01*
X8707314Y4399500D01*
X8800500Y4492686D01*
X8866392Y4606814D01*
X8900499Y4734106D01*
X8900500Y4734106D01*
X8900500Y4865894D01*
X8900499Y4865895D01*
X8891494Y4899501D01*
X8866392Y4993186D01*
X8800500Y5107314D01*
X8707314Y5200500D01*
X8649107Y5234106D01*
X8593190Y5266390D01*
X8593181Y5266394D01*
X8577400Y5270622D01*
X8465894Y5300500D01*
X8465892Y5300500D01*
X8334108Y5300500D01*
X8334106Y5300500D01*
X8206818Y5266394D01*
X8206809Y5266390D01*
X8092685Y5200500D01*
X7999500Y5107315D01*
X7933610Y4993191D01*
X7933606Y4993182D01*
X7899500Y4865895D01*
X5049109Y4865895D01*
X5107314Y4899500D01*
X5200500Y4992686D01*
X5266392Y5106814D01*
X5300499Y5234106D01*
X5300500Y5234106D01*
X5300500Y5338465D01*
X13514500Y5338465D01*
X13514500Y5131536D01*
X13554868Y4928587D01*
X13554870Y4928580D01*
X13634059Y4737402D01*
X13749023Y4565345D01*
X13895345Y4419023D01*
X14067402Y4304059D01*
X14258580Y4224870D01*
X14461535Y4184500D01*
X14461536Y4184500D01*
X14668464Y4184500D01*
X14668465Y4184500D01*
X14871420Y4224870D01*
X15062598Y4304059D01*
X15234655Y4419023D01*
X15380977Y4565345D01*
X15495941Y4737402D01*
X15575130Y4928580D01*
X15615500Y5131535D01*
X15615500Y5338465D01*
X16054500Y5338465D01*
X16054500Y5131536D01*
X16094868Y4928587D01*
X16094870Y4928580D01*
X16174059Y4737402D01*
X16289023Y4565345D01*
X16435345Y4419023D01*
X16607402Y4304059D01*
X16798580Y4224870D01*
X17001535Y4184500D01*
X17001536Y4184500D01*
X17208464Y4184500D01*
X17208465Y4184500D01*
X17411420Y4224870D01*
X17602598Y4304059D01*
X17774655Y4419023D01*
X17920977Y4565345D01*
X18035941Y4737402D01*
X18115130Y4928580D01*
X18155500Y5131535D01*
X18155500Y5338465D01*
X18115130Y5541420D01*
X18035941Y5732598D01*
X17920977Y5904655D01*
X17774655Y6050977D01*
X17602598Y6165941D01*
X17411420Y6245130D01*
X17411413Y6245132D01*
X17258516Y6275545D01*
X17208465Y6285500D01*
X17001535Y6285500D01*
X16961385Y6277514D01*
X16798586Y6245132D01*
X16798579Y6245130D01*
X16607401Y6165941D01*
X16435345Y6050978D01*
X16435344Y6050976D01*
X16289024Y5904656D01*
X16289022Y5904655D01*
X16174059Y5732599D01*
X16094870Y5541421D01*
X16094868Y5541414D01*
X16054500Y5338465D01*
X15615500Y5338465D01*
X15575130Y5541420D01*
X15495941Y5732598D01*
X15380977Y5904655D01*
X15234655Y6050977D01*
X15062598Y6165941D01*
X14871420Y6245130D01*
X14871413Y6245132D01*
X14718516Y6275545D01*
X14668465Y6285500D01*
X14461535Y6285500D01*
X14421385Y6277514D01*
X14258586Y6245132D01*
X14258579Y6245130D01*
X14067401Y6165941D01*
X13895345Y6050978D01*
X13895344Y6050976D01*
X13749024Y5904656D01*
X13749022Y5904655D01*
X13634059Y5732599D01*
X13554870Y5541421D01*
X13554868Y5541414D01*
X13514500Y5338465D01*
X5300500Y5338465D01*
X5300500Y5365894D01*
X5300499Y5365895D01*
X5291494Y5399501D01*
X5266392Y5493186D01*
X5200500Y5607314D01*
X5107314Y5700500D01*
X5049107Y5734106D01*
X4993190Y5766390D01*
X4993181Y5766394D01*
X4865894Y5800500D01*
X4865892Y5800500D01*
X4734108Y5800500D01*
X4734106Y5800500D01*
X4606818Y5766394D01*
X4606809Y5766390D01*
X4492685Y5700500D01*
X4399500Y5607315D01*
X4333610Y5493191D01*
X4333606Y5493182D01*
X4299500Y5365895D01*
X-20650891Y5365895D01*
X-20592686Y5399500D01*
X-20499500Y5492686D01*
X-20433608Y5606814D01*
X-20399501Y5734106D01*
X-20399500Y5734106D01*
X-20399500Y5865894D01*
X-20399501Y5865895D01*
X-20409887Y5904655D01*
X-20433608Y5993186D01*
X-20499500Y6107314D01*
X-20592686Y6200500D01*
X-20669987Y6245130D01*
X-20706810Y6266390D01*
X-20706819Y6266394D01*
X-20834106Y6300500D01*
X-20834108Y6300500D01*
X-20965892Y6300500D01*
X-20965894Y6300500D01*
X-21093182Y6266394D01*
X-21093191Y6266390D01*
X-21207315Y6200500D01*
X-21300500Y6107315D01*
X-21366390Y5993191D01*
X-21366394Y5993182D01*
X-21400500Y5865895D01*
X-30016700Y5865895D01*
X-30016700Y5906043D01*
X-30050074Y6159540D01*
X-30116250Y6406513D01*
X-30214096Y6642735D01*
X-30279960Y6756814D01*
X-30341937Y6864162D01*
X-30341941Y6864168D01*
X-30451398Y7006814D01*
X-30497590Y7067013D01*
X-30678387Y7247810D01*
X-30701956Y7265895D01*
X1199500Y7265895D01*
X1199500Y7134106D01*
X1233606Y7006819D01*
X1233610Y7006810D01*
X1273915Y6937000D01*
X1281308Y6880847D01*
X1273915Y6863000D01*
X1233610Y6793191D01*
X1233606Y6793182D01*
X1199500Y6665895D01*
X1199500Y6534106D01*
X1233606Y6406819D01*
X1233610Y6406810D01*
X1294989Y6300500D01*
X1299500Y6292686D01*
X1392686Y6199500D01*
X1506814Y6133608D01*
X1634105Y6099501D01*
X1634106Y6099500D01*
X1634108Y6099500D01*
X1765894Y6099500D01*
X1765894Y6099501D01*
X1893186Y6133608D01*
X2007314Y6199500D01*
X2100500Y6292686D01*
X2166392Y6406814D01*
X2200499Y6534106D01*
X2200500Y6534106D01*
X2200500Y6665891D01*
X2184796Y6724500D01*
X2166392Y6793186D01*
X2126083Y6863001D01*
X2125192Y6869772D01*
X2120588Y6874814D01*
X2122170Y6892723D01*
X2118691Y6919152D01*
X2123159Y6931393D01*
X2124501Y6934258D01*
X2166392Y7006814D01*
X2168825Y7015895D01*
X3599500Y7015895D01*
X3599500Y6884106D01*
X3633606Y6756819D01*
X3633610Y6756810D01*
X3673915Y6687000D01*
X3681308Y6630847D01*
X3673915Y6613000D01*
X3633610Y6543191D01*
X3633606Y6543182D01*
X3599500Y6415895D01*
X3599500Y6284106D01*
X3633606Y6156819D01*
X3633610Y6156810D01*
X3662186Y6107315D01*
X3699500Y6042686D01*
X3792686Y5949500D01*
X3906814Y5883608D01*
X4034105Y5849501D01*
X4034106Y5849500D01*
X4034108Y5849500D01*
X4165894Y5849500D01*
X4165894Y5849501D01*
X4293186Y5883608D01*
X4407314Y5949500D01*
X4500500Y6042686D01*
X4566392Y6156814D01*
X4600499Y6284106D01*
X4600500Y6284106D01*
X4600500Y6415891D01*
X4600499Y6415895D01*
X4566392Y6543186D01*
X4526083Y6613001D01*
X4518691Y6669152D01*
X4526084Y6687000D01*
X4566392Y6756814D01*
X4600500Y6884108D01*
X4600500Y7015892D01*
X4600500Y7015894D01*
X4600499Y7015895D01*
X4566393Y7143182D01*
X4566392Y7143186D01*
X4500500Y7257314D01*
X4407314Y7350500D01*
X4293190Y7416390D01*
X4293181Y7416394D01*
X4165894Y7450500D01*
X4165892Y7450500D01*
X4034108Y7450500D01*
X4034106Y7450500D01*
X3906818Y7416394D01*
X3906809Y7416390D01*
X3792685Y7350500D01*
X3699500Y7257315D01*
X3633610Y7143191D01*
X3633606Y7143182D01*
X3599500Y7015895D01*
X2168825Y7015895D01*
X2200499Y7134106D01*
X2200500Y7134106D01*
X2200500Y7265894D01*
X2200499Y7265895D01*
X2198059Y7275000D01*
X2166392Y7393186D01*
X2100500Y7507314D01*
X2007314Y7600500D01*
X1949971Y7633607D01*
X1893190Y7666390D01*
X1893181Y7666394D01*
X1765894Y7700500D01*
X1765892Y7700500D01*
X1634108Y7700500D01*
X1634106Y7700500D01*
X1506818Y7666394D01*
X1506809Y7666390D01*
X1392685Y7600500D01*
X1299500Y7507315D01*
X1233610Y7393191D01*
X1233606Y7393182D01*
X1199500Y7265895D01*
X-30701956Y7265895D01*
X-30812215Y7350500D01*
X-30881233Y7403460D01*
X-30881239Y7403464D01*
X-31102666Y7531305D01*
X-31102674Y7531308D01*
X-31338884Y7629149D01*
X-31338886Y7629150D01*
X-31338887Y7629150D01*
X-31371978Y7638017D01*
X-31585862Y7695327D01*
X-31772611Y7719913D01*
X-31839357Y7728700D01*
X-32095043Y7728700D01*
X-32154024Y7720935D01*
X-32348539Y7695327D01*
X-32595510Y7629151D01*
X-32595517Y7629149D01*
X-32831727Y7531308D01*
X-32831735Y7531305D01*
X-33053162Y7403464D01*
X-33053168Y7403460D01*
X-33256014Y7247810D01*
X-33436810Y7067014D01*
X-33592460Y6864168D01*
X-33592464Y6864162D01*
X-33720305Y6642735D01*
X-33720308Y6642727D01*
X-33818149Y6406517D01*
X-33818151Y6406510D01*
X-33884327Y6159539D01*
X-33917700Y5906042D01*
X-40644500Y5906042D01*
X-40644500Y8712393D01*
X-40454100Y8712393D01*
X-40454100Y8574407D01*
X-40452505Y8566390D01*
X-40427182Y8439078D01*
X-40427179Y8439068D01*
X-40374377Y8311592D01*
X-40304987Y8207742D01*
X-40297714Y8196858D01*
X-40200142Y8099286D01*
X-40085411Y8022625D01*
X-40085410Y8022625D01*
X-40085409Y8022624D01*
X-39957933Y7969822D01*
X-39957928Y7969820D01*
X-39822593Y7942900D01*
X-39822591Y7942900D01*
X-38884609Y7942900D01*
X-38884607Y7942900D01*
X-38749272Y7969820D01*
X-38621789Y8022625D01*
X-38507058Y8099286D01*
X-38409486Y8196858D01*
X-38332825Y8311589D01*
X-38280020Y8439072D01*
X-38253100Y8574407D01*
X-38253100Y8712393D01*
X-36404100Y8712393D01*
X-36404100Y8574407D01*
X-36402505Y8566390D01*
X-36377182Y8439078D01*
X-36377179Y8439068D01*
X-36324377Y8311592D01*
X-36254987Y8207742D01*
X-36247714Y8196858D01*
X-36150142Y8099286D01*
X-36035411Y8022625D01*
X-36035410Y8022625D01*
X-36035409Y8022624D01*
X-35907933Y7969822D01*
X-35907928Y7969820D01*
X-35772593Y7942900D01*
X-35772591Y7942900D01*
X-34534609Y7942900D01*
X-34534607Y7942900D01*
X-34399272Y7969820D01*
X-34271789Y8022625D01*
X-34157058Y8099286D01*
X-34059486Y8196858D01*
X-33982825Y8311589D01*
X-33930020Y8439072D01*
X-33913068Y8524295D01*
X-21506500Y8524295D01*
X-21506500Y8392506D01*
X-21472394Y8265219D01*
X-21472390Y8265210D01*
X-21432929Y8196862D01*
X-21406500Y8151086D01*
X-21313314Y8057900D01*
X-21199186Y7992008D01*
X-21071895Y7957901D01*
X-21071894Y7957900D01*
X-21071892Y7957900D01*
X-20940106Y7957900D01*
X-20940106Y7957901D01*
X-20812814Y7992008D01*
X-20698686Y8057900D01*
X-20605500Y8151086D01*
X-20596950Y8165895D01*
X-7500500Y8165895D01*
X-7500500Y8034106D01*
X-7466394Y7906819D01*
X-7466393Y7906816D01*
X-7466392Y7906814D01*
X-7400500Y7792686D01*
X-7307314Y7699500D01*
X-7193186Y7633608D01*
X-7065895Y7599501D01*
X-7065894Y7599500D01*
X-7065892Y7599500D01*
X-6934106Y7599500D01*
X-6934106Y7599501D01*
X-6806814Y7633608D01*
X-6692686Y7699500D01*
X-6599500Y7792686D01*
X-6533608Y7906814D01*
X-6499501Y8034106D01*
X-6499500Y8034106D01*
X-6499500Y8165894D01*
X-6499501Y8165895D01*
X-6533607Y8293182D01*
X-6533608Y8293186D01*
X-6599500Y8407314D01*
X-6692686Y8500500D01*
X-6733900Y8524295D01*
X-6806810Y8566390D01*
X-6806819Y8566394D01*
X-6933921Y8600451D01*
X-6933924Y8600451D01*
X-6934107Y8600500D01*
X-6934108Y8600500D01*
X-7065892Y8600500D01*
X-7065894Y8600500D01*
X-7193182Y8566394D01*
X-7193191Y8566390D01*
X-7307315Y8500500D01*
X-7400500Y8407315D01*
X-7466390Y8293191D01*
X-7466394Y8293182D01*
X-7500500Y8165895D01*
X-20596950Y8165895D01*
X-20539608Y8265214D01*
X-20505501Y8392506D01*
X-20505500Y8392506D01*
X-20505500Y8524294D01*
X-20505501Y8524295D01*
X-20518929Y8574408D01*
X-20539608Y8651586D01*
X-20550118Y8669790D01*
X13415000Y8669790D01*
X13415000Y7925000D01*
X14087555Y7925000D01*
X14065000Y7840826D01*
X14065000Y7709174D01*
X14087555Y7625000D01*
X13415001Y7625000D01*
X13415001Y6880208D01*
X13417908Y6855132D01*
X13417910Y6855126D01*
X13463213Y6752522D01*
X13542521Y6673214D01*
X13645124Y6627911D01*
X13645123Y6627911D01*
X13670210Y6625001D01*
X14415000Y6625001D01*
X14415000Y7297555D01*
X14499174Y7275000D01*
X14630826Y7275000D01*
X14715000Y7297555D01*
X14715000Y6625001D01*
X15459792Y6625001D01*
X15484868Y6627909D01*
X15484874Y6627911D01*
X15587478Y6673214D01*
X15666786Y6752522D01*
X15712089Y6855125D01*
X15715000Y6880211D01*
X15715000Y7625000D01*
X15042445Y7625000D01*
X15065000Y7709174D01*
X15065000Y7840826D01*
X15054914Y7878465D01*
X16054500Y7878465D01*
X16054500Y7671535D01*
X16062044Y7633611D01*
X16094868Y7468587D01*
X16094870Y7468580D01*
X16174059Y7277402D01*
X16269805Y7134106D01*
X16289023Y7105345D01*
X16435345Y6959023D01*
X16607402Y6844059D01*
X16798580Y6764870D01*
X17001535Y6724500D01*
X17001536Y6724500D01*
X17208464Y6724500D01*
X17208465Y6724500D01*
X17411420Y6764870D01*
X17602598Y6844059D01*
X17774655Y6959023D01*
X17920977Y7105345D01*
X18035941Y7277402D01*
X18115130Y7468580D01*
X18155500Y7671535D01*
X18155500Y7878465D01*
X18115130Y8081420D01*
X18035941Y8272598D01*
X17920977Y8444655D01*
X17774655Y8590977D01*
X17760476Y8600451D01*
X17602598Y8705941D01*
X17411420Y8785130D01*
X17411413Y8785132D01*
X17258516Y8815545D01*
X17208465Y8825500D01*
X17001535Y8825500D01*
X16961385Y8817514D01*
X16798586Y8785132D01*
X16798579Y8785130D01*
X16607401Y8705941D01*
X16435345Y8590978D01*
X16435344Y8590976D01*
X16289024Y8444656D01*
X16289022Y8444655D01*
X16174059Y8272599D01*
X16094870Y8081421D01*
X16094868Y8081414D01*
X16067317Y7942900D01*
X16054500Y7878465D01*
X15054914Y7878465D01*
X15042445Y7925000D01*
X15714999Y7925000D01*
X15714999Y8669793D01*
X15712091Y8694869D01*
X15712089Y8694875D01*
X15666786Y8797479D01*
X15587478Y8876787D01*
X15484875Y8922090D01*
X15484876Y8922090D01*
X15459789Y8925000D01*
X14715000Y8925000D01*
X14715000Y8252446D01*
X14630826Y8275000D01*
X14499174Y8275000D01*
X14415000Y8252446D01*
X14415000Y8925000D01*
X13670207Y8925000D01*
X13645131Y8922092D01*
X13645125Y8922090D01*
X13542521Y8876787D01*
X13463213Y8797479D01*
X13417910Y8694876D01*
X13415000Y8669790D01*
X-20550118Y8669790D01*
X-20605500Y8765714D01*
X-20698686Y8858900D01*
X-20729667Y8876787D01*
X-20812810Y8924790D01*
X-20812819Y8924794D01*
X-20940106Y8958900D01*
X-20940108Y8958900D01*
X-21071892Y8958900D01*
X-21071894Y8958900D01*
X-21199182Y8924794D01*
X-21199191Y8924790D01*
X-21313315Y8858900D01*
X-21406500Y8765715D01*
X-21472390Y8651591D01*
X-21472394Y8651582D01*
X-21506500Y8524295D01*
X-33913068Y8524295D01*
X-33903100Y8574407D01*
X-33903100Y8712393D01*
X-33930020Y8847728D01*
X-33930022Y8847733D01*
X-33982824Y8975209D01*
X-34059484Y9089939D01*
X-34059486Y9089942D01*
X-34157058Y9187514D01*
X-34271789Y9264175D01*
X-34271790Y9264176D01*
X-34271792Y9264177D01*
X-34399268Y9316979D01*
X-34399278Y9316982D01*
X-34489906Y9335009D01*
X-34534607Y9343900D01*
X-35772593Y9343900D01*
X-35810958Y9336269D01*
X-35907923Y9316982D01*
X-35907933Y9316979D01*
X-36035409Y9264177D01*
X-36150139Y9187517D01*
X-36247717Y9089939D01*
X-36324377Y8975209D01*
X-36377179Y8847733D01*
X-36377182Y8847723D01*
X-36389632Y8785130D01*
X-36404100Y8712393D01*
X-38253100Y8712393D01*
X-38280020Y8847728D01*
X-38280022Y8847733D01*
X-38332824Y8975209D01*
X-38409484Y9089939D01*
X-38409486Y9089942D01*
X-38507058Y9187514D01*
X-38621789Y9264175D01*
X-38621790Y9264176D01*
X-38621792Y9264177D01*
X-38749268Y9316979D01*
X-38749278Y9316982D01*
X-38839906Y9335009D01*
X-38884607Y9343900D01*
X-39822593Y9343900D01*
X-39860958Y9336269D01*
X-39957923Y9316982D01*
X-39957933Y9316979D01*
X-40085409Y9264177D01*
X-40200139Y9187517D01*
X-40297717Y9089939D01*
X-40374377Y8975209D01*
X-40427179Y8847733D01*
X-40427182Y8847723D01*
X-40439632Y8785130D01*
X-40454100Y8712393D01*
X-40644500Y8712393D01*
X-40644500Y10149169D01*
X-36249100Y10149169D01*
X-36249100Y9997632D01*
X-36209883Y9851270D01*
X-36209879Y9851261D01*
X-36141951Y9733607D01*
X-36134115Y9720035D01*
X-36026965Y9612885D01*
X-35895735Y9537119D01*
X-35749369Y9497901D01*
X-35749368Y9497900D01*
X-35749366Y9497900D01*
X-35597832Y9497900D01*
X-35597832Y9497901D01*
X-35451465Y9537119D01*
X-35320235Y9612885D01*
X-35213085Y9720035D01*
X-35137319Y9851265D01*
X-35098101Y9997632D01*
X-35098100Y9997632D01*
X-35098100Y10065895D01*
X-11100500Y10065895D01*
X-11100500Y9934106D01*
X-11066394Y9806819D01*
X-11066390Y9806810D01*
X-11024128Y9733611D01*
X-11000500Y9692686D01*
X-10907314Y9599500D01*
X-10793186Y9533608D01*
X-10665895Y9499501D01*
X-10665894Y9499500D01*
X-10665892Y9499500D01*
X-10534106Y9499500D01*
X-10534106Y9499501D01*
X-10406814Y9533608D01*
X-10292686Y9599500D01*
X-10199500Y9692686D01*
X-10133608Y9806814D01*
X-10099501Y9934106D01*
X-10099500Y9934106D01*
X-10099500Y10065894D01*
X-10099501Y10065895D01*
X-1500500Y10065895D01*
X-1500500Y9934106D01*
X-1466394Y9806819D01*
X-1466390Y9806810D01*
X-1424128Y9733611D01*
X-1400500Y9692686D01*
X-1307314Y9599500D01*
X-1193186Y9533608D01*
X-1065895Y9499501D01*
X-1065894Y9499500D01*
X-1065892Y9499500D01*
X-934106Y9499500D01*
X-934106Y9499501D01*
X-806814Y9533608D01*
X-692686Y9599500D01*
X-599500Y9692686D01*
X-533608Y9806814D01*
X-499501Y9934106D01*
X-499500Y9934106D01*
X-499500Y10065894D01*
X-499501Y10065895D01*
X-515501Y10125607D01*
X-533608Y10193186D01*
X-575587Y10265895D01*
X9399500Y10265895D01*
X9399500Y10134106D01*
X9433606Y10006819D01*
X9433607Y10006816D01*
X9433608Y10006814D01*
X9499500Y9892686D01*
X9592686Y9799500D01*
X9706814Y9733608D01*
X9834105Y9699501D01*
X9834106Y9699500D01*
X9834108Y9699500D01*
X9965894Y9699500D01*
X9965894Y9699501D01*
X10093186Y9733608D01*
X10207314Y9799500D01*
X10300500Y9892686D01*
X10366392Y10006814D01*
X10400499Y10134106D01*
X10400500Y10134106D01*
X10400500Y10265894D01*
X10400499Y10265895D01*
X10366393Y10393182D01*
X10366392Y10393186D01*
X10300500Y10507314D01*
X10207314Y10600500D01*
X10123483Y10648900D01*
X10093190Y10666390D01*
X10093181Y10666394D01*
X9965894Y10700500D01*
X9965892Y10700500D01*
X9834108Y10700500D01*
X9834106Y10700500D01*
X9706818Y10666394D01*
X9706809Y10666390D01*
X9592685Y10600500D01*
X9499500Y10507315D01*
X9433610Y10393191D01*
X9433606Y10393182D01*
X9399500Y10265895D01*
X-575587Y10265895D01*
X-599500Y10307314D01*
X-692686Y10400500D01*
X-738178Y10426765D01*
X-806810Y10466390D01*
X-806819Y10466394D01*
X-934106Y10500500D01*
X-934108Y10500500D01*
X-1065892Y10500500D01*
X-1065894Y10500500D01*
X-1193182Y10466394D01*
X-1193191Y10466390D01*
X-1307315Y10400500D01*
X-1400500Y10307315D01*
X-1466390Y10193191D01*
X-1466394Y10193182D01*
X-1500500Y10065895D01*
X-10099501Y10065895D01*
X-10115501Y10125607D01*
X-10133608Y10193186D01*
X-10199500Y10307314D01*
X-10292686Y10400500D01*
X-10338178Y10426765D01*
X-10406810Y10466390D01*
X-10406819Y10466394D01*
X-10534106Y10500500D01*
X-10534108Y10500500D01*
X-10665892Y10500500D01*
X-10665894Y10500500D01*
X-10793182Y10466394D01*
X-10793191Y10466390D01*
X-10907315Y10400500D01*
X-11000500Y10307315D01*
X-11066390Y10193191D01*
X-11066394Y10193182D01*
X-11100500Y10065895D01*
X-35098100Y10065895D01*
X-35098100Y10149168D01*
X-35098101Y10149169D01*
X-35109444Y10191501D01*
X-35137319Y10295535D01*
X-35213085Y10426765D01*
X-35320235Y10533915D01*
X-35435563Y10600500D01*
X-35451461Y10609679D01*
X-35451470Y10609683D01*
X-35597832Y10648900D01*
X-35597834Y10648900D01*
X-35749366Y10648900D01*
X-35749368Y10648900D01*
X-35895731Y10609683D01*
X-35895740Y10609679D01*
X-36026963Y10533917D01*
X-36134117Y10426763D01*
X-36209879Y10295540D01*
X-36209883Y10295531D01*
X-36249100Y10149169D01*
X-40644500Y10149169D01*
X-40644500Y10657895D01*
X-32428500Y10657895D01*
X-32428500Y10526106D01*
X-32394394Y10398819D01*
X-32394390Y10398810D01*
X-32359865Y10339011D01*
X-32328500Y10284686D01*
X-32235314Y10191500D01*
X-32121186Y10125608D01*
X-31993895Y10091501D01*
X-31993894Y10091500D01*
X-31993892Y10091500D01*
X-31862106Y10091500D01*
X-31862106Y10091501D01*
X-31734814Y10125608D01*
X-31720095Y10134106D01*
X-31718844Y10134828D01*
X-31694005Y10149169D01*
X-31620686Y10191500D01*
X-31527500Y10284686D01*
X-31461608Y10398814D01*
X-31427501Y10526106D01*
X-31427500Y10526106D01*
X-31427500Y10657894D01*
X-31427501Y10657895D01*
X-31461607Y10785182D01*
X-31461608Y10785186D01*
X-31511323Y10871295D01*
X-29167100Y10871295D01*
X-29167100Y10739506D01*
X-29132994Y10612219D01*
X-29132990Y10612210D01*
X-29087787Y10533917D01*
X-29067100Y10498086D01*
X-28973914Y10404900D01*
X-28859786Y10339008D01*
X-28732495Y10304901D01*
X-28732494Y10304900D01*
X-28732492Y10304900D01*
X-28600706Y10304900D01*
X-28600706Y10304901D01*
X-28473414Y10339008D01*
X-28359286Y10404900D01*
X-28266100Y10498086D01*
X-28200208Y10612214D01*
X-28166101Y10739506D01*
X-28166100Y10739506D01*
X-28166100Y10871294D01*
X-28166101Y10871295D01*
X-28171833Y10892686D01*
X-28200208Y10998586D01*
X-28266100Y11112714D01*
X-28359286Y11205900D01*
X-28463200Y11265895D01*
X-5200500Y11265895D01*
X-5200500Y11134106D01*
X-5166394Y11006819D01*
X-5166390Y11006810D01*
X-5158128Y10992500D01*
X-5100500Y10892686D01*
X-5007314Y10799500D01*
X-4893186Y10733608D01*
X-4765895Y10699501D01*
X-4765894Y10699500D01*
X-4765892Y10699500D01*
X-4634106Y10699500D01*
X-4634106Y10699501D01*
X-4506814Y10733608D01*
X-4392686Y10799500D01*
X-4299500Y10892686D01*
X-4233608Y11006814D01*
X-4199501Y11134106D01*
X-4199500Y11134106D01*
X-4199500Y11265894D01*
X-4199501Y11265895D01*
X-4201081Y11271790D01*
X-4233608Y11393186D01*
X-4299500Y11507314D01*
X-4392686Y11600500D01*
X-4418668Y11615501D01*
X-4506810Y11666390D01*
X-4506819Y11666394D01*
X-4634106Y11700500D01*
X-4634108Y11700500D01*
X-4765892Y11700500D01*
X-4765894Y11700500D01*
X-4893182Y11666394D01*
X-4893191Y11666390D01*
X-5007315Y11600500D01*
X-5100500Y11507315D01*
X-5166390Y11393191D01*
X-5166394Y11393182D01*
X-5200500Y11265895D01*
X-28463200Y11265895D01*
X-28473410Y11271790D01*
X-28473419Y11271794D01*
X-28600706Y11305900D01*
X-28600708Y11305900D01*
X-28732492Y11305900D01*
X-28732494Y11305900D01*
X-28859782Y11271794D01*
X-28859791Y11271790D01*
X-28973915Y11205900D01*
X-29067100Y11112715D01*
X-29132990Y10998591D01*
X-29132994Y10998582D01*
X-29167100Y10871295D01*
X-31511323Y10871295D01*
X-31527500Y10899314D01*
X-31620686Y10992500D01*
X-31631236Y10998591D01*
X-31734810Y11058390D01*
X-31734819Y11058394D01*
X-31862106Y11092500D01*
X-31862108Y11092500D01*
X-31993892Y11092500D01*
X-31993894Y11092500D01*
X-32121182Y11058394D01*
X-32121191Y11058390D01*
X-32235315Y10992500D01*
X-32328500Y10899315D01*
X-32394390Y10785191D01*
X-32394394Y10785182D01*
X-32428500Y10657895D01*
X-40644500Y10657895D01*
X-40644500Y12181895D01*
X-28466100Y12181895D01*
X-28466100Y12050106D01*
X-28431994Y11922819D01*
X-28431990Y11922810D01*
X-28402663Y11872014D01*
X-28366100Y11808686D01*
X-28272914Y11715500D01*
X-28158786Y11649608D01*
X-28031495Y11615501D01*
X-28031494Y11615500D01*
X-28031492Y11615500D01*
X-27899706Y11615500D01*
X-27899706Y11615501D01*
X-27772414Y11649608D01*
X-27658286Y11715500D01*
X-27565100Y11808686D01*
X-27536351Y11858482D01*
X-27491418Y11892960D01*
X-27435265Y11885567D01*
X-27408179Y11858481D01*
X-27350100Y11757886D01*
X-27256914Y11664700D01*
X-27142786Y11598808D01*
X-27015495Y11564701D01*
X-27015494Y11564700D01*
X-27015492Y11564700D01*
X-26883706Y11564700D01*
X-26883706Y11564701D01*
X-26756414Y11598808D01*
X-26642286Y11664700D01*
X-26549100Y11757886D01*
X-26486741Y11865895D01*
X-9800500Y11865895D01*
X-9800500Y11734106D01*
X-9766394Y11606819D01*
X-9766390Y11606810D01*
X-9708946Y11507315D01*
X-9700500Y11492686D01*
X-9607314Y11399500D01*
X-9493186Y11333608D01*
X-9365895Y11299501D01*
X-9365894Y11299500D01*
X-9365892Y11299500D01*
X-9234106Y11299500D01*
X-9234106Y11299501D01*
X-9106814Y11333608D01*
X-9105225Y11334526D01*
X-9104702Y11334827D01*
X-9104701Y11334828D01*
X-8992686Y11399500D01*
X-8899500Y11492686D01*
X-8833608Y11606814D01*
X-8799501Y11734106D01*
X-8799500Y11734106D01*
X-8799500Y11865894D01*
X-8799501Y11865895D01*
X-8801141Y11872014D01*
X-8833608Y11993186D01*
X-8899500Y12107314D01*
X-8992686Y12200500D01*
X-9092947Y12258386D01*
X-9106810Y12266390D01*
X-9106819Y12266394D01*
X-9234106Y12300500D01*
X-9234108Y12300500D01*
X-9365892Y12300500D01*
X-9365894Y12300500D01*
X-9493182Y12266394D01*
X-9493191Y12266390D01*
X-9607315Y12200500D01*
X-9700500Y12107315D01*
X-9766390Y11993191D01*
X-9766394Y11993182D01*
X-9800500Y11865895D01*
X-26486741Y11865895D01*
X-26483208Y11872014D01*
X-26449101Y11999306D01*
X-26449100Y11999306D01*
X-26449100Y12131094D01*
X-26449101Y12131095D01*
X-26462713Y12181895D01*
X-26483208Y12258386D01*
X-26549100Y12372514D01*
X-26642286Y12465700D01*
X-26730274Y12516500D01*
X-26756410Y12531590D01*
X-26756419Y12531594D01*
X-26883706Y12565700D01*
X-26883708Y12565700D01*
X-27015492Y12565700D01*
X-27015494Y12565700D01*
X-27142782Y12531594D01*
X-27142791Y12531590D01*
X-27256915Y12465700D01*
X-27350101Y12372514D01*
X-27378851Y12322719D01*
X-27423785Y12288241D01*
X-27479937Y12295635D01*
X-27507022Y12322720D01*
X-27565101Y12423315D01*
X-27658286Y12516500D01*
X-27743840Y12565895D01*
X-5200500Y12565895D01*
X-5200500Y12434106D01*
X-5166394Y12306819D01*
X-5166390Y12306810D01*
X-5143054Y12266392D01*
X-5100500Y12192686D01*
X-5007314Y12099500D01*
X-4893186Y12033608D01*
X-4765895Y11999501D01*
X-4765894Y11999500D01*
X-4765892Y11999500D01*
X-4634106Y11999500D01*
X-4634106Y11999501D01*
X-4506814Y12033608D01*
X-4392686Y12099500D01*
X-4299500Y12192686D01*
X-4233608Y12306814D01*
X-4199501Y12434106D01*
X-4199500Y12434106D01*
X-4199500Y12565894D01*
X-4199501Y12565895D01*
X-4208506Y12599501D01*
X-4233608Y12693186D01*
X-4299500Y12807314D01*
X-4392686Y12900500D01*
X-4451922Y12934700D01*
X-4506810Y12966390D01*
X-4506819Y12966394D01*
X-4634106Y13000500D01*
X-4634108Y13000500D01*
X-4765892Y13000500D01*
X-4765894Y13000500D01*
X-4893182Y12966394D01*
X-4893191Y12966390D01*
X-5007315Y12900500D01*
X-5100500Y12807315D01*
X-5166390Y12693191D01*
X-5166394Y12693182D01*
X-5200500Y12565895D01*
X-27743840Y12565895D01*
X-27772410Y12582390D01*
X-27772419Y12582394D01*
X-27899706Y12616500D01*
X-27899708Y12616500D01*
X-28031492Y12616500D01*
X-28031494Y12616500D01*
X-28158782Y12582394D01*
X-28158791Y12582390D01*
X-28272915Y12516500D01*
X-28366100Y12423315D01*
X-28431990Y12309191D01*
X-28431994Y12309182D01*
X-28466100Y12181895D01*
X-40644500Y12181895D01*
X-40644500Y13401095D01*
X-23487700Y13401095D01*
X-23487700Y13269306D01*
X-23453594Y13142019D01*
X-23453593Y13142016D01*
X-23453592Y13142014D01*
X-23387700Y13027886D01*
X-23294514Y12934700D01*
X-23180386Y12868808D01*
X-23053095Y12834701D01*
X-23053094Y12834700D01*
X-23053092Y12834700D01*
X-22921306Y12834700D01*
X-22921306Y12834701D01*
X-22794014Y12868808D01*
X-22679886Y12934700D01*
X-22586700Y13027886D01*
X-22520808Y13142014D01*
X-22514409Y13165895D01*
X-9800500Y13165895D01*
X-9800500Y13034106D01*
X-9766394Y12906819D01*
X-9766390Y12906810D01*
X-9724757Y12834700D01*
X-9700500Y12792686D01*
X-9607314Y12699500D01*
X-9493186Y12633608D01*
X-9365895Y12599501D01*
X-9365894Y12599500D01*
X-9365892Y12599500D01*
X-9234106Y12599500D01*
X-9234106Y12599501D01*
X-9106814Y12633608D01*
X-9105225Y12634526D01*
X-9104702Y12634827D01*
X-9104701Y12634828D01*
X-8992686Y12699500D01*
X-8899500Y12792686D01*
X-8833608Y12906814D01*
X-8799501Y13034106D01*
X-8799500Y13034106D01*
X-8799500Y13165894D01*
X-8799501Y13165895D01*
X-8827210Y13269306D01*
X-8833608Y13293186D01*
X-8899500Y13407314D01*
X-8992686Y13500500D01*
X-9040986Y13528386D01*
X-9106810Y13566390D01*
X-9106819Y13566394D01*
X-9234106Y13600500D01*
X-9234108Y13600500D01*
X-9365892Y13600500D01*
X-9365894Y13600500D01*
X-9493182Y13566394D01*
X-9493191Y13566390D01*
X-9607315Y13500500D01*
X-9700500Y13407315D01*
X-9766390Y13293191D01*
X-9766394Y13293182D01*
X-9800500Y13165895D01*
X-22514409Y13165895D01*
X-22486700Y13269308D01*
X-22486700Y13401092D01*
X-22486700Y13401094D01*
X-22486701Y13401095D01*
X-22488368Y13407315D01*
X-22520808Y13528386D01*
X-22586700Y13642514D01*
X-22679886Y13735700D01*
X-22794014Y13801593D01*
X-22921306Y13835700D01*
X-22921308Y13835700D01*
X-23053092Y13835700D01*
X-23053094Y13835700D01*
X-23180382Y13801594D01*
X-23180391Y13801590D01*
X-23294515Y13735700D01*
X-23387700Y13642515D01*
X-23453590Y13528391D01*
X-23453594Y13528382D01*
X-23487700Y13401095D01*
X-40644500Y13401095D01*
X-40644500Y13865895D01*
X-5200500Y13865895D01*
X-5200500Y13734106D01*
X-5166394Y13606819D01*
X-5166390Y13606810D01*
X-5121109Y13528382D01*
X-5100500Y13492686D01*
X-5007314Y13399500D01*
X-4893186Y13333608D01*
X-4765895Y13299501D01*
X-4765894Y13299500D01*
X-4765892Y13299500D01*
X-4634106Y13299500D01*
X-4634106Y13299501D01*
X-4506814Y13333608D01*
X-4392686Y13399500D01*
X-4299500Y13492686D01*
X-4233608Y13606814D01*
X-4199501Y13734106D01*
X-4199500Y13734106D01*
X-4199500Y13865894D01*
X-4199501Y13865895D01*
X-4233607Y13993182D01*
X-4233608Y13993186D01*
X-4299500Y14107314D01*
X-4392686Y14200500D01*
X-4506810Y14266390D01*
X-4506819Y14266394D01*
X-4634106Y14300500D01*
X-4634108Y14300500D01*
X-4765892Y14300500D01*
X-4765894Y14300500D01*
X-4893182Y14266394D01*
X-4893191Y14266390D01*
X-5007315Y14200500D01*
X-5100500Y14107315D01*
X-5166390Y13993191D01*
X-5166394Y13993182D01*
X-5200500Y13865895D01*
X-40644500Y13865895D01*
X-40644500Y14665895D01*
X-22600500Y14665895D01*
X-22600500Y14534106D01*
X-22566394Y14406819D01*
X-22566393Y14406816D01*
X-22566392Y14406814D01*
X-22500500Y14292686D01*
X-22407314Y14199500D01*
X-22293186Y14133608D01*
X-22165895Y14099501D01*
X-22165894Y14099500D01*
X-22165892Y14099500D01*
X-22034106Y14099500D01*
X-22034106Y14099501D01*
X-21906814Y14133608D01*
X-21792686Y14199500D01*
X-21699500Y14292686D01*
X-21633608Y14406814D01*
X-21599501Y14534106D01*
X-21599500Y14534106D01*
X-21599500Y14665894D01*
X-21599501Y14665895D01*
X-18400500Y14665895D01*
X-18400500Y14534106D01*
X-18366394Y14406819D01*
X-18366393Y14406816D01*
X-18366392Y14406814D01*
X-18300500Y14292686D01*
X-18207314Y14199500D01*
X-18093186Y14133608D01*
X-17965895Y14099501D01*
X-17965894Y14099500D01*
X-17965892Y14099500D01*
X-17834106Y14099500D01*
X-17834106Y14099501D01*
X-17706814Y14133608D01*
X-17592686Y14199500D01*
X-17499500Y14292686D01*
X-17433608Y14406814D01*
X-17399501Y14534106D01*
X-17399500Y14534106D01*
X-17399500Y14665894D01*
X-17399501Y14665895D01*
X-17433607Y14793182D01*
X-17433608Y14793186D01*
X-17499500Y14907314D01*
X-17592686Y15000500D01*
X-17607557Y15009086D01*
X-17706810Y15066390D01*
X-17706819Y15066394D01*
X-17834106Y15100500D01*
X-17834108Y15100500D01*
X-17965892Y15100500D01*
X-17965894Y15100500D01*
X-18093182Y15066394D01*
X-18093191Y15066390D01*
X-18207315Y15000500D01*
X-18300500Y14907315D01*
X-18366390Y14793191D01*
X-18366394Y14793182D01*
X-18400500Y14665895D01*
X-21599501Y14665895D01*
X-21633607Y14793182D01*
X-21633608Y14793186D01*
X-21699500Y14907314D01*
X-21792686Y15000500D01*
X-21807557Y15009086D01*
X-21906810Y15066390D01*
X-21906819Y15066394D01*
X-22034106Y15100500D01*
X-22034108Y15100500D01*
X-22165892Y15100500D01*
X-22165894Y15100500D01*
X-22293182Y15066394D01*
X-22293191Y15066390D01*
X-22407315Y15000500D01*
X-22500500Y14907315D01*
X-22566390Y14793191D01*
X-22566394Y14793182D01*
X-22600500Y14665895D01*
X-40644500Y14665895D01*
X-40644500Y15929169D01*
X-36249100Y15929169D01*
X-36249100Y15777632D01*
X-36209883Y15631270D01*
X-36209879Y15631261D01*
X-36139627Y15509582D01*
X-36134115Y15500035D01*
X-36026965Y15392885D01*
X-35895735Y15317119D01*
X-35749369Y15277901D01*
X-35749368Y15277900D01*
X-35749366Y15277900D01*
X-35597832Y15277900D01*
X-35597832Y15277901D01*
X-35451465Y15317119D01*
X-35338577Y15382295D01*
X-32733300Y15382295D01*
X-32733300Y15250506D01*
X-32699194Y15123219D01*
X-32699193Y15123216D01*
X-32699192Y15123214D01*
X-32633300Y15009086D01*
X-32540114Y14915900D01*
X-32425986Y14850008D01*
X-32298695Y14815901D01*
X-32298694Y14815900D01*
X-32298692Y14815900D01*
X-32166906Y14815900D01*
X-32166906Y14815901D01*
X-32039614Y14850008D01*
X-31925486Y14915900D01*
X-31832300Y15009086D01*
X-31766408Y15123214D01*
X-31732301Y15250506D01*
X-31732300Y15250506D01*
X-31732300Y15382294D01*
X-31732301Y15382295D01*
X-31735139Y15392885D01*
X-31766408Y15509586D01*
X-31832300Y15623714D01*
X-31925486Y15716900D01*
X-32039610Y15782790D01*
X-32039619Y15782794D01*
X-32166906Y15816900D01*
X-32166908Y15816900D01*
X-32298692Y15816900D01*
X-32298694Y15816900D01*
X-32425982Y15782794D01*
X-32425991Y15782790D01*
X-32540115Y15716900D01*
X-32633300Y15623715D01*
X-32699190Y15509591D01*
X-32699194Y15509582D01*
X-32733300Y15382295D01*
X-35338577Y15382295D01*
X-35320235Y15392885D01*
X-35213085Y15500035D01*
X-35137319Y15631265D01*
X-35098101Y15777632D01*
X-35098100Y15777632D01*
X-35098100Y15929168D01*
X-35098101Y15929169D01*
X-35137318Y16075531D01*
X-35137319Y16075535D01*
X-35213085Y16206765D01*
X-35320235Y16313915D01*
X-35320238Y16313917D01*
X-35451461Y16389679D01*
X-35451470Y16389683D01*
X-35597832Y16428900D01*
X-35597834Y16428900D01*
X-35749366Y16428900D01*
X-35749368Y16428900D01*
X-35895731Y16389683D01*
X-35895740Y16389679D01*
X-36026963Y16313917D01*
X-36134117Y16206763D01*
X-36209879Y16075540D01*
X-36209883Y16075531D01*
X-36249100Y15929169D01*
X-40644500Y15929169D01*
X-40644500Y17352393D01*
X-40454100Y17352393D01*
X-40454100Y17214407D01*
X-40445209Y17169706D01*
X-40427182Y17079078D01*
X-40427179Y17079068D01*
X-40374377Y16951592D01*
X-40374376Y16951590D01*
X-40374375Y16951589D01*
X-40297714Y16836858D01*
X-40200142Y16739286D01*
X-40085411Y16662625D01*
X-39957928Y16609820D01*
X-39822593Y16582900D01*
X-39822591Y16582900D01*
X-38884609Y16582900D01*
X-38884607Y16582900D01*
X-38749272Y16609820D01*
X-38621789Y16662625D01*
X-38507058Y16739286D01*
X-38409486Y16836858D01*
X-38332825Y16951589D01*
X-38280020Y17079072D01*
X-38253100Y17214407D01*
X-38253100Y17352393D01*
X-36404100Y17352393D01*
X-36404100Y17214407D01*
X-36395209Y17169706D01*
X-36377182Y17079078D01*
X-36377179Y17079068D01*
X-36324377Y16951592D01*
X-36324376Y16951590D01*
X-36324375Y16951589D01*
X-36247714Y16836858D01*
X-36150142Y16739286D01*
X-36035411Y16662625D01*
X-35907928Y16609820D01*
X-35772593Y16582900D01*
X-35772591Y16582900D01*
X-34534609Y16582900D01*
X-34534607Y16582900D01*
X-34399272Y16609820D01*
X-34271789Y16662625D01*
X-34157058Y16739286D01*
X-34059486Y16836858D01*
X-33982825Y16951589D01*
X-33930020Y17079072D01*
X-33903100Y17214407D01*
X-33903100Y17265895D01*
X-5600500Y17265895D01*
X-5600500Y17134106D01*
X-5566394Y17006819D01*
X-5566390Y17006810D01*
X-5534508Y16951589D01*
X-5500500Y16892686D01*
X-5407314Y16799500D01*
X-5293186Y16733608D01*
X-5165895Y16699501D01*
X-5165894Y16699500D01*
X-5165892Y16699500D01*
X-5034106Y16699500D01*
X-5034106Y16699501D01*
X-4906814Y16733608D01*
X-4850891Y16765895D01*
X7174500Y16765895D01*
X7174500Y16634106D01*
X7208606Y16506819D01*
X7208607Y16506816D01*
X7208608Y16506814D01*
X7274500Y16392686D01*
X7367686Y16299500D01*
X7481814Y16233608D01*
X7609105Y16199501D01*
X7609106Y16199500D01*
X7609108Y16199500D01*
X7740894Y16199500D01*
X7740894Y16199501D01*
X7868186Y16233608D01*
X7982314Y16299500D01*
X8075500Y16392686D01*
X8141392Y16506814D01*
X8175499Y16634106D01*
X8175500Y16634106D01*
X8175500Y16765894D01*
X8175499Y16765895D01*
X8166494Y16799501D01*
X8141392Y16893186D01*
X8075500Y17007314D01*
X7982314Y17100500D01*
X7924107Y17134106D01*
X7868190Y17166390D01*
X7868181Y17166394D01*
X7740894Y17200500D01*
X7740892Y17200500D01*
X7609108Y17200500D01*
X7609106Y17200500D01*
X7481818Y17166394D01*
X7481809Y17166390D01*
X7367685Y17100500D01*
X7274500Y17007315D01*
X7208610Y16893191D01*
X7208606Y16893182D01*
X7174500Y16765895D01*
X-4850891Y16765895D01*
X-4792686Y16799500D01*
X-4699500Y16892686D01*
X-4633608Y17006814D01*
X-4599501Y17134106D01*
X-4599500Y17134106D01*
X-4599500Y17265894D01*
X-4599501Y17265895D01*
X-4608506Y17299501D01*
X-4633608Y17393186D01*
X-4699500Y17507314D01*
X-4792686Y17600500D01*
X-4818166Y17615211D01*
X-4906810Y17666390D01*
X-4906819Y17666394D01*
X-5034106Y17700500D01*
X-5034108Y17700500D01*
X-5165892Y17700500D01*
X-5165894Y17700500D01*
X-5293182Y17666394D01*
X-5293191Y17666390D01*
X-5407315Y17600500D01*
X-5500500Y17507315D01*
X-5566390Y17393191D01*
X-5566394Y17393182D01*
X-5600500Y17265895D01*
X-33903100Y17265895D01*
X-33903100Y17352393D01*
X-33930020Y17487728D01*
X-33938133Y17507315D01*
X-33982824Y17615209D01*
X-34017025Y17666394D01*
X-34059486Y17729942D01*
X-34157058Y17827514D01*
X-34214495Y17865892D01*
X-34214499Y17865895D01*
X-13000500Y17865895D01*
X-13000500Y17734106D01*
X-12966394Y17606819D01*
X-12966393Y17606816D01*
X-12966392Y17606814D01*
X-12900500Y17492686D01*
X-12807314Y17399500D01*
X-12693186Y17333608D01*
X-12565895Y17299501D01*
X-12565894Y17299500D01*
X-12565892Y17299500D01*
X-12434106Y17299500D01*
X-12434106Y17299501D01*
X-12306814Y17333608D01*
X-12305225Y17334526D01*
X-12304702Y17334827D01*
X-12304701Y17334828D01*
X-12192686Y17399500D01*
X-12099500Y17492686D01*
X-12033608Y17606814D01*
X-11999501Y17734106D01*
X-11999500Y17734106D01*
X-11999500Y17865894D01*
X-11999501Y17865895D01*
X-12023907Y17956979D01*
X-12033608Y17993186D01*
X-12099500Y18107314D01*
X-12192686Y18200500D01*
X-12296238Y18260286D01*
X-12306810Y18266390D01*
X-12306819Y18266394D01*
X-12434106Y18300500D01*
X-12434108Y18300500D01*
X-12565892Y18300500D01*
X-12565894Y18300500D01*
X-12693182Y18266394D01*
X-12693191Y18266390D01*
X-12807315Y18200500D01*
X-12900500Y18107315D01*
X-12966390Y17993191D01*
X-12966394Y17993182D01*
X-13000500Y17865895D01*
X-34214499Y17865895D01*
X-34271792Y17904177D01*
X-34399268Y17956979D01*
X-34399278Y17956982D01*
X-34489906Y17975009D01*
X-34534607Y17983900D01*
X-35772593Y17983900D01*
X-35810958Y17976269D01*
X-35907923Y17956982D01*
X-35907933Y17956979D01*
X-36035409Y17904177D01*
X-36150139Y17827517D01*
X-36247717Y17729939D01*
X-36324377Y17615209D01*
X-36377179Y17487733D01*
X-36377182Y17487723D01*
X-36394730Y17399501D01*
X-36404100Y17352393D01*
X-38253100Y17352393D01*
X-38280020Y17487728D01*
X-38288133Y17507315D01*
X-38332824Y17615209D01*
X-38367025Y17666394D01*
X-38409486Y17729942D01*
X-38507058Y17827514D01*
X-38564495Y17865892D01*
X-38621792Y17904177D01*
X-38749268Y17956979D01*
X-38749278Y17956982D01*
X-38839906Y17975009D01*
X-38884607Y17983900D01*
X-39822593Y17983900D01*
X-39860958Y17976269D01*
X-39957923Y17956982D01*
X-39957933Y17956979D01*
X-40085409Y17904177D01*
X-40200139Y17827517D01*
X-40297717Y17729939D01*
X-40374377Y17615209D01*
X-40427179Y17487733D01*
X-40427182Y17487723D01*
X-40444730Y17399501D01*
X-40454100Y17352393D01*
X-40644500Y17352393D01*
X-40644500Y18633495D01*
X-21252500Y18633495D01*
X-21252500Y18501706D01*
X-21218394Y18374419D01*
X-21218393Y18374416D01*
X-21218392Y18374414D01*
X-21152500Y18260286D01*
X-21059314Y18167100D01*
X-20945186Y18101208D01*
X-20817895Y18067101D01*
X-20817894Y18067100D01*
X-20817892Y18067100D01*
X-20686106Y18067100D01*
X-20686106Y18067101D01*
X-20558814Y18101208D01*
X-20444686Y18167100D01*
X-20351500Y18260286D01*
X-20285608Y18374414D01*
X-20251501Y18501706D01*
X-20251500Y18501706D01*
X-20251500Y18633494D01*
X-20251501Y18633495D01*
X-20285607Y18760782D01*
X-20285608Y18760786D01*
X-20351500Y18874914D01*
X-20444686Y18968100D01*
X-20507327Y19004266D01*
X-20558810Y19033990D01*
X-20558819Y19033994D01*
X-20580842Y19039895D01*
X-15893100Y19039895D01*
X-15893100Y18908106D01*
X-15858994Y18780819D01*
X-15858990Y18780810D01*
X-15834746Y18738819D01*
X-15793100Y18666686D01*
X-15699914Y18573500D01*
X-15585786Y18507608D01*
X-15458495Y18473501D01*
X-15458494Y18473500D01*
X-15458492Y18473500D01*
X-15326706Y18473500D01*
X-15326706Y18473501D01*
X-15199414Y18507608D01*
X-15085286Y18573500D01*
X-14992100Y18666686D01*
X-14926208Y18780814D01*
X-14892101Y18908106D01*
X-14892100Y18908106D01*
X-14892100Y18997895D01*
X-13519300Y18997895D01*
X-13519300Y18866106D01*
X-13485194Y18738819D01*
X-13485193Y18738816D01*
X-13485192Y18738814D01*
X-13419300Y18624686D01*
X-13326114Y18531500D01*
X-13211986Y18465608D01*
X-13084695Y18431501D01*
X-13084694Y18431500D01*
X-13084692Y18431500D01*
X-12952906Y18431500D01*
X-12952906Y18431501D01*
X-12825614Y18465608D01*
X-12711486Y18531500D01*
X-12618300Y18624686D01*
X-12552408Y18738814D01*
X-12518301Y18866106D01*
X-12518300Y18866106D01*
X-12518300Y18997894D01*
X-12518301Y18997895D01*
X-12522645Y19014106D01*
X-12536521Y19065895D01*
X-9600500Y19065895D01*
X-9600500Y18934106D01*
X-9566394Y18806819D01*
X-9566390Y18806810D01*
X-9527135Y18738819D01*
X-9500500Y18692686D01*
X-9407314Y18599500D01*
X-9293186Y18533608D01*
X-9165895Y18499501D01*
X-9165894Y18499500D01*
X-9165892Y18499500D01*
X-9034106Y18499500D01*
X-9034106Y18499501D01*
X-8906814Y18533608D01*
X-8792686Y18599500D01*
X-8699500Y18692686D01*
X-8633608Y18806814D01*
X-8599501Y18934106D01*
X-8599500Y18934106D01*
X-8599500Y19065894D01*
X-8599501Y19065895D01*
X-8617103Y19131589D01*
X-8620936Y19145895D01*
X15549500Y19145895D01*
X15549500Y19014106D01*
X15583606Y18886819D01*
X15583610Y18886810D01*
X15595564Y18866106D01*
X15649500Y18772686D01*
X15742686Y18679500D01*
X15856814Y18613608D01*
X15984105Y18579501D01*
X15984106Y18579500D01*
X15984108Y18579500D01*
X16115894Y18579500D01*
X16115894Y18579501D01*
X16243186Y18613608D01*
X16357314Y18679500D01*
X16450500Y18772686D01*
X16516392Y18886814D01*
X16550499Y19014106D01*
X16550500Y19014106D01*
X16550500Y19145894D01*
X16550499Y19145895D01*
X16516393Y19273182D01*
X16516392Y19273186D01*
X16450500Y19387314D01*
X16357314Y19480500D01*
X16322673Y19500500D01*
X16243190Y19546390D01*
X16243181Y19546394D01*
X16115894Y19580500D01*
X16115892Y19580500D01*
X15984108Y19580500D01*
X15984106Y19580500D01*
X15856818Y19546394D01*
X15856809Y19546390D01*
X15742685Y19480500D01*
X15649500Y19387315D01*
X15583610Y19273191D01*
X15583606Y19273182D01*
X15549500Y19145895D01*
X-8620936Y19145895D01*
X-8633607Y19193182D01*
X-8633608Y19193186D01*
X-8699500Y19307314D01*
X-8792686Y19400500D01*
X-8861777Y19440390D01*
X-8906810Y19466390D01*
X-8906819Y19466394D01*
X-9034106Y19500500D01*
X-9034108Y19500500D01*
X-9165892Y19500500D01*
X-9165894Y19500500D01*
X-9293182Y19466394D01*
X-9293191Y19466390D01*
X-9407315Y19400500D01*
X-9500500Y19307315D01*
X-9566390Y19193191D01*
X-9566394Y19193182D01*
X-9600500Y19065895D01*
X-12536521Y19065895D01*
X-12552408Y19125186D01*
X-12618300Y19239314D01*
X-12711486Y19332500D01*
X-12806428Y19387315D01*
X-12825610Y19398390D01*
X-12825619Y19398394D01*
X-12952906Y19432500D01*
X-12952908Y19432500D01*
X-13084692Y19432500D01*
X-13084694Y19432500D01*
X-13211982Y19398394D01*
X-13211991Y19398390D01*
X-13326115Y19332500D01*
X-13419300Y19239315D01*
X-13485190Y19125191D01*
X-13485194Y19125182D01*
X-13519300Y18997895D01*
X-14892100Y18997895D01*
X-14892100Y19039894D01*
X-14892101Y19039895D01*
X-14895235Y19051590D01*
X-14926208Y19167186D01*
X-14992100Y19281314D01*
X-15085286Y19374500D01*
X-15107482Y19387315D01*
X-15199410Y19440390D01*
X-15199419Y19440394D01*
X-15326706Y19474500D01*
X-15326708Y19474500D01*
X-15458492Y19474500D01*
X-15458494Y19474500D01*
X-15585782Y19440394D01*
X-15585791Y19440390D01*
X-15699915Y19374500D01*
X-15793100Y19281315D01*
X-15858990Y19167191D01*
X-15858994Y19167182D01*
X-15893100Y19039895D01*
X-20580842Y19039895D01*
X-20686106Y19068100D01*
X-20686108Y19068100D01*
X-20817892Y19068100D01*
X-20817894Y19068100D01*
X-20945182Y19033994D01*
X-20945191Y19033990D01*
X-21059315Y18968100D01*
X-21152500Y18874915D01*
X-21218390Y18760791D01*
X-21218394Y18760782D01*
X-21252500Y18633495D01*
X-40644500Y18633495D01*
X-40644500Y21029958D01*
X-32590500Y21029958D01*
X-32590500Y20801643D01*
X-32554785Y20576143D01*
X-32554782Y20576130D01*
X-32484234Y20359007D01*
X-32380580Y20155573D01*
X-32249283Y19974859D01*
X-32246379Y19970863D01*
X-32084937Y19809421D01*
X-31900228Y19675221D01*
X-31696799Y19571569D01*
X-31696797Y19571569D01*
X-31696794Y19571567D01*
X-31479671Y19501019D01*
X-31479665Y19501018D01*
X-31479660Y19501016D01*
X-31350126Y19480500D01*
X-31254158Y19465300D01*
X-31254157Y19465300D01*
X-31025842Y19465300D01*
X-30929874Y19480500D01*
X-30800340Y19501016D01*
X-30800333Y19501019D01*
X-30800330Y19501019D01*
X-30583207Y19571567D01*
X-30583207Y19571568D01*
X-30583201Y19571569D01*
X-30379772Y19675221D01*
X-30195063Y19809421D01*
X-30033621Y19970863D01*
X-29899421Y20155572D01*
X-29795769Y20359001D01*
X-29795767Y20359007D01*
X-29725219Y20576130D01*
X-29725219Y20576133D01*
X-29725216Y20576140D01*
X-29689500Y20801643D01*
X-29689500Y21029957D01*
X-29725216Y21255460D01*
X-29725218Y21255465D01*
X-29725219Y21255471D01*
X-29795767Y21472594D01*
X-29795769Y21472597D01*
X-29795769Y21472599D01*
X-29899421Y21676028D01*
X-29978992Y21785547D01*
X-20760500Y21785547D01*
X-20760500Y20046054D01*
X-20748867Y19987568D01*
X-20737701Y19970858D01*
X-20704552Y19921248D01*
X-20666274Y19895671D01*
X-20638233Y19876934D01*
X-20638232Y19876934D01*
X-20638231Y19876933D01*
X-20579748Y19865300D01*
X-20579746Y19865300D01*
X-18840254Y19865300D01*
X-18840252Y19865300D01*
X-18781769Y19876933D01*
X-18715448Y19921248D01*
X-18671133Y19987569D01*
X-18659500Y20046052D01*
X-18659500Y21019265D01*
X-18220500Y21019265D01*
X-18220500Y20812336D01*
X-18180132Y20609387D01*
X-18180130Y20609380D01*
X-18100941Y20418202D01*
X-18061385Y20359001D01*
X-17985977Y20246145D01*
X-17839655Y20099823D01*
X-17667598Y19984859D01*
X-17476420Y19905670D01*
X-17273465Y19865300D01*
X-17273464Y19865300D01*
X-17066536Y19865300D01*
X-17066535Y19865300D01*
X-16863580Y19905670D01*
X-16672402Y19984859D01*
X-16500345Y20099823D01*
X-16354023Y20246145D01*
X-16239059Y20418202D01*
X-16159870Y20609380D01*
X-16119500Y20812335D01*
X-16119500Y21019265D01*
X-15680500Y21019265D01*
X-15680500Y20812336D01*
X-15640132Y20609387D01*
X-15640130Y20609380D01*
X-15560941Y20418202D01*
X-15521385Y20359001D01*
X-15445977Y20246145D01*
X-15299655Y20099823D01*
X-15127598Y19984859D01*
X-14936420Y19905670D01*
X-14733465Y19865300D01*
X-14733464Y19865300D01*
X-14526536Y19865300D01*
X-14526535Y19865300D01*
X-14323580Y19905670D01*
X-14132402Y19984859D01*
X-13960345Y20099823D01*
X-13814023Y20246145D01*
X-13699059Y20418202D01*
X-13619870Y20609380D01*
X-13579500Y20812335D01*
X-13579500Y21009265D01*
X-13140500Y21009265D01*
X-13140500Y20802336D01*
X-13100132Y20599387D01*
X-13100130Y20599380D01*
X-13020941Y20408202D01*
X-12912660Y20246146D01*
X-12905977Y20236145D01*
X-12759655Y20089823D01*
X-12587598Y19974859D01*
X-12396420Y19895670D01*
X-12193465Y19855300D01*
X-12193464Y19855300D01*
X-11986536Y19855300D01*
X-11986535Y19855300D01*
X-11783580Y19895670D01*
X-11592402Y19974859D01*
X-11420345Y20089823D01*
X-11274023Y20236145D01*
X-11159059Y20408202D01*
X-11079870Y20599380D01*
X-11039500Y20802335D01*
X-11039500Y21009265D01*
X-11041489Y21019265D01*
X-10600500Y21019265D01*
X-10600500Y20812336D01*
X-10560132Y20609387D01*
X-10560130Y20609380D01*
X-10480941Y20418202D01*
X-10441385Y20359001D01*
X-10365977Y20246145D01*
X-10219655Y20099823D01*
X-10047598Y19984859D01*
X-9856420Y19905670D01*
X-9653465Y19865300D01*
X-9653464Y19865300D01*
X-9446536Y19865300D01*
X-9446535Y19865300D01*
X-9243580Y19905670D01*
X-9052402Y19984859D01*
X-8880345Y20099823D01*
X-8734023Y20246145D01*
X-8619059Y20418202D01*
X-8539870Y20609380D01*
X-8499500Y20812335D01*
X-8499500Y21019265D01*
X-8060500Y21019265D01*
X-8060500Y20812336D01*
X-8020132Y20609387D01*
X-8020130Y20609380D01*
X-7940941Y20418202D01*
X-7901385Y20359001D01*
X-7825977Y20246145D01*
X-7679655Y20099823D01*
X-7507598Y19984859D01*
X-7316420Y19905670D01*
X-7113465Y19865300D01*
X-7113464Y19865300D01*
X-6906536Y19865300D01*
X-6906535Y19865300D01*
X-6703580Y19905670D01*
X-6512402Y19984859D01*
X-6340345Y20099823D01*
X-6194023Y20246145D01*
X-6079059Y20418202D01*
X-5999870Y20609380D01*
X-5959500Y20812335D01*
X-5959500Y21019265D01*
X-5520500Y21019265D01*
X-5520500Y20812336D01*
X-5480132Y20609387D01*
X-5480130Y20609380D01*
X-5400941Y20418202D01*
X-5361385Y20359001D01*
X-5285977Y20246145D01*
X-5139655Y20099823D01*
X-4967598Y19984859D01*
X-4776420Y19905670D01*
X-4573465Y19865300D01*
X-4573464Y19865300D01*
X-4366536Y19865300D01*
X-4366535Y19865300D01*
X-4163580Y19905670D01*
X-3972402Y19984859D01*
X-3800345Y20099823D01*
X-3654023Y20246145D01*
X-3539059Y20418202D01*
X-3459870Y20609380D01*
X-3419500Y20812335D01*
X-3419500Y21019265D01*
X-3421627Y21029958D01*
X5509500Y21029958D01*
X5509500Y20801643D01*
X5545215Y20576143D01*
X5545218Y20576130D01*
X5615766Y20359007D01*
X5719420Y20155573D01*
X5850717Y19974859D01*
X5853621Y19970863D01*
X6015063Y19809421D01*
X6199772Y19675221D01*
X6403201Y19571569D01*
X6403203Y19571569D01*
X6403206Y19571567D01*
X6620329Y19501019D01*
X6620335Y19501018D01*
X6620340Y19501016D01*
X6749874Y19480500D01*
X6845842Y19465300D01*
X6845843Y19465300D01*
X7074158Y19465300D01*
X7170126Y19480500D01*
X7299660Y19501016D01*
X7299667Y19501019D01*
X7299670Y19501019D01*
X7516793Y19571567D01*
X7516793Y19571568D01*
X7516799Y19571569D01*
X7720228Y19675221D01*
X7904937Y19809421D01*
X8066379Y19970863D01*
X8200579Y20155572D01*
X8304231Y20359001D01*
X8304233Y20359007D01*
X8374781Y20576130D01*
X8374781Y20576133D01*
X8374784Y20576140D01*
X8410500Y20801643D01*
X8410500Y20990295D01*
X14046900Y20990295D01*
X14046900Y20858506D01*
X14081006Y20731219D01*
X14081007Y20731216D01*
X14081008Y20731214D01*
X14146900Y20617086D01*
X14240086Y20523900D01*
X14354214Y20458008D01*
X14481505Y20423901D01*
X14481506Y20423900D01*
X14481508Y20423900D01*
X14613294Y20423900D01*
X14613294Y20423901D01*
X14740586Y20458008D01*
X14854714Y20523900D01*
X14947900Y20617086D01*
X15013792Y20731214D01*
X15047899Y20858506D01*
X15047900Y20858506D01*
X15047900Y20990294D01*
X15047899Y20990295D01*
X15042816Y21009264D01*
X15013792Y21117586D01*
X14947900Y21231714D01*
X14854714Y21324900D01*
X14740590Y21390790D01*
X14740581Y21390794D01*
X14613294Y21424900D01*
X14613292Y21424900D01*
X14481508Y21424900D01*
X14481506Y21424900D01*
X14354218Y21390794D01*
X14354209Y21390790D01*
X14240085Y21324900D01*
X14146900Y21231715D01*
X14081010Y21117591D01*
X14081006Y21117582D01*
X14046900Y20990295D01*
X8410500Y20990295D01*
X8410500Y21029957D01*
X8374784Y21255460D01*
X8374782Y21255465D01*
X8374781Y21255471D01*
X8304233Y21472594D01*
X8304231Y21472597D01*
X8304231Y21472599D01*
X8200579Y21676028D01*
X8066379Y21860737D01*
X7904937Y22022179D01*
X7904934Y22022182D01*
X7904932Y22022183D01*
X7720227Y22156380D01*
X7516793Y22260034D01*
X7299670Y22330582D01*
X7299657Y22330585D01*
X7074158Y22366300D01*
X7074157Y22366300D01*
X6845843Y22366300D01*
X6845842Y22366300D01*
X6620342Y22330585D01*
X6620329Y22330582D01*
X6403206Y22260034D01*
X6199772Y22156380D01*
X6015067Y22022183D01*
X5853617Y21860733D01*
X5719420Y21676028D01*
X5615766Y21472594D01*
X5545218Y21255471D01*
X5545215Y21255458D01*
X5509500Y21029958D01*
X-3421627Y21029958D01*
X-3459870Y21222220D01*
X-3539059Y21413398D01*
X-3654023Y21585455D01*
X-3800345Y21731777D01*
X-3880820Y21785548D01*
X-3972402Y21846741D01*
X-4163580Y21925930D01*
X-4163587Y21925932D01*
X-4316484Y21956345D01*
X-4366535Y21966300D01*
X-4573465Y21966300D01*
X-4613615Y21958314D01*
X-4776414Y21925932D01*
X-4776421Y21925930D01*
X-4967599Y21846741D01*
X-5139655Y21731778D01*
X-5139656Y21731776D01*
X-5285976Y21585456D01*
X-5285978Y21585455D01*
X-5400941Y21413399D01*
X-5480130Y21222221D01*
X-5480132Y21222214D01*
X-5520500Y21019265D01*
X-5959500Y21019265D01*
X-5999870Y21222220D01*
X-6079059Y21413398D01*
X-6194023Y21585455D01*
X-6340345Y21731777D01*
X-6420820Y21785548D01*
X-6512402Y21846741D01*
X-6703580Y21925930D01*
X-6703587Y21925932D01*
X-6856484Y21956345D01*
X-6906535Y21966300D01*
X-7113465Y21966300D01*
X-7153615Y21958314D01*
X-7316414Y21925932D01*
X-7316421Y21925930D01*
X-7507599Y21846741D01*
X-7679655Y21731778D01*
X-7679656Y21731776D01*
X-7825976Y21585456D01*
X-7825978Y21585455D01*
X-7940941Y21413399D01*
X-8020130Y21222221D01*
X-8020132Y21222214D01*
X-8060500Y21019265D01*
X-8499500Y21019265D01*
X-8539870Y21222220D01*
X-8619059Y21413398D01*
X-8734023Y21585455D01*
X-8880345Y21731777D01*
X-8960820Y21785548D01*
X-9052402Y21846741D01*
X-9243580Y21925930D01*
X-9243587Y21925932D01*
X-9396484Y21956345D01*
X-9446535Y21966300D01*
X-9653465Y21966300D01*
X-9693615Y21958314D01*
X-9856414Y21925932D01*
X-9856421Y21925930D01*
X-10047599Y21846741D01*
X-10219655Y21731778D01*
X-10219656Y21731776D01*
X-10365976Y21585456D01*
X-10365978Y21585455D01*
X-10480941Y21413399D01*
X-10560130Y21222221D01*
X-10560132Y21222214D01*
X-10600500Y21019265D01*
X-11041489Y21019265D01*
X-11079870Y21212220D01*
X-11159059Y21403398D01*
X-11274023Y21575455D01*
X-11420345Y21721777D01*
X-11435310Y21731776D01*
X-11592402Y21836741D01*
X-11783580Y21915930D01*
X-11783587Y21915932D01*
X-11936484Y21946345D01*
X-11986535Y21956300D01*
X-12193465Y21956300D01*
X-12233615Y21948314D01*
X-12396414Y21915932D01*
X-12396421Y21915930D01*
X-12587599Y21836741D01*
X-12759655Y21721778D01*
X-12759656Y21721776D01*
X-12905976Y21575456D01*
X-12905978Y21575455D01*
X-13020941Y21403399D01*
X-13100130Y21212221D01*
X-13100132Y21212214D01*
X-13140500Y21009265D01*
X-13579500Y21009265D01*
X-13579500Y21019265D01*
X-13619870Y21222220D01*
X-13699059Y21413398D01*
X-13814023Y21585455D01*
X-13960345Y21731777D01*
X-14040820Y21785548D01*
X-14132402Y21846741D01*
X-14323580Y21925930D01*
X-14323587Y21925932D01*
X-14476484Y21956345D01*
X-14526535Y21966300D01*
X-14733465Y21966300D01*
X-14773615Y21958314D01*
X-14936414Y21925932D01*
X-14936421Y21925930D01*
X-15127599Y21846741D01*
X-15299655Y21731778D01*
X-15299656Y21731776D01*
X-15445976Y21585456D01*
X-15445978Y21585455D01*
X-15560941Y21413399D01*
X-15640130Y21222221D01*
X-15640132Y21222214D01*
X-15680500Y21019265D01*
X-16119500Y21019265D01*
X-16159870Y21222220D01*
X-16239059Y21413398D01*
X-16354023Y21585455D01*
X-16500345Y21731777D01*
X-16580820Y21785548D01*
X-16672402Y21846741D01*
X-16863580Y21925930D01*
X-16863587Y21925932D01*
X-17016484Y21956345D01*
X-17066535Y21966300D01*
X-17273465Y21966300D01*
X-17313615Y21958314D01*
X-17476414Y21925932D01*
X-17476421Y21925930D01*
X-17667599Y21846741D01*
X-17839655Y21731778D01*
X-17839656Y21731776D01*
X-17985976Y21585456D01*
X-17985978Y21585455D01*
X-18100941Y21413399D01*
X-18180130Y21222221D01*
X-18180132Y21222214D01*
X-18220500Y21019265D01*
X-18659500Y21019265D01*
X-18659500Y21785548D01*
X-18671133Y21844031D01*
X-18672944Y21846741D01*
X-18685973Y21866240D01*
X-18715448Y21910352D01*
X-18738765Y21925932D01*
X-18781768Y21954667D01*
X-18781767Y21954667D01*
X-18811011Y21960484D01*
X-18840252Y21966300D01*
X-20579748Y21966300D01*
X-20608990Y21960484D01*
X-20638233Y21954667D01*
X-20704551Y21910353D01*
X-20704553Y21910351D01*
X-20748867Y21844033D01*
X-20760500Y21785547D01*
X-29978992Y21785547D01*
X-30033621Y21860737D01*
X-30195063Y22022179D01*
X-30195066Y22022182D01*
X-30195068Y22022183D01*
X-30379773Y22156380D01*
X-30583207Y22260034D01*
X-30800330Y22330582D01*
X-30800343Y22330585D01*
X-31025842Y22366300D01*
X-31025843Y22366300D01*
X-31254157Y22366300D01*
X-31254158Y22366300D01*
X-31479658Y22330585D01*
X-31479671Y22330582D01*
X-31696794Y22260034D01*
X-31900228Y22156380D01*
X-32084933Y22022183D01*
X-32246383Y21860733D01*
X-32380580Y21676028D01*
X-32484234Y21472594D01*
X-32554782Y21255471D01*
X-32554785Y21255458D01*
X-32590500Y21029958D01*
X-40644500Y21029958D01*
X-40644500Y23103795D01*
X-2848400Y23103795D01*
X-2848400Y22972006D01*
X-2814294Y22844719D01*
X-2814293Y22844716D01*
X-2814292Y22844714D01*
X-2748400Y22730586D01*
X-2655214Y22637400D01*
X-2541086Y22571508D01*
X-2413795Y22537401D01*
X-2413794Y22537400D01*
X-2413792Y22537400D01*
X-2282006Y22537400D01*
X-2282006Y22537401D01*
X-2154714Y22571508D01*
X-2040586Y22637400D01*
X-1947400Y22730586D01*
X-1881508Y22844714D01*
X-1847401Y22972006D01*
X-1847400Y22972006D01*
X-1847400Y23103794D01*
X-1847401Y23103795D01*
X-1860207Y23151589D01*
X-1860208Y23151590D01*
X-1864041Y23165895D01*
X1991700Y23165895D01*
X1991700Y23034106D01*
X2025806Y22906819D01*
X2025810Y22906810D01*
X2061664Y22844710D01*
X2091700Y22792686D01*
X2184886Y22699500D01*
X2299014Y22633608D01*
X2426305Y22599501D01*
X2426306Y22599500D01*
X2426308Y22599500D01*
X2558094Y22599500D01*
X2558094Y22599501D01*
X2685386Y22633608D01*
X2799514Y22699500D01*
X2892700Y22792686D01*
X2958592Y22906814D01*
X2992699Y23034106D01*
X2992700Y23034106D01*
X2992700Y23165894D01*
X2992699Y23165895D01*
X2975232Y23231082D01*
X2958592Y23293186D01*
X2892700Y23407314D01*
X2799514Y23500500D01*
X2792943Y23504294D01*
X2685390Y23566390D01*
X2685381Y23566394D01*
X2558094Y23600500D01*
X2558092Y23600500D01*
X2426308Y23600500D01*
X2426306Y23600500D01*
X2299018Y23566394D01*
X2299009Y23566390D01*
X2184885Y23500500D01*
X2091700Y23407315D01*
X2025810Y23293191D01*
X2025806Y23293182D01*
X1991700Y23165895D01*
X-1864041Y23165895D01*
X-1881508Y23231086D01*
X-1947400Y23345214D01*
X-2040586Y23438400D01*
X-2148146Y23500500D01*
X-2154710Y23504290D01*
X-2154719Y23504294D01*
X-2282006Y23538400D01*
X-2282008Y23538400D01*
X-2413792Y23538400D01*
X-2413794Y23538400D01*
X-2541082Y23504294D01*
X-2541091Y23504290D01*
X-2655215Y23438400D01*
X-2748400Y23345215D01*
X-2814290Y23231091D01*
X-2814294Y23231082D01*
X-2848400Y23103795D01*
X-40644500Y23103795D01*
X-40644500Y26465964D01*
X-38100500Y26465964D01*
X-38100500Y26214037D01*
X-38061091Y25965218D01*
X-38061088Y25965205D01*
X-37983244Y25725627D01*
X-37868871Y25501155D01*
X-37749897Y25337402D01*
X-37720793Y25297344D01*
X-37542656Y25119207D01*
X-37542653Y25119205D01*
X-37542652Y25119204D01*
X-37338846Y24971130D01*
X-37243256Y24922425D01*
X-37114379Y24856759D01*
X-37114377Y24856759D01*
X-37114374Y24856757D01*
X-36874796Y24778913D01*
X-36874790Y24778912D01*
X-36874785Y24778910D01*
X-36750374Y24759205D01*
X-36625964Y24739500D01*
X-36625962Y24739500D01*
X-36374036Y24739500D01*
X-36274509Y24755264D01*
X-36125215Y24778910D01*
X-36125208Y24778913D01*
X-36125205Y24778913D01*
X-35885627Y24856757D01*
X-35885627Y24856758D01*
X-35885621Y24856759D01*
X-35661155Y24971130D01*
X-35457344Y25119207D01*
X-35279207Y25297344D01*
X-35131130Y25501155D01*
X-35016759Y25725621D01*
X-34993859Y25796100D01*
X-34947601Y25938465D01*
X-32260500Y25938465D01*
X-32260500Y25731535D01*
X-32257289Y25715393D01*
X-32220132Y25528587D01*
X-32220130Y25528580D01*
X-32140941Y25337402D01*
X-32034100Y25177501D01*
X-32025977Y25165345D01*
X-31879655Y25019023D01*
X-31707598Y24904059D01*
X-31516420Y24824870D01*
X-31313465Y24784500D01*
X-31313464Y24784500D01*
X-31106536Y24784500D01*
X-31106535Y24784500D01*
X-30903580Y24824870D01*
X-30712402Y24904059D01*
X-30540345Y25019023D01*
X-30394023Y25165345D01*
X-30279059Y25337402D01*
X-30199870Y25528580D01*
X-30159500Y25731535D01*
X-30159500Y25938465D01*
X-29720500Y25938465D01*
X-29720500Y25731535D01*
X-29717289Y25715393D01*
X-29680132Y25528587D01*
X-29680130Y25528580D01*
X-29600941Y25337402D01*
X-29494100Y25177501D01*
X-29485977Y25165345D01*
X-29339655Y25019023D01*
X-29167598Y24904059D01*
X-28976420Y24824870D01*
X-28773465Y24784500D01*
X-28773464Y24784500D01*
X-28566536Y24784500D01*
X-28566535Y24784500D01*
X-28363580Y24824870D01*
X-28172402Y24904059D01*
X-28000345Y25019023D01*
X-27854023Y25165345D01*
X-27739059Y25337402D01*
X-27659870Y25528580D01*
X-27619500Y25731535D01*
X-27619500Y25938465D01*
X-27180500Y25938465D01*
X-27180500Y25731535D01*
X-27177289Y25715393D01*
X-27140132Y25528587D01*
X-27140130Y25528580D01*
X-27060941Y25337402D01*
X-26954100Y25177501D01*
X-26945977Y25165345D01*
X-26799655Y25019023D01*
X-26627598Y24904059D01*
X-26436420Y24824870D01*
X-26233465Y24784500D01*
X-26233464Y24784500D01*
X-26026536Y24784500D01*
X-26026535Y24784500D01*
X-25823580Y24824870D01*
X-25632402Y24904059D01*
X-25460345Y25019023D01*
X-25314023Y25165345D01*
X-25199059Y25337402D01*
X-25119870Y25528580D01*
X-25079500Y25731535D01*
X-25079500Y25925509D01*
X-24740000Y25925509D01*
X-24740000Y25744492D01*
X-24711684Y25565711D01*
X-24711681Y25565698D01*
X-24655749Y25393557D01*
X-24573567Y25232268D01*
X-24573567Y25232267D01*
X-24502577Y25134558D01*
X-24033672Y25603463D01*
X-23990099Y25527993D01*
X-23897007Y25434901D01*
X-23821539Y25391330D01*
X-24290444Y24922425D01*
X-24192734Y24851434D01*
X-24031444Y24769252D01*
X-24031445Y24769252D01*
X-23859303Y24713320D01*
X-23859290Y24713317D01*
X-23680509Y24685000D01*
X-23499491Y24685000D01*
X-23320711Y24713317D01*
X-23320698Y24713320D01*
X-23148557Y24769252D01*
X-22987271Y24851432D01*
X-22889558Y24922425D01*
X-23358462Y25391330D01*
X-23282993Y25434901D01*
X-23189901Y25527993D01*
X-23146329Y25603462D01*
X-22677425Y25134558D01*
X-22606432Y25232271D01*
X-22524252Y25393557D01*
X-22468320Y25565698D01*
X-22468317Y25565711D01*
X-22440000Y25744492D01*
X-22440000Y25925509D01*
X-22200000Y25925509D01*
X-22200000Y25744492D01*
X-22171684Y25565711D01*
X-22171681Y25565698D01*
X-22115749Y25393557D01*
X-22033567Y25232268D01*
X-22033567Y25232267D01*
X-21962577Y25134558D01*
X-21493672Y25603463D01*
X-21450099Y25527993D01*
X-21357007Y25434901D01*
X-21281539Y25391330D01*
X-21750444Y24922425D01*
X-21652734Y24851434D01*
X-21491444Y24769252D01*
X-21491445Y24769252D01*
X-21319303Y24713320D01*
X-21319290Y24713317D01*
X-21140509Y24685000D01*
X-20959491Y24685000D01*
X-20780711Y24713317D01*
X-20780698Y24713320D01*
X-20608557Y24769252D01*
X-20447271Y24851432D01*
X-20349558Y24922425D01*
X-20818462Y25391330D01*
X-20742993Y25434901D01*
X-20649901Y25527993D01*
X-20606329Y25603462D01*
X-20137425Y25134558D01*
X-20066432Y25232271D01*
X-19984252Y25393557D01*
X-19928320Y25565698D01*
X-19928317Y25565711D01*
X-19900000Y25744492D01*
X-19900000Y25925509D01*
X-19660000Y25925509D01*
X-19660000Y25744492D01*
X-19631684Y25565711D01*
X-19631681Y25565698D01*
X-19575749Y25393557D01*
X-19493567Y25232268D01*
X-19493567Y25232267D01*
X-19422577Y25134558D01*
X-18953672Y25603463D01*
X-18910099Y25527993D01*
X-18817007Y25434901D01*
X-18741539Y25391330D01*
X-19210444Y24922425D01*
X-19112734Y24851434D01*
X-18951444Y24769252D01*
X-18951445Y24769252D01*
X-18779303Y24713320D01*
X-18779290Y24713317D01*
X-18600509Y24685000D01*
X-18419491Y24685000D01*
X-18240711Y24713317D01*
X-18240698Y24713320D01*
X-18068557Y24769252D01*
X-17907271Y24851432D01*
X-17809558Y24922425D01*
X-18278462Y25391330D01*
X-18202993Y25434901D01*
X-18109901Y25527993D01*
X-18066329Y25603462D01*
X-17597425Y25134558D01*
X-17526432Y25232271D01*
X-17444252Y25393557D01*
X-17388320Y25565698D01*
X-17388317Y25565711D01*
X-17375933Y25643895D01*
X-7739700Y25643895D01*
X-7739700Y25512106D01*
X-7705594Y25384819D01*
X-7705593Y25384816D01*
X-7705592Y25384814D01*
X-7639700Y25270686D01*
X-7546514Y25177500D01*
X-7432386Y25111608D01*
X-7305095Y25077501D01*
X-7305094Y25077500D01*
X-7305092Y25077500D01*
X-7173306Y25077500D01*
X-7173306Y25077501D01*
X-7046014Y25111608D01*
X-6931886Y25177500D01*
X-6838700Y25270686D01*
X-6772808Y25384814D01*
X-6738701Y25512106D01*
X-6738700Y25512106D01*
X-6738700Y25643894D01*
X-6738701Y25643895D01*
X-6753700Y25699875D01*
X-6757858Y25715392D01*
X-4928300Y25715392D01*
X-4928300Y24477409D01*
X-4901382Y24342078D01*
X-4901379Y24342068D01*
X-4848577Y24214592D01*
X-4848576Y24214590D01*
X-4848575Y24214589D01*
X-4771914Y24099858D01*
X-4674342Y24002286D01*
X-4559611Y23925625D01*
X-4432128Y23872820D01*
X-4296793Y23845900D01*
X-4296791Y23845900D01*
X-4158809Y23845900D01*
X-4158807Y23845900D01*
X-4023472Y23872820D01*
X-3895989Y23925625D01*
X-3781258Y24002286D01*
X-3683686Y24099858D01*
X-3607025Y24214589D01*
X-3554220Y24342072D01*
X-3527300Y24477407D01*
X-3527300Y25692169D01*
X-3373300Y25692169D01*
X-3373300Y25540632D01*
X-3334083Y25394270D01*
X-3334079Y25394261D01*
X-3258317Y25263038D01*
X-3258315Y25263035D01*
X-3151165Y25155885D01*
X-3019935Y25080119D01*
X-2873569Y25040901D01*
X-2873568Y25040900D01*
X-2873566Y25040900D01*
X-2722032Y25040900D01*
X-2722032Y25040901D01*
X-2575665Y25080119D01*
X-2444435Y25155885D01*
X-2337285Y25263035D01*
X-2261519Y25394265D01*
X-2222301Y25540632D01*
X-2222300Y25540632D01*
X-2222300Y25692168D01*
X-2222301Y25692169D01*
X2406700Y25692169D01*
X2406700Y25540632D01*
X2445917Y25394270D01*
X2445921Y25394261D01*
X2521683Y25263038D01*
X2521685Y25263035D01*
X2628835Y25155885D01*
X2760065Y25080119D01*
X2906431Y25040901D01*
X2906432Y25040900D01*
X2906434Y25040900D01*
X3057968Y25040900D01*
X3057968Y25040901D01*
X3204335Y25080119D01*
X3335565Y25155885D01*
X3442715Y25263035D01*
X3518481Y25394265D01*
X3557699Y25540632D01*
X3557700Y25540632D01*
X3557700Y25692168D01*
X3557699Y25692169D01*
X3555635Y25699875D01*
X3551477Y25715392D01*
X3711700Y25715392D01*
X3711700Y24477409D01*
X3738618Y24342078D01*
X3738621Y24342068D01*
X3791423Y24214592D01*
X3791424Y24214590D01*
X3791425Y24214589D01*
X3868086Y24099858D01*
X3965658Y24002286D01*
X4080389Y23925625D01*
X4207872Y23872820D01*
X4343207Y23845900D01*
X4343209Y23845900D01*
X4481191Y23845900D01*
X4481193Y23845900D01*
X4616528Y23872820D01*
X4744011Y23925625D01*
X4858742Y24002286D01*
X4956314Y24099858D01*
X5032975Y24214589D01*
X5085780Y24342072D01*
X5112700Y24477407D01*
X5112700Y25715393D01*
X5085780Y25850728D01*
X5038461Y25964967D01*
X5032976Y25978209D01*
X4999711Y26027993D01*
X4956314Y26092942D01*
X4858742Y26190514D01*
X4823537Y26214037D01*
X4744008Y26267177D01*
X4616532Y26319979D01*
X4616522Y26319982D01*
X4525894Y26338009D01*
X4481193Y26346900D01*
X4343207Y26346900D01*
X4304842Y26339269D01*
X4207877Y26319982D01*
X4207867Y26319979D01*
X4080391Y26267177D01*
X3965661Y26190517D01*
X3868083Y26092939D01*
X3791423Y25978209D01*
X3738621Y25850733D01*
X3738618Y25850723D01*
X3722799Y25771191D01*
X3713735Y25725621D01*
X3711700Y25715392D01*
X3551477Y25715392D01*
X3518482Y25838531D01*
X3518481Y25838535D01*
X3442715Y25969765D01*
X3335565Y26076915D01*
X3289659Y26103419D01*
X3204339Y26152679D01*
X3204330Y26152683D01*
X3057968Y26191900D01*
X3057966Y26191900D01*
X2906434Y26191900D01*
X2906432Y26191900D01*
X2760069Y26152683D01*
X2760060Y26152679D01*
X2628837Y26076917D01*
X2521683Y25969763D01*
X2445921Y25838540D01*
X2445917Y25838531D01*
X2406700Y25692169D01*
X-2222301Y25692169D01*
X-2243475Y25771191D01*
X-2261519Y25838535D01*
X-2337285Y25969765D01*
X-2444435Y26076915D01*
X-2490341Y26103419D01*
X-2575661Y26152679D01*
X-2575670Y26152683D01*
X-2722032Y26191900D01*
X-2722034Y26191900D01*
X-2873566Y26191900D01*
X-2873568Y26191900D01*
X-3019931Y26152683D01*
X-3019940Y26152679D01*
X-3151163Y26076917D01*
X-3258317Y25969763D01*
X-3334079Y25838540D01*
X-3334083Y25838531D01*
X-3373300Y25692169D01*
X-3527300Y25692169D01*
X-3527300Y25715393D01*
X-3554220Y25850728D01*
X-3601539Y25964967D01*
X-3607024Y25978209D01*
X-3640289Y26027993D01*
X-3683686Y26092942D01*
X-3781258Y26190514D01*
X-3816463Y26214037D01*
X-3895992Y26267177D01*
X-4023468Y26319979D01*
X-4023478Y26319982D01*
X-4114106Y26338009D01*
X-4158807Y26346900D01*
X-4296793Y26346900D01*
X-4335158Y26339269D01*
X-4432123Y26319982D01*
X-4432133Y26319979D01*
X-4559609Y26267177D01*
X-4674339Y26190517D01*
X-4771917Y26092939D01*
X-4848577Y25978209D01*
X-4901379Y25850733D01*
X-4901382Y25850723D01*
X-4917201Y25771191D01*
X-4926265Y25725621D01*
X-4928300Y25715392D01*
X-6757858Y25715392D01*
X-6772807Y25771182D01*
X-6772808Y25771186D01*
X-6838700Y25885314D01*
X-6931886Y25978500D01*
X-7017610Y26027993D01*
X-7046010Y26044390D01*
X-7046019Y26044394D01*
X-7173306Y26078500D01*
X-7173308Y26078500D01*
X-7305092Y26078500D01*
X-7305094Y26078500D01*
X-7432382Y26044394D01*
X-7432391Y26044390D01*
X-7546515Y25978500D01*
X-7639700Y25885315D01*
X-7705590Y25771191D01*
X-7705594Y25771182D01*
X-7739700Y25643895D01*
X-17375933Y25643895D01*
X-17373332Y25660318D01*
X-17360000Y25744492D01*
X-17360000Y25925509D01*
X-17388317Y26104290D01*
X-17388320Y26104303D01*
X-17444252Y26276444D01*
X-17473449Y26333746D01*
X-17473450Y26333748D01*
X-17488097Y26362495D01*
X-13610300Y26362495D01*
X-13610300Y26230706D01*
X-13576194Y26103419D01*
X-13576190Y26103410D01*
X-13532648Y26027993D01*
X-13510300Y25989286D01*
X-13417114Y25896100D01*
X-13302986Y25830208D01*
X-13175695Y25796101D01*
X-13175694Y25796100D01*
X-13175692Y25796100D01*
X-13043906Y25796100D01*
X-13043906Y25796101D01*
X-12916614Y25830208D01*
X-12802486Y25896100D01*
X-12709300Y25989286D01*
X-12643408Y26103414D01*
X-12609301Y26230706D01*
X-12609300Y26230706D01*
X-12609300Y26362494D01*
X-12609301Y26362495D01*
X-12632671Y26449716D01*
X-12637025Y26465964D01*
X12699500Y26465964D01*
X12699500Y26214037D01*
X12738909Y25965218D01*
X12738912Y25965205D01*
X12816756Y25725627D01*
X12931129Y25501155D01*
X13050103Y25337402D01*
X13079207Y25297344D01*
X13257344Y25119207D01*
X13257347Y25119205D01*
X13257348Y25119204D01*
X13461154Y24971130D01*
X13556744Y24922425D01*
X13685621Y24856759D01*
X13685623Y24856759D01*
X13685626Y24856757D01*
X13925204Y24778913D01*
X13925210Y24778912D01*
X13925215Y24778910D01*
X14049626Y24759205D01*
X14174036Y24739500D01*
X14174038Y24739500D01*
X14425964Y24739500D01*
X14525491Y24755264D01*
X14674785Y24778910D01*
X14674792Y24778913D01*
X14674795Y24778913D01*
X14914373Y24856757D01*
X14914373Y24856758D01*
X14914379Y24856759D01*
X15138845Y24971130D01*
X15342656Y25119207D01*
X15520793Y25297344D01*
X15668870Y25501155D01*
X15783241Y25725621D01*
X15806141Y25796100D01*
X15861087Y25965205D01*
X15861088Y25965209D01*
X15861090Y25965215D01*
X15900500Y26214038D01*
X15900500Y26465962D01*
X15896727Y26489782D01*
X15861090Y26714783D01*
X15861087Y26714796D01*
X15783243Y26954374D01*
X15783241Y26954377D01*
X15783241Y26954379D01*
X15723995Y27070655D01*
X15668870Y27178846D01*
X15520796Y27382652D01*
X15520795Y27382653D01*
X15520793Y27382656D01*
X15342656Y27560793D01*
X15342653Y27560796D01*
X15342651Y27560797D01*
X15138845Y27708871D01*
X14914373Y27823244D01*
X14674795Y27901088D01*
X14674782Y27901091D01*
X14425964Y27940500D01*
X14425962Y27940500D01*
X14174038Y27940500D01*
X14174036Y27940500D01*
X13925217Y27901091D01*
X13925204Y27901088D01*
X13685626Y27823244D01*
X13461154Y27708871D01*
X13257348Y27560797D01*
X13079203Y27382652D01*
X12931129Y27178846D01*
X12816756Y26954374D01*
X12738912Y26714796D01*
X12738909Y26714783D01*
X12699500Y26465964D01*
X-12637025Y26465964D01*
X-12643407Y26489782D01*
X-12643408Y26489786D01*
X-12709300Y26603914D01*
X-12802486Y26697100D01*
X-12833136Y26714796D01*
X-12916610Y26762990D01*
X-12916619Y26762994D01*
X-13043906Y26797100D01*
X-13043908Y26797100D01*
X-13175692Y26797100D01*
X-13175694Y26797100D01*
X-13302982Y26762994D01*
X-13302991Y26762990D01*
X-13417115Y26697100D01*
X-13510300Y26603915D01*
X-13576190Y26489791D01*
X-13576194Y26489782D01*
X-13610300Y26362495D01*
X-17488097Y26362495D01*
X-17526431Y26437728D01*
X-17526434Y26437734D01*
X-17597425Y26535444D01*
X-18066330Y26066540D01*
X-18109901Y26142007D01*
X-18202993Y26235099D01*
X-18278463Y26278672D01*
X-17809558Y26747577D01*
X-17907267Y26818567D01*
X-18068557Y26900749D01*
X-18068556Y26900749D01*
X-18240698Y26956681D01*
X-18240711Y26956684D01*
X-18419491Y26985000D01*
X-18600509Y26985000D01*
X-18779290Y26956684D01*
X-18779303Y26956681D01*
X-18951444Y26900749D01*
X-19112729Y26818569D01*
X-19210444Y26747576D01*
X-18741539Y26278671D01*
X-18817007Y26235099D01*
X-18910099Y26142007D01*
X-18953671Y26066539D01*
X-19422576Y26535444D01*
X-19493569Y26437729D01*
X-19575749Y26276444D01*
X-19631681Y26104303D01*
X-19631684Y26104290D01*
X-19660000Y25925509D01*
X-19900000Y25925509D01*
X-19928317Y26104290D01*
X-19928320Y26104303D01*
X-19984252Y26276444D01*
X-20066434Y26437733D01*
X-20066434Y26437734D01*
X-20137425Y26535444D01*
X-20606330Y26066540D01*
X-20649901Y26142007D01*
X-20742993Y26235099D01*
X-20818463Y26278672D01*
X-20349558Y26747577D01*
X-20447267Y26818567D01*
X-20608557Y26900749D01*
X-20608556Y26900749D01*
X-20780698Y26956681D01*
X-20780711Y26956684D01*
X-20959491Y26985000D01*
X-21140509Y26985000D01*
X-21319290Y26956684D01*
X-21319303Y26956681D01*
X-21491444Y26900749D01*
X-21652729Y26818569D01*
X-21750444Y26747576D01*
X-21281539Y26278671D01*
X-21357007Y26235099D01*
X-21450099Y26142007D01*
X-21493671Y26066539D01*
X-21962576Y26535444D01*
X-22033569Y26437729D01*
X-22115749Y26276444D01*
X-22171681Y26104303D01*
X-22171684Y26104290D01*
X-22200000Y25925509D01*
X-22440000Y25925509D01*
X-22468317Y26104290D01*
X-22468320Y26104303D01*
X-22524252Y26276444D01*
X-22606434Y26437733D01*
X-22606434Y26437734D01*
X-22677425Y26535444D01*
X-23146330Y26066540D01*
X-23189901Y26142007D01*
X-23282993Y26235099D01*
X-23358463Y26278672D01*
X-22889558Y26747577D01*
X-22987267Y26818567D01*
X-23148557Y26900749D01*
X-23148556Y26900749D01*
X-23320698Y26956681D01*
X-23320711Y26956684D01*
X-23499491Y26985000D01*
X-23680509Y26985000D01*
X-23859290Y26956684D01*
X-23859303Y26956681D01*
X-24031444Y26900749D01*
X-24192729Y26818569D01*
X-24290444Y26747576D01*
X-23821539Y26278671D01*
X-23897007Y26235099D01*
X-23990099Y26142007D01*
X-24033671Y26066539D01*
X-24502576Y26535444D01*
X-24573569Y26437729D01*
X-24655749Y26276444D01*
X-24711681Y26104303D01*
X-24711684Y26104290D01*
X-24740000Y25925509D01*
X-25079500Y25925509D01*
X-25079500Y25938465D01*
X-25119870Y26141420D01*
X-25199059Y26332598D01*
X-25314023Y26504655D01*
X-25460345Y26650977D01*
X-25460349Y26650980D01*
X-25470623Y26657845D01*
X-25632402Y26765941D01*
X-25823580Y26845130D01*
X-25823587Y26845132D01*
X-25976484Y26875545D01*
X-26026535Y26885500D01*
X-26233465Y26885500D01*
X-26273615Y26877514D01*
X-26436414Y26845132D01*
X-26436421Y26845130D01*
X-26627599Y26765941D01*
X-26799655Y26650978D01*
X-26799656Y26650976D01*
X-26945976Y26504656D01*
X-26945978Y26504655D01*
X-27060941Y26332599D01*
X-27140130Y26141421D01*
X-27140132Y26141414D01*
X-27180500Y25938465D01*
X-27619500Y25938465D01*
X-27659870Y26141420D01*
X-27739059Y26332598D01*
X-27854023Y26504655D01*
X-28000345Y26650977D01*
X-28010624Y26657845D01*
X-28172402Y26765941D01*
X-28363580Y26845130D01*
X-28363587Y26845132D01*
X-28516484Y26875545D01*
X-28566535Y26885500D01*
X-28773465Y26885500D01*
X-28813615Y26877514D01*
X-28976414Y26845132D01*
X-28976421Y26845130D01*
X-29167599Y26765941D01*
X-29339655Y26650978D01*
X-29339656Y26650976D01*
X-29485976Y26504656D01*
X-29485978Y26504655D01*
X-29600941Y26332599D01*
X-29680130Y26141421D01*
X-29680132Y26141414D01*
X-29720500Y25938465D01*
X-30159500Y25938465D01*
X-30199870Y26141420D01*
X-30279059Y26332598D01*
X-30394023Y26504655D01*
X-30540345Y26650977D01*
X-30550624Y26657845D01*
X-30712402Y26765941D01*
X-30903580Y26845130D01*
X-30903587Y26845132D01*
X-31056484Y26875545D01*
X-31106535Y26885500D01*
X-31313465Y26885500D01*
X-31353615Y26877514D01*
X-31516414Y26845132D01*
X-31516421Y26845130D01*
X-31707599Y26765941D01*
X-31879655Y26650978D01*
X-31879656Y26650976D01*
X-32025976Y26504656D01*
X-32025978Y26504655D01*
X-32140941Y26332599D01*
X-32220130Y26141421D01*
X-32220132Y26141414D01*
X-32260500Y25938465D01*
X-34947601Y25938465D01*
X-34938990Y25964967D01*
X-34938990Y25964968D01*
X-34938912Y25965209D01*
X-34938913Y25965209D01*
X-34938910Y25965215D01*
X-34899500Y26214038D01*
X-34899500Y26465962D01*
X-34903273Y26489782D01*
X-34938910Y26714783D01*
X-34938913Y26714796D01*
X-35016757Y26954374D01*
X-35016759Y26954377D01*
X-35016759Y26954379D01*
X-35076005Y27070655D01*
X-35131130Y27178846D01*
X-35279204Y27382652D01*
X-35279205Y27382653D01*
X-35279207Y27382656D01*
X-35457344Y27560793D01*
X-35457347Y27560796D01*
X-35457349Y27560797D01*
X-35661155Y27708871D01*
X-35885627Y27823244D01*
X-36125205Y27901088D01*
X-36125218Y27901091D01*
X-36374036Y27940500D01*
X-36374038Y27940500D01*
X-36625962Y27940500D01*
X-36625964Y27940500D01*
X-36874783Y27901091D01*
X-36874796Y27901088D01*
X-37114374Y27823244D01*
X-37338846Y27708871D01*
X-37542652Y27560797D01*
X-37720797Y27382652D01*
X-37868871Y27178846D01*
X-37983244Y26954374D01*
X-38061088Y26714796D01*
X-38061091Y26714783D01*
X-38100500Y26465964D01*
X-40644500Y26465964D01*
X-40644500Y29244747D01*
X-32260500Y29244747D01*
X-32260500Y27505254D01*
X-32248867Y27446768D01*
X-32219392Y27402657D01*
X-32204552Y27380448D01*
X-32160440Y27350973D01*
X-32138233Y27336134D01*
X-32138232Y27336134D01*
X-32138231Y27336133D01*
X-32079748Y27324500D01*
X-32079746Y27324500D01*
X-30340254Y27324500D01*
X-30340252Y27324500D01*
X-30281769Y27336133D01*
X-30215448Y27380448D01*
X-30171133Y27446769D01*
X-30159500Y27505252D01*
X-30159500Y28478465D01*
X-29720500Y28478465D01*
X-29720500Y28271536D01*
X-29680132Y28068587D01*
X-29680130Y28068580D01*
X-29600941Y27877402D01*
X-29488333Y27708870D01*
X-29485977Y27705345D01*
X-29339655Y27559023D01*
X-29167598Y27444059D01*
X-28976420Y27364870D01*
X-28773465Y27324500D01*
X-28773464Y27324500D01*
X-28566536Y27324500D01*
X-28566535Y27324500D01*
X-28363580Y27364870D01*
X-28172402Y27444059D01*
X-28000345Y27559023D01*
X-27854023Y27705345D01*
X-27739059Y27877402D01*
X-27659870Y28068580D01*
X-27619500Y28271535D01*
X-27619500Y28478465D01*
X-27180500Y28478465D01*
X-27180500Y28271536D01*
X-27140132Y28068587D01*
X-27140130Y28068580D01*
X-27060941Y27877402D01*
X-26948333Y27708870D01*
X-26945977Y27705345D01*
X-26799655Y27559023D01*
X-26627598Y27444059D01*
X-26436420Y27364870D01*
X-26233465Y27324500D01*
X-26233464Y27324500D01*
X-26026536Y27324500D01*
X-26026535Y27324500D01*
X-25823580Y27364870D01*
X-25632402Y27444059D01*
X-25460345Y27559023D01*
X-25314023Y27705345D01*
X-25199059Y27877402D01*
X-25119870Y28068580D01*
X-25079500Y28271535D01*
X-25079500Y28478465D01*
X-24640500Y28478465D01*
X-24640500Y28271536D01*
X-24600132Y28068587D01*
X-24600130Y28068580D01*
X-24520941Y27877402D01*
X-24408333Y27708870D01*
X-24405977Y27705345D01*
X-24259655Y27559023D01*
X-24087598Y27444059D01*
X-23896420Y27364870D01*
X-23693465Y27324500D01*
X-23693464Y27324500D01*
X-23486536Y27324500D01*
X-23486535Y27324500D01*
X-23283580Y27364870D01*
X-23092402Y27444059D01*
X-22920345Y27559023D01*
X-22774023Y27705345D01*
X-22659059Y27877402D01*
X-22579870Y28068580D01*
X-22539500Y28271535D01*
X-22539500Y28478465D01*
X-22100500Y28478465D01*
X-22100500Y28271536D01*
X-22060132Y28068587D01*
X-22060130Y28068580D01*
X-21980941Y27877402D01*
X-21868333Y27708870D01*
X-21865977Y27705345D01*
X-21719655Y27559023D01*
X-21547598Y27444059D01*
X-21356420Y27364870D01*
X-21153465Y27324500D01*
X-21153464Y27324500D01*
X-20946536Y27324500D01*
X-20946535Y27324500D01*
X-20743580Y27364870D01*
X-20552402Y27444059D01*
X-20380345Y27559023D01*
X-20234023Y27705345D01*
X-20119059Y27877402D01*
X-20039870Y28068580D01*
X-19999500Y28271535D01*
X-19999500Y28478465D01*
X-19560500Y28478465D01*
X-19560500Y28271536D01*
X-19520132Y28068587D01*
X-19520130Y28068580D01*
X-19440941Y27877402D01*
X-19328333Y27708870D01*
X-19325977Y27705345D01*
X-19179655Y27559023D01*
X-19007598Y27444059D01*
X-18816420Y27364870D01*
X-18613465Y27324500D01*
X-18613464Y27324500D01*
X-18406536Y27324500D01*
X-18406535Y27324500D01*
X-18203580Y27364870D01*
X-18012402Y27444059D01*
X-17840345Y27559023D01*
X-17694023Y27705345D01*
X-17579059Y27877402D01*
X-17499870Y28068580D01*
X-17459500Y28271535D01*
X-17459500Y28478465D01*
X-17499870Y28681420D01*
X-17579059Y28872598D01*
X-17694023Y29044655D01*
X-17840345Y29190977D01*
X-17920820Y29244748D01*
X-18012402Y29305941D01*
X-18203580Y29385130D01*
X-18203587Y29385132D01*
X-18356484Y29415545D01*
X-18406535Y29425500D01*
X-18613465Y29425500D01*
X-18653615Y29417514D01*
X-18816414Y29385132D01*
X-18816421Y29385130D01*
X-19007599Y29305941D01*
X-19179655Y29190978D01*
X-19179656Y29190976D01*
X-19325976Y29044656D01*
X-19325978Y29044655D01*
X-19440941Y28872599D01*
X-19520130Y28681421D01*
X-19520132Y28681414D01*
X-19560500Y28478465D01*
X-19999500Y28478465D01*
X-20039870Y28681420D01*
X-20119059Y28872598D01*
X-20234023Y29044655D01*
X-20380345Y29190977D01*
X-20460820Y29244748D01*
X-20552402Y29305941D01*
X-20743580Y29385130D01*
X-20743587Y29385132D01*
X-20896484Y29415545D01*
X-20946535Y29425500D01*
X-21153465Y29425500D01*
X-21193615Y29417514D01*
X-21356414Y29385132D01*
X-21356421Y29385130D01*
X-21547599Y29305941D01*
X-21719655Y29190978D01*
X-21719656Y29190976D01*
X-21865976Y29044656D01*
X-21865978Y29044655D01*
X-21980941Y28872599D01*
X-22060130Y28681421D01*
X-22060132Y28681414D01*
X-22100500Y28478465D01*
X-22539500Y28478465D01*
X-22579870Y28681420D01*
X-22659059Y28872598D01*
X-22774023Y29044655D01*
X-22920345Y29190977D01*
X-23000820Y29244748D01*
X-23092402Y29305941D01*
X-23283580Y29385130D01*
X-23283587Y29385132D01*
X-23436484Y29415545D01*
X-23486535Y29425500D01*
X-23693465Y29425500D01*
X-23733615Y29417514D01*
X-23896414Y29385132D01*
X-23896421Y29385130D01*
X-24087599Y29305941D01*
X-24259655Y29190978D01*
X-24259656Y29190976D01*
X-24405976Y29044656D01*
X-24405978Y29044655D01*
X-24520941Y28872599D01*
X-24600130Y28681421D01*
X-24600132Y28681414D01*
X-24640500Y28478465D01*
X-25079500Y28478465D01*
X-25119870Y28681420D01*
X-25199059Y28872598D01*
X-25314023Y29044655D01*
X-25460345Y29190977D01*
X-25540820Y29244748D01*
X-25632402Y29305941D01*
X-25823580Y29385130D01*
X-25823587Y29385132D01*
X-25976484Y29415545D01*
X-26026535Y29425500D01*
X-26233465Y29425500D01*
X-26273615Y29417514D01*
X-26436414Y29385132D01*
X-26436421Y29385130D01*
X-26627599Y29305941D01*
X-26799655Y29190978D01*
X-26799656Y29190976D01*
X-26945976Y29044656D01*
X-26945978Y29044655D01*
X-27060941Y28872599D01*
X-27140130Y28681421D01*
X-27140132Y28681414D01*
X-27180500Y28478465D01*
X-27619500Y28478465D01*
X-27659870Y28681420D01*
X-27739059Y28872598D01*
X-27854023Y29044655D01*
X-28000345Y29190977D01*
X-28080820Y29244748D01*
X-28172402Y29305941D01*
X-28363580Y29385130D01*
X-28363587Y29385132D01*
X-28516484Y29415545D01*
X-28566535Y29425500D01*
X-28773465Y29425500D01*
X-28813615Y29417514D01*
X-28976414Y29385132D01*
X-28976421Y29385130D01*
X-29167599Y29305941D01*
X-29339655Y29190978D01*
X-29339656Y29190976D01*
X-29485976Y29044656D01*
X-29485978Y29044655D01*
X-29600941Y28872599D01*
X-29680130Y28681421D01*
X-29680132Y28681414D01*
X-29720500Y28478465D01*
X-30159500Y28478465D01*
X-30159500Y29244748D01*
X-30171133Y29303231D01*
X-30172944Y29305941D01*
X-30185973Y29325440D01*
X-30215448Y29369552D01*
X-30238765Y29385132D01*
X-30281768Y29413867D01*
X-30281767Y29413867D01*
X-30311011Y29419684D01*
X-30340252Y29425500D01*
X-32079748Y29425500D01*
X-32108990Y29419684D01*
X-32138233Y29413867D01*
X-32204551Y29369553D01*
X-32204553Y29369551D01*
X-32248867Y29303233D01*
X-32260500Y29244747D01*
X-40644500Y29244747D01*
X-40644500Y29765392D01*
X-4928300Y29765392D01*
X-4928300Y28827409D01*
X-4901382Y28692078D01*
X-4901379Y28692068D01*
X-4848577Y28564592D01*
X-4848576Y28564590D01*
X-4848575Y28564589D01*
X-4771914Y28449858D01*
X-4674342Y28352286D01*
X-4559611Y28275625D01*
X-4559610Y28275625D01*
X-4559609Y28275624D01*
X-4549737Y28271535D01*
X-4432128Y28222820D01*
X-4296793Y28195900D01*
X-4296791Y28195900D01*
X-4158809Y28195900D01*
X-4158807Y28195900D01*
X-4023472Y28222820D01*
X-3895989Y28275625D01*
X-3781258Y28352286D01*
X-3683686Y28449858D01*
X-3607025Y28564589D01*
X-3554220Y28692072D01*
X-3527300Y28827407D01*
X-3527300Y29765392D01*
X3711700Y29765392D01*
X3711700Y28827409D01*
X3738618Y28692078D01*
X3738621Y28692068D01*
X3791423Y28564592D01*
X3791424Y28564590D01*
X3791425Y28564589D01*
X3868086Y28449858D01*
X3965658Y28352286D01*
X4080389Y28275625D01*
X4080390Y28275625D01*
X4080391Y28275624D01*
X4090263Y28271535D01*
X4207872Y28222820D01*
X4343207Y28195900D01*
X4343209Y28195900D01*
X4481191Y28195900D01*
X4481193Y28195900D01*
X4616528Y28222820D01*
X4744011Y28275625D01*
X4858742Y28352286D01*
X4956314Y28449858D01*
X5032975Y28564589D01*
X5085780Y28692072D01*
X5112700Y28827407D01*
X5112700Y29765393D01*
X5085780Y29900728D01*
X5032975Y30028211D01*
X4956314Y30142942D01*
X4858742Y30240514D01*
X4744011Y30317175D01*
X4744010Y30317176D01*
X4744008Y30317177D01*
X4616532Y30369979D01*
X4616522Y30369982D01*
X4525894Y30388009D01*
X4481193Y30396900D01*
X4343207Y30396900D01*
X4304842Y30389269D01*
X4207877Y30369982D01*
X4207867Y30369979D01*
X4080391Y30317177D01*
X3965661Y30240517D01*
X3868083Y30142939D01*
X3791423Y30028209D01*
X3738621Y29900733D01*
X3738618Y29900723D01*
X3711700Y29765392D01*
X-3527300Y29765392D01*
X-3527300Y29765393D01*
X-3554220Y29900728D01*
X-3607025Y30028211D01*
X-3683686Y30142942D01*
X-3781258Y30240514D01*
X-3895989Y30317175D01*
X-3895990Y30317176D01*
X-3895992Y30317177D01*
X-4023468Y30369979D01*
X-4023478Y30369982D01*
X-4114106Y30388009D01*
X-4158807Y30396900D01*
X-4296793Y30396900D01*
X-4335158Y30389269D01*
X-4432123Y30369982D01*
X-4432133Y30369979D01*
X-4559609Y30317177D01*
X-4674339Y30240517D01*
X-4771917Y30142939D01*
X-4848577Y30028209D01*
X-4901379Y29900733D01*
X-4901382Y29900723D01*
X-4928300Y29765392D01*
X-40644500Y29765392D01*
X-40644500Y30480500D01*
X-40622826Y30532826D01*
X-40570500Y30554500D01*
X18446700Y30554500D01*
X18499026Y30532826D01*
G37*
%TD.AperFunction*%
%TD*%
M02*
