%TF.GenerationSoftware,KiCad,Pcbnew,9.0.6*%
%TF.CreationDate,2025-12-18T17:51:45-08:00*%
%TF.ProjectId,multi-module_controller_PCB,6d756c74-692d-46d6-9f64-756c655f636f,REV3*%
%TF.SameCoordinates,Original*%
%TF.FileFunction,Copper,L2,Inr*%
%TF.FilePolarity,Positive*%
%FSLAX46Y46*%
G04 Gerber Fmt 4.6, Leading zero omitted, Abs format (unit mm)*
G04 Created by KiCad (PCBNEW 9.0.6) date 2025-12-18 17:51:45*
%MOMM*%
%LPD*%
G01*
G04 APERTURE LIST*
G04 Aperture macros list*
%AMRoundRect*
0 Rectangle with rounded corners*
0 $1 Rounding radius*
0 $2 $3 $4 $5 $6 $7 $8 $9 X,Y pos of 4 corners*
0 Add a 4 corners polygon primitive as box body*
4,1,4,$2,$3,$4,$5,$6,$7,$8,$9,$2,$3,0*
0 Add four circle primitives for the rounded corners*
1,1,$1+$1,$2,$3*
1,1,$1+$1,$4,$5*
1,1,$1+$1,$6,$7*
1,1,$1+$1,$8,$9*
0 Add four rect primitives between the rounded corners*
20,1,$1+$1,$2,$3,$4,$5,0*
20,1,$1+$1,$4,$5,$6,$7,0*
20,1,$1+$1,$6,$7,$8,$9,0*
20,1,$1+$1,$8,$9,$2,$3,0*%
G04 Aperture macros list end*
%TA.AperFunction,ComponentPad*%
%ADD10R,1.700000X1.700000*%
%TD*%
%TA.AperFunction,ComponentPad*%
%ADD11C,1.700000*%
%TD*%
%TA.AperFunction,WasherPad*%
%ADD12C,2.500000*%
%TD*%
%TA.AperFunction,ComponentPad*%
%ADD13RoundRect,0.250000X-0.512000X0.512000X-0.512000X-0.512000X0.512000X-0.512000X0.512000X0.512000X0*%
%TD*%
%TA.AperFunction,ComponentPad*%
%ADD14C,1.524000*%
%TD*%
%TA.AperFunction,ComponentPad*%
%ADD15C,3.500000*%
%TD*%
%TA.AperFunction,HeatsinkPad*%
%ADD16O,2.100000X1.000000*%
%TD*%
%TA.AperFunction,HeatsinkPad*%
%ADD17O,1.800000X1.000000*%
%TD*%
%TA.AperFunction,ComponentPad*%
%ADD18R,1.000000X1.000000*%
%TD*%
%TA.AperFunction,ComponentPad*%
%ADD19C,1.000000*%
%TD*%
%TA.AperFunction,ComponentPad*%
%ADD20C,0.600000*%
%TD*%
%TA.AperFunction,HeatsinkPad*%
%ADD21O,1.000000X2.100000*%
%TD*%
%TA.AperFunction,HeatsinkPad*%
%ADD22O,1.000000X1.800000*%
%TD*%
%TA.AperFunction,ViaPad*%
%ADD23C,0.600000*%
%TD*%
G04 APERTURE END LIST*
D10*
%TO.N,+3V3*%
%TO.C,J9*%
X14565000Y7775000D03*
D11*
%TO.N,VBUS*%
X17105000Y7775000D03*
%TO.N,GND*%
X14565000Y5235000D03*
X17105000Y5235000D03*
%TO.N,/GPIO46_ADC6*%
X14565000Y2695000D03*
%TO.N,/GPIO47_ADC7*%
X17105000Y2695000D03*
%TO.N,/GPIO44_ADC4*%
X14565000Y155000D03*
%TO.N,/GPIO45_ADC5*%
X17105000Y155000D03*
%TO.N,/GPIO42_ADC2*%
X14565000Y-2385000D03*
%TO.N,/GPIO43_ADC3*%
X17105000Y-2385000D03*
%TO.N,/GPIO40_ADC0*%
X14565000Y-4925000D03*
%TO.N,/GPIO41_ADC1*%
X17105000Y-4925000D03*
%TO.N,/GPIO38*%
X14565000Y-7465000D03*
%TO.N,/GPIO39*%
X17105000Y-7465000D03*
%TO.N,/GPIO36*%
X14565000Y-10005000D03*
%TO.N,/GPIO37*%
X17105000Y-10005000D03*
%TO.N,/GPIO34*%
X14565000Y-12545000D03*
%TO.N,/GPIO35*%
X17105000Y-12545000D03*
%TD*%
D10*
%TO.N,/SWCLK*%
%TO.C,J4*%
X11055800Y-21178200D03*
D11*
%TO.N,GND*%
X13595800Y-21178200D03*
%TO.N,/SWD*%
X16135800Y-21178200D03*
%TD*%
D12*
%TO.N,*%
%TO.C,DS1*%
X-31140000Y20915800D03*
X-31140000Y-12104200D03*
X6960000Y20915800D03*
X6960000Y-12104200D03*
D10*
%TO.N,/GPIO5*%
X-19710000Y20915800D03*
D11*
%TO.N,/GPIO4*%
X-17170000Y20915800D03*
%TO.N,/GPIO1*%
X-14630000Y20915800D03*
%TO.N,/GPIO2*%
X-12090000Y20905800D03*
%TO.N,/GPIO3*%
X-9550000Y20915800D03*
%TO.N,GND*%
X-7010000Y20915800D03*
%TO.N,VBUS*%
X-4470000Y20915800D03*
%TD*%
D13*
%TO.N,Net-(J8-VBUS)*%
%TO.C,J8*%
X-29257200Y2708200D03*
D14*
%TO.N,Net-(J8-D-)*%
X-29257200Y208200D03*
%TO.N,Net-(J8-D+)*%
X-29257200Y-1791800D03*
%TO.N,GND*%
X-29257200Y-4291800D03*
D15*
X-31967200Y5778200D03*
X-31967200Y-7361800D03*
%TD*%
D16*
%TO.N,GND*%
%TO.C,J6*%
X-35153600Y17283400D03*
D17*
X-39353600Y17283400D03*
D16*
X-35153600Y8643400D03*
D17*
X-39353600Y8643400D03*
%TD*%
D10*
%TO.N,GND*%
%TO.C,J1*%
X-31210000Y28375000D03*
D11*
%TO.N,VBUS*%
X-31210000Y25835000D03*
%TO.N,GND*%
X-28670000Y28375000D03*
%TO.N,VBUS*%
X-28670000Y25835000D03*
%TO.N,GND*%
X-26130000Y28375000D03*
%TO.N,VBUS*%
X-26130000Y25835000D03*
%TO.N,GND*%
X-23590000Y28375000D03*
%TO.N,+3V3*%
X-23590000Y25835000D03*
%TO.N,GND*%
X-21050000Y28375000D03*
%TO.N,+3V3*%
X-21050000Y25835000D03*
%TO.N,GND*%
X-18510000Y28375000D03*
%TO.N,+3V3*%
X-18510000Y25835000D03*
%TD*%
D18*
%TO.N,GND*%
%TO.C,J10*%
X-13205000Y-11565000D03*
D19*
%TO.N,/GPIO18*%
X-14475000Y-11565000D03*
%TO.N,/GPIO17*%
X-13205000Y-10295000D03*
%TO.N,/GPIO19*%
X-14475000Y-10295000D03*
%TO.N,/GPIO21*%
X-13205000Y-9025000D03*
%TO.N,/GPIO20*%
X-14475000Y-9025000D03*
%TD*%
D20*
%TO.N,GND*%
%TO.C,U1*%
X-1133333Y1133333D03*
X-1133333Y0D03*
X-1133333Y-1133333D03*
X0Y1133333D03*
X0Y0D03*
X0Y-1133333D03*
X1133333Y1133333D03*
X1133333Y0D03*
X1133333Y-1133333D03*
%TD*%
D10*
%TO.N,/GPIO13*%
%TO.C,J7*%
X-39290200Y-35656600D03*
D11*
%TO.N,GND*%
X-39290200Y-33116600D03*
%TO.N,VBUS*%
X-39290200Y-30576600D03*
%TO.N,Net-(J7-Pin_4)*%
X-39290200Y-28036600D03*
%TO.N,Net-(J7-Pin_5)*%
X-39290200Y-25496600D03*
%TO.N,unconnected-(J7-Pin_6-Pad6)*%
X-39290200Y-22956600D03*
%TO.N,unconnected-(J7-Pin_7-Pad7)*%
X-39290200Y-20416600D03*
%TO.N,unconnected-(J7-Pin_8-Pad8)*%
X-39290200Y-17876600D03*
%TD*%
D21*
%TO.N,GND*%
%TO.C,J5*%
X4412200Y25096400D03*
D22*
X4412200Y29296400D03*
D21*
X-4227800Y25096400D03*
D22*
X-4227800Y29296400D03*
%TD*%
D23*
%TO.N,GND*%
X2700000Y-13657000D03*
X-2700000Y-12057000D03*
X-2100000Y-8800000D03*
X6160000Y-46335000D03*
X-15630000Y-25985000D03*
X-12500000Y17800000D03*
X-20752000Y18567600D03*
X15173200Y-36420000D03*
X-8000000Y-6800000D03*
X-5100000Y17200000D03*
X-5900000Y-7275500D03*
X14547400Y20924400D03*
X-7239200Y25578000D03*
X6140000Y-34375000D03*
X-1000000Y10000000D03*
X14900000Y-19200000D03*
X12300000Y-19200000D03*
X-17470000Y-34385000D03*
X-22987200Y13335200D03*
X2200000Y-8820000D03*
X4100000Y6350000D03*
X6150000Y-19650000D03*
X-10600000Y10000000D03*
X-6560000Y-26005000D03*
X-9220000Y200000D03*
X-6500000Y-42825000D03*
X9900000Y10200000D03*
X2800000Y-10420000D03*
X8715000Y-4500000D03*
X-21006000Y8458400D03*
X9220000Y-500000D03*
X4100000Y6950000D03*
X8400000Y4800000D03*
X-19270000Y-19665000D03*
X13600000Y-19200000D03*
X-17704000Y2514800D03*
X9220000Y500000D03*
X-9215000Y2900000D03*
X-2600000Y-10420000D03*
X-9000000Y-6800000D03*
X-9200000Y-2200000D03*
X16050000Y19080000D03*
X-7000000Y8100000D03*
X-2960000Y-19715000D03*
X4800000Y5300000D03*
X-6600000Y-34425000D03*
X-13109800Y26296600D03*
%TO.N,VBUS*%
X2492200Y23100000D03*
X-21717200Y533600D03*
X-26949600Y12065200D03*
X-2347900Y23037900D03*
X7675000Y16700000D03*
%TO.N,+3V3*%
X8539000Y12451000D03*
X12343400Y11043400D03*
X3980000Y-3830000D03*
X-9600000Y-11000000D03*
X-4100000Y2200000D03*
X-5320000Y18210000D03*
X12343400Y14350000D03*
X-8200000Y-11000000D03*
X-2600000Y-4100000D03*
X-10000000Y17900000D03*
X-16200000Y12700000D03*
X12343400Y15890000D03*
X-2200000Y4100000D03*
X3110000Y3800000D03*
X12343400Y17480000D03*
X-600000Y-4100000D03*
X15340000Y12520000D03*
X-4100000Y-1800000D03*
X3700000Y-630000D03*
%TO.N,+1V1*%
X6800000Y200000D03*
X1700000Y6600000D03*
X800000Y-7220000D03*
X-6800000Y200000D03*
X1700000Y7200000D03*
%TO.N,/GPIO13*%
X-11500000Y-300000D03*
X-34360100Y-34739900D03*
%TO.N,/GPIO12*%
X-12100000Y400000D03*
X-34200000Y-33600000D03*
%TO.N,/GPIO11*%
X-17900000Y14600000D03*
X-22100000Y14600000D03*
%TO.N,/GPIO7*%
X-20900000Y5800000D03*
X-8300000Y4200000D03*
%TO.N,/GPIO3*%
X-15392600Y18974000D03*
%TO.N,/GPIO0*%
X-13018800Y18932000D03*
X-9100000Y19000000D03*
%TO.N,/GPIO23*%
X-16370000Y-6000000D03*
X-17640000Y950000D03*
%TO.N,/GPIO22*%
X-17135322Y-5324678D03*
X-17150000Y-440000D03*
%TO.N,/RUN*%
X9100000Y-9407800D03*
X5156000Y-10032800D03*
%TO.N,/SWD*%
X4800400Y-15011200D03*
X16142800Y-19111200D03*
%TO.N,/SWCLK*%
X4292400Y-15620800D03*
X11048800Y-19230400D03*
%TO.N,/QSPI_SD3*%
X-4700000Y13800000D03*
%TO.N,/QSPI_SCLK*%
X-4700000Y12500000D03*
%TO.N,/QSPI_SD0*%
X-4700000Y11200000D03*
%TO.N,/QSPI_SD2*%
X-9300000Y11800000D03*
%TO.N,/QSPI_SD1*%
X-9300000Y13100000D03*
%TO.N,/GPIO30*%
X-3117600Y-23945200D03*
X5962000Y-23945200D03*
%TO.N,/GPIO26*%
X-9017200Y-33248400D03*
X-9017200Y-14198400D03*
%TO.N,Net-(J8-VBUS)*%
X-27965600Y12116000D03*
%TO.N,Net-(U6-OUTA)*%
X-32232800Y15316400D03*
X-31928000Y10592000D03*
X-28666600Y10805400D03*
%TD*%
%TA.AperFunction,Conductor*%
%TO.N,GND*%
G36*
X-4651693Y30535593D02*
G01*
X-4615729Y30486093D01*
X-4615729Y30424907D01*
X-4651693Y30375407D01*
X-4654882Y30373185D01*
X-4737770Y30317801D01*
X-4737774Y30317798D01*
X-4849198Y30206374D01*
X-4849201Y30206370D01*
X-4936748Y30075350D01*
X-4936752Y30075341D01*
X-4997058Y29929750D01*
X-5027800Y29775196D01*
X-5027800Y29446401D01*
X-5027799Y29446400D01*
X-4527800Y29446400D01*
X-4527800Y29146400D01*
X-5027799Y29146400D01*
X-5027800Y29146399D01*
X-5027800Y28817605D01*
X-4997058Y28663051D01*
X-4936752Y28517460D01*
X-4936748Y28517451D01*
X-4849201Y28386431D01*
X-4849198Y28386427D01*
X-4737774Y28275003D01*
X-4737770Y28275000D01*
X-4606750Y28187453D01*
X-4606741Y28187449D01*
X-4461149Y28127143D01*
X-4461150Y28127143D01*
X-4377801Y28110565D01*
X-4377800Y28110565D01*
X-4377800Y28636592D01*
X-4343596Y28616844D01*
X-4267296Y28596400D01*
X-4188304Y28596400D01*
X-4112004Y28616844D01*
X-4077800Y28636592D01*
X-4077800Y28110565D01*
X-3994452Y28127143D01*
X-3848860Y28187449D01*
X-3848851Y28187453D01*
X-3717831Y28275000D01*
X-3717827Y28275003D01*
X-3606403Y28386427D01*
X-3606400Y28386431D01*
X-3518853Y28517451D01*
X-3518849Y28517460D01*
X-3458543Y28663051D01*
X-3427801Y28817605D01*
X-3427800Y28817608D01*
X-3427800Y29146399D01*
X-3427801Y29146400D01*
X-3927800Y29146400D01*
X-3927800Y29446400D01*
X-3427801Y29446400D01*
X-3427800Y29446401D01*
X-3427800Y29775193D01*
X-3427801Y29775196D01*
X-3458543Y29929750D01*
X-3518849Y30075341D01*
X-3518853Y30075350D01*
X-3606400Y30206370D01*
X-3606403Y30206374D01*
X-3717827Y30317798D01*
X-3717831Y30317801D01*
X-3800718Y30373185D01*
X-3838597Y30421235D01*
X-3840999Y30482373D01*
X-3807006Y30533247D01*
X-3749602Y30554424D01*
X-3745716Y30554500D01*
X3930116Y30554500D01*
X3988307Y30535593D01*
X4024271Y30486093D01*
X4024271Y30424907D01*
X3988307Y30375407D01*
X3985118Y30373185D01*
X3902230Y30317801D01*
X3902226Y30317798D01*
X3790802Y30206374D01*
X3790799Y30206370D01*
X3703252Y30075350D01*
X3703248Y30075341D01*
X3642942Y29929750D01*
X3612200Y29775196D01*
X3612200Y29446401D01*
X3612201Y29446400D01*
X4112200Y29446400D01*
X4112200Y29146400D01*
X3612201Y29146400D01*
X3612200Y29146399D01*
X3612200Y28817605D01*
X3642942Y28663051D01*
X3703248Y28517460D01*
X3703252Y28517451D01*
X3790799Y28386431D01*
X3790802Y28386427D01*
X3902226Y28275003D01*
X3902230Y28275000D01*
X4033250Y28187453D01*
X4033259Y28187449D01*
X4178851Y28127143D01*
X4178850Y28127143D01*
X4262199Y28110565D01*
X4262200Y28110565D01*
X4262200Y28636592D01*
X4296404Y28616844D01*
X4372704Y28596400D01*
X4451696Y28596400D01*
X4527996Y28616844D01*
X4562200Y28636592D01*
X4562200Y28110565D01*
X4645548Y28127143D01*
X4791140Y28187449D01*
X4791149Y28187453D01*
X4922169Y28275000D01*
X4922173Y28275003D01*
X5033597Y28386427D01*
X5033600Y28386431D01*
X5121147Y28517451D01*
X5121151Y28517460D01*
X5181457Y28663051D01*
X5212199Y28817605D01*
X5212200Y28817608D01*
X5212200Y29146399D01*
X5212199Y29146400D01*
X4712200Y29146400D01*
X4712200Y29446400D01*
X5212199Y29446400D01*
X5212200Y29446401D01*
X5212200Y29775193D01*
X5212199Y29775196D01*
X5181457Y29929750D01*
X5121151Y30075341D01*
X5121147Y30075350D01*
X5033600Y30206370D01*
X5033597Y30206374D01*
X4922173Y30317798D01*
X4922169Y30317801D01*
X4839282Y30373185D01*
X4801403Y30421235D01*
X4799001Y30482373D01*
X4832994Y30533247D01*
X4890398Y30554424D01*
X4894284Y30554500D01*
X18421700Y30554500D01*
X18479891Y30535593D01*
X18515855Y30486093D01*
X18520700Y30455500D01*
X18520700Y-53194300D01*
X18501793Y-53252491D01*
X18452293Y-53288455D01*
X18421700Y-53293300D01*
X-40545500Y-53293300D01*
X-40603691Y-53274393D01*
X-40639655Y-53224893D01*
X-40644500Y-53194300D01*
X-40644500Y-49734034D01*
X-38100500Y-49734034D01*
X-38100500Y-49985965D01*
X-38061092Y-50234780D01*
X-38061090Y-50234785D01*
X-37983241Y-50474379D01*
X-37868870Y-50698845D01*
X-37720793Y-50902656D01*
X-37542656Y-51080793D01*
X-37338845Y-51228870D01*
X-37114379Y-51343241D01*
X-36874785Y-51421090D01*
X-36874784Y-51421090D01*
X-36874781Y-51421091D01*
X-36625965Y-51460500D01*
X-36625962Y-51460500D01*
X-36374035Y-51460500D01*
X-36125220Y-51421091D01*
X-36125219Y-51421090D01*
X-36125215Y-51421090D01*
X-35885621Y-51343241D01*
X-35661155Y-51228870D01*
X-35457344Y-51080793D01*
X-35279207Y-50902656D01*
X-35131130Y-50698845D01*
X-35016759Y-50474379D01*
X-34938910Y-50234785D01*
X-34899500Y-49985962D01*
X-34899500Y-49734038D01*
X-34899500Y-49734034D01*
X12699500Y-49734034D01*
X12699500Y-49985965D01*
X12738908Y-50234780D01*
X12738910Y-50234785D01*
X12816759Y-50474379D01*
X12931130Y-50698845D01*
X13079207Y-50902656D01*
X13257344Y-51080793D01*
X13461155Y-51228870D01*
X13685621Y-51343241D01*
X13925215Y-51421090D01*
X13925216Y-51421090D01*
X13925219Y-51421091D01*
X14174035Y-51460500D01*
X14174038Y-51460500D01*
X14425965Y-51460500D01*
X14674780Y-51421091D01*
X14674781Y-51421090D01*
X14674785Y-51421090D01*
X14914379Y-51343241D01*
X15138845Y-51228870D01*
X15342656Y-51080793D01*
X15520793Y-50902656D01*
X15668870Y-50698845D01*
X15783241Y-50474379D01*
X15861090Y-50234785D01*
X15900500Y-49985962D01*
X15900500Y-49734038D01*
X15900500Y-49734034D01*
X15861091Y-49485219D01*
X15861090Y-49485215D01*
X15783241Y-49245621D01*
X15668870Y-49021155D01*
X15520793Y-48817344D01*
X15342656Y-48639207D01*
X15138845Y-48491130D01*
X15138844Y-48491129D01*
X15138842Y-48491128D01*
X14914379Y-48376759D01*
X14674780Y-48298908D01*
X14425965Y-48259500D01*
X14425962Y-48259500D01*
X14174038Y-48259500D01*
X14174035Y-48259500D01*
X13925219Y-48298908D01*
X13685620Y-48376759D01*
X13461157Y-48491128D01*
X13257345Y-48639206D01*
X13079206Y-48817345D01*
X12931128Y-49021157D01*
X12816759Y-49245620D01*
X12738908Y-49485219D01*
X12699500Y-49734034D01*
X-34899500Y-49734034D01*
X-34938909Y-49485219D01*
X-34938910Y-49485215D01*
X-35016759Y-49245621D01*
X-35131130Y-49021155D01*
X-35279207Y-48817344D01*
X-35457344Y-48639207D01*
X-35661155Y-48491130D01*
X-35661156Y-48491129D01*
X-35661158Y-48491128D01*
X-35885621Y-48376759D01*
X-36125220Y-48298908D01*
X-36374035Y-48259500D01*
X-36374038Y-48259500D01*
X-36625962Y-48259500D01*
X-36625965Y-48259500D01*
X-36874781Y-48298908D01*
X-37114380Y-48376759D01*
X-37338843Y-48491128D01*
X-37542655Y-48639206D01*
X-37720794Y-48817345D01*
X-37868872Y-49021157D01*
X-37983241Y-49245620D01*
X-38061092Y-49485219D01*
X-38100500Y-49734034D01*
X-40644500Y-49734034D01*
X-40644500Y-34786853D01*
X-40340700Y-34786853D01*
X-40340700Y-36526346D01*
X-40340699Y-36526358D01*
X-40329068Y-36584827D01*
X-40329067Y-36584831D01*
X-40284752Y-36651152D01*
X-40218431Y-36695467D01*
X-40173969Y-36704311D01*
X-40159959Y-36707098D01*
X-40159954Y-36707098D01*
X-40159948Y-36707100D01*
X-40159947Y-36707100D01*
X-38420453Y-36707100D01*
X-38420452Y-36707100D01*
X-38361969Y-36695467D01*
X-38295648Y-36651152D01*
X-38251333Y-36584831D01*
X-38239700Y-36526348D01*
X-38239700Y-34786852D01*
X-38251333Y-34728369D01*
X-38287656Y-34674008D01*
X-34860600Y-34674008D01*
X-34860600Y-34805792D01*
X-34830521Y-34918051D01*
X-34826491Y-34933090D01*
X-34760604Y-35047209D01*
X-34760602Y-35047211D01*
X-34760600Y-35047214D01*
X-34667414Y-35140400D01*
X-34667412Y-35140401D01*
X-34667410Y-35140403D01*
X-34553290Y-35206290D01*
X-34553292Y-35206290D01*
X-34553288Y-35206291D01*
X-34553286Y-35206292D01*
X-34425992Y-35240400D01*
X-34425990Y-35240400D01*
X-34294210Y-35240400D01*
X-34294208Y-35240400D01*
X-34166914Y-35206292D01*
X-34166912Y-35206290D01*
X-34166910Y-35206290D01*
X-34052791Y-35140403D01*
X-34052791Y-35140402D01*
X-34052786Y-35140400D01*
X-33959600Y-35047214D01*
X-33893708Y-34933086D01*
X-33859600Y-34805792D01*
X-33859600Y-34674008D01*
X-33893708Y-34546714D01*
X-33893710Y-34546711D01*
X-33893710Y-34546709D01*
X-33959597Y-34432590D01*
X-33959599Y-34432588D01*
X-33959600Y-34432586D01*
X-34052786Y-34339400D01*
X-34154202Y-34280847D01*
X-34195141Y-34235379D01*
X-34201537Y-34174529D01*
X-34170944Y-34121541D01*
X-34130326Y-34099486D01*
X-34006814Y-34066392D01*
X-34006812Y-34066390D01*
X-34006810Y-34066390D01*
X-33892691Y-34000503D01*
X-33892691Y-34000502D01*
X-33892686Y-34000500D01*
X-33799500Y-33907314D01*
X-33733608Y-33793186D01*
X-33699500Y-33665892D01*
X-33699500Y-33534108D01*
X-33733608Y-33406814D01*
X-33733610Y-33406811D01*
X-33733610Y-33406809D01*
X-33799497Y-33292690D01*
X-33799499Y-33292688D01*
X-33799500Y-33292686D01*
X-33892686Y-33199500D01*
X-33892689Y-33199498D01*
X-33892691Y-33199496D01*
X-33922115Y-33182508D01*
X-9517700Y-33182508D01*
X-9517700Y-33314292D01*
X-9498516Y-33385889D01*
X-9483591Y-33441590D01*
X-9417704Y-33555709D01*
X-9417702Y-33555711D01*
X-9417700Y-33555714D01*
X-9324514Y-33648900D01*
X-9324512Y-33648901D01*
X-9324510Y-33648903D01*
X-9210390Y-33714790D01*
X-9210392Y-33714790D01*
X-9210388Y-33714791D01*
X-9210386Y-33714792D01*
X-9083092Y-33748900D01*
X-9083090Y-33748900D01*
X-8951310Y-33748900D01*
X-8951308Y-33748900D01*
X-8824014Y-33714792D01*
X-8824012Y-33714790D01*
X-8824010Y-33714790D01*
X-8709891Y-33648903D01*
X-8709891Y-33648902D01*
X-8709886Y-33648900D01*
X-8616700Y-33555714D01*
X-8604226Y-33534108D01*
X-8550810Y-33441590D01*
X-8550810Y-33441588D01*
X-8550808Y-33441586D01*
X-8516700Y-33314292D01*
X-8516700Y-33182508D01*
X-8550808Y-33055214D01*
X-8550810Y-33055211D01*
X-8550810Y-33055209D01*
X-8616697Y-32941090D01*
X-8616699Y-32941088D01*
X-8616700Y-32941086D01*
X-8709886Y-32847900D01*
X-8709889Y-32847898D01*
X-8709891Y-32847896D01*
X-8824011Y-32782009D01*
X-8824009Y-32782009D01*
X-8873401Y-32768775D01*
X-8951308Y-32747900D01*
X-9083092Y-32747900D01*
X-9161000Y-32768775D01*
X-9210391Y-32782009D01*
X-9324510Y-32847896D01*
X-9417704Y-32941090D01*
X-9483591Y-33055209D01*
X-9483592Y-33055214D01*
X-9517700Y-33182508D01*
X-33922115Y-33182508D01*
X-34006811Y-33133609D01*
X-34006809Y-33133609D01*
X-34070293Y-33116599D01*
X-34134108Y-33099500D01*
X-34265892Y-33099500D01*
X-34329707Y-33116599D01*
X-34393191Y-33133609D01*
X-34507310Y-33199496D01*
X-34600504Y-33292690D01*
X-34666391Y-33406809D01*
X-34666392Y-33406814D01*
X-34700500Y-33534108D01*
X-34700500Y-33665892D01*
X-34687398Y-33714790D01*
X-34666391Y-33793190D01*
X-34600504Y-33907309D01*
X-34600502Y-33907311D01*
X-34600500Y-33907314D01*
X-34507314Y-34000500D01*
X-34405900Y-34059052D01*
X-34364960Y-34104520D01*
X-34358564Y-34165370D01*
X-34389157Y-34218358D01*
X-34429777Y-34240414D01*
X-34468334Y-34250745D01*
X-34553286Y-34273508D01*
X-34553288Y-34273508D01*
X-34553292Y-34273510D01*
X-34667410Y-34339396D01*
X-34760604Y-34432590D01*
X-34826491Y-34546709D01*
X-34826492Y-34546714D01*
X-34860600Y-34674008D01*
X-38287656Y-34674008D01*
X-38295648Y-34662048D01*
X-38295652Y-34662045D01*
X-38361967Y-34617734D01*
X-38361969Y-34617733D01*
X-38361972Y-34617732D01*
X-38361973Y-34617732D01*
X-38420442Y-34606101D01*
X-38420452Y-34606100D01*
X-40159948Y-34606100D01*
X-40159949Y-34606100D01*
X-40159959Y-34606101D01*
X-40218428Y-34617732D01*
X-40218434Y-34617734D01*
X-40284749Y-34662045D01*
X-40284755Y-34662051D01*
X-40329066Y-34728366D01*
X-40329068Y-34728372D01*
X-40340699Y-34786841D01*
X-40340700Y-34786853D01*
X-40644500Y-34786853D01*
X-40644500Y-33026089D01*
X-40440200Y-33026089D01*
X-40440200Y-33207110D01*
X-40411884Y-33385889D01*
X-40355950Y-33558040D01*
X-40273770Y-33719328D01*
X-40202776Y-33817042D01*
X-39733872Y-33348136D01*
X-39690299Y-33423607D01*
X-39597207Y-33516699D01*
X-39521740Y-33560270D01*
X-39990644Y-34029174D01*
X-39990644Y-34029175D01*
X-39892937Y-34100164D01*
X-39892931Y-34100168D01*
X-39731641Y-34182349D01*
X-39559490Y-34238283D01*
X-39380710Y-34266600D01*
X-39199690Y-34266600D01*
X-39020911Y-34238283D01*
X-38848760Y-34182349D01*
X-38687470Y-34100168D01*
X-38687465Y-34100164D01*
X-38589758Y-34029175D01*
X-38589758Y-34029174D01*
X-39058662Y-33560270D01*
X-38983193Y-33516699D01*
X-38890101Y-33423607D01*
X-38846530Y-33348138D01*
X-38377626Y-33817042D01*
X-38377625Y-33817042D01*
X-38306636Y-33719335D01*
X-38306632Y-33719330D01*
X-38224451Y-33558040D01*
X-38168517Y-33385889D01*
X-38140200Y-33207110D01*
X-38140200Y-33026089D01*
X-38168517Y-32847310D01*
X-38224451Y-32675159D01*
X-38306632Y-32513869D01*
X-38306636Y-32513863D01*
X-38377625Y-32416156D01*
X-38377626Y-32416156D01*
X-38846530Y-32885060D01*
X-38890101Y-32809593D01*
X-38983193Y-32716501D01*
X-39058664Y-32672928D01*
X-38589758Y-32204024D01*
X-38687472Y-32133030D01*
X-38848760Y-32050850D01*
X-39020911Y-31994916D01*
X-39199690Y-31966600D01*
X-39380710Y-31966600D01*
X-39559490Y-31994916D01*
X-39731641Y-32050850D01*
X-39892931Y-32133031D01*
X-39892935Y-32133033D01*
X-39990644Y-32204023D01*
X-39521739Y-32672928D01*
X-39597207Y-32716501D01*
X-39690299Y-32809593D01*
X-39733872Y-32885061D01*
X-40202777Y-32416156D01*
X-40273767Y-32513865D01*
X-40273769Y-32513869D01*
X-40355950Y-32675159D01*
X-40411884Y-32847310D01*
X-40440200Y-33026089D01*
X-40644500Y-33026089D01*
X-40644500Y-30473132D01*
X-40340700Y-30473132D01*
X-40340700Y-30680067D01*
X-40300331Y-30883018D01*
X-40221142Y-31074197D01*
X-40221141Y-31074198D01*
X-40106177Y-31246255D01*
X-39959855Y-31392577D01*
X-39787798Y-31507541D01*
X-39596620Y-31586730D01*
X-39393665Y-31627100D01*
X-39393664Y-31627100D01*
X-39186736Y-31627100D01*
X-39186735Y-31627100D01*
X-38983780Y-31586730D01*
X-38792602Y-31507541D01*
X-38620545Y-31392577D01*
X-38474223Y-31246255D01*
X-38359259Y-31074198D01*
X-38280070Y-30883020D01*
X-38239700Y-30680065D01*
X-38239700Y-30473135D01*
X-38280070Y-30270180D01*
X-38359259Y-30079002D01*
X-38474223Y-29906945D01*
X-38620545Y-29760623D01*
X-38792602Y-29645659D01*
X-38792601Y-29645659D01*
X-38792603Y-29645658D01*
X-38983782Y-29566469D01*
X-39186733Y-29526100D01*
X-39186735Y-29526100D01*
X-39393665Y-29526100D01*
X-39393668Y-29526100D01*
X-39596619Y-29566469D01*
X-39787798Y-29645658D01*
X-39959852Y-29760620D01*
X-40106180Y-29906948D01*
X-40221142Y-30079002D01*
X-40300331Y-30270181D01*
X-40340700Y-30473132D01*
X-40644500Y-30473132D01*
X-40644500Y-27933132D01*
X-40340700Y-27933132D01*
X-40340700Y-28140067D01*
X-40300331Y-28343018D01*
X-40221142Y-28534197D01*
X-40221141Y-28534198D01*
X-40106177Y-28706255D01*
X-39959855Y-28852577D01*
X-39787798Y-28967541D01*
X-39596620Y-29046730D01*
X-39393665Y-29087100D01*
X-39393664Y-29087100D01*
X-39186736Y-29087100D01*
X-39186735Y-29087100D01*
X-38983780Y-29046730D01*
X-38792602Y-28967541D01*
X-38620545Y-28852577D01*
X-38474223Y-28706255D01*
X-38359259Y-28534198D01*
X-38280070Y-28343020D01*
X-38239700Y-28140065D01*
X-38239700Y-27933135D01*
X-38280070Y-27730180D01*
X-38359259Y-27539002D01*
X-38474223Y-27366945D01*
X-38620545Y-27220623D01*
X-38792602Y-27105659D01*
X-38792601Y-27105659D01*
X-38792603Y-27105658D01*
X-38983782Y-27026469D01*
X-39186733Y-26986100D01*
X-39186735Y-26986100D01*
X-39393665Y-26986100D01*
X-39393668Y-26986100D01*
X-39596619Y-27026469D01*
X-39787798Y-27105658D01*
X-39959852Y-27220620D01*
X-40106180Y-27366948D01*
X-40221142Y-27539002D01*
X-40300331Y-27730181D01*
X-40340700Y-27933132D01*
X-40644500Y-27933132D01*
X-40644500Y-25393132D01*
X-40340700Y-25393132D01*
X-40340700Y-25600067D01*
X-40300331Y-25803018D01*
X-40221142Y-25994197D01*
X-40221141Y-25994198D01*
X-40106177Y-26166255D01*
X-39959855Y-26312577D01*
X-39787798Y-26427541D01*
X-39596620Y-26506730D01*
X-39393665Y-26547100D01*
X-39393664Y-26547100D01*
X-39186736Y-26547100D01*
X-39186735Y-26547100D01*
X-38983780Y-26506730D01*
X-38792602Y-26427541D01*
X-38620545Y-26312577D01*
X-38474223Y-26166255D01*
X-38359259Y-25994198D01*
X-38280070Y-25803020D01*
X-38239700Y-25600065D01*
X-38239700Y-25393135D01*
X-38280070Y-25190180D01*
X-38359259Y-24999002D01*
X-38474223Y-24826945D01*
X-38620545Y-24680623D01*
X-38792602Y-24565659D01*
X-38792601Y-24565659D01*
X-38792603Y-24565658D01*
X-38905046Y-24519083D01*
X-38983782Y-24486469D01*
X-39186733Y-24446100D01*
X-39186735Y-24446100D01*
X-39393665Y-24446100D01*
X-39393668Y-24446100D01*
X-39596619Y-24486469D01*
X-39787798Y-24565658D01*
X-39959852Y-24680620D01*
X-40106180Y-24826948D01*
X-40221142Y-24999002D01*
X-40300331Y-25190181D01*
X-40340700Y-25393132D01*
X-40644500Y-25393132D01*
X-40644500Y-24434108D01*
X-33900500Y-24434108D01*
X-33900500Y-24565892D01*
X-33870421Y-24678151D01*
X-33866391Y-24693190D01*
X-33800504Y-24807309D01*
X-33800502Y-24807311D01*
X-33800500Y-24807314D01*
X-33707314Y-24900500D01*
X-33707312Y-24900501D01*
X-33707310Y-24900503D01*
X-33593190Y-24966390D01*
X-33593192Y-24966390D01*
X-33593188Y-24966391D01*
X-33593186Y-24966392D01*
X-33465892Y-25000500D01*
X-33465890Y-25000500D01*
X-33334110Y-25000500D01*
X-33334108Y-25000500D01*
X-33206814Y-24966392D01*
X-33206812Y-24966390D01*
X-33206810Y-24966390D01*
X-33092691Y-24900503D01*
X-33092691Y-24900502D01*
X-33092686Y-24900500D01*
X-32999500Y-24807314D01*
X-32933608Y-24693186D01*
X-32899500Y-24565892D01*
X-32899500Y-24434108D01*
X-32933608Y-24306814D01*
X-32933610Y-24306811D01*
X-32933610Y-24306809D01*
X-32999497Y-24192690D01*
X-32999499Y-24192688D01*
X-32999500Y-24192686D01*
X-33092686Y-24099500D01*
X-33092689Y-24099498D01*
X-33092691Y-24099496D01*
X-33206811Y-24033609D01*
X-33206809Y-24033609D01*
X-33256201Y-24020375D01*
X-33334108Y-23999500D01*
X-33465892Y-23999500D01*
X-33543800Y-24020375D01*
X-33593191Y-24033609D01*
X-33707310Y-24099496D01*
X-33800504Y-24192690D01*
X-33866391Y-24306809D01*
X-33876812Y-24345703D01*
X-33900500Y-24434108D01*
X-40644500Y-24434108D01*
X-40644500Y-22853132D01*
X-40340700Y-22853132D01*
X-40340700Y-23060067D01*
X-40300331Y-23263018D01*
X-40221142Y-23454197D01*
X-40204697Y-23478809D01*
X-40106177Y-23626255D01*
X-39959855Y-23772577D01*
X-39787798Y-23887541D01*
X-39596620Y-23966730D01*
X-39393665Y-24007100D01*
X-39393664Y-24007100D01*
X-39186736Y-24007100D01*
X-39186735Y-24007100D01*
X-38983780Y-23966730D01*
X-38792602Y-23887541D01*
X-38780280Y-23879308D01*
X-3618100Y-23879308D01*
X-3618100Y-24011092D01*
X-3594412Y-24099496D01*
X-3583991Y-24138390D01*
X-3518104Y-24252509D01*
X-3518102Y-24252511D01*
X-3518100Y-24252514D01*
X-3424914Y-24345700D01*
X-3424912Y-24345701D01*
X-3424910Y-24345703D01*
X-3310790Y-24411590D01*
X-3310792Y-24411590D01*
X-3310788Y-24411591D01*
X-3310786Y-24411592D01*
X-3183492Y-24445700D01*
X-3183490Y-24445700D01*
X-3051710Y-24445700D01*
X-3051708Y-24445700D01*
X-2924414Y-24411592D01*
X-2924412Y-24411590D01*
X-2924410Y-24411590D01*
X-2810291Y-24345703D01*
X-2810291Y-24345702D01*
X-2810286Y-24345700D01*
X-2717100Y-24252514D01*
X-2717097Y-24252509D01*
X-2651210Y-24138390D01*
X-2651210Y-24138388D01*
X-2651208Y-24138386D01*
X-2617100Y-24011092D01*
X-2617100Y-23879308D01*
X5461500Y-23879308D01*
X5461500Y-24011092D01*
X5485188Y-24099496D01*
X5495609Y-24138390D01*
X5561496Y-24252509D01*
X5561498Y-24252511D01*
X5561500Y-24252514D01*
X5654686Y-24345700D01*
X5654688Y-24345701D01*
X5654690Y-24345703D01*
X5768810Y-24411590D01*
X5768808Y-24411590D01*
X5768812Y-24411591D01*
X5768814Y-24411592D01*
X5896108Y-24445700D01*
X5896110Y-24445700D01*
X6027890Y-24445700D01*
X6027892Y-24445700D01*
X6155186Y-24411592D01*
X6155188Y-24411590D01*
X6155190Y-24411590D01*
X6269309Y-24345703D01*
X6269309Y-24345702D01*
X6269314Y-24345700D01*
X6362500Y-24252514D01*
X6362503Y-24252509D01*
X6428390Y-24138390D01*
X6428390Y-24138388D01*
X6428392Y-24138386D01*
X6462500Y-24011092D01*
X6462500Y-23879308D01*
X6428392Y-23752014D01*
X6428390Y-23752011D01*
X6428390Y-23752009D01*
X6362503Y-23637890D01*
X6362501Y-23637888D01*
X6362500Y-23637886D01*
X6269314Y-23544700D01*
X6269311Y-23544698D01*
X6269309Y-23544696D01*
X6155189Y-23478809D01*
X6155191Y-23478809D01*
X6105799Y-23465575D01*
X6027892Y-23444700D01*
X5896108Y-23444700D01*
X5818200Y-23465575D01*
X5768809Y-23478809D01*
X5654690Y-23544696D01*
X5561496Y-23637890D01*
X5495609Y-23752009D01*
X5485295Y-23790503D01*
X5461500Y-23879308D01*
X-2617100Y-23879308D01*
X-2651208Y-23752014D01*
X-2651210Y-23752011D01*
X-2651210Y-23752009D01*
X-2717097Y-23637890D01*
X-2717099Y-23637888D01*
X-2717100Y-23637886D01*
X-2810286Y-23544700D01*
X-2810289Y-23544698D01*
X-2810291Y-23544696D01*
X-2924411Y-23478809D01*
X-2924409Y-23478809D01*
X-2973801Y-23465575D01*
X-3051708Y-23444700D01*
X-3183492Y-23444700D01*
X-3261400Y-23465575D01*
X-3310791Y-23478809D01*
X-3424910Y-23544696D01*
X-3518104Y-23637890D01*
X-3583991Y-23752009D01*
X-3594305Y-23790503D01*
X-3618100Y-23879308D01*
X-38780280Y-23879308D01*
X-38620545Y-23772577D01*
X-38474223Y-23626255D01*
X-38359259Y-23454198D01*
X-38280070Y-23263020D01*
X-38239700Y-23060065D01*
X-38239700Y-22853135D01*
X-38280070Y-22650180D01*
X-38359259Y-22459002D01*
X-38474223Y-22286945D01*
X-38620545Y-22140623D01*
X-38695148Y-22090775D01*
X-38792603Y-22025658D01*
X-38983782Y-21946469D01*
X-39186733Y-21906100D01*
X-39186735Y-21906100D01*
X-39393665Y-21906100D01*
X-39393668Y-21906100D01*
X-39596619Y-21946469D01*
X-39787798Y-22025658D01*
X-39959852Y-22140620D01*
X-40106180Y-22286948D01*
X-40221142Y-22459002D01*
X-40300331Y-22650181D01*
X-40340700Y-22853132D01*
X-40644500Y-22853132D01*
X-40644500Y-20313132D01*
X-40340700Y-20313132D01*
X-40340700Y-20520067D01*
X-40300331Y-20723018D01*
X-40221142Y-20914197D01*
X-40106780Y-21085353D01*
X-40106177Y-21086255D01*
X-39959855Y-21232577D01*
X-39787798Y-21347541D01*
X-39596620Y-21426730D01*
X-39393665Y-21467100D01*
X-39393664Y-21467100D01*
X-39186736Y-21467100D01*
X-39186735Y-21467100D01*
X-38983780Y-21426730D01*
X-38792602Y-21347541D01*
X-38620545Y-21232577D01*
X-38474223Y-21086255D01*
X-38359259Y-20914198D01*
X-38280070Y-20723020D01*
X-38239700Y-20520065D01*
X-38239700Y-20313135D01*
X-38240631Y-20308453D01*
X10005300Y-20308453D01*
X10005300Y-22047946D01*
X10005301Y-22047958D01*
X10016932Y-22106427D01*
X10016934Y-22106433D01*
X10061245Y-22172748D01*
X10061248Y-22172752D01*
X10127569Y-22217067D01*
X10172031Y-22225911D01*
X10186041Y-22228698D01*
X10186046Y-22228698D01*
X10186052Y-22228700D01*
X10186053Y-22228700D01*
X11925547Y-22228700D01*
X11925548Y-22228700D01*
X11984031Y-22217067D01*
X12050352Y-22172752D01*
X12094667Y-22106431D01*
X12101339Y-22072884D01*
X12106299Y-22047956D01*
X12106300Y-22047948D01*
X12106300Y-21087689D01*
X12445800Y-21087689D01*
X12445800Y-21268710D01*
X12474116Y-21447489D01*
X12530050Y-21619640D01*
X12612230Y-21780928D01*
X12683224Y-21878642D01*
X13152128Y-21409736D01*
X13195701Y-21485207D01*
X13288793Y-21578299D01*
X13364260Y-21621870D01*
X12895356Y-22090774D01*
X12895356Y-22090775D01*
X12993063Y-22161764D01*
X12993069Y-22161768D01*
X13154359Y-22243949D01*
X13326510Y-22299883D01*
X13505290Y-22328200D01*
X13686310Y-22328200D01*
X13865089Y-22299883D01*
X14037240Y-22243949D01*
X14198530Y-22161768D01*
X14198535Y-22161764D01*
X14296242Y-22090775D01*
X14296242Y-22090774D01*
X13827338Y-21621870D01*
X13902807Y-21578299D01*
X13995899Y-21485207D01*
X14039470Y-21409738D01*
X14508374Y-21878642D01*
X14508375Y-21878642D01*
X14579364Y-21780935D01*
X14579368Y-21780930D01*
X14661549Y-21619640D01*
X14717483Y-21447489D01*
X14745800Y-21268710D01*
X14745800Y-21087689D01*
X14745430Y-21085353D01*
X14745430Y-21085352D01*
X14743748Y-21074732D01*
X15085300Y-21074732D01*
X15085300Y-21281667D01*
X15125669Y-21484618D01*
X15204858Y-21675797D01*
X15319820Y-21847851D01*
X15319823Y-21847855D01*
X15466145Y-21994177D01*
X15638202Y-22109141D01*
X15829380Y-22188330D01*
X16032335Y-22228700D01*
X16032336Y-22228700D01*
X16239264Y-22228700D01*
X16239265Y-22228700D01*
X16442220Y-22188330D01*
X16633398Y-22109141D01*
X16805455Y-21994177D01*
X16951777Y-21847855D01*
X17066741Y-21675798D01*
X17145930Y-21484620D01*
X17186300Y-21281665D01*
X17186300Y-21074735D01*
X17145930Y-20871780D01*
X17066741Y-20680602D01*
X16951777Y-20508545D01*
X16805455Y-20362223D01*
X16731991Y-20313136D01*
X16633397Y-20247258D01*
X16442218Y-20168069D01*
X16239267Y-20127700D01*
X16239265Y-20127700D01*
X16032335Y-20127700D01*
X16032332Y-20127700D01*
X15829381Y-20168069D01*
X15638202Y-20247258D01*
X15466148Y-20362220D01*
X15319820Y-20508548D01*
X15204858Y-20680602D01*
X15125669Y-20871781D01*
X15085300Y-21074732D01*
X14743748Y-21074732D01*
X14717483Y-20908910D01*
X14661549Y-20736759D01*
X14579368Y-20575469D01*
X14579364Y-20575463D01*
X14508375Y-20477756D01*
X14508374Y-20477756D01*
X14039470Y-20946660D01*
X13995899Y-20871193D01*
X13902807Y-20778101D01*
X13827336Y-20734528D01*
X14296242Y-20265624D01*
X14198528Y-20194630D01*
X14037240Y-20112450D01*
X13865089Y-20056516D01*
X13686310Y-20028200D01*
X13505290Y-20028200D01*
X13326510Y-20056516D01*
X13154359Y-20112450D01*
X12993069Y-20194631D01*
X12993065Y-20194633D01*
X12895356Y-20265623D01*
X13364261Y-20734528D01*
X13288793Y-20778101D01*
X13195701Y-20871193D01*
X13152128Y-20946661D01*
X12683223Y-20477756D01*
X12612233Y-20575465D01*
X12612231Y-20575469D01*
X12530050Y-20736759D01*
X12474116Y-20908910D01*
X12445800Y-21087689D01*
X12106300Y-21087689D01*
X12106300Y-20308452D01*
X12106299Y-20308442D01*
X12097781Y-20265623D01*
X12094667Y-20249969D01*
X12050352Y-20183648D01*
X12050348Y-20183645D01*
X11984033Y-20139334D01*
X11984031Y-20139333D01*
X11984028Y-20139332D01*
X11984027Y-20139332D01*
X11925558Y-20127701D01*
X11925548Y-20127700D01*
X10186052Y-20127700D01*
X10186051Y-20127700D01*
X10186041Y-20127701D01*
X10127572Y-20139332D01*
X10127566Y-20139334D01*
X10061251Y-20183645D01*
X10061245Y-20183651D01*
X10016934Y-20249966D01*
X10016932Y-20249972D01*
X10005301Y-20308441D01*
X10005300Y-20308453D01*
X-38240631Y-20308453D01*
X-38280070Y-20110180D01*
X-38359259Y-19919002D01*
X-38474223Y-19746945D01*
X-38620545Y-19600623D01*
X-38620549Y-19600620D01*
X-38792603Y-19485658D01*
X-38983782Y-19406469D01*
X-39186733Y-19366100D01*
X-39186735Y-19366100D01*
X-39393665Y-19366100D01*
X-39393668Y-19366100D01*
X-39596619Y-19406469D01*
X-39787798Y-19485658D01*
X-39959852Y-19600620D01*
X-40106180Y-19746948D01*
X-40221142Y-19919002D01*
X-40300331Y-20110181D01*
X-40340700Y-20313132D01*
X-40644500Y-20313132D01*
X-40644500Y-19164508D01*
X10548300Y-19164508D01*
X10548300Y-19296292D01*
X10550469Y-19304386D01*
X10582409Y-19423590D01*
X10648296Y-19537709D01*
X10648298Y-19537711D01*
X10648300Y-19537714D01*
X10741486Y-19630900D01*
X10741488Y-19630901D01*
X10741490Y-19630903D01*
X10855610Y-19696790D01*
X10855608Y-19696790D01*
X10855612Y-19696791D01*
X10855614Y-19696792D01*
X10982908Y-19730900D01*
X10982910Y-19730900D01*
X11114690Y-19730900D01*
X11114692Y-19730900D01*
X11241986Y-19696792D01*
X11241988Y-19696790D01*
X11241990Y-19696790D01*
X11356109Y-19630903D01*
X11356109Y-19630902D01*
X11356114Y-19630900D01*
X11449300Y-19537714D01*
X11449303Y-19537709D01*
X11515190Y-19423590D01*
X11515190Y-19423588D01*
X11515192Y-19423586D01*
X11549300Y-19296292D01*
X11549300Y-19164508D01*
X11517361Y-19045308D01*
X15642300Y-19045308D01*
X15642300Y-19177092D01*
X15672379Y-19289351D01*
X15676409Y-19304390D01*
X15742296Y-19418509D01*
X15742298Y-19418511D01*
X15742300Y-19418514D01*
X15835486Y-19511700D01*
X15835488Y-19511701D01*
X15835490Y-19511703D01*
X15949610Y-19577590D01*
X15949608Y-19577590D01*
X15949612Y-19577591D01*
X15949614Y-19577592D01*
X16076908Y-19611700D01*
X16076910Y-19611700D01*
X16208690Y-19611700D01*
X16208692Y-19611700D01*
X16335986Y-19577592D01*
X16335988Y-19577590D01*
X16335990Y-19577590D01*
X16450109Y-19511703D01*
X16450109Y-19511702D01*
X16450114Y-19511700D01*
X16543300Y-19418514D01*
X16550254Y-19406469D01*
X16609190Y-19304390D01*
X16609190Y-19304388D01*
X16609192Y-19304386D01*
X16643300Y-19177092D01*
X16643300Y-19045308D01*
X16609192Y-18918014D01*
X16609190Y-18918011D01*
X16609190Y-18918009D01*
X16543303Y-18803890D01*
X16543301Y-18803888D01*
X16543300Y-18803886D01*
X16450114Y-18710700D01*
X16450111Y-18710698D01*
X16450109Y-18710696D01*
X16335989Y-18644809D01*
X16335991Y-18644809D01*
X16286599Y-18631575D01*
X16208692Y-18610700D01*
X16076908Y-18610700D01*
X15999000Y-18631575D01*
X15949609Y-18644809D01*
X15835490Y-18710696D01*
X15742296Y-18803890D01*
X15676409Y-18918009D01*
X15673973Y-18927100D01*
X15642300Y-19045308D01*
X11517361Y-19045308D01*
X11515192Y-19037214D01*
X11515189Y-19037209D01*
X11449303Y-18923090D01*
X11449301Y-18923088D01*
X11449300Y-18923086D01*
X11356114Y-18829900D01*
X11356111Y-18829898D01*
X11356109Y-18829896D01*
X11241989Y-18764009D01*
X11241991Y-18764009D01*
X11192599Y-18750775D01*
X11114692Y-18729900D01*
X10982908Y-18729900D01*
X10905000Y-18750775D01*
X10855609Y-18764009D01*
X10741490Y-18829896D01*
X10648296Y-18923090D01*
X10582409Y-19037209D01*
X10575112Y-19064442D01*
X10548300Y-19164508D01*
X-40644500Y-19164508D01*
X-40644500Y-17773132D01*
X-40340700Y-17773132D01*
X-40340700Y-17980067D01*
X-40300331Y-18183018D01*
X-40221142Y-18374197D01*
X-40221141Y-18374198D01*
X-40106177Y-18546255D01*
X-39959855Y-18692577D01*
X-39787798Y-18807541D01*
X-39596620Y-18886730D01*
X-39393665Y-18927100D01*
X-39393664Y-18927100D01*
X-39186736Y-18927100D01*
X-39186735Y-18927100D01*
X-38983780Y-18886730D01*
X-38792602Y-18807541D01*
X-38620545Y-18692577D01*
X-38474223Y-18546255D01*
X-38359259Y-18374198D01*
X-38280070Y-18183020D01*
X-38239700Y-17980065D01*
X-38239700Y-17773135D01*
X-38280070Y-17570180D01*
X-38359259Y-17379002D01*
X-38474223Y-17206945D01*
X-38620545Y-17060623D01*
X-38792602Y-16945659D01*
X-38792601Y-16945659D01*
X-38792603Y-16945658D01*
X-38983782Y-16866469D01*
X-39186733Y-16826100D01*
X-39186735Y-16826100D01*
X-39393665Y-16826100D01*
X-39393668Y-16826100D01*
X-39596619Y-16866469D01*
X-39787798Y-16945658D01*
X-39959852Y-17060620D01*
X-40106180Y-17206948D01*
X-40221142Y-17379002D01*
X-40300331Y-17570181D01*
X-40340700Y-17773132D01*
X-40644500Y-17773132D01*
X-40644500Y-15554908D01*
X3791900Y-15554908D01*
X3791900Y-15686692D01*
X3821979Y-15798951D01*
X3826009Y-15813990D01*
X3891896Y-15928109D01*
X3891898Y-15928111D01*
X3891900Y-15928114D01*
X3985086Y-16021300D01*
X3985088Y-16021301D01*
X3985090Y-16021303D01*
X4099210Y-16087190D01*
X4099208Y-16087190D01*
X4099212Y-16087191D01*
X4099214Y-16087192D01*
X4226508Y-16121300D01*
X4226510Y-16121300D01*
X4358290Y-16121300D01*
X4358292Y-16121300D01*
X4485586Y-16087192D01*
X4485588Y-16087190D01*
X4485590Y-16087190D01*
X4599709Y-16021303D01*
X4599709Y-16021302D01*
X4599714Y-16021300D01*
X4692900Y-15928114D01*
X4758792Y-15813986D01*
X4792900Y-15686692D01*
X4792900Y-15607330D01*
X4811807Y-15549139D01*
X4861307Y-15513175D01*
X4866277Y-15511703D01*
X4866288Y-15511700D01*
X4866292Y-15511700D01*
X4993586Y-15477592D01*
X4993588Y-15477590D01*
X4993590Y-15477590D01*
X5107709Y-15411703D01*
X5107709Y-15411702D01*
X5107714Y-15411700D01*
X5200900Y-15318514D01*
X5257604Y-15220300D01*
X5266790Y-15204390D01*
X5266790Y-15204388D01*
X5266792Y-15204386D01*
X5300900Y-15077092D01*
X5300900Y-14945308D01*
X5266792Y-14818014D01*
X5266790Y-14818011D01*
X5266790Y-14818009D01*
X5200903Y-14703890D01*
X5200901Y-14703888D01*
X5200900Y-14703886D01*
X5107714Y-14610700D01*
X5107711Y-14610698D01*
X5107709Y-14610696D01*
X4993589Y-14544809D01*
X4993591Y-14544809D01*
X4944199Y-14531575D01*
X4866292Y-14510700D01*
X4734508Y-14510700D01*
X4656600Y-14531575D01*
X4607209Y-14544809D01*
X4493090Y-14610696D01*
X4399896Y-14703890D01*
X4334009Y-14818009D01*
X4299900Y-14945309D01*
X4299900Y-15024669D01*
X4280993Y-15082860D01*
X4231493Y-15118824D01*
X4226523Y-15120296D01*
X4099209Y-15154409D01*
X3985090Y-15220296D01*
X3891896Y-15313490D01*
X3826009Y-15427609D01*
X3806939Y-15498778D01*
X3791900Y-15554908D01*
X-40644500Y-15554908D01*
X-40644500Y-14132508D01*
X-9517700Y-14132508D01*
X-9517700Y-14264292D01*
X-9487621Y-14376551D01*
X-9483591Y-14391590D01*
X-9417704Y-14505709D01*
X-9417702Y-14505711D01*
X-9417700Y-14505714D01*
X-9324514Y-14598900D01*
X-9324512Y-14598901D01*
X-9324510Y-14598903D01*
X-9210390Y-14664790D01*
X-9210392Y-14664790D01*
X-9210388Y-14664791D01*
X-9210386Y-14664792D01*
X-9083092Y-14698900D01*
X-9083090Y-14698900D01*
X-8951310Y-14698900D01*
X-8951308Y-14698900D01*
X-8824014Y-14664792D01*
X-8824012Y-14664790D01*
X-8824010Y-14664790D01*
X-8709891Y-14598903D01*
X-8709891Y-14598902D01*
X-8709886Y-14598900D01*
X-8616700Y-14505714D01*
X-8550808Y-14391586D01*
X-8516700Y-14264292D01*
X-8516700Y-14132508D01*
X-8550808Y-14005214D01*
X-8550810Y-14005211D01*
X-8550810Y-14005209D01*
X-8616697Y-13891090D01*
X-8616699Y-13891088D01*
X-8616700Y-13891086D01*
X-8709886Y-13797900D01*
X-8709889Y-13797898D01*
X-8709891Y-13797896D01*
X-8824011Y-13732009D01*
X-8824009Y-13732009D01*
X-8873401Y-13718775D01*
X-8951308Y-13697900D01*
X-9083092Y-13697900D01*
X-9161000Y-13718775D01*
X-9210391Y-13732009D01*
X-9324510Y-13797896D01*
X-9417704Y-13891090D01*
X-9483591Y-14005209D01*
X-9483592Y-14005214D01*
X-9517700Y-14132508D01*
X-40644500Y-14132508D01*
X-40644500Y-11990039D01*
X-32590500Y-11990039D01*
X-32590500Y-12218360D01*
X-32554786Y-12443855D01*
X-32484231Y-12660999D01*
X-32380580Y-12864427D01*
X-32380576Y-12864433D01*
X-32246384Y-13049131D01*
X-32246382Y-13049133D01*
X-32246379Y-13049137D01*
X-32084937Y-13210579D01*
X-32084934Y-13210581D01*
X-32084932Y-13210583D01*
X-32079327Y-13214655D01*
X-31900228Y-13344779D01*
X-31696799Y-13448431D01*
X-31479660Y-13518984D01*
X-31479659Y-13518984D01*
X-31479656Y-13518985D01*
X-31254160Y-13554700D01*
X-31254157Y-13554700D01*
X-31025840Y-13554700D01*
X-30800345Y-13518985D01*
X-30800344Y-13518984D01*
X-30800340Y-13518984D01*
X-30583201Y-13448431D01*
X-30379772Y-13344779D01*
X-30195063Y-13210579D01*
X-30033621Y-13049137D01*
X-29899421Y-12864428D01*
X-29795769Y-12660999D01*
X-29725216Y-12443860D01*
X-29721624Y-12421184D01*
X-29689500Y-12218360D01*
X-29689500Y-11990039D01*
X-29725215Y-11764544D01*
X-29725216Y-11764540D01*
X-29795769Y-11547401D01*
X-29899421Y-11343972D01*
X-29899425Y-11343966D01*
X-30033617Y-11159268D01*
X-30033619Y-11159266D01*
X-30033621Y-11159263D01*
X-30195063Y-10997821D01*
X-30195067Y-10997818D01*
X-30195069Y-10997816D01*
X-30379767Y-10863624D01*
X-30379773Y-10863620D01*
X-30583201Y-10759969D01*
X-30800345Y-10689414D01*
X-31025840Y-10653700D01*
X-31025843Y-10653700D01*
X-31254157Y-10653700D01*
X-31254160Y-10653700D01*
X-31479656Y-10689414D01*
X-31696800Y-10759969D01*
X-31900228Y-10863620D01*
X-31900234Y-10863624D01*
X-32084932Y-10997816D01*
X-32246384Y-11159268D01*
X-32380576Y-11343966D01*
X-32380580Y-11343972D01*
X-32484231Y-11547400D01*
X-32554786Y-11764544D01*
X-32590500Y-11990039D01*
X-40644500Y-11990039D01*
X-40644500Y-7227434D01*
X-34017200Y-7227434D01*
X-34017200Y-7496165D01*
X-33982125Y-7762585D01*
X-33982125Y-7762590D01*
X-33912573Y-8022164D01*
X-33809737Y-8270432D01*
X-33675368Y-8503166D01*
X-33521381Y-8703845D01*
X-32879778Y-8062241D01*
X-32844371Y-8110975D01*
X-32716375Y-8238971D01*
X-32667645Y-8274375D01*
X-33309248Y-8915979D01*
X-33108567Y-9069967D01*
X-32875833Y-9204336D01*
X-32627565Y-9307172D01*
X-32367989Y-9376724D01*
X-32101566Y-9411799D01*
X-32101563Y-9411800D01*
X-31832837Y-9411800D01*
X-31832835Y-9411799D01*
X-31566415Y-9376724D01*
X-31566410Y-9376724D01*
X-31306836Y-9307172D01*
X-31058568Y-9204336D01*
X-30825839Y-9069970D01*
X-30677316Y-8956004D01*
X-15175500Y-8956004D01*
X-15175500Y-9093995D01*
X-15148580Y-9229327D01*
X-15148580Y-9229329D01*
X-15095778Y-9356806D01*
X-15095772Y-9356817D01*
X-15031889Y-9452423D01*
X-15019114Y-9471542D01*
X-14921542Y-9569114D01*
X-14908714Y-9577685D01*
X-14870835Y-9625735D01*
X-14868433Y-9686873D01*
X-14902426Y-9737747D01*
X-14908707Y-9742309D01*
X-14921542Y-9750886D01*
X-14921546Y-9750889D01*
X-15019115Y-9848458D01*
X-15095772Y-9963182D01*
X-15095778Y-9963193D01*
X-15148580Y-10090670D01*
X-15148580Y-10090672D01*
X-15175500Y-10226004D01*
X-15175500Y-10363995D01*
X-15148580Y-10499327D01*
X-15148580Y-10499329D01*
X-15095778Y-10626806D01*
X-15095772Y-10626817D01*
X-15019115Y-10741541D01*
X-15019114Y-10741542D01*
X-14921542Y-10839114D01*
X-14908714Y-10847685D01*
X-14870835Y-10895735D01*
X-14868433Y-10956873D01*
X-14902426Y-11007747D01*
X-14908707Y-11012309D01*
X-14920527Y-11020208D01*
X-14921542Y-11020886D01*
X-14921546Y-11020889D01*
X-15019115Y-11118458D01*
X-15095772Y-11233182D01*
X-15095778Y-11233193D01*
X-15148580Y-11360670D01*
X-15148580Y-11360672D01*
X-15175500Y-11496004D01*
X-15175500Y-11496007D01*
X-15175500Y-11633993D01*
X-15149530Y-11764554D01*
X-15148580Y-11769327D01*
X-15148580Y-11769329D01*
X-15095778Y-11896806D01*
X-15095772Y-11896817D01*
X-15019115Y-12011541D01*
X-14921542Y-12109114D01*
X-14806818Y-12185771D01*
X-14806807Y-12185777D01*
X-14759717Y-12205282D01*
X-14679328Y-12238580D01*
X-14543993Y-12265500D01*
X-14543992Y-12265500D01*
X-14406008Y-12265500D01*
X-14406007Y-12265500D01*
X-14270672Y-12238580D01*
X-14143189Y-12185775D01*
X-14121690Y-12171410D01*
X-14114853Y-12166842D01*
X-14055965Y-12150233D01*
X-13998561Y-12171410D01*
X-13969286Y-12209169D01*
X-13956787Y-12237477D01*
X-13877478Y-12316786D01*
X-13774873Y-12362090D01*
X-13749797Y-12364999D01*
X-13355002Y-12364999D01*
X-13355000Y-12364998D01*
X-13355000Y-11853674D01*
X-13330445Y-11867851D01*
X-13247787Y-11890000D01*
X-13162213Y-11890000D01*
X-13079555Y-11867851D01*
X-13055000Y-11853674D01*
X-13055000Y-12364998D01*
X-13054999Y-12364999D01*
X-12660210Y-12364999D01*
X-12660209Y-12364998D01*
X-12635126Y-12362090D01*
X-12532523Y-12316786D01*
X-12453214Y-12237477D01*
X-12407910Y-12134872D01*
X-12405001Y-12109797D01*
X-12405000Y-12109795D01*
X-12405000Y-11990039D01*
X5509500Y-11990039D01*
X5509500Y-12218360D01*
X5545214Y-12443855D01*
X5615769Y-12660999D01*
X5719420Y-12864427D01*
X5719424Y-12864433D01*
X5853616Y-13049131D01*
X5853618Y-13049133D01*
X5853621Y-13049137D01*
X6015063Y-13210579D01*
X6015066Y-13210581D01*
X6015068Y-13210583D01*
X6020673Y-13214655D01*
X6199772Y-13344779D01*
X6403201Y-13448431D01*
X6620340Y-13518984D01*
X6620341Y-13518984D01*
X6620344Y-13518985D01*
X6845840Y-13554700D01*
X6845843Y-13554700D01*
X7074160Y-13554700D01*
X7299655Y-13518985D01*
X7299656Y-13518984D01*
X7299660Y-13518984D01*
X7516799Y-13448431D01*
X7720228Y-13344779D01*
X7904937Y-13210579D01*
X8066379Y-13049137D01*
X8200579Y-12864428D01*
X8304231Y-12660999D01*
X8374784Y-12443860D01*
X8375153Y-12441532D01*
X13514500Y-12441532D01*
X13514500Y-12648467D01*
X13554869Y-12851418D01*
X13634058Y-13042597D01*
X13746302Y-13210583D01*
X13749023Y-13214655D01*
X13895345Y-13360977D01*
X14067402Y-13475941D01*
X14258580Y-13555130D01*
X14461535Y-13595500D01*
X14461536Y-13595500D01*
X14668464Y-13595500D01*
X14668465Y-13595500D01*
X14871420Y-13555130D01*
X15062598Y-13475941D01*
X15234655Y-13360977D01*
X15380977Y-13214655D01*
X15495941Y-13042598D01*
X15575130Y-12851420D01*
X15615500Y-12648465D01*
X15615500Y-12441535D01*
X15615499Y-12441532D01*
X16054500Y-12441532D01*
X16054500Y-12648467D01*
X16094869Y-12851418D01*
X16174058Y-13042597D01*
X16286302Y-13210583D01*
X16289023Y-13214655D01*
X16435345Y-13360977D01*
X16607402Y-13475941D01*
X16798580Y-13555130D01*
X17001535Y-13595500D01*
X17001536Y-13595500D01*
X17208464Y-13595500D01*
X17208465Y-13595500D01*
X17411420Y-13555130D01*
X17602598Y-13475941D01*
X17774655Y-13360977D01*
X17920977Y-13214655D01*
X18035941Y-13042598D01*
X18115130Y-12851420D01*
X18155500Y-12648465D01*
X18155500Y-12441535D01*
X18115130Y-12238580D01*
X18035941Y-12047402D01*
X17920977Y-11875345D01*
X17774655Y-11729023D01*
X17774651Y-11729020D01*
X17602597Y-11614058D01*
X17411418Y-11534869D01*
X17208467Y-11494500D01*
X17208465Y-11494500D01*
X17001535Y-11494500D01*
X17001532Y-11494500D01*
X16798581Y-11534869D01*
X16607402Y-11614058D01*
X16435348Y-11729020D01*
X16289020Y-11875348D01*
X16174058Y-12047402D01*
X16094869Y-12238581D01*
X16054500Y-12441532D01*
X15615499Y-12441532D01*
X15575130Y-12238580D01*
X15495941Y-12047402D01*
X15380977Y-11875345D01*
X15234655Y-11729023D01*
X15234651Y-11729020D01*
X15062597Y-11614058D01*
X14871418Y-11534869D01*
X14668467Y-11494500D01*
X14668465Y-11494500D01*
X14461535Y-11494500D01*
X14461532Y-11494500D01*
X14258581Y-11534869D01*
X14067402Y-11614058D01*
X13895348Y-11729020D01*
X13749020Y-11875348D01*
X13634058Y-12047402D01*
X13554869Y-12238581D01*
X13514500Y-12441532D01*
X8375153Y-12441532D01*
X8387275Y-12364999D01*
X8410500Y-12218360D01*
X8410500Y-11990039D01*
X8374785Y-11764544D01*
X8374784Y-11764540D01*
X8304231Y-11547401D01*
X8200579Y-11343972D01*
X8200575Y-11343966D01*
X8066383Y-11159268D01*
X8066381Y-11159266D01*
X8066379Y-11159263D01*
X7904937Y-10997821D01*
X7904933Y-10997818D01*
X7904931Y-10997816D01*
X7720233Y-10863624D01*
X7720227Y-10863620D01*
X7516799Y-10759969D01*
X7299655Y-10689414D01*
X7074160Y-10653700D01*
X7074157Y-10653700D01*
X6845843Y-10653700D01*
X6845840Y-10653700D01*
X6620344Y-10689414D01*
X6403200Y-10759969D01*
X6199772Y-10863620D01*
X6199766Y-10863624D01*
X6015068Y-10997816D01*
X5853616Y-11159268D01*
X5719424Y-11343966D01*
X5719420Y-11343972D01*
X5615769Y-11547400D01*
X5545214Y-11764544D01*
X5509500Y-11990039D01*
X-12405000Y-11990039D01*
X-12405000Y-11715001D01*
X-12405001Y-11715000D01*
X-12916326Y-11715000D01*
X-12902149Y-11690445D01*
X-12880000Y-11607787D01*
X-12880000Y-11522213D01*
X-12902149Y-11439555D01*
X-12916326Y-11415000D01*
X-12405002Y-11415000D01*
X-12405001Y-11414999D01*
X-12405001Y-11020210D01*
X-12405002Y-11020208D01*
X-12407910Y-10995125D01*
X-12407911Y-10995123D01*
X-12420060Y-10967608D01*
X-12420061Y-10967607D01*
X-12434852Y-10934108D01*
X-10100500Y-10934108D01*
X-10100500Y-11065892D01*
X-10075480Y-11159268D01*
X-10066391Y-11193190D01*
X-10000504Y-11307309D01*
X-10000502Y-11307311D01*
X-10000500Y-11307314D01*
X-9907314Y-11400500D01*
X-9907312Y-11400501D01*
X-9907310Y-11400503D01*
X-9793190Y-11466390D01*
X-9793192Y-11466390D01*
X-9793188Y-11466391D01*
X-9793186Y-11466392D01*
X-9665892Y-11500500D01*
X-9665890Y-11500500D01*
X-9534110Y-11500500D01*
X-9534108Y-11500500D01*
X-9406814Y-11466392D01*
X-9406812Y-11466390D01*
X-9406810Y-11466390D01*
X-9292691Y-11400503D01*
X-9292691Y-11400502D01*
X-9292686Y-11400500D01*
X-9199500Y-11307314D01*
X-9133608Y-11193186D01*
X-9099500Y-11065892D01*
X-9099500Y-10934108D01*
X-8700500Y-10934108D01*
X-8700500Y-11065892D01*
X-8675480Y-11159268D01*
X-8666391Y-11193190D01*
X-8600504Y-11307309D01*
X-8600502Y-11307311D01*
X-8600500Y-11307314D01*
X-8507314Y-11400500D01*
X-8507312Y-11400501D01*
X-8507310Y-11400503D01*
X-8393190Y-11466390D01*
X-8393192Y-11466390D01*
X-8393188Y-11466391D01*
X-8393186Y-11466392D01*
X-8265892Y-11500500D01*
X-8265890Y-11500500D01*
X-8134110Y-11500500D01*
X-8134108Y-11500500D01*
X-8006814Y-11466392D01*
X-8006812Y-11466390D01*
X-8006810Y-11466390D01*
X-7892691Y-11400503D01*
X-7892691Y-11400502D01*
X-7892686Y-11400500D01*
X-7799500Y-11307314D01*
X-7733608Y-11193186D01*
X-7699500Y-11065892D01*
X-7699500Y-10934108D01*
X-7733608Y-10806814D01*
X-7733610Y-10806811D01*
X-7733610Y-10806809D01*
X-7799497Y-10692690D01*
X-7799499Y-10692688D01*
X-7799500Y-10692686D01*
X-7892686Y-10599500D01*
X-7892689Y-10599498D01*
X-7892691Y-10599496D01*
X-8006811Y-10533609D01*
X-8006809Y-10533609D01*
X-8056201Y-10520375D01*
X-8134108Y-10499500D01*
X-8265892Y-10499500D01*
X-8343800Y-10520375D01*
X-8393191Y-10533609D01*
X-8507310Y-10599496D01*
X-8600504Y-10692690D01*
X-8666391Y-10806809D01*
X-8675047Y-10839114D01*
X-8700500Y-10934108D01*
X-9099500Y-10934108D01*
X-9133608Y-10806814D01*
X-9133610Y-10806811D01*
X-9133610Y-10806809D01*
X-9199497Y-10692690D01*
X-9199499Y-10692688D01*
X-9199500Y-10692686D01*
X-9292686Y-10599500D01*
X-9292689Y-10599498D01*
X-9292691Y-10599496D01*
X-9406811Y-10533609D01*
X-9406809Y-10533609D01*
X-9456201Y-10520375D01*
X-9534108Y-10499500D01*
X-9665892Y-10499500D01*
X-9743800Y-10520375D01*
X-9793191Y-10533609D01*
X-9907310Y-10599496D01*
X-10000504Y-10692690D01*
X-10066391Y-10806809D01*
X-10075047Y-10839114D01*
X-10100500Y-10934108D01*
X-12434852Y-10934108D01*
X-12453214Y-10892522D01*
X-12532524Y-10813212D01*
X-12560831Y-10800714D01*
X-12606427Y-10759914D01*
X-12619333Y-10700105D01*
X-12603159Y-10655147D01*
X-12584225Y-10626811D01*
X-12531420Y-10499328D01*
X-12504500Y-10363993D01*
X-12504500Y-10226007D01*
X-12531420Y-10090672D01*
X-12582685Y-9966908D01*
X4655500Y-9966908D01*
X4655500Y-10098692D01*
X4685579Y-10210951D01*
X4689609Y-10225990D01*
X4755496Y-10340109D01*
X4755498Y-10340111D01*
X4755500Y-10340114D01*
X4848686Y-10433300D01*
X4848688Y-10433301D01*
X4848690Y-10433303D01*
X4962810Y-10499190D01*
X4962808Y-10499190D01*
X4962812Y-10499191D01*
X4962814Y-10499192D01*
X5090108Y-10533300D01*
X5090110Y-10533300D01*
X5221890Y-10533300D01*
X5221892Y-10533300D01*
X5349186Y-10499192D01*
X5349188Y-10499190D01*
X5349190Y-10499190D01*
X5463309Y-10433303D01*
X5463309Y-10433302D01*
X5463314Y-10433300D01*
X5556500Y-10340114D01*
X5573068Y-10311418D01*
X5622390Y-10225990D01*
X5622390Y-10225988D01*
X5622392Y-10225986D01*
X5656500Y-10098692D01*
X5656500Y-9966908D01*
X5622392Y-9839614D01*
X5622390Y-9839611D01*
X5622390Y-9839609D01*
X5556503Y-9725490D01*
X5556501Y-9725488D01*
X5556500Y-9725486D01*
X5463314Y-9632300D01*
X5463311Y-9632298D01*
X5463309Y-9632296D01*
X5349189Y-9566409D01*
X5349191Y-9566409D01*
X5299799Y-9553175D01*
X5221892Y-9532300D01*
X5090108Y-9532300D01*
X5012200Y-9553175D01*
X4962809Y-9566409D01*
X4848690Y-9632296D01*
X4755496Y-9725490D01*
X4689609Y-9839609D01*
X4673017Y-9901532D01*
X4655500Y-9966908D01*
X-12582685Y-9966908D01*
X-12584225Y-9963189D01*
X-12584228Y-9963184D01*
X-12584229Y-9963182D01*
X-12660886Y-9848458D01*
X-12758454Y-9750890D01*
X-12758455Y-9750889D01*
X-12758458Y-9750886D01*
X-12771288Y-9742313D01*
X-12809165Y-9694268D01*
X-12811569Y-9633129D01*
X-12777577Y-9582255D01*
X-12771315Y-9577704D01*
X-12758458Y-9569114D01*
X-12660886Y-9471542D01*
X-12584225Y-9356811D01*
X-12578052Y-9341908D01*
X8599500Y-9341908D01*
X8599500Y-9473692D01*
X8615204Y-9532300D01*
X8633609Y-9600990D01*
X8699496Y-9715109D01*
X8699498Y-9715111D01*
X8699500Y-9715114D01*
X8792686Y-9808300D01*
X8792688Y-9808301D01*
X8792690Y-9808303D01*
X8906810Y-9874190D01*
X8906808Y-9874190D01*
X8906812Y-9874191D01*
X8906814Y-9874192D01*
X9034108Y-9908300D01*
X9034110Y-9908300D01*
X9165890Y-9908300D01*
X9165892Y-9908300D01*
X9191151Y-9901532D01*
X13514500Y-9901532D01*
X13514500Y-10108467D01*
X13554869Y-10311418D01*
X13634058Y-10502597D01*
X13717055Y-10626811D01*
X13749023Y-10674655D01*
X13895345Y-10820977D01*
X14067402Y-10935941D01*
X14258580Y-11015130D01*
X14461535Y-11055500D01*
X14461536Y-11055500D01*
X14668464Y-11055500D01*
X14668465Y-11055500D01*
X14871420Y-11015130D01*
X15062598Y-10935941D01*
X15234655Y-10820977D01*
X15380977Y-10674655D01*
X15495941Y-10502598D01*
X15575130Y-10311420D01*
X15615500Y-10108465D01*
X15615500Y-9901535D01*
X15615499Y-9901532D01*
X16054500Y-9901532D01*
X16054500Y-10108467D01*
X16094869Y-10311418D01*
X16174058Y-10502597D01*
X16257055Y-10626811D01*
X16289023Y-10674655D01*
X16435345Y-10820977D01*
X16607402Y-10935941D01*
X16798580Y-11015130D01*
X17001535Y-11055500D01*
X17001536Y-11055500D01*
X17208464Y-11055500D01*
X17208465Y-11055500D01*
X17411420Y-11015130D01*
X17602598Y-10935941D01*
X17774655Y-10820977D01*
X17920977Y-10674655D01*
X18035941Y-10502598D01*
X18115130Y-10311420D01*
X18155500Y-10108465D01*
X18155500Y-9901535D01*
X18115130Y-9698580D01*
X18035941Y-9507402D01*
X17920977Y-9335345D01*
X17774655Y-9189023D01*
X17774651Y-9189020D01*
X17602597Y-9074058D01*
X17411418Y-8994869D01*
X17208467Y-8954500D01*
X17208465Y-8954500D01*
X17001535Y-8954500D01*
X17001532Y-8954500D01*
X16798581Y-8994869D01*
X16607402Y-9074058D01*
X16435348Y-9189020D01*
X16289020Y-9335348D01*
X16174058Y-9507402D01*
X16094869Y-9698581D01*
X16054500Y-9901532D01*
X15615499Y-9901532D01*
X15575130Y-9698580D01*
X15495941Y-9507402D01*
X15380977Y-9335345D01*
X15234655Y-9189023D01*
X15234651Y-9189020D01*
X15062597Y-9074058D01*
X14871418Y-8994869D01*
X14668467Y-8954500D01*
X14668465Y-8954500D01*
X14461535Y-8954500D01*
X14461532Y-8954500D01*
X14258581Y-8994869D01*
X14067402Y-9074058D01*
X13895348Y-9189020D01*
X13749020Y-9335348D01*
X13634058Y-9507402D01*
X13554869Y-9698581D01*
X13514500Y-9901532D01*
X9191151Y-9901532D01*
X9293186Y-9874192D01*
X9293188Y-9874190D01*
X9293190Y-9874190D01*
X9353085Y-9839609D01*
X9407314Y-9808300D01*
X9500500Y-9715114D01*
X9510046Y-9698580D01*
X9566390Y-9600990D01*
X9566390Y-9600988D01*
X9566392Y-9600986D01*
X9600500Y-9473692D01*
X9600500Y-9341908D01*
X9566392Y-9214614D01*
X9566390Y-9214611D01*
X9566390Y-9214609D01*
X9500503Y-9100490D01*
X9500501Y-9100488D01*
X9500500Y-9100486D01*
X9407314Y-9007300D01*
X9407311Y-9007298D01*
X9407309Y-9007296D01*
X9293189Y-8941409D01*
X9293191Y-8941409D01*
X9243799Y-8928175D01*
X9165892Y-8907300D01*
X9034108Y-8907300D01*
X8956200Y-8928175D01*
X8906809Y-8941409D01*
X8792690Y-9007296D01*
X8699496Y-9100490D01*
X8633609Y-9214609D01*
X8629665Y-9229328D01*
X8599500Y-9341908D01*
X-12578052Y-9341908D01*
X-12531420Y-9229328D01*
X-12504500Y-9093993D01*
X-12504500Y-8956007D01*
X-12531420Y-8820672D01*
X-12570000Y-8727531D01*
X-12584223Y-8693193D01*
X-12584229Y-8693182D01*
X-12660886Y-8578458D01*
X-12758459Y-8480885D01*
X-12873183Y-8404228D01*
X-12873194Y-8404222D01*
X-13000672Y-8351420D01*
X-13136005Y-8324500D01*
X-13136007Y-8324500D01*
X-13273993Y-8324500D01*
X-13273996Y-8324500D01*
X-13409328Y-8351420D01*
X-13409330Y-8351420D01*
X-13536807Y-8404222D01*
X-13536818Y-8404228D01*
X-13651542Y-8480885D01*
X-13749111Y-8578454D01*
X-13749114Y-8578458D01*
X-13757685Y-8591286D01*
X-13805735Y-8629165D01*
X-13866873Y-8631567D01*
X-13917747Y-8597574D01*
X-13922315Y-8591286D01*
X-13930886Y-8578458D01*
X-14028458Y-8480886D01*
X-14037072Y-8475130D01*
X-14143183Y-8404228D01*
X-14143194Y-8404222D01*
X-14270672Y-8351420D01*
X-14406005Y-8324500D01*
X-14406007Y-8324500D01*
X-14543993Y-8324500D01*
X-14543996Y-8324500D01*
X-14679328Y-8351420D01*
X-14679330Y-8351420D01*
X-14806807Y-8404222D01*
X-14806818Y-8404228D01*
X-14921542Y-8480885D01*
X-15019115Y-8578458D01*
X-15095772Y-8693182D01*
X-15095778Y-8693193D01*
X-15148580Y-8820670D01*
X-15148580Y-8820672D01*
X-15175500Y-8956004D01*
X-30677316Y-8956004D01*
X-30625154Y-8915979D01*
X-31266757Y-8274376D01*
X-31218025Y-8238971D01*
X-31090029Y-8110975D01*
X-31054624Y-8062243D01*
X-30413021Y-8703846D01*
X-30259030Y-8503161D01*
X-30124664Y-8270432D01*
X-30021828Y-8022164D01*
X-29952276Y-7762590D01*
X-29952276Y-7762585D01*
X-29917201Y-7496165D01*
X-29917200Y-7496163D01*
X-29917200Y-7227437D01*
X-29917201Y-7227435D01*
X-29926007Y-7160541D01*
X-29926854Y-7154108D01*
X299500Y-7154108D01*
X299500Y-7285892D01*
X319768Y-7361535D01*
X333609Y-7413190D01*
X399496Y-7527309D01*
X399498Y-7527311D01*
X399500Y-7527314D01*
X492686Y-7620500D01*
X492688Y-7620501D01*
X492690Y-7620503D01*
X606810Y-7686390D01*
X606808Y-7686390D01*
X606812Y-7686391D01*
X606814Y-7686392D01*
X734108Y-7720500D01*
X734110Y-7720500D01*
X865890Y-7720500D01*
X865892Y-7720500D01*
X993186Y-7686392D01*
X993188Y-7686390D01*
X993190Y-7686390D01*
X1107309Y-7620503D01*
X1107309Y-7620502D01*
X1107314Y-7620500D01*
X1200500Y-7527314D01*
X1218485Y-7496163D01*
X1266390Y-7413190D01*
X1266390Y-7413188D01*
X1266392Y-7413186D01*
X1280233Y-7361532D01*
X13514500Y-7361532D01*
X13514500Y-7568467D01*
X13554869Y-7771418D01*
X13634058Y-7962597D01*
X13749020Y-8134651D01*
X13749023Y-8134655D01*
X13895345Y-8280977D01*
X14067402Y-8395941D01*
X14258580Y-8475130D01*
X14461535Y-8515500D01*
X14461536Y-8515500D01*
X14668464Y-8515500D01*
X14668465Y-8515500D01*
X14871420Y-8475130D01*
X15062598Y-8395941D01*
X15234655Y-8280977D01*
X15380977Y-8134655D01*
X15495941Y-7962598D01*
X15575130Y-7771420D01*
X15615500Y-7568465D01*
X15615500Y-7361535D01*
X15615499Y-7361532D01*
X16054500Y-7361532D01*
X16054500Y-7568467D01*
X16094869Y-7771418D01*
X16174058Y-7962597D01*
X16289020Y-8134651D01*
X16289023Y-8134655D01*
X16435345Y-8280977D01*
X16607402Y-8395941D01*
X16798580Y-8475130D01*
X17001535Y-8515500D01*
X17001536Y-8515500D01*
X17208464Y-8515500D01*
X17208465Y-8515500D01*
X17411420Y-8475130D01*
X17602598Y-8395941D01*
X17774655Y-8280977D01*
X17920977Y-8134655D01*
X18035941Y-7962598D01*
X18115130Y-7771420D01*
X18155500Y-7568465D01*
X18155500Y-7361535D01*
X18115130Y-7158580D01*
X18035941Y-6967402D01*
X17920977Y-6795345D01*
X17774655Y-6649023D01*
X17774651Y-6649020D01*
X17602597Y-6534058D01*
X17411418Y-6454869D01*
X17208467Y-6414500D01*
X17208465Y-6414500D01*
X17001535Y-6414500D01*
X17001532Y-6414500D01*
X16798581Y-6454869D01*
X16607402Y-6534058D01*
X16435348Y-6649020D01*
X16289020Y-6795348D01*
X16174058Y-6967402D01*
X16094869Y-7158581D01*
X16054500Y-7361532D01*
X15615499Y-7361532D01*
X15575130Y-7158580D01*
X15495941Y-6967402D01*
X15380977Y-6795345D01*
X15234655Y-6649023D01*
X15234651Y-6649020D01*
X15062597Y-6534058D01*
X14871418Y-6454869D01*
X14668467Y-6414500D01*
X14668465Y-6414500D01*
X14461535Y-6414500D01*
X14461532Y-6414500D01*
X14258581Y-6454869D01*
X14067402Y-6534058D01*
X13895348Y-6649020D01*
X13749020Y-6795348D01*
X13634058Y-6967402D01*
X13554869Y-7158581D01*
X13514500Y-7361532D01*
X1280233Y-7361532D01*
X1300500Y-7285892D01*
X1300500Y-7154108D01*
X1266392Y-7026814D01*
X1266390Y-7026811D01*
X1266390Y-7026809D01*
X1200503Y-6912690D01*
X1200501Y-6912688D01*
X1200500Y-6912686D01*
X1107314Y-6819500D01*
X1107311Y-6819498D01*
X1107309Y-6819496D01*
X993189Y-6753609D01*
X993191Y-6753609D01*
X943799Y-6740375D01*
X865892Y-6719500D01*
X734108Y-6719500D01*
X656200Y-6740375D01*
X606809Y-6753609D01*
X492690Y-6819496D01*
X399496Y-6912690D01*
X333609Y-7026809D01*
X314539Y-7097978D01*
X299500Y-7154108D01*
X-29926854Y-7154108D01*
X-29952276Y-6961014D01*
X-29952276Y-6961009D01*
X-30021828Y-6701435D01*
X-30124664Y-6453167D01*
X-30259033Y-6220433D01*
X-30413022Y-6019752D01*
X-31054625Y-6661355D01*
X-31090029Y-6612625D01*
X-31218025Y-6484629D01*
X-31266758Y-6449222D01*
X-30625154Y-5807619D01*
X-30825834Y-5653632D01*
X-31058568Y-5519263D01*
X-31306836Y-5416427D01*
X-31566412Y-5346875D01*
X-31832835Y-5311800D01*
X-32101566Y-5311800D01*
X-32367986Y-5346875D01*
X-32367991Y-5346875D01*
X-32627565Y-5416427D01*
X-32875833Y-5519263D01*
X-33108567Y-5653632D01*
X-33309248Y-5807619D01*
X-32667644Y-6449223D01*
X-32716375Y-6484629D01*
X-32844371Y-6612625D01*
X-32879777Y-6661356D01*
X-33521381Y-6019752D01*
X-33675368Y-6220433D01*
X-33809737Y-6453167D01*
X-33912573Y-6701435D01*
X-33982125Y-6961009D01*
X-33982125Y-6961014D01*
X-34017200Y-7227434D01*
X-40644500Y-7227434D01*
X-40644500Y-4187199D01*
X-30319200Y-4187199D01*
X-30319200Y-4396400D01*
X-30278388Y-4601573D01*
X-30278388Y-4601575D01*
X-30198335Y-4794843D01*
X-30107830Y-4930295D01*
X-29671590Y-4494054D01*
X-29625291Y-4574246D01*
X-29539646Y-4659891D01*
X-29459458Y-4706188D01*
X-29895697Y-5142428D01*
X-29760244Y-5232934D01*
X-29566975Y-5312987D01*
X-29361801Y-5353799D01*
X-29361797Y-5353800D01*
X-29152603Y-5353800D01*
X-29152600Y-5353799D01*
X-28947427Y-5312987D01*
X-28947425Y-5312987D01*
X-28816570Y-5258786D01*
X-17635822Y-5258786D01*
X-17635822Y-5390570D01*
X-17627893Y-5420162D01*
X-17601713Y-5517868D01*
X-17535826Y-5631987D01*
X-17535824Y-5631989D01*
X-17535822Y-5631992D01*
X-17442636Y-5725178D01*
X-17442634Y-5725179D01*
X-17442632Y-5725181D01*
X-17328512Y-5791068D01*
X-17328514Y-5791068D01*
X-17328510Y-5791069D01*
X-17328508Y-5791070D01*
X-17201214Y-5825178D01*
X-17201212Y-5825178D01*
X-17069432Y-5825178D01*
X-17069430Y-5825178D01*
X-16989296Y-5803706D01*
X-16928197Y-5806908D01*
X-16880647Y-5845414D01*
X-16864811Y-5904514D01*
X-16868047Y-5924952D01*
X-16870500Y-5934108D01*
X-16870500Y-6065892D01*
X-16840421Y-6178151D01*
X-16836391Y-6193190D01*
X-16770504Y-6307309D01*
X-16770502Y-6307311D01*
X-16770500Y-6307314D01*
X-16677314Y-6400500D01*
X-16677312Y-6400501D01*
X-16677310Y-6400503D01*
X-16563190Y-6466390D01*
X-16563192Y-6466390D01*
X-16563188Y-6466391D01*
X-16563186Y-6466392D01*
X-16435892Y-6500500D01*
X-16435890Y-6500500D01*
X-16304110Y-6500500D01*
X-16304108Y-6500500D01*
X-16176814Y-6466392D01*
X-16176812Y-6466390D01*
X-16176810Y-6466390D01*
X-16062691Y-6400503D01*
X-16062691Y-6400502D01*
X-16062686Y-6400500D01*
X-15969500Y-6307314D01*
X-15962998Y-6296053D01*
X-15903610Y-6193190D01*
X-15903610Y-6193188D01*
X-15903608Y-6193186D01*
X-15869500Y-6065892D01*
X-15869500Y-5934108D01*
X-15903608Y-5806814D01*
X-15903610Y-5806811D01*
X-15903610Y-5806809D01*
X-15969497Y-5692690D01*
X-15969499Y-5692688D01*
X-15969500Y-5692686D01*
X-16062686Y-5599500D01*
X-16062689Y-5599498D01*
X-16062691Y-5599496D01*
X-16176811Y-5533609D01*
X-16176809Y-5533609D01*
X-16235930Y-5517768D01*
X-16304108Y-5499500D01*
X-16435892Y-5499500D01*
X-16459637Y-5505862D01*
X-16516026Y-5520971D01*
X-16577128Y-5517768D01*
X-16624677Y-5479262D01*
X-16640512Y-5420162D01*
X-16637276Y-5399725D01*
X-16634822Y-5390570D01*
X-16634822Y-5258786D01*
X-16668930Y-5131492D01*
X-16668932Y-5131489D01*
X-16668932Y-5131487D01*
X-16734819Y-5017368D01*
X-16734821Y-5017366D01*
X-16734822Y-5017364D01*
X-16828008Y-4924178D01*
X-16828011Y-4924176D01*
X-16828013Y-4924174D01*
X-16865715Y-4902407D01*
X-16942133Y-4858287D01*
X-16942131Y-4858287D01*
X-16991523Y-4845053D01*
X-17069430Y-4824178D01*
X-17201214Y-4824178D01*
X-17279122Y-4845053D01*
X-17328513Y-4858287D01*
X-17442632Y-4924174D01*
X-17535826Y-5017368D01*
X-17601713Y-5131487D01*
X-17612027Y-5169982D01*
X-17635822Y-5258786D01*
X-28816570Y-5258786D01*
X-28754159Y-5232935D01*
X-28754147Y-5232929D01*
X-28659940Y-5169982D01*
X-28618705Y-5142428D01*
X-29054945Y-4706188D01*
X-28974754Y-4659891D01*
X-28889109Y-4574246D01*
X-28842812Y-4494055D01*
X-28406572Y-4930295D01*
X-28333898Y-4821532D01*
X13514500Y-4821532D01*
X13514500Y-5028467D01*
X13554869Y-5231418D01*
X13634058Y-5422597D01*
X13749020Y-5594651D01*
X13749023Y-5594655D01*
X13895345Y-5740977D01*
X14067402Y-5855941D01*
X14258580Y-5935130D01*
X14461535Y-5975500D01*
X14461536Y-5975500D01*
X14668464Y-5975500D01*
X14668465Y-5975500D01*
X14871420Y-5935130D01*
X15062598Y-5855941D01*
X15234655Y-5740977D01*
X15380977Y-5594655D01*
X15495941Y-5422598D01*
X15575130Y-5231420D01*
X15615500Y-5028465D01*
X15615500Y-4821535D01*
X15615499Y-4821532D01*
X16054500Y-4821532D01*
X16054500Y-5028467D01*
X16094869Y-5231418D01*
X16174058Y-5422597D01*
X16289020Y-5594651D01*
X16289023Y-5594655D01*
X16435345Y-5740977D01*
X16607402Y-5855941D01*
X16798580Y-5935130D01*
X17001535Y-5975500D01*
X17001536Y-5975500D01*
X17208464Y-5975500D01*
X17208465Y-5975500D01*
X17411420Y-5935130D01*
X17602598Y-5855941D01*
X17774655Y-5740977D01*
X17920977Y-5594655D01*
X18035941Y-5422598D01*
X18115130Y-5231420D01*
X18155500Y-5028465D01*
X18155500Y-4821535D01*
X18115130Y-4618580D01*
X18035941Y-4427402D01*
X17920977Y-4255345D01*
X17774655Y-4109023D01*
X17730719Y-4079666D01*
X17602597Y-3994058D01*
X17411418Y-3914869D01*
X17208467Y-3874500D01*
X17208465Y-3874500D01*
X17001535Y-3874500D01*
X17001532Y-3874500D01*
X16798581Y-3914869D01*
X16607402Y-3994058D01*
X16435348Y-4109020D01*
X16289020Y-4255348D01*
X16174058Y-4427402D01*
X16094869Y-4618581D01*
X16054500Y-4821532D01*
X15615499Y-4821532D01*
X15575130Y-4618580D01*
X15495941Y-4427402D01*
X15380977Y-4255345D01*
X15234655Y-4109023D01*
X15190719Y-4079666D01*
X15062597Y-3994058D01*
X14871418Y-3914869D01*
X14668467Y-3874500D01*
X14668465Y-3874500D01*
X14461535Y-3874500D01*
X14461532Y-3874500D01*
X14258581Y-3914869D01*
X14067402Y-3994058D01*
X13895348Y-4109020D01*
X13749020Y-4255348D01*
X13634058Y-4427402D01*
X13554869Y-4618581D01*
X13514500Y-4821532D01*
X-28333898Y-4821532D01*
X-28316071Y-4794853D01*
X-28316065Y-4794841D01*
X-28236013Y-4601575D01*
X-28236013Y-4601573D01*
X-28195201Y-4396400D01*
X-28195200Y-4396396D01*
X-28195200Y-4187203D01*
X-28195201Y-4187199D01*
X-28223101Y-4046933D01*
X-28225652Y-4034108D01*
X-3100500Y-4034108D01*
X-3100500Y-4165892D01*
X-3070421Y-4278151D01*
X-3066391Y-4293190D01*
X-3000504Y-4407309D01*
X-3000502Y-4407311D01*
X-3000500Y-4407314D01*
X-2907314Y-4500500D01*
X-2907312Y-4500501D01*
X-2907310Y-4500503D01*
X-2793190Y-4566390D01*
X-2793192Y-4566390D01*
X-2793188Y-4566391D01*
X-2793186Y-4566392D01*
X-2665892Y-4600500D01*
X-2665890Y-4600500D01*
X-2534110Y-4600500D01*
X-2534108Y-4600500D01*
X-2406814Y-4566392D01*
X-2406812Y-4566390D01*
X-2406810Y-4566390D01*
X-2292691Y-4500503D01*
X-2292691Y-4500502D01*
X-2292686Y-4500500D01*
X-2199500Y-4407314D01*
X-2133608Y-4293186D01*
X-2099500Y-4165892D01*
X-2099500Y-4034108D01*
X-1100500Y-4034108D01*
X-1100500Y-4165892D01*
X-1070421Y-4278151D01*
X-1066391Y-4293190D01*
X-1000504Y-4407309D01*
X-1000502Y-4407311D01*
X-1000500Y-4407314D01*
X-907314Y-4500500D01*
X-907312Y-4500501D01*
X-907310Y-4500503D01*
X-793190Y-4566390D01*
X-793192Y-4566390D01*
X-793188Y-4566391D01*
X-793186Y-4566392D01*
X-665892Y-4600500D01*
X-665890Y-4600500D01*
X-534110Y-4600500D01*
X-534108Y-4600500D01*
X-406814Y-4566392D01*
X-406812Y-4566390D01*
X-406810Y-4566390D01*
X-292691Y-4500503D01*
X-292691Y-4500502D01*
X-292686Y-4500500D01*
X-199500Y-4407314D01*
X-133608Y-4293186D01*
X-99500Y-4165892D01*
X-99500Y-4034108D01*
X-133608Y-3906814D01*
X-152265Y-3874500D01*
X-191167Y-3807119D01*
X-191168Y-3807117D01*
X-199499Y-3792688D01*
X-199500Y-3792686D01*
X-228078Y-3764108D01*
X3479500Y-3764108D01*
X3479500Y-3895892D01*
X3502579Y-3982024D01*
X3513609Y-4023190D01*
X3579496Y-4137309D01*
X3579498Y-4137311D01*
X3579500Y-4137314D01*
X3672686Y-4230500D01*
X3672688Y-4230501D01*
X3672690Y-4230503D01*
X3786810Y-4296390D01*
X3786808Y-4296390D01*
X3786812Y-4296391D01*
X3786814Y-4296392D01*
X3914108Y-4330500D01*
X3914110Y-4330500D01*
X4045890Y-4330500D01*
X4045892Y-4330500D01*
X4173186Y-4296392D01*
X4173188Y-4296390D01*
X4173190Y-4296390D01*
X4287309Y-4230503D01*
X4287309Y-4230502D01*
X4287314Y-4230500D01*
X4380500Y-4137314D01*
X4446392Y-4023186D01*
X4480500Y-3895892D01*
X4480500Y-3764108D01*
X4446392Y-3636814D01*
X4446390Y-3636811D01*
X4446390Y-3636809D01*
X4380503Y-3522690D01*
X4380501Y-3522688D01*
X4380500Y-3522686D01*
X4287314Y-3429500D01*
X4287311Y-3429498D01*
X4287309Y-3429496D01*
X4173189Y-3363609D01*
X4173191Y-3363609D01*
X4123799Y-3350375D01*
X4045892Y-3329500D01*
X3914108Y-3329500D01*
X3836200Y-3350375D01*
X3786809Y-3363609D01*
X3672690Y-3429496D01*
X3579496Y-3522690D01*
X3513609Y-3636809D01*
X3513608Y-3636814D01*
X3479500Y-3764108D01*
X-228078Y-3764108D01*
X-292686Y-3699500D01*
X-292689Y-3699498D01*
X-292691Y-3699496D01*
X-406811Y-3633609D01*
X-406809Y-3633609D01*
X-456201Y-3620375D01*
X-534108Y-3599500D01*
X-665892Y-3599500D01*
X-743800Y-3620375D01*
X-793191Y-3633609D01*
X-907310Y-3699496D01*
X-1000504Y-3792690D01*
X-1066391Y-3906809D01*
X-1068551Y-3914870D01*
X-1100500Y-4034108D01*
X-2099500Y-4034108D01*
X-2133608Y-3906814D01*
X-2133610Y-3906811D01*
X-2133610Y-3906809D01*
X-2199497Y-3792690D01*
X-2199499Y-3792688D01*
X-2199500Y-3792686D01*
X-2292686Y-3699500D01*
X-2292689Y-3699498D01*
X-2292691Y-3699496D01*
X-2406811Y-3633609D01*
X-2406809Y-3633609D01*
X-2456201Y-3620375D01*
X-2534108Y-3599500D01*
X-2665892Y-3599500D01*
X-2743800Y-3620375D01*
X-2793191Y-3633609D01*
X-2907310Y-3699496D01*
X-3000504Y-3792690D01*
X-3066391Y-3906809D01*
X-3068551Y-3914870D01*
X-3100500Y-4034108D01*
X-28225652Y-4034108D01*
X-28236013Y-3982026D01*
X-28236013Y-3982024D01*
X-28316066Y-3788756D01*
X-28406572Y-3653303D01*
X-28842812Y-4089542D01*
X-28889109Y-4009354D01*
X-28974754Y-3923709D01*
X-29054946Y-3877410D01*
X-28618705Y-3441170D01*
X-28754157Y-3350665D01*
X-28947426Y-3270612D01*
X-29152600Y-3229800D01*
X-29361801Y-3229800D01*
X-29566974Y-3270612D01*
X-29566976Y-3270612D01*
X-29760244Y-3350665D01*
X-29895697Y-3441170D01*
X-29459456Y-3877411D01*
X-29539646Y-3923709D01*
X-29625291Y-4009354D01*
X-29671589Y-4089544D01*
X-30107830Y-3653303D01*
X-30198335Y-3788756D01*
X-30278388Y-3982024D01*
X-30278388Y-3982026D01*
X-30319200Y-4187199D01*
X-40644500Y-4187199D01*
X-40644500Y303001D01*
X-30219700Y303001D01*
X-30219700Y113400D01*
X-30182713Y-72548D01*
X-30182711Y-72554D01*
X-30110157Y-247714D01*
X-30075205Y-300023D01*
X-30004822Y-405358D01*
X-29870758Y-539422D01*
X-29730431Y-633186D01*
X-29713115Y-644756D01*
X-29578935Y-700336D01*
X-29532409Y-740073D01*
X-29518126Y-799568D01*
X-29541541Y-856096D01*
X-29578935Y-883264D01*
X-29713115Y-938843D01*
X-29870758Y-1044178D01*
X-29870762Y-1044181D01*
X-30004819Y-1178238D01*
X-30004822Y-1178242D01*
X-30110157Y-1335885D01*
X-30182711Y-1511045D01*
X-30182713Y-1511051D01*
X-30219700Y-1696999D01*
X-30219700Y-1886600D01*
X-30182713Y-2072548D01*
X-30182711Y-2072554D01*
X-30110157Y-2247714D01*
X-30075205Y-2300023D01*
X-30004822Y-2405358D01*
X-29870758Y-2539422D01*
X-29713115Y-2644756D01*
X-29537951Y-2717312D01*
X-29351998Y-2754300D01*
X-29351997Y-2754300D01*
X-29162403Y-2754300D01*
X-29162402Y-2754300D01*
X-28976449Y-2717312D01*
X-28801285Y-2644756D01*
X-28643642Y-2539422D01*
X-28538328Y-2434108D01*
X-13300500Y-2434108D01*
X-13300500Y-2565892D01*
X-13270421Y-2678151D01*
X-13266391Y-2693190D01*
X-13200504Y-2807309D01*
X-13200502Y-2807311D01*
X-13200500Y-2807314D01*
X-13107314Y-2900500D01*
X-13107312Y-2900501D01*
X-13107310Y-2900503D01*
X-12993190Y-2966390D01*
X-12993192Y-2966390D01*
X-12993188Y-2966391D01*
X-12993186Y-2966392D01*
X-12865892Y-3000500D01*
X-12865890Y-3000500D01*
X-12734110Y-3000500D01*
X-12734108Y-3000500D01*
X-12606814Y-2966392D01*
X-12606812Y-2966390D01*
X-12606810Y-2966390D01*
X-12492691Y-2900503D01*
X-12492691Y-2900502D01*
X-12492686Y-2900500D01*
X-12399500Y-2807314D01*
X-12368892Y-2754300D01*
X-12333610Y-2693190D01*
X-12333610Y-2693188D01*
X-12333608Y-2693186D01*
X-12299500Y-2565892D01*
X-12299500Y-2434108D01*
X-12333608Y-2306814D01*
X-12333610Y-2306811D01*
X-12333610Y-2306809D01*
X-12399497Y-2192690D01*
X-12399499Y-2192688D01*
X-12399500Y-2192686D01*
X-12492686Y-2099500D01*
X-12492689Y-2099498D01*
X-12492691Y-2099496D01*
X-12606811Y-2033609D01*
X-12606809Y-2033609D01*
X-12656201Y-2020375D01*
X-12734108Y-1999500D01*
X-12865892Y-1999500D01*
X-12943800Y-2020375D01*
X-12993191Y-2033609D01*
X-13107310Y-2099496D01*
X-13200504Y-2192690D01*
X-13266391Y-2306809D01*
X-13266392Y-2306814D01*
X-13300500Y-2434108D01*
X-28538328Y-2434108D01*
X-28509578Y-2405358D01*
X-28404244Y-2247715D01*
X-28331688Y-2072551D01*
X-28294700Y-1886598D01*
X-28294700Y-1734108D01*
X-4600500Y-1734108D01*
X-4600500Y-1865892D01*
X-4594951Y-1886600D01*
X-4566391Y-1993190D01*
X-4500504Y-2107309D01*
X-4500502Y-2107311D01*
X-4500500Y-2107314D01*
X-4407314Y-2200500D01*
X-4407312Y-2200501D01*
X-4407310Y-2200503D01*
X-4293190Y-2266390D01*
X-4293192Y-2266390D01*
X-4293188Y-2266391D01*
X-4293186Y-2266392D01*
X-4165892Y-2300500D01*
X-4165890Y-2300500D01*
X-4034110Y-2300500D01*
X-4034108Y-2300500D01*
X-3963318Y-2281532D01*
X13514500Y-2281532D01*
X13514500Y-2488467D01*
X13554869Y-2691418D01*
X13634058Y-2882597D01*
X13690048Y-2966392D01*
X13749023Y-3054655D01*
X13895345Y-3200977D01*
X14067402Y-3315941D01*
X14258580Y-3395130D01*
X14461535Y-3435500D01*
X14461536Y-3435500D01*
X14668464Y-3435500D01*
X14668465Y-3435500D01*
X14871420Y-3395130D01*
X15062598Y-3315941D01*
X15234655Y-3200977D01*
X15380977Y-3054655D01*
X15495941Y-2882598D01*
X15575130Y-2691420D01*
X15615500Y-2488465D01*
X15615500Y-2281535D01*
X15615499Y-2281532D01*
X16054500Y-2281532D01*
X16054500Y-2488467D01*
X16094869Y-2691418D01*
X16174058Y-2882597D01*
X16230048Y-2966392D01*
X16289023Y-3054655D01*
X16435345Y-3200977D01*
X16607402Y-3315941D01*
X16798580Y-3395130D01*
X17001535Y-3435500D01*
X17001536Y-3435500D01*
X17208464Y-3435500D01*
X17208465Y-3435500D01*
X17411420Y-3395130D01*
X17602598Y-3315941D01*
X17774655Y-3200977D01*
X17920977Y-3054655D01*
X18035941Y-2882598D01*
X18115130Y-2691420D01*
X18155500Y-2488465D01*
X18155500Y-2281535D01*
X18115130Y-2078580D01*
X18035941Y-1887402D01*
X17920977Y-1715345D01*
X17774655Y-1569023D01*
X17774651Y-1569020D01*
X17602597Y-1454058D01*
X17411418Y-1374869D01*
X17208467Y-1334500D01*
X17208465Y-1334500D01*
X17001535Y-1334500D01*
X17001532Y-1334500D01*
X16798581Y-1374869D01*
X16607402Y-1454058D01*
X16435348Y-1569020D01*
X16289020Y-1715348D01*
X16174058Y-1887402D01*
X16094869Y-2078581D01*
X16054500Y-2281532D01*
X15615499Y-2281532D01*
X15575130Y-2078580D01*
X15495941Y-1887402D01*
X15380977Y-1715345D01*
X15234655Y-1569023D01*
X15234651Y-1569020D01*
X15062597Y-1454058D01*
X14871418Y-1374869D01*
X14668467Y-1334500D01*
X14668465Y-1334500D01*
X14461535Y-1334500D01*
X14461532Y-1334500D01*
X14258581Y-1374869D01*
X14067402Y-1454058D01*
X13895348Y-1569020D01*
X13749020Y-1715348D01*
X13634058Y-1887402D01*
X13554869Y-2078581D01*
X13514500Y-2281532D01*
X-3963318Y-2281532D01*
X-3906814Y-2266392D01*
X-3906812Y-2266390D01*
X-3906810Y-2266390D01*
X-3792695Y-2200505D01*
X-3792697Y-2200505D01*
X-3792686Y-2200500D01*
X-3699500Y-2107314D01*
X-3699497Y-2107309D01*
X-3633610Y-1993190D01*
X-3633610Y-1993188D01*
X-3633608Y-1993186D01*
X-3599500Y-1865892D01*
X-3599500Y-1734108D01*
X-3633608Y-1606814D01*
X-3633610Y-1606811D01*
X-3633610Y-1606809D01*
X-3699497Y-1492690D01*
X-3699499Y-1492688D01*
X-3699500Y-1492686D01*
X-3792686Y-1399500D01*
X-3792689Y-1399498D01*
X-3792691Y-1399496D01*
X-3906811Y-1333609D01*
X-3906809Y-1333609D01*
X-3956201Y-1320375D01*
X-4034108Y-1299500D01*
X-4165892Y-1299500D01*
X-4243800Y-1320375D01*
X-4293191Y-1333609D01*
X-4407310Y-1399496D01*
X-4500504Y-1492690D01*
X-4566391Y-1606809D01*
X-4566392Y-1606814D01*
X-4600500Y-1734108D01*
X-28294700Y-1734108D01*
X-28294700Y-1697002D01*
X-28331688Y-1511049D01*
X-28404244Y-1335885D01*
X-28509578Y-1178242D01*
X-28643642Y-1044178D01*
X-28748977Y-973795D01*
X-28801286Y-938843D01*
X-28935466Y-883264D01*
X-28981991Y-843527D01*
X-28996275Y-784032D01*
X-28972860Y-727504D01*
X-28935466Y-700336D01*
X-28924737Y-695892D01*
X-28801285Y-644756D01*
X-28643642Y-539422D01*
X-28509578Y-405358D01*
X-28488697Y-374108D01*
X-17650500Y-374108D01*
X-17650500Y-505892D01*
X-17634901Y-564108D01*
X-17616391Y-633190D01*
X-17550504Y-747309D01*
X-17550502Y-747311D01*
X-17550500Y-747314D01*
X-17457314Y-840500D01*
X-17457312Y-840501D01*
X-17457310Y-840503D01*
X-17343190Y-906390D01*
X-17343192Y-906390D01*
X-17343188Y-906391D01*
X-17343186Y-906392D01*
X-17215892Y-940500D01*
X-17215890Y-940500D01*
X-17084110Y-940500D01*
X-17084108Y-940500D01*
X-16956814Y-906392D01*
X-16956812Y-906390D01*
X-16956810Y-906390D01*
X-16842691Y-840503D01*
X-16842691Y-840502D01*
X-16842686Y-840500D01*
X-16749500Y-747314D01*
X-16732178Y-717312D01*
X-16683610Y-633190D01*
X-16683610Y-633188D01*
X-16683608Y-633186D01*
X-16649500Y-505892D01*
X-16649500Y-374108D01*
X-16683608Y-246814D01*
X-16683610Y-246811D01*
X-16683610Y-246809D01*
X-16749497Y-132690D01*
X-16749499Y-132688D01*
X-16749500Y-132686D01*
X-16842686Y-39500D01*
X-16842689Y-39498D01*
X-16842691Y-39496D01*
X-16956811Y26391D01*
X-16956809Y26391D01*
X-17006201Y39625D01*
X-17084108Y60500D01*
X-17215892Y60500D01*
X-17293800Y39625D01*
X-17343191Y26391D01*
X-17457310Y-39496D01*
X-17550504Y-132690D01*
X-17616391Y-246809D01*
X-17621638Y-266392D01*
X-17650500Y-374108D01*
X-28488697Y-374108D01*
X-28404244Y-247715D01*
X-28331688Y-72551D01*
X-28294700Y113402D01*
X-28294700Y302998D01*
X-28331688Y488951D01*
X-28377476Y599492D01*
X-22217700Y599492D01*
X-22217700Y467708D01*
X-22212821Y449500D01*
X-22183591Y340410D01*
X-22117704Y226291D01*
X-22117702Y226289D01*
X-22117700Y226286D01*
X-22024514Y133100D01*
X-22024512Y133099D01*
X-22024510Y133097D01*
X-21910390Y67210D01*
X-21910392Y67210D01*
X-21910388Y67209D01*
X-21910386Y67208D01*
X-21783092Y33100D01*
X-21783090Y33100D01*
X-21651310Y33100D01*
X-21651308Y33100D01*
X-21524014Y67208D01*
X-21524012Y67210D01*
X-21524010Y67210D01*
X-21409891Y133097D01*
X-21409891Y133098D01*
X-21409886Y133100D01*
X-21316700Y226286D01*
X-21315353Y228619D01*
X-21250810Y340410D01*
X-21250810Y340412D01*
X-21250808Y340414D01*
X-21216700Y467708D01*
X-21216700Y599492D01*
X-21250808Y726786D01*
X-21250810Y726789D01*
X-21250810Y726791D01*
X-21316697Y840910D01*
X-21316699Y840912D01*
X-21316700Y840914D01*
X-21409886Y934100D01*
X-21409893Y934104D01*
X-21414292Y936644D01*
X-21414293Y936645D01*
X-21524011Y999991D01*
X-21524009Y999991D01*
X-21573401Y1013225D01*
X-21583354Y1015892D01*
X-18140500Y1015892D01*
X-18140500Y884108D01*
X-18110421Y771849D01*
X-18106391Y756810D01*
X-18040504Y642691D01*
X-18040502Y642689D01*
X-18040500Y642686D01*
X-17947314Y549500D01*
X-17947312Y549499D01*
X-17947310Y549497D01*
X-17833190Y483610D01*
X-17833192Y483610D01*
X-17833188Y483609D01*
X-17833186Y483608D01*
X-17705892Y449500D01*
X-17705890Y449500D01*
X-17574110Y449500D01*
X-17574108Y449500D01*
X-17512932Y465892D01*
X-12600500Y465892D01*
X-12600500Y334108D01*
X-12580232Y258465D01*
X-12566391Y206810D01*
X-12500504Y92691D01*
X-12500502Y92689D01*
X-12500500Y92686D01*
X-12407314Y-500D01*
X-12407312Y-501D01*
X-12407310Y-503D01*
X-12293190Y-66390D01*
X-12293192Y-66390D01*
X-12293188Y-66391D01*
X-12293186Y-66392D01*
X-12165892Y-100500D01*
X-12165890Y-100500D01*
X-12093719Y-100500D01*
X-12035528Y-119407D01*
X-11999564Y-168907D01*
X-11998093Y-225121D01*
X-12000500Y-234108D01*
X-12000500Y-365892D01*
X-11970421Y-478151D01*
X-11966391Y-493190D01*
X-11900504Y-607309D01*
X-11900502Y-607311D01*
X-11900500Y-607314D01*
X-11807314Y-700500D01*
X-11807312Y-700501D01*
X-11807310Y-700503D01*
X-11693190Y-766390D01*
X-11693192Y-766390D01*
X-11693188Y-766391D01*
X-11693186Y-766392D01*
X-11565892Y-800500D01*
X-11565890Y-800500D01*
X-11434110Y-800500D01*
X-11434108Y-800500D01*
X-11306814Y-766392D01*
X-11306812Y-766390D01*
X-11306810Y-766390D01*
X-11192691Y-700503D01*
X-11192691Y-700502D01*
X-11192686Y-700500D01*
X-11099500Y-607314D01*
X-11074555Y-564108D01*
X3199500Y-564108D01*
X3199500Y-695892D01*
X3215150Y-754300D01*
X3233609Y-823190D01*
X3299496Y-937309D01*
X3299498Y-937311D01*
X3299500Y-937314D01*
X3392686Y-1030500D01*
X3392688Y-1030501D01*
X3392690Y-1030503D01*
X3506810Y-1096390D01*
X3506808Y-1096390D01*
X3506812Y-1096391D01*
X3506814Y-1096392D01*
X3634108Y-1130500D01*
X3634110Y-1130500D01*
X3765890Y-1130500D01*
X3765892Y-1130500D01*
X3893186Y-1096392D01*
X3893188Y-1096390D01*
X3893190Y-1096390D01*
X4007309Y-1030503D01*
X4007309Y-1030502D01*
X4007314Y-1030500D01*
X4100500Y-937314D01*
X4118354Y-906390D01*
X4166390Y-823190D01*
X4166390Y-823188D01*
X4166392Y-823186D01*
X4200500Y-695892D01*
X4200500Y-564108D01*
X4166392Y-436814D01*
X4166390Y-436811D01*
X4166390Y-436809D01*
X4100503Y-322690D01*
X4100501Y-322688D01*
X4100500Y-322686D01*
X4007314Y-229500D01*
X4007311Y-229498D01*
X4007309Y-229496D01*
X3893189Y-163609D01*
X3893191Y-163609D01*
X3843799Y-150375D01*
X3765892Y-129500D01*
X3634108Y-129500D01*
X3556200Y-150375D01*
X3506809Y-163609D01*
X3392690Y-229496D01*
X3299496Y-322690D01*
X3233609Y-436809D01*
X3233608Y-436814D01*
X3199500Y-564108D01*
X-11074555Y-564108D01*
X-11033608Y-493186D01*
X-10999500Y-365892D01*
X-10999500Y-234108D01*
X-11033608Y-106814D01*
X-11033610Y-106811D01*
X-11033610Y-106809D01*
X-11099497Y7310D01*
X-11099499Y7312D01*
X-11099500Y7314D01*
X-11192686Y100500D01*
X-11192689Y100502D01*
X-11192691Y100504D01*
X-11306811Y166391D01*
X-11306809Y166391D01*
X-11339872Y175250D01*
X-11339874Y175251D01*
X-11434108Y200500D01*
X-11513446Y200500D01*
X-11520533Y201531D01*
X-11541855Y212059D01*
X-11564472Y219407D01*
X-11568799Y225362D01*
X-11575396Y228619D01*
X-11586457Y249666D01*
X-11598246Y265892D01*
X-7300500Y265892D01*
X-7300500Y134108D01*
X-7289402Y92691D01*
X-7266391Y6810D01*
X-7200504Y-107309D01*
X-7200502Y-107311D01*
X-7200500Y-107314D01*
X-7107314Y-200500D01*
X-7107312Y-200501D01*
X-7107310Y-200503D01*
X-6993190Y-266390D01*
X-6993192Y-266390D01*
X-6993188Y-266391D01*
X-6993186Y-266392D01*
X-6865892Y-300500D01*
X-6865890Y-300500D01*
X-6734110Y-300500D01*
X-6734108Y-300500D01*
X-6606814Y-266392D01*
X-6606812Y-266390D01*
X-6606810Y-266390D01*
X-6492691Y-200503D01*
X-6492691Y-200502D01*
X-6492686Y-200500D01*
X-6399500Y-107314D01*
X-6395566Y-100500D01*
X-6333610Y6810D01*
X-6333610Y6812D01*
X-6333608Y6814D01*
X-6299500Y134108D01*
X-6299500Y265892D01*
X6299500Y265892D01*
X6299500Y134108D01*
X6310598Y92691D01*
X6333609Y6810D01*
X6399496Y-107309D01*
X6399498Y-107311D01*
X6399500Y-107314D01*
X6492686Y-200500D01*
X6492688Y-200501D01*
X6492690Y-200503D01*
X6606810Y-266390D01*
X6606808Y-266390D01*
X6606812Y-266391D01*
X6606814Y-266392D01*
X6734108Y-300500D01*
X6734110Y-300500D01*
X6865890Y-300500D01*
X6865892Y-300500D01*
X6993186Y-266392D01*
X6993188Y-266390D01*
X6993190Y-266390D01*
X7107309Y-200503D01*
X7107309Y-200502D01*
X7107314Y-200500D01*
X7200500Y-107314D01*
X7204434Y-100500D01*
X7266390Y6810D01*
X7266390Y6812D01*
X7266392Y6814D01*
X7300500Y134108D01*
X7300500Y258468D01*
X13514500Y258468D01*
X13514500Y51533D01*
X13554869Y-151418D01*
X13634058Y-342597D01*
X13749020Y-514651D01*
X13749023Y-514655D01*
X13895345Y-660977D01*
X14067402Y-775941D01*
X14258580Y-855130D01*
X14461535Y-895500D01*
X14461536Y-895500D01*
X14668464Y-895500D01*
X14668465Y-895500D01*
X14871420Y-855130D01*
X15062598Y-775941D01*
X15234655Y-660977D01*
X15380977Y-514655D01*
X15495941Y-342598D01*
X15575130Y-151420D01*
X15615500Y51535D01*
X15615500Y258465D01*
X15615499Y258468D01*
X16054500Y258468D01*
X16054500Y51533D01*
X16094869Y-151418D01*
X16174058Y-342597D01*
X16289020Y-514651D01*
X16289023Y-514655D01*
X16435345Y-660977D01*
X16607402Y-775941D01*
X16798580Y-855130D01*
X17001535Y-895500D01*
X17001536Y-895500D01*
X17208464Y-895500D01*
X17208465Y-895500D01*
X17411420Y-855130D01*
X17602598Y-775941D01*
X17774655Y-660977D01*
X17920977Y-514655D01*
X18035941Y-342598D01*
X18115130Y-151420D01*
X18155500Y51535D01*
X18155500Y258465D01*
X18115130Y461420D01*
X18035941Y652598D01*
X17920977Y824655D01*
X17774655Y970977D01*
X17774651Y970980D01*
X17602597Y1085942D01*
X17411418Y1165131D01*
X17208467Y1205500D01*
X17208465Y1205500D01*
X17001535Y1205500D01*
X17001532Y1205500D01*
X16798581Y1165131D01*
X16607402Y1085942D01*
X16435348Y970980D01*
X16289020Y824652D01*
X16174058Y652598D01*
X16094869Y461419D01*
X16054500Y258468D01*
X15615499Y258468D01*
X15575130Y461420D01*
X15495941Y652598D01*
X15380977Y824655D01*
X15234655Y970977D01*
X15234651Y970980D01*
X15062597Y1085942D01*
X14871418Y1165131D01*
X14668467Y1205500D01*
X14668465Y1205500D01*
X14461535Y1205500D01*
X14461532Y1205500D01*
X14258581Y1165131D01*
X14067402Y1085942D01*
X13895348Y970980D01*
X13749020Y824652D01*
X13634058Y652598D01*
X13554869Y461419D01*
X13514500Y258468D01*
X7300500Y258468D01*
X7300500Y265892D01*
X7266392Y393186D01*
X7266390Y393189D01*
X7266390Y393191D01*
X7200503Y507310D01*
X7200501Y507312D01*
X7200500Y507314D01*
X7107314Y600500D01*
X7107311Y600502D01*
X7107309Y600504D01*
X6993189Y666391D01*
X6993191Y666391D01*
X6943799Y679625D01*
X6865892Y700500D01*
X6734108Y700500D01*
X6656200Y679625D01*
X6606809Y666391D01*
X6492690Y600504D01*
X6399496Y507310D01*
X6333609Y393191D01*
X6333608Y393186D01*
X6299500Y265892D01*
X-6299500Y265892D01*
X-6333608Y393186D01*
X-6333610Y393189D01*
X-6333610Y393191D01*
X-6399497Y507310D01*
X-6399499Y507312D01*
X-6399500Y507314D01*
X-6492686Y600500D01*
X-6492689Y600502D01*
X-6492691Y600504D01*
X-6606811Y666391D01*
X-6606809Y666391D01*
X-6656201Y679625D01*
X-6734108Y700500D01*
X-6865892Y700500D01*
X-6943800Y679625D01*
X-6993191Y666391D01*
X-7107310Y600504D01*
X-7200504Y507310D01*
X-7266391Y393191D01*
X-7266392Y393186D01*
X-7300500Y265892D01*
X-11598246Y265892D01*
X-11600436Y268907D01*
X-11600639Y276654D01*
X-11603859Y282781D01*
X-11601267Y300606D01*
X-11601908Y325123D01*
X-11599500Y334108D01*
X-11599500Y465892D01*
X-11633608Y593186D01*
X-11633610Y593189D01*
X-11633610Y593191D01*
X-11699497Y707310D01*
X-11699499Y707312D01*
X-11699500Y707314D01*
X-11792686Y800500D01*
X-11792689Y800502D01*
X-11792691Y800504D01*
X-11906811Y866391D01*
X-11906809Y866391D01*
X-11972932Y884108D01*
X-12034108Y900500D01*
X-12165892Y900500D01*
X-12227068Y884108D01*
X-12293191Y866391D01*
X-12407310Y800504D01*
X-12500504Y707310D01*
X-12566391Y593191D01*
X-12566392Y593186D01*
X-12600500Y465892D01*
X-17512932Y465892D01*
X-17446814Y483608D01*
X-17446812Y483610D01*
X-17446810Y483610D01*
X-17332691Y549497D01*
X-17332691Y549498D01*
X-17332686Y549500D01*
X-17239500Y642686D01*
X-17202187Y707314D01*
X-17173610Y756810D01*
X-17173610Y756812D01*
X-17173608Y756814D01*
X-17139500Y884108D01*
X-17139500Y1015892D01*
X-17173608Y1143186D01*
X-17173610Y1143189D01*
X-17173610Y1143191D01*
X-17239497Y1257310D01*
X-17239499Y1257312D01*
X-17239500Y1257314D01*
X-17332686Y1350500D01*
X-17332689Y1350502D01*
X-17332691Y1350504D01*
X-17446811Y1416391D01*
X-17446809Y1416391D01*
X-17496201Y1429625D01*
X-17574108Y1450500D01*
X-17705892Y1450500D01*
X-17783800Y1429625D01*
X-17833191Y1416391D01*
X-17947310Y1350504D01*
X-18040504Y1257310D01*
X-18106391Y1143191D01*
X-18108931Y1133712D01*
X-18140500Y1015892D01*
X-21583354Y1015892D01*
X-21651308Y1034100D01*
X-21783092Y1034100D01*
X-21861000Y1013225D01*
X-21910391Y999991D01*
X-22024510Y934104D01*
X-22117704Y840910D01*
X-22183591Y726791D01*
X-22202661Y655622D01*
X-22217700Y599492D01*
X-28377476Y599492D01*
X-28404244Y664115D01*
X-28509578Y821758D01*
X-28643642Y955822D01*
X-28801285Y1061156D01*
X-28801284Y1061156D01*
X-28801286Y1061157D01*
X-28976446Y1133711D01*
X-28976452Y1133713D01*
X-29162400Y1170700D01*
X-29162402Y1170700D01*
X-29351998Y1170700D01*
X-29352001Y1170700D01*
X-29537949Y1133713D01*
X-29537955Y1133711D01*
X-29713115Y1061157D01*
X-29870758Y955822D01*
X-29870762Y955819D01*
X-30004819Y821762D01*
X-30004822Y821758D01*
X-30110157Y664115D01*
X-30182711Y488955D01*
X-30182713Y488949D01*
X-30219700Y303001D01*
X-40644500Y303001D01*
X-40644500Y3274475D01*
X-30219700Y3274475D01*
X-30219700Y2141926D01*
X-30216847Y2111506D01*
X-30216845Y2111497D01*
X-30171993Y1983317D01*
X-30091355Y1874056D01*
X-30091353Y1874054D01*
X-30091350Y1874050D01*
X-30091347Y1874048D01*
X-30091345Y1874046D01*
X-29982084Y1793408D01*
X-29982083Y1793408D01*
X-29982082Y1793407D01*
X-29853899Y1748554D01*
X-29823475Y1745701D01*
X-29823473Y1745700D01*
X-29823466Y1745700D01*
X-28690927Y1745700D01*
X-28690927Y1745701D01*
X-28660501Y1748554D01*
X-28532318Y1793407D01*
X-28423050Y1874050D01*
X-28342407Y1983318D01*
X-28297554Y2111501D01*
X-28294701Y2141927D01*
X-28294700Y2141927D01*
X-28294700Y2265892D01*
X-4600500Y2265892D01*
X-4600500Y2134108D01*
X-4594441Y2111497D01*
X-4566391Y2006810D01*
X-4500504Y1892691D01*
X-4500502Y1892689D01*
X-4500500Y1892686D01*
X-4407314Y1799500D01*
X-4407312Y1799499D01*
X-4407310Y1799497D01*
X-4293190Y1733610D01*
X-4293192Y1733610D01*
X-4293188Y1733609D01*
X-4293186Y1733608D01*
X-4165892Y1699500D01*
X-4165890Y1699500D01*
X-4034110Y1699500D01*
X-4034108Y1699500D01*
X-3906814Y1733608D01*
X-3906812Y1733610D01*
X-3906810Y1733610D01*
X-3792691Y1799497D01*
X-3792691Y1799498D01*
X-3792686Y1799500D01*
X-3699500Y1892686D01*
X-3633608Y2006814D01*
X-3599500Y2134108D01*
X-3599500Y2265892D01*
X-3633608Y2393186D01*
X-3633610Y2393189D01*
X-3633610Y2393191D01*
X-3699497Y2507310D01*
X-3699499Y2507312D01*
X-3699500Y2507314D01*
X-3792686Y2600500D01*
X-3792689Y2600502D01*
X-3792691Y2600504D01*
X-3906811Y2666391D01*
X-3906809Y2666391D01*
X-3956201Y2679625D01*
X-4034108Y2700500D01*
X-4165892Y2700500D01*
X-4243800Y2679625D01*
X-4293191Y2666391D01*
X-4407310Y2600504D01*
X-4500504Y2507310D01*
X-4566391Y2393191D01*
X-4566392Y2393186D01*
X-4600500Y2265892D01*
X-28294700Y2265892D01*
X-28294700Y2798468D01*
X13514500Y2798468D01*
X13514500Y2591533D01*
X13554869Y2388582D01*
X13634058Y2197403D01*
X13691458Y2111497D01*
X13749023Y2025345D01*
X13895345Y1879023D01*
X14067402Y1764059D01*
X14258580Y1684870D01*
X14461535Y1644500D01*
X14461536Y1644500D01*
X14668464Y1644500D01*
X14668465Y1644500D01*
X14871420Y1684870D01*
X15062598Y1764059D01*
X15234655Y1879023D01*
X15380977Y2025345D01*
X15495941Y2197402D01*
X15575130Y2388580D01*
X15615500Y2591535D01*
X15615500Y2798465D01*
X15615499Y2798468D01*
X16054500Y2798468D01*
X16054500Y2591533D01*
X16094869Y2388582D01*
X16174058Y2197403D01*
X16231458Y2111497D01*
X16289023Y2025345D01*
X16435345Y1879023D01*
X16607402Y1764059D01*
X16798580Y1684870D01*
X17001535Y1644500D01*
X17001536Y1644500D01*
X17208464Y1644500D01*
X17208465Y1644500D01*
X17411420Y1684870D01*
X17602598Y1764059D01*
X17774655Y1879023D01*
X17920977Y2025345D01*
X18035941Y2197402D01*
X18115130Y2388580D01*
X18155500Y2591535D01*
X18155500Y2798465D01*
X18115130Y3001420D01*
X18035941Y3192598D01*
X17920977Y3364655D01*
X17774655Y3510977D01*
X17774651Y3510980D01*
X17602597Y3625942D01*
X17411418Y3705131D01*
X17208467Y3745500D01*
X17208465Y3745500D01*
X17001535Y3745500D01*
X17001532Y3745500D01*
X16798581Y3705131D01*
X16607402Y3625942D01*
X16435348Y3510980D01*
X16289020Y3364652D01*
X16174058Y3192598D01*
X16094869Y3001419D01*
X16054500Y2798468D01*
X15615499Y2798468D01*
X15575130Y3001420D01*
X15495941Y3192598D01*
X15380977Y3364655D01*
X15234655Y3510977D01*
X15234651Y3510980D01*
X15062597Y3625942D01*
X14871418Y3705131D01*
X14668467Y3745500D01*
X14668465Y3745500D01*
X14461535Y3745500D01*
X14461532Y3745500D01*
X14258581Y3705131D01*
X14067402Y3625942D01*
X13895348Y3510980D01*
X13749020Y3364652D01*
X13634058Y3192598D01*
X13554869Y3001419D01*
X13514500Y2798468D01*
X-28294700Y2798468D01*
X-28294700Y3274473D01*
X-28294701Y3274475D01*
X-28297554Y3304895D01*
X-28297554Y3304899D01*
X-28342407Y3433082D01*
X-28386397Y3492686D01*
X-28423046Y3542345D01*
X-28423048Y3542347D01*
X-28423050Y3542350D01*
X-28423054Y3542353D01*
X-28423056Y3542355D01*
X-28532317Y3622993D01*
X-28660497Y3667845D01*
X-28660506Y3667847D01*
X-28690926Y3670700D01*
X-28690934Y3670700D01*
X-29823466Y3670700D01*
X-29823475Y3670700D01*
X-29853895Y3667847D01*
X-29853904Y3667845D01*
X-29982084Y3622993D01*
X-30091345Y3542355D01*
X-30091355Y3542345D01*
X-30171993Y3433084D01*
X-30216845Y3304904D01*
X-30216847Y3304895D01*
X-30219700Y3274475D01*
X-40644500Y3274475D01*
X-40644500Y5912566D01*
X-34017200Y5912566D01*
X-34017200Y5643835D01*
X-33982125Y5377415D01*
X-33982125Y5377410D01*
X-33912573Y5117836D01*
X-33809737Y4869568D01*
X-33675368Y4636834D01*
X-33521381Y4436155D01*
X-32879778Y5077759D01*
X-32844371Y5029025D01*
X-32716375Y4901029D01*
X-32667645Y4865625D01*
X-33309248Y4224021D01*
X-33108567Y4070033D01*
X-32875833Y3935664D01*
X-32627565Y3832828D01*
X-32367989Y3763276D01*
X-32101566Y3728201D01*
X-32101563Y3728200D01*
X-31832837Y3728200D01*
X-31832835Y3728201D01*
X-31566415Y3763276D01*
X-31566410Y3763276D01*
X-31306836Y3832828D01*
X-31058568Y3935664D01*
X-30825839Y4070030D01*
X-30625154Y4224021D01*
X-30667025Y4265892D01*
X-8800500Y4265892D01*
X-8800500Y4134108D01*
X-8773706Y4034110D01*
X-8766391Y4006810D01*
X-8700504Y3892691D01*
X-8700502Y3892689D01*
X-8700500Y3892686D01*
X-8607314Y3799500D01*
X-8607312Y3799499D01*
X-8607310Y3799497D01*
X-8493190Y3733610D01*
X-8493192Y3733610D01*
X-8493188Y3733609D01*
X-8493186Y3733608D01*
X-8365892Y3699500D01*
X-8365890Y3699500D01*
X-8234110Y3699500D01*
X-8234108Y3699500D01*
X-8106814Y3733608D01*
X-8106812Y3733610D01*
X-8106810Y3733610D01*
X-7992691Y3799497D01*
X-7992691Y3799498D01*
X-7992686Y3799500D01*
X-7899500Y3892686D01*
X-7891343Y3906814D01*
X-7833610Y4006810D01*
X-7833610Y4006812D01*
X-7833608Y4006814D01*
X-7799500Y4134108D01*
X-7799500Y4165892D01*
X-2700500Y4165892D01*
X-2700500Y4034108D01*
X-2689536Y3993191D01*
X-2666391Y3906810D01*
X-2600504Y3792691D01*
X-2600502Y3792689D01*
X-2600500Y3792686D01*
X-2507314Y3699500D01*
X-2507312Y3699499D01*
X-2507310Y3699497D01*
X-2393190Y3633610D01*
X-2393192Y3633610D01*
X-2393188Y3633609D01*
X-2393186Y3633608D01*
X-2265892Y3599500D01*
X-2265890Y3599500D01*
X-2134110Y3599500D01*
X-2134108Y3599500D01*
X-2006814Y3633608D01*
X-2006812Y3633610D01*
X-2006810Y3633610D01*
X-1892691Y3699497D01*
X-1892691Y3699498D01*
X-1892686Y3699500D01*
X-1799500Y3792686D01*
X-1757234Y3865892D01*
X2609500Y3865892D01*
X2609500Y3734108D01*
X2627255Y3667846D01*
X2643609Y3606810D01*
X2709496Y3492691D01*
X2709498Y3492689D01*
X2709500Y3492686D01*
X2802686Y3399500D01*
X2802688Y3399499D01*
X2802690Y3399497D01*
X2916810Y3333610D01*
X2916808Y3333610D01*
X2916812Y3333609D01*
X2916814Y3333608D01*
X3044108Y3299500D01*
X3044110Y3299500D01*
X3175890Y3299500D01*
X3175892Y3299500D01*
X3303186Y3333608D01*
X3303188Y3333610D01*
X3303190Y3333610D01*
X3417309Y3399497D01*
X3417309Y3399498D01*
X3417314Y3399500D01*
X3510500Y3492686D01*
X3539174Y3542350D01*
X3576390Y3606810D01*
X3576390Y3606812D01*
X3576392Y3606814D01*
X3610500Y3734108D01*
X3610500Y3865892D01*
X3576392Y3993186D01*
X3576390Y3993189D01*
X3576390Y3993191D01*
X3510503Y4107310D01*
X3510501Y4107312D01*
X3510500Y4107314D01*
X3417314Y4200500D01*
X3417311Y4200502D01*
X3417309Y4200504D01*
X3303193Y4266389D01*
X3303186Y4266392D01*
X3175892Y4300500D01*
X3044108Y4300500D01*
X2966200Y4279625D01*
X2916809Y4266391D01*
X2802690Y4200504D01*
X2709496Y4107310D01*
X2643609Y3993191D01*
X2643608Y3993186D01*
X2609500Y3865892D01*
X-1757234Y3865892D01*
X-1733608Y3906814D01*
X-1699500Y4034108D01*
X-1699500Y4165892D01*
X-1733608Y4293186D01*
X-1733610Y4293189D01*
X-1733610Y4293191D01*
X-1799497Y4407310D01*
X-1799499Y4407312D01*
X-1799500Y4407314D01*
X-1892686Y4500500D01*
X-1892689Y4500502D01*
X-1892691Y4500504D01*
X-2006811Y4566391D01*
X-2006809Y4566391D01*
X-2056201Y4579625D01*
X-2134108Y4600500D01*
X-2265892Y4600500D01*
X-2343800Y4579625D01*
X-2393191Y4566391D01*
X-2507310Y4500504D01*
X-2600504Y4407310D01*
X-2666391Y4293191D01*
X-2673706Y4265891D01*
X-2700500Y4165892D01*
X-7799500Y4165892D01*
X-7799500Y4265892D01*
X-7833608Y4393186D01*
X-7833610Y4393189D01*
X-7833610Y4393191D01*
X-7899497Y4507310D01*
X-7899499Y4507312D01*
X-7899500Y4507314D01*
X-7992686Y4600500D01*
X-7992689Y4600502D01*
X-7992691Y4600504D01*
X-8106811Y4666391D01*
X-8106809Y4666391D01*
X-8156201Y4679625D01*
X-8234108Y4700500D01*
X-8365892Y4700500D01*
X-8443800Y4679625D01*
X-8493191Y4666391D01*
X-8607310Y4600504D01*
X-8700504Y4507310D01*
X-8766391Y4393191D01*
X-8766392Y4393186D01*
X-8800500Y4265892D01*
X-30667025Y4265892D01*
X-31266757Y4865624D01*
X-31218025Y4901029D01*
X-31090029Y5029025D01*
X-31054624Y5077757D01*
X-30413021Y4436154D01*
X-30259030Y4636839D01*
X-30124664Y4869568D01*
X-30021828Y5117836D01*
X-29952276Y5377410D01*
X-29952276Y5377415D01*
X-29917201Y5643835D01*
X-29917200Y5643837D01*
X-29917200Y5865892D01*
X-21400500Y5865892D01*
X-21400500Y5734108D01*
X-21388063Y5687693D01*
X-21366391Y5606810D01*
X-21300504Y5492691D01*
X-21300502Y5492689D01*
X-21300500Y5492686D01*
X-21207314Y5399500D01*
X-21207312Y5399499D01*
X-21207310Y5399497D01*
X-21093190Y5333610D01*
X-21093192Y5333610D01*
X-21093188Y5333609D01*
X-21093186Y5333608D01*
X-20965892Y5299500D01*
X-20965890Y5299500D01*
X-20834110Y5299500D01*
X-20834108Y5299500D01*
X-20737033Y5325511D01*
X13415000Y5325511D01*
X13415000Y5144490D01*
X13443316Y4965711D01*
X13499250Y4793560D01*
X13581430Y4632272D01*
X13652424Y4534558D01*
X14121328Y5003464D01*
X14164901Y4927993D01*
X14257993Y4834901D01*
X14333460Y4791330D01*
X13864556Y4322426D01*
X13864556Y4322425D01*
X13962263Y4251436D01*
X13962269Y4251432D01*
X14123559Y4169251D01*
X14295710Y4113317D01*
X14474490Y4085000D01*
X14655510Y4085000D01*
X14834289Y4113317D01*
X15006440Y4169251D01*
X15167730Y4251432D01*
X15167735Y4251436D01*
X15265442Y4322425D01*
X15265442Y4322426D01*
X14796538Y4791330D01*
X14872007Y4834901D01*
X14965099Y4927993D01*
X15008670Y5003462D01*
X15477574Y4534558D01*
X15477575Y4534558D01*
X15548564Y4632265D01*
X15548568Y4632270D01*
X15630749Y4793560D01*
X15686683Y4965711D01*
X15715000Y5144490D01*
X15715000Y5325511D01*
X15955000Y5325511D01*
X15955000Y5144490D01*
X15983316Y4965711D01*
X16039250Y4793560D01*
X16121430Y4632272D01*
X16192424Y4534558D01*
X16661328Y5003464D01*
X16704901Y4927993D01*
X16797993Y4834901D01*
X16873460Y4791330D01*
X16404556Y4322426D01*
X16404556Y4322425D01*
X16502263Y4251436D01*
X16502269Y4251432D01*
X16663559Y4169251D01*
X16835710Y4113317D01*
X17014490Y4085000D01*
X17195510Y4085000D01*
X17374289Y4113317D01*
X17546440Y4169251D01*
X17707730Y4251432D01*
X17707735Y4251436D01*
X17805442Y4322425D01*
X17805442Y4322426D01*
X17336538Y4791330D01*
X17412007Y4834901D01*
X17505099Y4927993D01*
X17548670Y5003462D01*
X18017574Y4534558D01*
X18017575Y4534558D01*
X18088564Y4632265D01*
X18088568Y4632270D01*
X18170749Y4793560D01*
X18226683Y4965711D01*
X18255000Y5144490D01*
X18255000Y5325511D01*
X18226683Y5504290D01*
X18170749Y5676441D01*
X18088568Y5837731D01*
X18088564Y5837737D01*
X18017575Y5935444D01*
X18017574Y5935444D01*
X17548670Y5466540D01*
X17505099Y5542007D01*
X17412007Y5635099D01*
X17336536Y5678672D01*
X17805442Y6147576D01*
X17707728Y6218570D01*
X17546440Y6300750D01*
X17374289Y6356684D01*
X17195510Y6385000D01*
X17014490Y6385000D01*
X16835710Y6356684D01*
X16663559Y6300750D01*
X16502269Y6218569D01*
X16502265Y6218567D01*
X16404556Y6147577D01*
X16873461Y5678672D01*
X16797993Y5635099D01*
X16704901Y5542007D01*
X16661328Y5466539D01*
X16192423Y5935444D01*
X16121433Y5837735D01*
X16121431Y5837731D01*
X16039250Y5676441D01*
X15983316Y5504290D01*
X15955000Y5325511D01*
X15715000Y5325511D01*
X15686683Y5504290D01*
X15630749Y5676441D01*
X15548568Y5837731D01*
X15548564Y5837737D01*
X15477575Y5935444D01*
X15477574Y5935444D01*
X15008670Y5466540D01*
X14965099Y5542007D01*
X14872007Y5635099D01*
X14796536Y5678672D01*
X15265442Y6147576D01*
X15167728Y6218570D01*
X15006440Y6300750D01*
X14834289Y6356684D01*
X14655510Y6385000D01*
X14474490Y6385000D01*
X14295710Y6356684D01*
X14123559Y6300750D01*
X13962269Y6218569D01*
X13962265Y6218567D01*
X13864556Y6147577D01*
X14333461Y5678672D01*
X14257993Y5635099D01*
X14164901Y5542007D01*
X14121328Y5466539D01*
X13652423Y5935444D01*
X13581433Y5837735D01*
X13581431Y5837731D01*
X13499250Y5676441D01*
X13443316Y5504290D01*
X13415000Y5325511D01*
X-20737033Y5325511D01*
X-20706814Y5333608D01*
X-20706812Y5333610D01*
X-20706810Y5333610D01*
X-20592691Y5399497D01*
X-20592691Y5399498D01*
X-20592686Y5399500D01*
X-20499500Y5492686D01*
X-20433608Y5606814D01*
X-20399500Y5734108D01*
X-20399500Y5865892D01*
X-20433608Y5993186D01*
X-20433610Y5993189D01*
X-20433610Y5993191D01*
X-20499497Y6107310D01*
X-20499499Y6107312D01*
X-20499500Y6107314D01*
X-20592686Y6200500D01*
X-20592689Y6200502D01*
X-20592691Y6200504D01*
X-20706811Y6266391D01*
X-20706809Y6266391D01*
X-20756201Y6279625D01*
X-20834108Y6300500D01*
X-20965892Y6300500D01*
X-21043800Y6279625D01*
X-21093191Y6266391D01*
X-21207310Y6200504D01*
X-21300504Y6107310D01*
X-21366391Y5993191D01*
X-21381864Y5935444D01*
X-21400500Y5865892D01*
X-29917200Y5865892D01*
X-29917200Y5912563D01*
X-29917201Y5912566D01*
X-29952276Y6178986D01*
X-29952276Y6178991D01*
X-30021828Y6438565D01*
X-30124664Y6686833D01*
X-30259033Y6919567D01*
X-30413022Y7120248D01*
X-31054625Y6478645D01*
X-31090029Y6527375D01*
X-31218025Y6655371D01*
X-31266758Y6690778D01*
X-30691643Y7265892D01*
X1199500Y7265892D01*
X1199500Y7134108D01*
X1203214Y7120248D01*
X1233608Y7006813D01*
X1266698Y6949499D01*
X1279419Y6889651D01*
X1266698Y6850501D01*
X1233608Y6793188D01*
X1218321Y6736135D01*
X1199500Y6665892D01*
X1199500Y6534108D01*
X1229579Y6421849D01*
X1233609Y6406810D01*
X1299496Y6292691D01*
X1299498Y6292689D01*
X1299500Y6292686D01*
X1392686Y6199500D01*
X1392688Y6199499D01*
X1392690Y6199497D01*
X1506810Y6133610D01*
X1506808Y6133610D01*
X1506812Y6133609D01*
X1506814Y6133608D01*
X1634108Y6099500D01*
X1634110Y6099500D01*
X1765890Y6099500D01*
X1765892Y6099500D01*
X1893186Y6133608D01*
X1893188Y6133610D01*
X1893190Y6133610D01*
X1941850Y6161705D01*
X2007314Y6199500D01*
X2100500Y6292686D01*
X2100503Y6292691D01*
X2166390Y6406810D01*
X2166390Y6406812D01*
X2166392Y6406814D01*
X2200500Y6534108D01*
X2200500Y6665892D01*
X2166392Y6793186D01*
X2133300Y6850502D01*
X2120579Y6910346D01*
X2133299Y6949497D01*
X2166392Y7006814D01*
X2200500Y7134108D01*
X2200500Y7265892D01*
X2166392Y7393186D01*
X2166390Y7393189D01*
X2166390Y7393191D01*
X2100503Y7507310D01*
X2100501Y7507312D01*
X2100500Y7507314D01*
X2007314Y7600500D01*
X2007311Y7600502D01*
X2007309Y7600504D01*
X1893189Y7666391D01*
X1893191Y7666391D01*
X1843799Y7679625D01*
X1765892Y7700500D01*
X1634108Y7700500D01*
X1556200Y7679625D01*
X1506809Y7666391D01*
X1392690Y7600504D01*
X1299496Y7507310D01*
X1233609Y7393191D01*
X1214539Y7322022D01*
X1199500Y7265892D01*
X-30691643Y7265892D01*
X-30625154Y7332381D01*
X-30825834Y7486368D01*
X-31058568Y7620737D01*
X-31306836Y7723573D01*
X-31566412Y7793125D01*
X-31832835Y7828200D01*
X-32101566Y7828200D01*
X-32367986Y7793125D01*
X-32367991Y7793125D01*
X-32627565Y7723573D01*
X-32875833Y7620737D01*
X-33108567Y7486368D01*
X-33309248Y7332381D01*
X-32667644Y6690777D01*
X-32716375Y6655371D01*
X-32844371Y6527375D01*
X-32879777Y6478644D01*
X-33521381Y7120248D01*
X-33675368Y6919567D01*
X-33809737Y6686833D01*
X-33912573Y6438565D01*
X-33982125Y6178991D01*
X-33982125Y6178986D01*
X-34017200Y5912566D01*
X-40644500Y5912566D01*
X-40644500Y8210404D01*
X-40625593Y8268595D01*
X-40576093Y8304559D01*
X-40514907Y8304559D01*
X-40465407Y8268595D01*
X-40463185Y8265406D01*
X-40375001Y8133431D01*
X-40374998Y8133427D01*
X-40263574Y8022003D01*
X-40263570Y8022000D01*
X-40132550Y7934453D01*
X-40132541Y7934449D01*
X-39986950Y7874143D01*
X-39832396Y7843401D01*
X-39832392Y7843400D01*
X-39503601Y7843400D01*
X-39503600Y7843401D01*
X-39503600Y8343400D01*
X-39203600Y8343400D01*
X-39203600Y7843401D01*
X-39203599Y7843400D01*
X-38874808Y7843400D01*
X-38874805Y7843401D01*
X-38720251Y7874143D01*
X-38574660Y7934449D01*
X-38574651Y7934453D01*
X-38443631Y8022000D01*
X-38443627Y8022003D01*
X-38332203Y8133427D01*
X-38332200Y8133431D01*
X-38244653Y8264451D01*
X-38244649Y8264460D01*
X-38184343Y8410052D01*
X-38167764Y8493400D01*
X-38693792Y8493400D01*
X-38674044Y8527604D01*
X-38653600Y8603904D01*
X-38653600Y8682896D01*
X-38674044Y8759196D01*
X-38693792Y8793400D01*
X-38167765Y8793400D01*
X-38167765Y8793401D01*
X-36489436Y8793401D01*
X-36489435Y8793400D01*
X-35963408Y8793400D01*
X-35983156Y8759196D01*
X-36003600Y8682896D01*
X-36003600Y8603904D01*
X-35983156Y8527604D01*
X-35963408Y8493400D01*
X-36489436Y8493400D01*
X-36472858Y8410052D01*
X-36412552Y8264460D01*
X-36412548Y8264451D01*
X-36325001Y8133431D01*
X-36324998Y8133427D01*
X-36213574Y8022003D01*
X-36213570Y8022000D01*
X-36082550Y7934453D01*
X-36082541Y7934449D01*
X-35936950Y7874143D01*
X-35782396Y7843401D01*
X-35782392Y7843400D01*
X-35303601Y7843400D01*
X-35303600Y7843401D01*
X-35303600Y8343400D01*
X-35003600Y8343400D01*
X-35003600Y7843401D01*
X-35003599Y7843400D01*
X-34524808Y7843400D01*
X-34524805Y7843401D01*
X-34370251Y7874143D01*
X-34224660Y7934449D01*
X-34224651Y7934453D01*
X-34093631Y8022000D01*
X-34093627Y8022003D01*
X-33982203Y8133427D01*
X-33982200Y8133431D01*
X-33894653Y8264451D01*
X-33894649Y8264460D01*
X-33834343Y8410052D01*
X-33817764Y8493400D01*
X-34343792Y8493400D01*
X-34324044Y8527604D01*
X-34303600Y8603904D01*
X-34303600Y8644747D01*
X13514500Y8644747D01*
X13514500Y6905254D01*
X13514501Y6905242D01*
X13526132Y6846773D01*
X13526134Y6846767D01*
X13570445Y6780452D01*
X13570448Y6780448D01*
X13636769Y6736133D01*
X13681231Y6727289D01*
X13695241Y6724502D01*
X13695246Y6724502D01*
X13695252Y6724500D01*
X13695253Y6724500D01*
X15434747Y6724500D01*
X15434748Y6724500D01*
X15493231Y6736133D01*
X15559552Y6780448D01*
X15603867Y6846769D01*
X15615500Y6905252D01*
X15615500Y7878468D01*
X16054500Y7878468D01*
X16054500Y7671533D01*
X16094869Y7468582D01*
X16174058Y7277403D01*
X16181750Y7265891D01*
X16289023Y7105345D01*
X16435345Y6959023D01*
X16607402Y6844059D01*
X16798580Y6764870D01*
X17001535Y6724500D01*
X17001536Y6724500D01*
X17208464Y6724500D01*
X17208465Y6724500D01*
X17411420Y6764870D01*
X17602598Y6844059D01*
X17774655Y6959023D01*
X17920977Y7105345D01*
X18035941Y7277402D01*
X18115130Y7468580D01*
X18155500Y7671535D01*
X18155500Y7878465D01*
X18115130Y8081420D01*
X18035941Y8272598D01*
X17920977Y8444655D01*
X17774655Y8590977D01*
X17774651Y8590980D01*
X17602597Y8705942D01*
X17411418Y8785131D01*
X17208467Y8825500D01*
X17208465Y8825500D01*
X17001535Y8825500D01*
X17001532Y8825500D01*
X16798581Y8785131D01*
X16607402Y8705942D01*
X16435348Y8590980D01*
X16289020Y8444652D01*
X16174058Y8272598D01*
X16094869Y8081419D01*
X16054500Y7878468D01*
X15615500Y7878468D01*
X15615500Y8644748D01*
X15603867Y8703231D01*
X15559552Y8769552D01*
X15559548Y8769555D01*
X15493233Y8813866D01*
X15493231Y8813867D01*
X15493228Y8813868D01*
X15493227Y8813868D01*
X15434758Y8825499D01*
X15434748Y8825500D01*
X13695252Y8825500D01*
X13695251Y8825500D01*
X13695241Y8825499D01*
X13636772Y8813868D01*
X13636766Y8813866D01*
X13570451Y8769555D01*
X13570445Y8769549D01*
X13526134Y8703234D01*
X13526132Y8703228D01*
X13514501Y8644759D01*
X13514500Y8644747D01*
X-34303600Y8644747D01*
X-34303600Y8682896D01*
X-34324044Y8759196D01*
X-34343792Y8793400D01*
X-33817765Y8793400D01*
X-33817765Y8793401D01*
X-33834343Y8876749D01*
X-33894649Y9022341D01*
X-33894653Y9022350D01*
X-33982200Y9153370D01*
X-33982203Y9153374D01*
X-34093627Y9264798D01*
X-34093631Y9264801D01*
X-34224651Y9352348D01*
X-34224660Y9352352D01*
X-34370251Y9412658D01*
X-34524805Y9443400D01*
X-35003599Y9443400D01*
X-35003600Y9443399D01*
X-35003600Y8943400D01*
X-35303600Y8943400D01*
X-35303600Y9443399D01*
X-35326899Y9466698D01*
X-35354676Y9521215D01*
X-35345105Y9581647D01*
X-35323792Y9607265D01*
X-35324824Y9608297D01*
X-35320238Y9612884D01*
X-35320235Y9612885D01*
X-35213085Y9720035D01*
X-35137319Y9851265D01*
X-35098100Y9997634D01*
X-35098100Y10149166D01*
X-35137319Y10295535D01*
X-35137321Y10295538D01*
X-35137321Y10295540D01*
X-35213082Y10426761D01*
X-35213084Y10426763D01*
X-35213085Y10426765D01*
X-35320235Y10533915D01*
X-35320238Y10533917D01*
X-35320240Y10533919D01*
X-35397708Y10578645D01*
X-35451462Y10609680D01*
X-35451460Y10609680D01*
X-35508253Y10624897D01*
X-35597834Y10648900D01*
X-35749366Y10648900D01*
X-35838948Y10624897D01*
X-35895740Y10609680D01*
X-36026961Y10533919D01*
X-36134119Y10426761D01*
X-36209880Y10295540D01*
X-36209881Y10295535D01*
X-36249100Y10149166D01*
X-36249100Y9997634D01*
X-36214514Y9868553D01*
X-36209880Y9851261D01*
X-36134119Y9720040D01*
X-36134117Y9720038D01*
X-36134115Y9720035D01*
X-36026965Y9612885D01*
X-35961287Y9574966D01*
X-35920347Y9529497D01*
X-35913951Y9468647D01*
X-35944544Y9415659D01*
X-35972902Y9397766D01*
X-36082541Y9352352D01*
X-36082550Y9352348D01*
X-36213570Y9264801D01*
X-36213574Y9264798D01*
X-36324998Y9153374D01*
X-36325001Y9153370D01*
X-36412548Y9022350D01*
X-36412552Y9022341D01*
X-36472858Y8876749D01*
X-36489436Y8793401D01*
X-38167765Y8793401D01*
X-38184343Y8876749D01*
X-38244649Y9022341D01*
X-38244653Y9022350D01*
X-38332200Y9153370D01*
X-38332203Y9153374D01*
X-38443627Y9264798D01*
X-38443631Y9264801D01*
X-38574651Y9352348D01*
X-38574660Y9352352D01*
X-38720251Y9412658D01*
X-38874805Y9443400D01*
X-39203599Y9443400D01*
X-39203600Y9443399D01*
X-39203600Y8943400D01*
X-39503600Y8943400D01*
X-39503600Y9443399D01*
X-39503601Y9443400D01*
X-39832396Y9443400D01*
X-39986950Y9412658D01*
X-40132541Y9352352D01*
X-40132550Y9352348D01*
X-40263570Y9264801D01*
X-40263574Y9264798D01*
X-40374998Y9153374D01*
X-40375001Y9153370D01*
X-40463185Y9021395D01*
X-40511235Y8983516D01*
X-40572373Y8981114D01*
X-40623247Y9015107D01*
X-40644424Y9072511D01*
X-40644500Y9076397D01*
X-40644500Y10657892D01*
X-32428500Y10657892D01*
X-32428500Y10526108D01*
X-32401881Y10426765D01*
X-32394391Y10398810D01*
X-32328504Y10284691D01*
X-32328502Y10284689D01*
X-32328500Y10284686D01*
X-32235314Y10191500D01*
X-32235312Y10191499D01*
X-32235310Y10191497D01*
X-32121190Y10125610D01*
X-32121192Y10125610D01*
X-32121188Y10125609D01*
X-32121186Y10125608D01*
X-31993892Y10091500D01*
X-31993890Y10091500D01*
X-31862110Y10091500D01*
X-31862108Y10091500D01*
X-31734814Y10125608D01*
X-31734812Y10125610D01*
X-31734810Y10125610D01*
X-31620691Y10191497D01*
X-31620691Y10191498D01*
X-31620686Y10191500D01*
X-31527500Y10284686D01*
X-31461608Y10398814D01*
X-31427500Y10526108D01*
X-31427500Y10657892D01*
X-31461608Y10785186D01*
X-31486490Y10828282D01*
X-31486490Y10828284D01*
X-31511321Y10871292D01*
X-29167100Y10871292D01*
X-29167100Y10739508D01*
X-29165519Y10733608D01*
X-29132991Y10612210D01*
X-29067104Y10498091D01*
X-29067102Y10498089D01*
X-29067100Y10498086D01*
X-28973914Y10404900D01*
X-28973912Y10404899D01*
X-28973910Y10404897D01*
X-28859790Y10339010D01*
X-28859792Y10339010D01*
X-28859788Y10339009D01*
X-28859786Y10339008D01*
X-28732492Y10304900D01*
X-28732490Y10304900D01*
X-28600710Y10304900D01*
X-28600708Y10304900D01*
X-28473414Y10339008D01*
X-28473412Y10339010D01*
X-28473410Y10339010D01*
X-28359291Y10404897D01*
X-28359291Y10404898D01*
X-28359286Y10404900D01*
X-28266100Y10498086D01*
X-28245412Y10533919D01*
X-28200210Y10612210D01*
X-28200210Y10612212D01*
X-28200208Y10612214D01*
X-28166100Y10739508D01*
X-28166100Y10871292D01*
X-28200208Y10998586D01*
X-28200210Y10998589D01*
X-28200210Y10998591D01*
X-28266097Y11112710D01*
X-28266099Y11112712D01*
X-28266100Y11112714D01*
X-28359286Y11205900D01*
X-28359289Y11205902D01*
X-28359291Y11205904D01*
X-28463194Y11265892D01*
X-5200500Y11265892D01*
X-5200500Y11134108D01*
X-5193850Y11109291D01*
X-5166391Y11006810D01*
X-5100504Y10892691D01*
X-5100502Y10892689D01*
X-5100500Y10892686D01*
X-5007314Y10799500D01*
X-5007312Y10799499D01*
X-5007310Y10799497D01*
X-4893190Y10733610D01*
X-4893192Y10733610D01*
X-4893188Y10733609D01*
X-4893186Y10733608D01*
X-4765892Y10699500D01*
X-4765890Y10699500D01*
X-4634110Y10699500D01*
X-4634108Y10699500D01*
X-4506814Y10733608D01*
X-4506812Y10733610D01*
X-4506810Y10733610D01*
X-4392691Y10799497D01*
X-4392691Y10799498D01*
X-4392686Y10799500D01*
X-4299500Y10892686D01*
X-4299497Y10892691D01*
X-4233610Y11006810D01*
X-4233610Y11006812D01*
X-4233608Y11006814D01*
X-4206149Y11109292D01*
X11842900Y11109292D01*
X11842900Y10977508D01*
X11872979Y10865249D01*
X11877009Y10850210D01*
X11942896Y10736092D01*
X11942897Y10736090D01*
X11942898Y10736089D01*
X11942900Y10736086D01*
X12036086Y10642900D01*
X12036088Y10642899D01*
X12036090Y10642897D01*
X12150210Y10577010D01*
X12150208Y10577010D01*
X12150212Y10577009D01*
X12150214Y10577008D01*
X12277508Y10542900D01*
X12277510Y10542900D01*
X12409290Y10542900D01*
X12409292Y10542900D01*
X12536586Y10577008D01*
X12536588Y10577010D01*
X12536590Y10577010D01*
X12650709Y10642897D01*
X12650709Y10642898D01*
X12650714Y10642900D01*
X12743900Y10736086D01*
X12743902Y10736091D01*
X12743904Y10736092D01*
X12809790Y10850210D01*
X12809790Y10850212D01*
X12809792Y10850214D01*
X12843900Y10977508D01*
X12843900Y11109292D01*
X12809792Y11236586D01*
X12809790Y11236589D01*
X12809790Y11236591D01*
X12743903Y11350710D01*
X12743901Y11350712D01*
X12743900Y11350714D01*
X12650714Y11443900D01*
X12650711Y11443902D01*
X12650709Y11443904D01*
X12536589Y11509791D01*
X12536591Y11509791D01*
X12487199Y11523025D01*
X12409292Y11543900D01*
X12277508Y11543900D01*
X12199600Y11523025D01*
X12150209Y11509791D01*
X12036090Y11443904D01*
X11942896Y11350710D01*
X11877009Y11236591D01*
X11877008Y11236586D01*
X11842900Y11109292D01*
X-4206149Y11109292D01*
X-4199500Y11134108D01*
X-4199500Y11265892D01*
X-4233608Y11393186D01*
X-4233610Y11393189D01*
X-4233610Y11393191D01*
X-4299497Y11507310D01*
X-4299499Y11507312D01*
X-4299500Y11507314D01*
X-4392686Y11600500D01*
X-4392689Y11600502D01*
X-4392691Y11600504D01*
X-4506811Y11666391D01*
X-4506809Y11666391D01*
X-4556201Y11679625D01*
X-4634108Y11700500D01*
X-4765892Y11700500D01*
X-4843800Y11679625D01*
X-4893191Y11666391D01*
X-5007310Y11600504D01*
X-5100504Y11507310D01*
X-5166391Y11393191D01*
X-5166392Y11393186D01*
X-5200500Y11265892D01*
X-28463194Y11265892D01*
X-28473411Y11271791D01*
X-28473409Y11271791D01*
X-28522801Y11285025D01*
X-28600708Y11305900D01*
X-28732492Y11305900D01*
X-28810400Y11285025D01*
X-28859791Y11271791D01*
X-28973910Y11205904D01*
X-29067104Y11112710D01*
X-29132991Y10998591D01*
X-29132992Y10998586D01*
X-29167100Y10871292D01*
X-31511321Y10871292D01*
X-31527497Y10899310D01*
X-31527499Y10899312D01*
X-31527500Y10899314D01*
X-31620686Y10992500D01*
X-31620689Y10992502D01*
X-31620691Y10992504D01*
X-31734811Y11058391D01*
X-31734809Y11058391D01*
X-31784201Y11071625D01*
X-31862108Y11092500D01*
X-31993892Y11092500D01*
X-32071800Y11071625D01*
X-32121191Y11058391D01*
X-32235310Y10992504D01*
X-32328504Y10899310D01*
X-32394391Y10785191D01*
X-32394392Y10785186D01*
X-32428500Y10657892D01*
X-40644500Y10657892D01*
X-40644500Y12181892D01*
X-28466100Y12181892D01*
X-28466100Y12050108D01*
X-28452489Y11999310D01*
X-28431991Y11922810D01*
X-28366104Y11808691D01*
X-28366102Y11808689D01*
X-28366100Y11808686D01*
X-28272914Y11715500D01*
X-28272912Y11715499D01*
X-28272910Y11715497D01*
X-28158790Y11649610D01*
X-28158792Y11649610D01*
X-28158788Y11649609D01*
X-28158786Y11649608D01*
X-28031492Y11615500D01*
X-28031490Y11615500D01*
X-27899710Y11615500D01*
X-27899708Y11615500D01*
X-27772414Y11649608D01*
X-27772412Y11649610D01*
X-27772410Y11649610D01*
X-27658291Y11715497D01*
X-27658291Y11715498D01*
X-27658286Y11715500D01*
X-27565100Y11808686D01*
X-27558001Y11820981D01*
X-27512533Y11861922D01*
X-27451683Y11868318D01*
X-27398694Y11837726D01*
X-27386529Y11820981D01*
X-27350104Y11757891D01*
X-27350102Y11757889D01*
X-27350100Y11757886D01*
X-27256914Y11664700D01*
X-27256912Y11664699D01*
X-27256910Y11664697D01*
X-27142790Y11598810D01*
X-27142792Y11598810D01*
X-27142788Y11598809D01*
X-27142786Y11598808D01*
X-27015492Y11564700D01*
X-27015490Y11564700D01*
X-26883710Y11564700D01*
X-26883708Y11564700D01*
X-26756414Y11598808D01*
X-26756412Y11598810D01*
X-26756410Y11598810D01*
X-26642291Y11664697D01*
X-26642291Y11664698D01*
X-26642286Y11664700D01*
X-26549100Y11757886D01*
X-26486743Y11865892D01*
X-9800500Y11865892D01*
X-9800500Y11734108D01*
X-9770421Y11621849D01*
X-9766391Y11606810D01*
X-9700504Y11492691D01*
X-9700502Y11492689D01*
X-9700500Y11492686D01*
X-9607314Y11399500D01*
X-9607312Y11399499D01*
X-9607310Y11399497D01*
X-9493190Y11333610D01*
X-9493192Y11333610D01*
X-9493188Y11333609D01*
X-9493186Y11333608D01*
X-9365892Y11299500D01*
X-9365890Y11299500D01*
X-9234110Y11299500D01*
X-9234108Y11299500D01*
X-9106814Y11333608D01*
X-9106812Y11333610D01*
X-9106810Y11333610D01*
X-9064362Y11358117D01*
X-8992691Y11399497D01*
X-8992691Y11399498D01*
X-8992686Y11399500D01*
X-8899500Y11492686D01*
X-8889624Y11509792D01*
X-8833610Y11606810D01*
X-8833610Y11606812D01*
X-8833608Y11606814D01*
X-8799500Y11734108D01*
X-8799500Y11865892D01*
X-8833608Y11993186D01*
X-8833610Y11993189D01*
X-8833610Y11993191D01*
X-8899497Y12107310D01*
X-8899499Y12107312D01*
X-8899500Y12107314D01*
X-8992686Y12200500D01*
X-8992689Y12200502D01*
X-8992691Y12200504D01*
X-9106811Y12266391D01*
X-9106809Y12266391D01*
X-9156201Y12279625D01*
X-9234108Y12300500D01*
X-9365892Y12300500D01*
X-9443800Y12279625D01*
X-9493191Y12266391D01*
X-9607310Y12200504D01*
X-9700504Y12107310D01*
X-9766391Y11993191D01*
X-9777830Y11950500D01*
X-9800500Y11865892D01*
X-26486743Y11865892D01*
X-26483208Y11872014D01*
X-26449100Y11999308D01*
X-26449100Y12131092D01*
X-26483208Y12258386D01*
X-26483210Y12258389D01*
X-26483210Y12258391D01*
X-26549097Y12372510D01*
X-26549099Y12372512D01*
X-26549100Y12372514D01*
X-26642286Y12465700D01*
X-26642289Y12465702D01*
X-26642291Y12465704D01*
X-26756411Y12531591D01*
X-26756409Y12531591D01*
X-26805801Y12544825D01*
X-26883708Y12565700D01*
X-27015492Y12565700D01*
X-27093400Y12544825D01*
X-27142791Y12531591D01*
X-27256910Y12465704D01*
X-27350102Y12372512D01*
X-27357202Y12360215D01*
X-27402674Y12319277D01*
X-27463525Y12312885D01*
X-27516511Y12343480D01*
X-27528673Y12360220D01*
X-27565100Y12423314D01*
X-27658286Y12516500D01*
X-27658289Y12516502D01*
X-27658291Y12516504D01*
X-27772411Y12582391D01*
X-27772409Y12582391D01*
X-27836263Y12599500D01*
X-27899708Y12616500D01*
X-28031492Y12616500D01*
X-28094937Y12599500D01*
X-28158791Y12582391D01*
X-28272910Y12516504D01*
X-28366104Y12423310D01*
X-28431991Y12309191D01*
X-28434588Y12299497D01*
X-28466100Y12181892D01*
X-40644500Y12181892D01*
X-40644500Y12765892D01*
X-16700500Y12765892D01*
X-16700500Y12634108D01*
X-16682454Y12566758D01*
X-16666391Y12506810D01*
X-16600504Y12392691D01*
X-16600502Y12392689D01*
X-16600500Y12392686D01*
X-16507314Y12299500D01*
X-16507312Y12299499D01*
X-16507310Y12299497D01*
X-16393190Y12233610D01*
X-16393192Y12233610D01*
X-16393188Y12233609D01*
X-16393186Y12233608D01*
X-16265892Y12199500D01*
X-16265890Y12199500D01*
X-16134110Y12199500D01*
X-16134108Y12199500D01*
X-16006814Y12233608D01*
X-16006812Y12233610D01*
X-16006810Y12233610D01*
X-15892691Y12299497D01*
X-15892691Y12299498D01*
X-15892686Y12299500D01*
X-15799500Y12392686D01*
X-15733608Y12506814D01*
X-15717778Y12565892D01*
X-5200500Y12565892D01*
X-5200500Y12434108D01*
X-5171751Y12326814D01*
X-5166391Y12306810D01*
X-5100504Y12192691D01*
X-5100502Y12192689D01*
X-5100500Y12192686D01*
X-5007314Y12099500D01*
X-5007312Y12099499D01*
X-5007310Y12099497D01*
X-4893190Y12033610D01*
X-4893192Y12033610D01*
X-4893188Y12033609D01*
X-4893186Y12033608D01*
X-4765892Y11999500D01*
X-4765890Y11999500D01*
X-4634110Y11999500D01*
X-4634108Y11999500D01*
X-4506814Y12033608D01*
X-4506812Y12033610D01*
X-4506810Y12033610D01*
X-4392691Y12099497D01*
X-4392691Y12099498D01*
X-4392686Y12099500D01*
X-4299500Y12192686D01*
X-4295566Y12199500D01*
X-4233610Y12306810D01*
X-4233610Y12306812D01*
X-4233608Y12306814D01*
X-4199500Y12434108D01*
X-4199500Y12516892D01*
X8038500Y12516892D01*
X8038500Y12385108D01*
X8061439Y12299497D01*
X8072609Y12257810D01*
X8138496Y12143691D01*
X8138498Y12143689D01*
X8138500Y12143686D01*
X8231686Y12050500D01*
X8231688Y12050499D01*
X8231690Y12050497D01*
X8345810Y11984610D01*
X8345808Y11984610D01*
X8345812Y11984609D01*
X8345814Y11984608D01*
X8473108Y11950500D01*
X8473110Y11950500D01*
X8604890Y11950500D01*
X8604892Y11950500D01*
X8732186Y11984608D01*
X8732188Y11984610D01*
X8732190Y11984610D01*
X8846309Y12050497D01*
X8846309Y12050498D01*
X8846314Y12050500D01*
X8939500Y12143686D01*
X8967793Y12192691D01*
X9005390Y12257810D01*
X9005390Y12257812D01*
X9005392Y12257814D01*
X9039500Y12385108D01*
X9039500Y12516892D01*
X9021012Y12585892D01*
X14839500Y12585892D01*
X14839500Y12454108D01*
X14861364Y12372510D01*
X14873609Y12326810D01*
X14939496Y12212691D01*
X14939498Y12212689D01*
X14939500Y12212686D01*
X15032686Y12119500D01*
X15032688Y12119499D01*
X15032690Y12119497D01*
X15146810Y12053610D01*
X15146808Y12053610D01*
X15146812Y12053609D01*
X15146814Y12053608D01*
X15274108Y12019500D01*
X15274110Y12019500D01*
X15405890Y12019500D01*
X15405892Y12019500D01*
X15533186Y12053608D01*
X15533188Y12053610D01*
X15533190Y12053610D01*
X15647309Y12119497D01*
X15647309Y12119498D01*
X15647314Y12119500D01*
X15740500Y12212686D01*
X15740503Y12212691D01*
X15806390Y12326810D01*
X15806390Y12326812D01*
X15806392Y12326814D01*
X15840500Y12454108D01*
X15840500Y12585892D01*
X15806392Y12713186D01*
X15806390Y12713189D01*
X15806390Y12713191D01*
X15740503Y12827310D01*
X15740501Y12827312D01*
X15740500Y12827314D01*
X15647314Y12920500D01*
X15647311Y12920502D01*
X15647309Y12920504D01*
X15533189Y12986391D01*
X15533191Y12986391D01*
X15480534Y13000500D01*
X15405892Y13020500D01*
X15274108Y13020500D01*
X15199466Y13000500D01*
X15146809Y12986391D01*
X15032690Y12920504D01*
X14939496Y12827310D01*
X14873609Y12713191D01*
X14873608Y12713186D01*
X14839500Y12585892D01*
X9021012Y12585892D01*
X9005392Y12644186D01*
X9005390Y12644189D01*
X9005390Y12644191D01*
X8939503Y12758310D01*
X8939501Y12758312D01*
X8939500Y12758314D01*
X8846314Y12851500D01*
X8846311Y12851502D01*
X8846309Y12851504D01*
X8732189Y12917391D01*
X8732191Y12917391D01*
X8682799Y12930625D01*
X8604892Y12951500D01*
X8473108Y12951500D01*
X8395200Y12930625D01*
X8345809Y12917391D01*
X8231690Y12851504D01*
X8138496Y12758310D01*
X8072609Y12644191D01*
X8056050Y12582391D01*
X8038500Y12516892D01*
X-4199500Y12516892D01*
X-4199500Y12565892D01*
X-4233608Y12693186D01*
X-4233610Y12693189D01*
X-4233610Y12693191D01*
X-4299497Y12807310D01*
X-4299499Y12807312D01*
X-4299500Y12807314D01*
X-4392686Y12900500D01*
X-4392689Y12900502D01*
X-4392691Y12900504D01*
X-4506811Y12966391D01*
X-4506809Y12966391D01*
X-4556201Y12979625D01*
X-4634108Y13000500D01*
X-4765892Y13000500D01*
X-4843800Y12979625D01*
X-4893191Y12966391D01*
X-5007310Y12900504D01*
X-5100504Y12807310D01*
X-5166391Y12693191D01*
X-5166392Y12693186D01*
X-5200500Y12565892D01*
X-15717778Y12565892D01*
X-15699500Y12634108D01*
X-15699500Y12765892D01*
X-15733608Y12893186D01*
X-15733610Y12893189D01*
X-15733610Y12893191D01*
X-15799497Y13007310D01*
X-15799499Y13007312D01*
X-15799500Y13007314D01*
X-15892686Y13100500D01*
X-15892689Y13100502D01*
X-15892691Y13100504D01*
X-16005947Y13165892D01*
X-9800500Y13165892D01*
X-9800500Y13034108D01*
X-9787714Y12986391D01*
X-9766391Y12906810D01*
X-9700504Y12792691D01*
X-9700502Y12792689D01*
X-9700500Y12792686D01*
X-9607314Y12699500D01*
X-9607312Y12699499D01*
X-9607310Y12699497D01*
X-9493190Y12633610D01*
X-9493192Y12633610D01*
X-9493188Y12633609D01*
X-9493186Y12633608D01*
X-9365892Y12599500D01*
X-9365890Y12599500D01*
X-9234110Y12599500D01*
X-9234108Y12599500D01*
X-9106814Y12633608D01*
X-9106812Y12633610D01*
X-9106810Y12633610D01*
X-9064362Y12658117D01*
X-8992691Y12699497D01*
X-8992691Y12699498D01*
X-8992686Y12699500D01*
X-8899500Y12792686D01*
X-8879507Y12827314D01*
X-8833610Y12906810D01*
X-8833610Y12906812D01*
X-8833608Y12906814D01*
X-8799500Y13034108D01*
X-8799500Y13165892D01*
X-8833608Y13293186D01*
X-8833610Y13293189D01*
X-8833610Y13293191D01*
X-8899497Y13407310D01*
X-8899499Y13407312D01*
X-8899500Y13407314D01*
X-8992686Y13500500D01*
X-8992689Y13500502D01*
X-8992691Y13500504D01*
X-9106811Y13566391D01*
X-9106809Y13566391D01*
X-9156201Y13579625D01*
X-9234108Y13600500D01*
X-9365892Y13600500D01*
X-9443800Y13579625D01*
X-9493191Y13566391D01*
X-9607310Y13500504D01*
X-9700504Y13407310D01*
X-9766391Y13293191D01*
X-9766392Y13293186D01*
X-9800500Y13165892D01*
X-16005947Y13165892D01*
X-16006811Y13166391D01*
X-16006809Y13166391D01*
X-16056201Y13179625D01*
X-16134108Y13200500D01*
X-16265892Y13200500D01*
X-16343800Y13179625D01*
X-16393191Y13166391D01*
X-16507310Y13100504D01*
X-16600504Y13007310D01*
X-16666391Y12893191D01*
X-16666392Y12893186D01*
X-16700500Y12765892D01*
X-40644500Y12765892D01*
X-40644500Y13865892D01*
X-5200500Y13865892D01*
X-5200500Y13734108D01*
X-5170421Y13621849D01*
X-5166391Y13606810D01*
X-5100504Y13492691D01*
X-5100502Y13492689D01*
X-5100500Y13492686D01*
X-5007314Y13399500D01*
X-5007312Y13399499D01*
X-5007310Y13399497D01*
X-4893190Y13333610D01*
X-4893192Y13333610D01*
X-4893188Y13333609D01*
X-4893186Y13333608D01*
X-4765892Y13299500D01*
X-4765890Y13299500D01*
X-4634110Y13299500D01*
X-4634108Y13299500D01*
X-4506814Y13333608D01*
X-4506812Y13333610D01*
X-4506810Y13333610D01*
X-4392691Y13399497D01*
X-4392691Y13399498D01*
X-4392686Y13399500D01*
X-4299500Y13492686D01*
X-4299497Y13492691D01*
X-4233610Y13606810D01*
X-4233610Y13606812D01*
X-4233608Y13606814D01*
X-4199500Y13734108D01*
X-4199500Y13865892D01*
X-4233608Y13993186D01*
X-4233610Y13993189D01*
X-4233610Y13993191D01*
X-4299497Y14107310D01*
X-4299499Y14107312D01*
X-4299500Y14107314D01*
X-4392686Y14200500D01*
X-4392689Y14200502D01*
X-4392691Y14200504D01*
X-4506811Y14266391D01*
X-4506809Y14266391D01*
X-4572932Y14284108D01*
X-4634108Y14300500D01*
X-4765892Y14300500D01*
X-4827068Y14284108D01*
X-4893191Y14266391D01*
X-5007310Y14200504D01*
X-5100504Y14107310D01*
X-5166391Y13993191D01*
X-5166392Y13993186D01*
X-5200500Y13865892D01*
X-40644500Y13865892D01*
X-40644500Y14665892D01*
X-22600500Y14665892D01*
X-22600500Y14534108D01*
X-22577429Y14448004D01*
X-22566391Y14406810D01*
X-22500504Y14292691D01*
X-22500502Y14292689D01*
X-22500500Y14292686D01*
X-22407314Y14199500D01*
X-22407312Y14199499D01*
X-22407310Y14199497D01*
X-22293190Y14133610D01*
X-22293192Y14133610D01*
X-22293188Y14133609D01*
X-22293186Y14133608D01*
X-22165892Y14099500D01*
X-22165890Y14099500D01*
X-22034110Y14099500D01*
X-22034108Y14099500D01*
X-21906814Y14133608D01*
X-21906812Y14133610D01*
X-21906810Y14133610D01*
X-21792691Y14199497D01*
X-21792691Y14199498D01*
X-21792686Y14199500D01*
X-21699500Y14292686D01*
X-21699497Y14292691D01*
X-21633610Y14406810D01*
X-21633610Y14406812D01*
X-21633608Y14406814D01*
X-21599500Y14534108D01*
X-21599500Y14665892D01*
X-18400500Y14665892D01*
X-18400500Y14534108D01*
X-18377429Y14448004D01*
X-18366391Y14406810D01*
X-18300504Y14292691D01*
X-18300502Y14292689D01*
X-18300500Y14292686D01*
X-18207314Y14199500D01*
X-18207312Y14199499D01*
X-18207310Y14199497D01*
X-18093190Y14133610D01*
X-18093192Y14133610D01*
X-18093188Y14133609D01*
X-18093186Y14133608D01*
X-17965892Y14099500D01*
X-17965890Y14099500D01*
X-17834110Y14099500D01*
X-17834108Y14099500D01*
X-17706814Y14133608D01*
X-17706812Y14133610D01*
X-17706810Y14133610D01*
X-17592691Y14199497D01*
X-17592691Y14199498D01*
X-17592686Y14199500D01*
X-17499500Y14292686D01*
X-17494988Y14300500D01*
X-17479924Y14326594D01*
X-17433608Y14406814D01*
X-17431176Y14415892D01*
X11842900Y14415892D01*
X11842900Y14284108D01*
X11865571Y14199497D01*
X11877009Y14156810D01*
X11942896Y14042691D01*
X11942898Y14042689D01*
X11942900Y14042686D01*
X12036086Y13949500D01*
X12036088Y13949499D01*
X12036090Y13949497D01*
X12150210Y13883610D01*
X12150208Y13883610D01*
X12150212Y13883609D01*
X12150214Y13883608D01*
X12277508Y13849500D01*
X12277510Y13849500D01*
X12409290Y13849500D01*
X12409292Y13849500D01*
X12536586Y13883608D01*
X12536588Y13883610D01*
X12536590Y13883610D01*
X12650709Y13949497D01*
X12650709Y13949498D01*
X12650714Y13949500D01*
X12743900Y14042686D01*
X12809792Y14156814D01*
X12843900Y14284108D01*
X12843900Y14415892D01*
X12809792Y14543186D01*
X12809790Y14543189D01*
X12809790Y14543191D01*
X12743903Y14657310D01*
X12743901Y14657312D01*
X12743900Y14657314D01*
X12650714Y14750500D01*
X12650711Y14750502D01*
X12650709Y14750504D01*
X12536589Y14816391D01*
X12536591Y14816391D01*
X12487199Y14829625D01*
X12409292Y14850500D01*
X12277508Y14850500D01*
X12199600Y14829625D01*
X12150209Y14816391D01*
X12036090Y14750504D01*
X11942896Y14657310D01*
X11877009Y14543191D01*
X11857939Y14472022D01*
X11842900Y14415892D01*
X-17431176Y14415892D01*
X-17399500Y14534108D01*
X-17399500Y14665892D01*
X-17433608Y14793186D01*
X-17433610Y14793189D01*
X-17433610Y14793191D01*
X-17499497Y14907310D01*
X-17499499Y14907312D01*
X-17499500Y14907314D01*
X-17592686Y15000500D01*
X-17592689Y15000502D01*
X-17592691Y15000504D01*
X-17706811Y15066391D01*
X-17706809Y15066391D01*
X-17756201Y15079625D01*
X-17834108Y15100500D01*
X-17965892Y15100500D01*
X-18043800Y15079625D01*
X-18093191Y15066391D01*
X-18207310Y15000504D01*
X-18300504Y14907310D01*
X-18366391Y14793191D01*
X-18377830Y14750500D01*
X-18400500Y14665892D01*
X-21599500Y14665892D01*
X-21633608Y14793186D01*
X-21633610Y14793189D01*
X-21633610Y14793191D01*
X-21699497Y14907310D01*
X-21699499Y14907312D01*
X-21699500Y14907314D01*
X-21792686Y15000500D01*
X-21792689Y15000502D01*
X-21792691Y15000504D01*
X-21906811Y15066391D01*
X-21906809Y15066391D01*
X-21956201Y15079625D01*
X-22034108Y15100500D01*
X-22165892Y15100500D01*
X-22243800Y15079625D01*
X-22293191Y15066391D01*
X-22407310Y15000504D01*
X-22500504Y14907310D01*
X-22566391Y14793191D01*
X-22577830Y14750500D01*
X-22600500Y14665892D01*
X-40644500Y14665892D01*
X-40644500Y16850404D01*
X-40625593Y16908595D01*
X-40576093Y16944559D01*
X-40514907Y16944559D01*
X-40465407Y16908595D01*
X-40463185Y16905406D01*
X-40375001Y16773431D01*
X-40374998Y16773427D01*
X-40263574Y16662003D01*
X-40263570Y16662000D01*
X-40132550Y16574453D01*
X-40132541Y16574449D01*
X-39986950Y16514143D01*
X-39832396Y16483401D01*
X-39832392Y16483400D01*
X-39503601Y16483400D01*
X-39503600Y16483401D01*
X-39503600Y16983400D01*
X-39203600Y16983400D01*
X-39203600Y16483401D01*
X-39203599Y16483400D01*
X-38874808Y16483400D01*
X-38874805Y16483401D01*
X-38720251Y16514143D01*
X-38574660Y16574449D01*
X-38574651Y16574453D01*
X-38443631Y16662000D01*
X-38443627Y16662003D01*
X-38332203Y16773427D01*
X-38332200Y16773431D01*
X-38244653Y16904451D01*
X-38244649Y16904460D01*
X-38184343Y17050052D01*
X-38167764Y17133400D01*
X-38693792Y17133400D01*
X-38674044Y17167604D01*
X-38653600Y17243904D01*
X-38653600Y17322896D01*
X-38674044Y17399196D01*
X-38693792Y17433400D01*
X-38167765Y17433400D01*
X-38167765Y17433401D01*
X-36489436Y17433401D01*
X-36489435Y17433400D01*
X-35963408Y17433400D01*
X-35983156Y17399196D01*
X-36003600Y17322896D01*
X-36003600Y17243904D01*
X-35983156Y17167604D01*
X-35963408Y17133400D01*
X-36489436Y17133400D01*
X-36472858Y17050052D01*
X-36412552Y16904460D01*
X-36412548Y16904451D01*
X-36325001Y16773431D01*
X-36324998Y16773427D01*
X-36213574Y16662003D01*
X-36213570Y16662000D01*
X-36082550Y16574453D01*
X-36082538Y16574447D01*
X-35972903Y16529035D01*
X-35926377Y16489299D01*
X-35912093Y16429804D01*
X-35935508Y16373276D01*
X-35961287Y16351835D01*
X-36026963Y16313917D01*
X-36134119Y16206761D01*
X-36209880Y16075540D01*
X-36209881Y16075535D01*
X-36249100Y15929166D01*
X-36249100Y15777634D01*
X-36214514Y15648553D01*
X-36209880Y15631261D01*
X-36134119Y15500040D01*
X-36134117Y15500038D01*
X-36134115Y15500035D01*
X-36026965Y15392885D01*
X-36026963Y15392884D01*
X-36026961Y15392882D01*
X-35895739Y15317121D01*
X-35895741Y15317121D01*
X-35895737Y15317120D01*
X-35895735Y15317119D01*
X-35749366Y15277900D01*
X-35749364Y15277900D01*
X-35597836Y15277900D01*
X-35597834Y15277900D01*
X-35451465Y15317119D01*
X-35451463Y15317121D01*
X-35451461Y15317121D01*
X-35338582Y15382292D01*
X-32733300Y15382292D01*
X-32733300Y15250508D01*
X-32703221Y15138249D01*
X-32699191Y15123210D01*
X-32633304Y15009091D01*
X-32633302Y15009089D01*
X-32633300Y15009086D01*
X-32540114Y14915900D01*
X-32540112Y14915899D01*
X-32540110Y14915897D01*
X-32425990Y14850010D01*
X-32425992Y14850010D01*
X-32425988Y14850009D01*
X-32425986Y14850008D01*
X-32298692Y14815900D01*
X-32298690Y14815900D01*
X-32166910Y14815900D01*
X-32166908Y14815900D01*
X-32039614Y14850008D01*
X-32039612Y14850010D01*
X-32039610Y14850010D01*
X-31925491Y14915897D01*
X-31925491Y14915898D01*
X-31925486Y14915900D01*
X-31832300Y15009086D01*
X-31766408Y15123214D01*
X-31732300Y15250508D01*
X-31732300Y15382292D01*
X-31766408Y15509586D01*
X-31766410Y15509589D01*
X-31766410Y15509591D01*
X-31832297Y15623710D01*
X-31832299Y15623712D01*
X-31832300Y15623714D01*
X-31925486Y15716900D01*
X-31925489Y15716902D01*
X-31925491Y15716904D01*
X-32039611Y15782791D01*
X-32039609Y15782791D01*
X-32089001Y15796025D01*
X-32166908Y15816900D01*
X-32298692Y15816900D01*
X-32376600Y15796025D01*
X-32425991Y15782791D01*
X-32540110Y15716904D01*
X-32633304Y15623710D01*
X-32699191Y15509591D01*
X-32699192Y15509586D01*
X-32733300Y15382292D01*
X-35338582Y15382292D01*
X-35320240Y15392882D01*
X-35320240Y15392883D01*
X-35320235Y15392885D01*
X-35213085Y15500035D01*
X-35141681Y15623710D01*
X-35137321Y15631261D01*
X-35137321Y15631263D01*
X-35137319Y15631265D01*
X-35098100Y15777634D01*
X-35098100Y15929166D01*
X-35105261Y15955892D01*
X11842900Y15955892D01*
X11842900Y15824108D01*
X11853971Y15782791D01*
X11877009Y15696810D01*
X11942896Y15582691D01*
X11942898Y15582689D01*
X11942900Y15582686D01*
X12036086Y15489500D01*
X12036088Y15489499D01*
X12036090Y15489497D01*
X12150210Y15423610D01*
X12150208Y15423610D01*
X12150212Y15423609D01*
X12150214Y15423608D01*
X12277508Y15389500D01*
X12277510Y15389500D01*
X12409290Y15389500D01*
X12409292Y15389500D01*
X12536586Y15423608D01*
X12536588Y15423610D01*
X12536590Y15423610D01*
X12650709Y15489497D01*
X12650709Y15489498D01*
X12650714Y15489500D01*
X12743900Y15582686D01*
X12809792Y15696814D01*
X12843900Y15824108D01*
X12843900Y15955892D01*
X12809792Y16083186D01*
X12809790Y16083189D01*
X12809790Y16083191D01*
X12743903Y16197310D01*
X12743901Y16197312D01*
X12743900Y16197314D01*
X12650714Y16290500D01*
X12650711Y16290502D01*
X12650709Y16290504D01*
X12536589Y16356391D01*
X12536591Y16356391D01*
X12473573Y16373276D01*
X12409292Y16390500D01*
X12277508Y16390500D01*
X12213227Y16373276D01*
X12150209Y16356391D01*
X12036090Y16290504D01*
X11942896Y16197310D01*
X11877009Y16083191D01*
X11877008Y16083186D01*
X11842900Y15955892D01*
X-35105261Y15955892D01*
X-35137319Y16075535D01*
X-35137321Y16075538D01*
X-35137321Y16075540D01*
X-35213082Y16206761D01*
X-35213084Y16206763D01*
X-35213085Y16206765D01*
X-35320235Y16313915D01*
X-35320238Y16313917D01*
X-35324824Y16318503D01*
X-35323112Y16320216D01*
X-35351816Y16361976D01*
X-35350219Y16423140D01*
X-35326898Y16460103D01*
X-35303600Y16483401D01*
X-35303600Y16983400D01*
X-35003600Y16983400D01*
X-35003600Y16483401D01*
X-35003599Y16483400D01*
X-34524808Y16483400D01*
X-34524805Y16483401D01*
X-34370251Y16514143D01*
X-34224660Y16574449D01*
X-34224651Y16574453D01*
X-34093631Y16662000D01*
X-34093627Y16662003D01*
X-33989738Y16765892D01*
X7174500Y16765892D01*
X7174500Y16634108D01*
X7190486Y16574447D01*
X7208609Y16506810D01*
X7274496Y16392691D01*
X7274498Y16392689D01*
X7274500Y16392686D01*
X7367686Y16299500D01*
X7367688Y16299499D01*
X7367690Y16299497D01*
X7481810Y16233610D01*
X7481808Y16233610D01*
X7481812Y16233609D01*
X7481814Y16233608D01*
X7609108Y16199500D01*
X7609110Y16199500D01*
X7740890Y16199500D01*
X7740892Y16199500D01*
X7868186Y16233608D01*
X7868188Y16233610D01*
X7868190Y16233610D01*
X7982309Y16299497D01*
X7982309Y16299498D01*
X7982314Y16299500D01*
X8075500Y16392686D01*
X8096930Y16429804D01*
X8141390Y16506810D01*
X8141390Y16506812D01*
X8141392Y16506814D01*
X8175500Y16634108D01*
X8175500Y16765892D01*
X8141392Y16893186D01*
X8141390Y16893189D01*
X8141390Y16893191D01*
X8075503Y17007310D01*
X8075501Y17007312D01*
X8075500Y17007314D01*
X7982314Y17100500D01*
X7982311Y17100502D01*
X7982309Y17100504D01*
X7868189Y17166391D01*
X7868191Y17166391D01*
X7818799Y17179625D01*
X7740892Y17200500D01*
X7609108Y17200500D01*
X7531200Y17179625D01*
X7481809Y17166391D01*
X7367690Y17100504D01*
X7274496Y17007310D01*
X7208609Y16893191D01*
X7208608Y16893186D01*
X7174500Y16765892D01*
X-33989738Y16765892D01*
X-33982203Y16773427D01*
X-33982200Y16773431D01*
X-33946149Y16827383D01*
X-33894653Y16904452D01*
X-33894649Y16904460D01*
X-33834343Y17050052D01*
X-33817764Y17133400D01*
X-34343792Y17133400D01*
X-34324044Y17167604D01*
X-34303600Y17243904D01*
X-34303600Y17322896D01*
X-34324044Y17399196D01*
X-34343792Y17433400D01*
X-33817765Y17433400D01*
X-33817765Y17433401D01*
X-33834343Y17516749D01*
X-33894649Y17662341D01*
X-33894653Y17662350D01*
X-33982200Y17793370D01*
X-33982203Y17793374D01*
X-34093627Y17904798D01*
X-34093631Y17904801D01*
X-34185058Y17965892D01*
X-10500500Y17965892D01*
X-10500500Y17834108D01*
X-10476251Y17743610D01*
X-10466391Y17706810D01*
X-10400504Y17592691D01*
X-10400502Y17592689D01*
X-10400500Y17592686D01*
X-10307314Y17499500D01*
X-10307312Y17499499D01*
X-10307310Y17499497D01*
X-10193190Y17433610D01*
X-10193192Y17433610D01*
X-10193188Y17433609D01*
X-10193186Y17433608D01*
X-10065892Y17399500D01*
X-10065890Y17399500D01*
X-9934110Y17399500D01*
X-9934108Y17399500D01*
X-9806814Y17433608D01*
X-9806812Y17433610D01*
X-9806810Y17433610D01*
X-9692691Y17499497D01*
X-9692691Y17499498D01*
X-9692686Y17499500D01*
X-9646294Y17545892D01*
X11842900Y17545892D01*
X11842900Y17414108D01*
X11846896Y17399196D01*
X11877009Y17286810D01*
X11942896Y17172691D01*
X11942898Y17172689D01*
X11942900Y17172686D01*
X12036086Y17079500D01*
X12036088Y17079499D01*
X12036090Y17079497D01*
X12150210Y17013610D01*
X12150208Y17013610D01*
X12150212Y17013609D01*
X12150214Y17013608D01*
X12277508Y16979500D01*
X12277510Y16979500D01*
X12409290Y16979500D01*
X12409292Y16979500D01*
X12536586Y17013608D01*
X12536588Y17013610D01*
X12536590Y17013610D01*
X12650709Y17079497D01*
X12650709Y17079498D01*
X12650714Y17079500D01*
X12743900Y17172686D01*
X12743903Y17172691D01*
X12809790Y17286810D01*
X12809790Y17286812D01*
X12809792Y17286814D01*
X12843900Y17414108D01*
X12843900Y17545892D01*
X12809792Y17673186D01*
X12809790Y17673189D01*
X12809790Y17673191D01*
X12743903Y17787310D01*
X12743901Y17787312D01*
X12743900Y17787314D01*
X12650714Y17880500D01*
X12650711Y17880502D01*
X12650709Y17880504D01*
X12536589Y17946391D01*
X12536591Y17946391D01*
X12487199Y17959625D01*
X12409292Y17980500D01*
X12277508Y17980500D01*
X12199600Y17959625D01*
X12150209Y17946391D01*
X12036090Y17880504D01*
X11942896Y17787310D01*
X11877009Y17673191D01*
X11872164Y17655107D01*
X11842900Y17545892D01*
X-9646294Y17545892D01*
X-9599500Y17592686D01*
X-9533608Y17706814D01*
X-9499500Y17834108D01*
X-9499500Y17965892D01*
X-9533608Y18093186D01*
X-9533610Y18093189D01*
X-9533610Y18093191D01*
X-9599497Y18207310D01*
X-9599499Y18207312D01*
X-9599500Y18207314D01*
X-9668078Y18275892D01*
X-5820500Y18275892D01*
X-5820500Y18144108D01*
X-5804233Y18083400D01*
X-5786391Y18016810D01*
X-5720504Y17902691D01*
X-5720502Y17902689D01*
X-5720500Y17902686D01*
X-5627314Y17809500D01*
X-5627312Y17809499D01*
X-5627310Y17809497D01*
X-5513190Y17743610D01*
X-5513192Y17743610D01*
X-5513188Y17743609D01*
X-5513186Y17743608D01*
X-5385892Y17709500D01*
X-5385890Y17709500D01*
X-5254110Y17709500D01*
X-5254108Y17709500D01*
X-5126814Y17743608D01*
X-5126812Y17743610D01*
X-5126810Y17743610D01*
X-5012691Y17809497D01*
X-5012691Y17809498D01*
X-5012686Y17809500D01*
X-4919500Y17902686D01*
X-4853608Y18016814D01*
X-4819500Y18144108D01*
X-4819500Y18275892D01*
X-4853608Y18403186D01*
X-4853610Y18403189D01*
X-4853610Y18403191D01*
X-4919497Y18517310D01*
X-4919499Y18517312D01*
X-4919500Y18517314D01*
X-5012686Y18610500D01*
X-5012689Y18610502D01*
X-5012691Y18610504D01*
X-5126811Y18676391D01*
X-5126809Y18676391D01*
X-5187625Y18692686D01*
X-5254108Y18710500D01*
X-5385892Y18710500D01*
X-5452375Y18692686D01*
X-5513191Y18676391D01*
X-5627310Y18610504D01*
X-5720504Y18517310D01*
X-5786391Y18403191D01*
X-5786392Y18403186D01*
X-5820500Y18275892D01*
X-9668078Y18275892D01*
X-9692686Y18300500D01*
X-9692689Y18300502D01*
X-9692691Y18300504D01*
X-9806811Y18366391D01*
X-9806809Y18366391D01*
X-9856201Y18379625D01*
X-9934108Y18400500D01*
X-10065892Y18400500D01*
X-10143800Y18379625D01*
X-10193191Y18366391D01*
X-10307310Y18300504D01*
X-10400504Y18207310D01*
X-10466391Y18093191D01*
X-10477251Y18052658D01*
X-10500500Y17965892D01*
X-34185058Y17965892D01*
X-34224651Y17992348D01*
X-34224660Y17992352D01*
X-34370251Y18052658D01*
X-34524805Y18083400D01*
X-35003599Y18083400D01*
X-35003600Y18083399D01*
X-35003600Y17583400D01*
X-35303600Y17583400D01*
X-35303600Y18083399D01*
X-35303601Y18083400D01*
X-35782396Y18083400D01*
X-35936950Y18052658D01*
X-36082541Y17992352D01*
X-36082550Y17992348D01*
X-36213570Y17904801D01*
X-36213574Y17904798D01*
X-36324998Y17793374D01*
X-36325001Y17793370D01*
X-36412548Y17662350D01*
X-36412552Y17662341D01*
X-36472858Y17516749D01*
X-36489436Y17433401D01*
X-38167765Y17433401D01*
X-38184343Y17516749D01*
X-38244649Y17662341D01*
X-38244653Y17662350D01*
X-38332200Y17793370D01*
X-38332203Y17793374D01*
X-38443627Y17904798D01*
X-38443631Y17904801D01*
X-38574651Y17992348D01*
X-38574660Y17992352D01*
X-38720251Y18052658D01*
X-38874805Y18083400D01*
X-39203599Y18083400D01*
X-39203600Y18083399D01*
X-39203600Y17583400D01*
X-39503600Y17583400D01*
X-39503600Y18083399D01*
X-39503601Y18083400D01*
X-39832396Y18083400D01*
X-39986950Y18052658D01*
X-40132541Y17992352D01*
X-40132550Y17992348D01*
X-40263570Y17904801D01*
X-40263574Y17904798D01*
X-40374998Y17793374D01*
X-40375001Y17793370D01*
X-40463185Y17661395D01*
X-40511235Y17623516D01*
X-40572373Y17621114D01*
X-40623247Y17655107D01*
X-40644424Y17712511D01*
X-40644500Y17716397D01*
X-40644500Y19039892D01*
X-15893100Y19039892D01*
X-15893100Y18908108D01*
X-15863021Y18795849D01*
X-15858991Y18780810D01*
X-15793104Y18666691D01*
X-15793102Y18666689D01*
X-15793100Y18666686D01*
X-15699914Y18573500D01*
X-15699912Y18573499D01*
X-15699910Y18573497D01*
X-15585790Y18507610D01*
X-15585792Y18507610D01*
X-15585788Y18507609D01*
X-15585786Y18507608D01*
X-15458492Y18473500D01*
X-15458490Y18473500D01*
X-15326710Y18473500D01*
X-15326708Y18473500D01*
X-15199414Y18507608D01*
X-15199412Y18507610D01*
X-15199410Y18507610D01*
X-15085291Y18573497D01*
X-15085291Y18573498D01*
X-15085286Y18573500D01*
X-14992100Y18666686D01*
X-14926208Y18780814D01*
X-14892100Y18908108D01*
X-14892100Y18997892D01*
X-13519300Y18997892D01*
X-13519300Y18866108D01*
X-13503412Y18806814D01*
X-13485191Y18738810D01*
X-13419304Y18624691D01*
X-13419302Y18624689D01*
X-13419300Y18624686D01*
X-13326114Y18531500D01*
X-13326112Y18531499D01*
X-13326110Y18531497D01*
X-13211990Y18465610D01*
X-13211992Y18465610D01*
X-13211988Y18465609D01*
X-13211986Y18465608D01*
X-13084692Y18431500D01*
X-13084690Y18431500D01*
X-12952910Y18431500D01*
X-12952908Y18431500D01*
X-12825614Y18465608D01*
X-12825612Y18465610D01*
X-12825610Y18465610D01*
X-12711491Y18531497D01*
X-12711491Y18531498D01*
X-12711486Y18531500D01*
X-12618300Y18624686D01*
X-12552408Y18738814D01*
X-12518300Y18866108D01*
X-12518300Y18997892D01*
X-12536520Y19065892D01*
X-9600500Y19065892D01*
X-9600500Y18934108D01*
X-9570421Y18821849D01*
X-9566391Y18806810D01*
X-9500504Y18692691D01*
X-9500502Y18692689D01*
X-9500500Y18692686D01*
X-9407314Y18599500D01*
X-9407312Y18599499D01*
X-9407310Y18599497D01*
X-9293190Y18533610D01*
X-9293192Y18533610D01*
X-9293188Y18533609D01*
X-9293186Y18533608D01*
X-9165892Y18499500D01*
X-9165890Y18499500D01*
X-9034110Y18499500D01*
X-9034108Y18499500D01*
X-8906814Y18533608D01*
X-8906812Y18533610D01*
X-8906810Y18533610D01*
X-8792691Y18599497D01*
X-8792691Y18599498D01*
X-8792686Y18599500D01*
X-8699500Y18692686D01*
X-8633608Y18806814D01*
X-8599500Y18934108D01*
X-8599500Y19065892D01*
X-8633608Y19193186D01*
X-8633610Y19193189D01*
X-8633610Y19193191D01*
X-8699497Y19307310D01*
X-8699499Y19307312D01*
X-8699500Y19307314D01*
X-8792686Y19400500D01*
X-8792689Y19400502D01*
X-8792691Y19400504D01*
X-8906811Y19466391D01*
X-8906809Y19466391D01*
X-8956201Y19479625D01*
X-9034108Y19500500D01*
X-9165892Y19500500D01*
X-9243800Y19479625D01*
X-9293191Y19466391D01*
X-9407310Y19400504D01*
X-9500504Y19307310D01*
X-9566391Y19193191D01*
X-9566392Y19193186D01*
X-9600500Y19065892D01*
X-12536520Y19065892D01*
X-12552408Y19125186D01*
X-12552410Y19125189D01*
X-12552410Y19125191D01*
X-12618297Y19239310D01*
X-12618299Y19239312D01*
X-12618300Y19239314D01*
X-12711486Y19332500D01*
X-12711489Y19332502D01*
X-12711491Y19332504D01*
X-12825611Y19398391D01*
X-12825609Y19398391D01*
X-12875001Y19411625D01*
X-12952908Y19432500D01*
X-13084692Y19432500D01*
X-13162600Y19411625D01*
X-13211991Y19398391D01*
X-13326110Y19332504D01*
X-13419304Y19239310D01*
X-13485191Y19125191D01*
X-13485192Y19125186D01*
X-13519300Y18997892D01*
X-14892100Y18997892D01*
X-14892100Y19039892D01*
X-14926208Y19167186D01*
X-14926210Y19167189D01*
X-14926210Y19167191D01*
X-14992097Y19281310D01*
X-14992099Y19281312D01*
X-14992100Y19281314D01*
X-15085286Y19374500D01*
X-15085289Y19374502D01*
X-15085291Y19374504D01*
X-15199411Y19440391D01*
X-15199409Y19440391D01*
X-15248801Y19453625D01*
X-15326708Y19474500D01*
X-15458492Y19474500D01*
X-15536400Y19453625D01*
X-15585791Y19440391D01*
X-15699910Y19374504D01*
X-15793104Y19281310D01*
X-15858991Y19167191D01*
X-15870246Y19125186D01*
X-15893100Y19039892D01*
X-40644500Y19039892D01*
X-40644500Y21029961D01*
X-32590500Y21029961D01*
X-32590500Y20801640D01*
X-32554786Y20576145D01*
X-32484231Y20359001D01*
X-32380580Y20155573D01*
X-32380576Y20155567D01*
X-32246384Y19970869D01*
X-32246382Y19970867D01*
X-32246379Y19970863D01*
X-32084937Y19809421D01*
X-32084934Y19809419D01*
X-32084932Y19809417D01*
X-31900234Y19675225D01*
X-31900228Y19675221D01*
X-31696799Y19571569D01*
X-31479660Y19501016D01*
X-31479659Y19501016D01*
X-31479656Y19501015D01*
X-31254160Y19465300D01*
X-31254157Y19465300D01*
X-31025840Y19465300D01*
X-30800345Y19501015D01*
X-30800344Y19501016D01*
X-30800340Y19501016D01*
X-30583201Y19571569D01*
X-30379772Y19675221D01*
X-30195063Y19809421D01*
X-30033621Y19970863D01*
X-29899421Y20155572D01*
X-29795769Y20359001D01*
X-29725216Y20576140D01*
X-29714070Y20646511D01*
X-29689500Y20801640D01*
X-29689500Y21029961D01*
X-29725215Y21255456D01*
X-29758287Y21357241D01*
X-29795769Y21472599D01*
X-29899421Y21676028D01*
X-29940249Y21732222D01*
X-29940249Y21732224D01*
X-29978991Y21785547D01*
X-20760500Y21785547D01*
X-20760500Y20046054D01*
X-20760499Y20046042D01*
X-20748868Y19987573D01*
X-20748866Y19987567D01*
X-20704555Y19921252D01*
X-20704552Y19921248D01*
X-20638231Y19876933D01*
X-20593769Y19868089D01*
X-20579759Y19865302D01*
X-20579754Y19865302D01*
X-20579748Y19865300D01*
X-20579747Y19865300D01*
X-18840253Y19865300D01*
X-18840252Y19865300D01*
X-18781769Y19876933D01*
X-18715448Y19921248D01*
X-18671133Y19987569D01*
X-18659500Y20046052D01*
X-18659500Y21019268D01*
X-18220500Y21019268D01*
X-18220500Y20812333D01*
X-18180131Y20609382D01*
X-18100942Y20418203D01*
X-17985980Y20246149D01*
X-17985977Y20246145D01*
X-17839655Y20099823D01*
X-17667598Y19984859D01*
X-17476420Y19905670D01*
X-17273465Y19865300D01*
X-17273464Y19865300D01*
X-17066536Y19865300D01*
X-17066535Y19865300D01*
X-16863580Y19905670D01*
X-16672402Y19984859D01*
X-16500345Y20099823D01*
X-16354023Y20246145D01*
X-16239059Y20418202D01*
X-16159870Y20609380D01*
X-16119500Y20812335D01*
X-16119500Y21019265D01*
X-16119501Y21019268D01*
X-15680500Y21019268D01*
X-15680500Y20812333D01*
X-15640131Y20609382D01*
X-15560942Y20418203D01*
X-15445980Y20246149D01*
X-15445977Y20246145D01*
X-15299655Y20099823D01*
X-15127598Y19984859D01*
X-14936420Y19905670D01*
X-14733465Y19865300D01*
X-14733464Y19865300D01*
X-14526536Y19865300D01*
X-14526535Y19865300D01*
X-14323580Y19905670D01*
X-14132402Y19984859D01*
X-13960345Y20099823D01*
X-13814023Y20246145D01*
X-13699059Y20418202D01*
X-13619870Y20609380D01*
X-13579500Y20812335D01*
X-13579500Y21009268D01*
X-13140500Y21009268D01*
X-13140500Y20802333D01*
X-13100131Y20599382D01*
X-13020942Y20408203D01*
X-12912659Y20246145D01*
X-12905977Y20236145D01*
X-12759655Y20089823D01*
X-12587598Y19974859D01*
X-12396420Y19895670D01*
X-12193465Y19855300D01*
X-12193464Y19855300D01*
X-11986536Y19855300D01*
X-11986535Y19855300D01*
X-11783580Y19895670D01*
X-11592402Y19974859D01*
X-11420345Y20089823D01*
X-11274023Y20236145D01*
X-11159059Y20408202D01*
X-11079870Y20599380D01*
X-11039500Y20802335D01*
X-11039500Y21009265D01*
X-11041490Y21019268D01*
X-10600500Y21019268D01*
X-10600500Y20812333D01*
X-10560131Y20609382D01*
X-10480942Y20418203D01*
X-10365980Y20246149D01*
X-10365977Y20246145D01*
X-10219655Y20099823D01*
X-10047598Y19984859D01*
X-9856420Y19905670D01*
X-9653465Y19865300D01*
X-9653464Y19865300D01*
X-9446536Y19865300D01*
X-9446535Y19865300D01*
X-9243580Y19905670D01*
X-9052402Y19984859D01*
X-8880345Y20099823D01*
X-8734023Y20246145D01*
X-8619059Y20418202D01*
X-8539870Y20609380D01*
X-8499500Y20812335D01*
X-8499500Y21006311D01*
X-8160000Y21006311D01*
X-8160000Y20825290D01*
X-8131684Y20646511D01*
X-8075750Y20474360D01*
X-7993570Y20313072D01*
X-7922576Y20215358D01*
X-7453672Y20684264D01*
X-7410099Y20608793D01*
X-7317007Y20515701D01*
X-7241540Y20472130D01*
X-7710444Y20003226D01*
X-7710444Y20003225D01*
X-7612737Y19932236D01*
X-7612731Y19932232D01*
X-7451441Y19850051D01*
X-7279290Y19794117D01*
X-7100510Y19765800D01*
X-6919490Y19765800D01*
X-6740711Y19794117D01*
X-6568560Y19850051D01*
X-6407270Y19932232D01*
X-6407265Y19932236D01*
X-6309558Y20003225D01*
X-6309558Y20003226D01*
X-6778462Y20472130D01*
X-6702993Y20515701D01*
X-6609901Y20608793D01*
X-6566330Y20684262D01*
X-6097426Y20215358D01*
X-6097425Y20215358D01*
X-6026436Y20313065D01*
X-6026432Y20313070D01*
X-5944251Y20474360D01*
X-5888317Y20646511D01*
X-5860000Y20825290D01*
X-5860000Y21006311D01*
X-5860370Y21008647D01*
X-5860370Y21008648D01*
X-5862052Y21019268D01*
X-5520500Y21019268D01*
X-5520500Y20812333D01*
X-5480131Y20609382D01*
X-5400942Y20418203D01*
X-5285980Y20246149D01*
X-5285977Y20246145D01*
X-5139655Y20099823D01*
X-4967598Y19984859D01*
X-4776420Y19905670D01*
X-4573465Y19865300D01*
X-4573464Y19865300D01*
X-4366536Y19865300D01*
X-4366535Y19865300D01*
X-4163580Y19905670D01*
X-3972402Y19984859D01*
X-3800345Y20099823D01*
X-3654023Y20246145D01*
X-3539059Y20418202D01*
X-3459870Y20609380D01*
X-3419500Y20812335D01*
X-3419500Y21019265D01*
X-3421628Y21029961D01*
X5509500Y21029961D01*
X5509500Y20801640D01*
X5545214Y20576145D01*
X5615769Y20359001D01*
X5719420Y20155573D01*
X5719424Y20155567D01*
X5853616Y19970869D01*
X5853618Y19970867D01*
X5853621Y19970863D01*
X6015063Y19809421D01*
X6015066Y19809419D01*
X6015068Y19809417D01*
X6199766Y19675225D01*
X6199772Y19675221D01*
X6403201Y19571569D01*
X6620340Y19501016D01*
X6620341Y19501016D01*
X6620344Y19501015D01*
X6845840Y19465300D01*
X6845843Y19465300D01*
X7074160Y19465300D01*
X7299655Y19501015D01*
X7299656Y19501016D01*
X7299660Y19501016D01*
X7516799Y19571569D01*
X7720228Y19675221D01*
X7904937Y19809421D01*
X8066379Y19970863D01*
X8200579Y20155572D01*
X8304231Y20359001D01*
X8374784Y20576140D01*
X8385930Y20646511D01*
X8410500Y20801640D01*
X8410500Y21029961D01*
X8374785Y21255456D01*
X8341713Y21357241D01*
X8304231Y21472599D01*
X8200579Y21676028D01*
X8200575Y21676034D01*
X8066383Y21860732D01*
X8066381Y21860734D01*
X8066379Y21860737D01*
X7904937Y22022179D01*
X7904933Y22022182D01*
X7904931Y22022184D01*
X7720233Y22156376D01*
X7720227Y22156380D01*
X7516799Y22260031D01*
X7299655Y22330586D01*
X7074160Y22366300D01*
X7074157Y22366300D01*
X6845843Y22366300D01*
X6845840Y22366300D01*
X6620344Y22330586D01*
X6403200Y22260031D01*
X6199772Y22156380D01*
X6199766Y22156376D01*
X6015068Y22022184D01*
X5853616Y21860732D01*
X5719424Y21676034D01*
X5719420Y21676028D01*
X5615769Y21472600D01*
X5545214Y21255456D01*
X5509500Y21029961D01*
X-3421628Y21029961D01*
X-3459870Y21222220D01*
X-3539059Y21413398D01*
X-3654023Y21585455D01*
X-3800345Y21731777D01*
X-3801009Y21732221D01*
X-3972403Y21846742D01*
X-4163582Y21925931D01*
X-4366533Y21966300D01*
X-4366535Y21966300D01*
X-4573465Y21966300D01*
X-4573468Y21966300D01*
X-4776419Y21925931D01*
X-4967598Y21846742D01*
X-5139652Y21731780D01*
X-5285980Y21585452D01*
X-5400942Y21413398D01*
X-5480131Y21222219D01*
X-5520500Y21019268D01*
X-5862052Y21019268D01*
X-5888317Y21185090D01*
X-5944251Y21357241D01*
X-6026432Y21518531D01*
X-6026436Y21518537D01*
X-6097425Y21616244D01*
X-6097426Y21616244D01*
X-6566330Y21147340D01*
X-6609901Y21222807D01*
X-6702993Y21315899D01*
X-6778464Y21359472D01*
X-6309558Y21828376D01*
X-6407272Y21899370D01*
X-6568560Y21981550D01*
X-6740711Y22037484D01*
X-6919490Y22065800D01*
X-7100510Y22065800D01*
X-7279290Y22037484D01*
X-7451441Y21981550D01*
X-7612731Y21899369D01*
X-7612735Y21899367D01*
X-7710444Y21828377D01*
X-7241539Y21359472D01*
X-7317007Y21315899D01*
X-7410099Y21222807D01*
X-7453672Y21147339D01*
X-7922577Y21616244D01*
X-7993567Y21518535D01*
X-7993569Y21518531D01*
X-8075750Y21357241D01*
X-8131684Y21185090D01*
X-8160000Y21006311D01*
X-8499500Y21006311D01*
X-8499500Y21019265D01*
X-8539870Y21222220D01*
X-8619059Y21413398D01*
X-8734023Y21585455D01*
X-8880345Y21731777D01*
X-8881009Y21732221D01*
X-9052403Y21846742D01*
X-9243582Y21925931D01*
X-9446533Y21966300D01*
X-9446535Y21966300D01*
X-9653465Y21966300D01*
X-9653468Y21966300D01*
X-9856419Y21925931D01*
X-10047598Y21846742D01*
X-10219652Y21731780D01*
X-10365980Y21585452D01*
X-10480942Y21413398D01*
X-10560131Y21222219D01*
X-10600500Y21019268D01*
X-11041490Y21019268D01*
X-11079870Y21212220D01*
X-11159059Y21403398D01*
X-11274023Y21575455D01*
X-11420345Y21721777D01*
X-11435311Y21731777D01*
X-11592403Y21836742D01*
X-11783582Y21915931D01*
X-11986533Y21956300D01*
X-11986535Y21956300D01*
X-12193465Y21956300D01*
X-12193468Y21956300D01*
X-12396419Y21915931D01*
X-12587598Y21836742D01*
X-12759652Y21721780D01*
X-12905980Y21575452D01*
X-13020942Y21403398D01*
X-13100131Y21212219D01*
X-13140500Y21009268D01*
X-13579500Y21009268D01*
X-13579500Y21019265D01*
X-13619870Y21222220D01*
X-13699059Y21413398D01*
X-13814023Y21585455D01*
X-13960345Y21731777D01*
X-13961009Y21732221D01*
X-14132403Y21846742D01*
X-14323582Y21925931D01*
X-14526533Y21966300D01*
X-14526535Y21966300D01*
X-14733465Y21966300D01*
X-14733468Y21966300D01*
X-14936419Y21925931D01*
X-15127598Y21846742D01*
X-15299652Y21731780D01*
X-15445980Y21585452D01*
X-15560942Y21413398D01*
X-15640131Y21222219D01*
X-15680500Y21019268D01*
X-16119501Y21019268D01*
X-16159870Y21222220D01*
X-16239059Y21413398D01*
X-16354023Y21585455D01*
X-16500345Y21731777D01*
X-16501009Y21732221D01*
X-16672403Y21846742D01*
X-16863582Y21925931D01*
X-17066533Y21966300D01*
X-17066535Y21966300D01*
X-17273465Y21966300D01*
X-17273468Y21966300D01*
X-17476419Y21925931D01*
X-17667598Y21846742D01*
X-17839652Y21731780D01*
X-17985980Y21585452D01*
X-18100942Y21413398D01*
X-18180131Y21222219D01*
X-18220500Y21019268D01*
X-18659500Y21019268D01*
X-18659500Y21785548D01*
X-18671133Y21844031D01*
X-18715448Y21910352D01*
X-18715452Y21910355D01*
X-18781767Y21954666D01*
X-18781769Y21954667D01*
X-18781772Y21954668D01*
X-18781773Y21954668D01*
X-18840242Y21966299D01*
X-18840252Y21966300D01*
X-20579748Y21966300D01*
X-20579749Y21966300D01*
X-20579759Y21966299D01*
X-20638228Y21954668D01*
X-20638234Y21954666D01*
X-20704549Y21910355D01*
X-20704555Y21910349D01*
X-20748866Y21844034D01*
X-20748868Y21844028D01*
X-20760499Y21785559D01*
X-20760500Y21785547D01*
X-29978991Y21785547D01*
X-30033617Y21860732D01*
X-30033619Y21860734D01*
X-30033621Y21860737D01*
X-30195063Y22022179D01*
X-30195067Y22022182D01*
X-30195069Y22022184D01*
X-30379767Y22156376D01*
X-30379773Y22156380D01*
X-30583201Y22260031D01*
X-30800345Y22330586D01*
X-31025840Y22366300D01*
X-31025843Y22366300D01*
X-31254157Y22366300D01*
X-31254160Y22366300D01*
X-31479656Y22330586D01*
X-31696800Y22260031D01*
X-31900228Y22156380D01*
X-31900234Y22156376D01*
X-32084932Y22022184D01*
X-32246384Y21860732D01*
X-32380576Y21676034D01*
X-32380580Y21676028D01*
X-32484231Y21472600D01*
X-32554786Y21255456D01*
X-32590500Y21029961D01*
X-40644500Y21029961D01*
X-40644500Y23103792D01*
X-2848400Y23103792D01*
X-2848400Y22972008D01*
X-2830931Y22906814D01*
X-2814291Y22844710D01*
X-2748404Y22730591D01*
X-2748402Y22730589D01*
X-2748400Y22730586D01*
X-2655214Y22637400D01*
X-2655212Y22637399D01*
X-2655210Y22637397D01*
X-2541090Y22571510D01*
X-2541092Y22571510D01*
X-2541088Y22571509D01*
X-2541086Y22571508D01*
X-2413792Y22537400D01*
X-2413790Y22537400D01*
X-2282010Y22537400D01*
X-2282008Y22537400D01*
X-2154714Y22571508D01*
X-2154712Y22571510D01*
X-2154710Y22571510D01*
X-2040591Y22637397D01*
X-2040591Y22637398D01*
X-2040586Y22637400D01*
X-1947400Y22730586D01*
X-1911546Y22792686D01*
X-1881510Y22844710D01*
X-1881510Y22844712D01*
X-1881508Y22844714D01*
X-1847400Y22972008D01*
X-1847400Y23103792D01*
X-1864039Y23165892D01*
X1991700Y23165892D01*
X1991700Y23034108D01*
X2021779Y22921849D01*
X2025809Y22906810D01*
X2091696Y22792691D01*
X2091698Y22792689D01*
X2091700Y22792686D01*
X2184886Y22699500D01*
X2184888Y22699499D01*
X2184890Y22699497D01*
X2299010Y22633610D01*
X2299008Y22633610D01*
X2299012Y22633609D01*
X2299014Y22633608D01*
X2426308Y22599500D01*
X2426310Y22599500D01*
X2558090Y22599500D01*
X2558092Y22599500D01*
X2685386Y22633608D01*
X2685388Y22633610D01*
X2685390Y22633610D01*
X2799509Y22699497D01*
X2799509Y22699498D01*
X2799514Y22699500D01*
X2892700Y22792686D01*
X2922736Y22844710D01*
X2958590Y22906810D01*
X2958590Y22906812D01*
X2958592Y22906814D01*
X2992700Y23034108D01*
X2992700Y23165892D01*
X2958592Y23293186D01*
X2958590Y23293189D01*
X2958590Y23293191D01*
X2892703Y23407310D01*
X2892701Y23407312D01*
X2892700Y23407314D01*
X2799514Y23500500D01*
X2799511Y23500502D01*
X2799509Y23500504D01*
X2685389Y23566391D01*
X2685391Y23566391D01*
X2635999Y23579625D01*
X2558092Y23600500D01*
X2426308Y23600500D01*
X2348400Y23579625D01*
X2299009Y23566391D01*
X2184890Y23500504D01*
X2091696Y23407310D01*
X2025809Y23293191D01*
X2006739Y23222022D01*
X1991700Y23165892D01*
X-1864039Y23165892D01*
X-1881508Y23231086D01*
X-1881510Y23231089D01*
X-1881510Y23231091D01*
X-1947397Y23345210D01*
X-1947399Y23345212D01*
X-1947400Y23345214D01*
X-2040586Y23438400D01*
X-2040589Y23438402D01*
X-2040591Y23438404D01*
X-2154711Y23504291D01*
X-2154709Y23504291D01*
X-2204101Y23517525D01*
X-2282008Y23538400D01*
X-2413792Y23538400D01*
X-2491700Y23517525D01*
X-2541091Y23504291D01*
X-2655210Y23438404D01*
X-2748404Y23345210D01*
X-2814291Y23231091D01*
X-2814292Y23231086D01*
X-2848400Y23103792D01*
X-40644500Y23103792D01*
X-40644500Y26465966D01*
X-38100500Y26465966D01*
X-38100500Y26214035D01*
X-38061092Y25965220D01*
X-37995125Y25762196D01*
X-37983241Y25725621D01*
X-37868870Y25501155D01*
X-37720793Y25297344D01*
X-37542656Y25119207D01*
X-37338845Y24971130D01*
X-37114379Y24856759D01*
X-36874785Y24778910D01*
X-36874784Y24778910D01*
X-36874781Y24778909D01*
X-36625965Y24739500D01*
X-36625962Y24739500D01*
X-36374035Y24739500D01*
X-36125220Y24778909D01*
X-36125219Y24778910D01*
X-36125215Y24778910D01*
X-35885621Y24856759D01*
X-35661155Y24971130D01*
X-35457344Y25119207D01*
X-35279207Y25297344D01*
X-35131130Y25501155D01*
X-35016759Y25725621D01*
X-34947601Y25938468D01*
X-32260500Y25938468D01*
X-32260500Y25731533D01*
X-32220131Y25528582D01*
X-32140942Y25337403D01*
X-32091251Y25263035D01*
X-32025977Y25165345D01*
X-31879655Y25019023D01*
X-31707598Y24904059D01*
X-31516420Y24824870D01*
X-31313465Y24784500D01*
X-31313464Y24784500D01*
X-31106536Y24784500D01*
X-31106535Y24784500D01*
X-30903580Y24824870D01*
X-30712402Y24904059D01*
X-30540345Y25019023D01*
X-30394023Y25165345D01*
X-30279059Y25337402D01*
X-30199870Y25528580D01*
X-30159500Y25731535D01*
X-30159500Y25938465D01*
X-30159501Y25938468D01*
X-29720500Y25938468D01*
X-29720500Y25731533D01*
X-29680131Y25528582D01*
X-29600942Y25337403D01*
X-29551251Y25263035D01*
X-29485977Y25165345D01*
X-29339655Y25019023D01*
X-29167598Y24904059D01*
X-28976420Y24824870D01*
X-28773465Y24784500D01*
X-28773464Y24784500D01*
X-28566536Y24784500D01*
X-28566535Y24784500D01*
X-28363580Y24824870D01*
X-28172402Y24904059D01*
X-28000345Y25019023D01*
X-27854023Y25165345D01*
X-27739059Y25337402D01*
X-27659870Y25528580D01*
X-27619500Y25731535D01*
X-27619500Y25938465D01*
X-27619501Y25938468D01*
X-27180500Y25938468D01*
X-27180500Y25731533D01*
X-27140131Y25528582D01*
X-27060942Y25337403D01*
X-27011251Y25263035D01*
X-26945977Y25165345D01*
X-26799655Y25019023D01*
X-26627598Y24904059D01*
X-26436420Y24824870D01*
X-26233465Y24784500D01*
X-26233464Y24784500D01*
X-26026536Y24784500D01*
X-26026535Y24784500D01*
X-25823580Y24824870D01*
X-25632402Y24904059D01*
X-25460345Y25019023D01*
X-25314023Y25165345D01*
X-25199059Y25337402D01*
X-25119870Y25528580D01*
X-25079500Y25731535D01*
X-25079500Y25938465D01*
X-25079501Y25938468D01*
X-24640500Y25938468D01*
X-24640500Y25731533D01*
X-24600131Y25528582D01*
X-24520942Y25337403D01*
X-24471251Y25263035D01*
X-24405977Y25165345D01*
X-24259655Y25019023D01*
X-24087598Y24904059D01*
X-23896420Y24824870D01*
X-23693465Y24784500D01*
X-23693464Y24784500D01*
X-23486536Y24784500D01*
X-23486535Y24784500D01*
X-23283580Y24824870D01*
X-23092402Y24904059D01*
X-22920345Y25019023D01*
X-22774023Y25165345D01*
X-22659059Y25337402D01*
X-22579870Y25528580D01*
X-22539500Y25731535D01*
X-22539500Y25938465D01*
X-22539501Y25938468D01*
X-22100500Y25938468D01*
X-22100500Y25731533D01*
X-22060131Y25528582D01*
X-21980942Y25337403D01*
X-21931251Y25263035D01*
X-21865977Y25165345D01*
X-21719655Y25019023D01*
X-21547598Y24904059D01*
X-21356420Y24824870D01*
X-21153465Y24784500D01*
X-21153464Y24784500D01*
X-20946536Y24784500D01*
X-20946535Y24784500D01*
X-20743580Y24824870D01*
X-20552402Y24904059D01*
X-20380345Y25019023D01*
X-20234023Y25165345D01*
X-20119059Y25337402D01*
X-20039870Y25528580D01*
X-19999500Y25731535D01*
X-19999500Y25938465D01*
X-19999501Y25938468D01*
X-19560500Y25938468D01*
X-19560500Y25731533D01*
X-19520131Y25528582D01*
X-19440942Y25337403D01*
X-19391251Y25263035D01*
X-19325977Y25165345D01*
X-19179655Y25019023D01*
X-19007598Y24904059D01*
X-18816420Y24824870D01*
X-18613465Y24784500D01*
X-18613464Y24784500D01*
X-18406536Y24784500D01*
X-18406535Y24784500D01*
X-18203580Y24824870D01*
X-18012402Y24904059D01*
X-17840345Y25019023D01*
X-17694023Y25165345D01*
X-17579059Y25337402D01*
X-17499870Y25528580D01*
X-17460761Y25725196D01*
X-5027800Y25725196D01*
X-5027800Y25246401D01*
X-5027799Y25246400D01*
X-4527800Y25246400D01*
X-4527800Y24946400D01*
X-5027799Y24946400D01*
X-5027800Y24946399D01*
X-5027800Y24467605D01*
X-4997058Y24313051D01*
X-4936752Y24167460D01*
X-4936748Y24167451D01*
X-4849201Y24036431D01*
X-4849198Y24036427D01*
X-4737774Y23925003D01*
X-4737770Y23925000D01*
X-4606750Y23837453D01*
X-4606741Y23837449D01*
X-4461149Y23777143D01*
X-4461150Y23777143D01*
X-4377801Y23760565D01*
X-4377800Y23760565D01*
X-4377800Y24286592D01*
X-4343596Y24266844D01*
X-4267296Y24246400D01*
X-4188304Y24246400D01*
X-4112004Y24266844D01*
X-4077800Y24286592D01*
X-4077800Y23760565D01*
X-3994452Y23777143D01*
X-3848860Y23837449D01*
X-3848851Y23837453D01*
X-3717831Y23925000D01*
X-3717827Y23925003D01*
X-3606403Y24036427D01*
X-3606400Y24036431D01*
X-3518853Y24167451D01*
X-3518849Y24167460D01*
X-3458543Y24313051D01*
X-3427801Y24467605D01*
X-3427800Y24467608D01*
X-3427800Y24946399D01*
X-3427801Y24946400D01*
X-3927800Y24946400D01*
X-3927800Y25246400D01*
X-3427801Y25246400D01*
X-3404503Y25269698D01*
X-3349987Y25297476D01*
X-3289555Y25287905D01*
X-3263933Y25266595D01*
X-3262903Y25267624D01*
X-3258317Y25263038D01*
X-3258315Y25263035D01*
X-3151165Y25155885D01*
X-3151163Y25155884D01*
X-3151161Y25155882D01*
X-3019939Y25080121D01*
X-3019941Y25080121D01*
X-3019937Y25080120D01*
X-3019935Y25080119D01*
X-2873566Y25040900D01*
X-2873564Y25040900D01*
X-2722036Y25040900D01*
X-2722034Y25040900D01*
X-2575665Y25080119D01*
X-2575663Y25080121D01*
X-2575661Y25080121D01*
X-2444440Y25155882D01*
X-2444440Y25155883D01*
X-2444435Y25155885D01*
X-2337285Y25263035D01*
X-2335230Y25266595D01*
X-2261521Y25394261D01*
X-2261521Y25394263D01*
X-2261519Y25394265D01*
X-2222300Y25540634D01*
X-2222300Y25692166D01*
X2406700Y25692166D01*
X2406700Y25540634D01*
X2441286Y25411553D01*
X2445920Y25394261D01*
X2521681Y25263040D01*
X2521683Y25263038D01*
X2521685Y25263035D01*
X2628835Y25155885D01*
X2628837Y25155884D01*
X2628839Y25155882D01*
X2760061Y25080121D01*
X2760059Y25080121D01*
X2760063Y25080120D01*
X2760065Y25080119D01*
X2906434Y25040900D01*
X2906436Y25040900D01*
X3057964Y25040900D01*
X3057966Y25040900D01*
X3204335Y25080119D01*
X3335565Y25155885D01*
X3442715Y25263035D01*
X3442716Y25263038D01*
X3447303Y25267624D01*
X3449019Y25265908D01*
X3490746Y25294608D01*
X3551911Y25293029D01*
X3588902Y25269699D01*
X3612201Y25246400D01*
X4112200Y25246400D01*
X4112200Y24946400D01*
X3612201Y24946400D01*
X3612200Y24946399D01*
X3612200Y24467605D01*
X3642942Y24313051D01*
X3703248Y24167460D01*
X3703252Y24167451D01*
X3790799Y24036431D01*
X3790802Y24036427D01*
X3902226Y23925003D01*
X3902230Y23925000D01*
X4033250Y23837453D01*
X4033259Y23837449D01*
X4178851Y23777143D01*
X4178850Y23777143D01*
X4262199Y23760565D01*
X4262200Y23760565D01*
X4262200Y24286592D01*
X4296404Y24266844D01*
X4372704Y24246400D01*
X4451696Y24246400D01*
X4527996Y24266844D01*
X4562200Y24286592D01*
X4562200Y23760565D01*
X4645548Y23777143D01*
X4791140Y23837449D01*
X4791149Y23837453D01*
X4922169Y23925000D01*
X4922173Y23925003D01*
X5033597Y24036427D01*
X5033600Y24036431D01*
X5121147Y24167451D01*
X5121151Y24167460D01*
X5181457Y24313051D01*
X5212199Y24467605D01*
X5212200Y24467608D01*
X5212200Y24946399D01*
X5212199Y24946400D01*
X4712200Y24946400D01*
X4712200Y25246400D01*
X5212199Y25246400D01*
X5212200Y25246401D01*
X5212200Y25725193D01*
X5212199Y25725196D01*
X5181457Y25879750D01*
X5121151Y26025341D01*
X5121147Y26025350D01*
X5033600Y26156370D01*
X5033597Y26156374D01*
X4922173Y26267798D01*
X4922169Y26267801D01*
X4791149Y26355348D01*
X4791140Y26355352D01*
X4735526Y26378388D01*
X4645554Y26415656D01*
X4645550Y26415657D01*
X4562200Y26432237D01*
X4562200Y25906209D01*
X4527996Y25925956D01*
X4451696Y25946400D01*
X4372704Y25946400D01*
X4296404Y25925956D01*
X4262200Y25906209D01*
X4262200Y26432237D01*
X4178849Y26415657D01*
X4178845Y26415656D01*
X4033259Y26355352D01*
X4033250Y26355348D01*
X3902230Y26267801D01*
X3902226Y26267798D01*
X3790802Y26156374D01*
X3790799Y26156370D01*
X3703252Y26025350D01*
X3703248Y26025341D01*
X3657834Y25915702D01*
X3618097Y25869176D01*
X3558602Y25854893D01*
X3502074Y25878308D01*
X3480634Y25904087D01*
X3442715Y25969765D01*
X3335565Y26076915D01*
X3335562Y26076917D01*
X3335560Y26076919D01*
X3204338Y26152680D01*
X3204340Y26152680D01*
X3147547Y26167897D01*
X3057966Y26191900D01*
X2906434Y26191900D01*
X2816852Y26167897D01*
X2760060Y26152680D01*
X2628839Y26076919D01*
X2521681Y25969761D01*
X2445920Y25838540D01*
X2445919Y25838535D01*
X2406700Y25692166D01*
X-2222300Y25692166D01*
X-2261519Y25838535D01*
X-2261521Y25838538D01*
X-2261521Y25838540D01*
X-2337282Y25969761D01*
X-2337284Y25969763D01*
X-2337285Y25969765D01*
X-2444435Y26076915D01*
X-2444438Y26076917D01*
X-2444440Y26076919D01*
X-2575662Y26152680D01*
X-2575660Y26152680D01*
X-2632453Y26167897D01*
X-2722034Y26191900D01*
X-2873566Y26191900D01*
X-2963148Y26167897D01*
X-3019940Y26152680D01*
X-3151161Y26076919D01*
X-3258317Y25969763D01*
X-3296235Y25904087D01*
X-3341705Y25863147D01*
X-3402555Y25856752D01*
X-3455543Y25887345D01*
X-3473435Y25915703D01*
X-3518847Y26025338D01*
X-3518853Y26025350D01*
X-3606400Y26156370D01*
X-3606403Y26156374D01*
X-3717827Y26267798D01*
X-3717831Y26267801D01*
X-3848851Y26355348D01*
X-3848860Y26355352D01*
X-3994446Y26415656D01*
X-3994450Y26415657D01*
X-4077800Y26432237D01*
X-4077800Y25906209D01*
X-4112004Y25925956D01*
X-4188304Y25946400D01*
X-4267296Y25946400D01*
X-4343596Y25925956D01*
X-4377800Y25906209D01*
X-4377800Y26432237D01*
X-4461151Y26415657D01*
X-4461155Y26415656D01*
X-4606741Y26355352D01*
X-4606750Y26355348D01*
X-4737770Y26267801D01*
X-4737774Y26267798D01*
X-4849198Y26156374D01*
X-4849201Y26156370D01*
X-4936748Y26025350D01*
X-4936752Y26025341D01*
X-4997058Y25879750D01*
X-5027800Y25725196D01*
X-17460761Y25725196D01*
X-17459500Y25731535D01*
X-17459500Y25938465D01*
X-17499870Y26141420D01*
X-17579059Y26332598D01*
X-17668172Y26465966D01*
X12699500Y26465966D01*
X12699500Y26214035D01*
X12738908Y25965220D01*
X12804875Y25762196D01*
X12816759Y25725621D01*
X12931130Y25501155D01*
X13079207Y25297344D01*
X13257344Y25119207D01*
X13461155Y24971130D01*
X13685621Y24856759D01*
X13925215Y24778910D01*
X13925216Y24778910D01*
X13925219Y24778909D01*
X14174035Y24739500D01*
X14174038Y24739500D01*
X14425965Y24739500D01*
X14674780Y24778909D01*
X14674781Y24778910D01*
X14674785Y24778910D01*
X14914379Y24856759D01*
X15138845Y24971130D01*
X15342656Y25119207D01*
X15520793Y25297344D01*
X15668870Y25501155D01*
X15783241Y25725621D01*
X15861090Y25965215D01*
X15861810Y25969761D01*
X15900500Y26214035D01*
X15900500Y26465966D01*
X15861091Y26714781D01*
X15818738Y26845130D01*
X15783241Y26954379D01*
X15668870Y27178845D01*
X15520793Y27382656D01*
X15342656Y27560793D01*
X15138845Y27708870D01*
X15138844Y27708871D01*
X15138842Y27708872D01*
X14914379Y27823241D01*
X14674780Y27901092D01*
X14425965Y27940500D01*
X14425962Y27940500D01*
X14174038Y27940500D01*
X14174035Y27940500D01*
X13925219Y27901092D01*
X13685620Y27823241D01*
X13461157Y27708872D01*
X13257345Y27560794D01*
X13079206Y27382655D01*
X12931128Y27178843D01*
X12816759Y26954380D01*
X12738908Y26714781D01*
X12699500Y26465966D01*
X-17668172Y26465966D01*
X-17694023Y26504655D01*
X-17840345Y26650977D01*
X-18012402Y26765941D01*
X-18012401Y26765941D01*
X-18012403Y26765942D01*
X-18203582Y26845131D01*
X-18406533Y26885500D01*
X-18406535Y26885500D01*
X-18613465Y26885500D01*
X-18613468Y26885500D01*
X-18816419Y26845131D01*
X-19007598Y26765942D01*
X-19179652Y26650980D01*
X-19325980Y26504652D01*
X-19440942Y26332598D01*
X-19520131Y26141419D01*
X-19560500Y25938468D01*
X-19999501Y25938468D01*
X-20039870Y26141420D01*
X-20119059Y26332598D01*
X-20234023Y26504655D01*
X-20380345Y26650977D01*
X-20552402Y26765941D01*
X-20552401Y26765941D01*
X-20552403Y26765942D01*
X-20743582Y26845131D01*
X-20946533Y26885500D01*
X-20946535Y26885500D01*
X-21153465Y26885500D01*
X-21153468Y26885500D01*
X-21356419Y26845131D01*
X-21547598Y26765942D01*
X-21719652Y26650980D01*
X-21865980Y26504652D01*
X-21980942Y26332598D01*
X-22060131Y26141419D01*
X-22100500Y25938468D01*
X-22539501Y25938468D01*
X-22579870Y26141420D01*
X-22659059Y26332598D01*
X-22774023Y26504655D01*
X-22920345Y26650977D01*
X-23092402Y26765941D01*
X-23092401Y26765941D01*
X-23092403Y26765942D01*
X-23283582Y26845131D01*
X-23486533Y26885500D01*
X-23486535Y26885500D01*
X-23693465Y26885500D01*
X-23693468Y26885500D01*
X-23896419Y26845131D01*
X-24087598Y26765942D01*
X-24259652Y26650980D01*
X-24405980Y26504652D01*
X-24520942Y26332598D01*
X-24600131Y26141419D01*
X-24640500Y25938468D01*
X-25079501Y25938468D01*
X-25119870Y26141420D01*
X-25199059Y26332598D01*
X-25314023Y26504655D01*
X-25460345Y26650977D01*
X-25632402Y26765941D01*
X-25632401Y26765941D01*
X-25632403Y26765942D01*
X-25823582Y26845131D01*
X-26026533Y26885500D01*
X-26026535Y26885500D01*
X-26233465Y26885500D01*
X-26233468Y26885500D01*
X-26436419Y26845131D01*
X-26627598Y26765942D01*
X-26799652Y26650980D01*
X-26945980Y26504652D01*
X-27060942Y26332598D01*
X-27140131Y26141419D01*
X-27180500Y25938468D01*
X-27619501Y25938468D01*
X-27659870Y26141420D01*
X-27739059Y26332598D01*
X-27854023Y26504655D01*
X-28000345Y26650977D01*
X-28172402Y26765941D01*
X-28172401Y26765941D01*
X-28172403Y26765942D01*
X-28363582Y26845131D01*
X-28566533Y26885500D01*
X-28566535Y26885500D01*
X-28773465Y26885500D01*
X-28773468Y26885500D01*
X-28976419Y26845131D01*
X-29167598Y26765942D01*
X-29339652Y26650980D01*
X-29485980Y26504652D01*
X-29600942Y26332598D01*
X-29680131Y26141419D01*
X-29720500Y25938468D01*
X-30159501Y25938468D01*
X-30199870Y26141420D01*
X-30279059Y26332598D01*
X-30394023Y26504655D01*
X-30540345Y26650977D01*
X-30712402Y26765941D01*
X-30712401Y26765941D01*
X-30712403Y26765942D01*
X-30903582Y26845131D01*
X-31106533Y26885500D01*
X-31106535Y26885500D01*
X-31313465Y26885500D01*
X-31313468Y26885500D01*
X-31516419Y26845131D01*
X-31707598Y26765942D01*
X-31879652Y26650980D01*
X-32025980Y26504652D01*
X-32140942Y26332598D01*
X-32220131Y26141419D01*
X-32260500Y25938468D01*
X-34947601Y25938468D01*
X-34938910Y25965215D01*
X-34938190Y25969761D01*
X-34899500Y26214035D01*
X-34899500Y26465966D01*
X-34938909Y26714781D01*
X-34981262Y26845130D01*
X-35016759Y26954379D01*
X-35131130Y27178845D01*
X-35279207Y27382656D01*
X-35457344Y27560793D01*
X-35661155Y27708870D01*
X-35661156Y27708871D01*
X-35661158Y27708872D01*
X-35885621Y27823241D01*
X-36125220Y27901092D01*
X-36374035Y27940500D01*
X-36374038Y27940500D01*
X-36625962Y27940500D01*
X-36625965Y27940500D01*
X-36874781Y27901092D01*
X-37114380Y27823241D01*
X-37338843Y27708872D01*
X-37542655Y27560794D01*
X-37720794Y27382655D01*
X-37868872Y27178843D01*
X-37983241Y26954380D01*
X-38061092Y26714781D01*
X-38100500Y26465966D01*
X-40644500Y26465966D01*
X-40644500Y29269798D01*
X-32360000Y29269798D01*
X-32360000Y28525001D01*
X-32359999Y28525000D01*
X-31687445Y28525000D01*
X-31710000Y28440826D01*
X-31710000Y28309174D01*
X-31687445Y28225000D01*
X-32359998Y28225000D01*
X-32359999Y28224999D01*
X-32359999Y27480209D01*
X-32357091Y27455126D01*
X-32311787Y27352523D01*
X-32232478Y27273214D01*
X-32129873Y27227910D01*
X-32104797Y27225001D01*
X-31360002Y27225001D01*
X-31360000Y27225002D01*
X-31360000Y27897555D01*
X-31275826Y27875000D01*
X-31144174Y27875000D01*
X-31060000Y27897555D01*
X-31060000Y27225002D01*
X-31059999Y27225001D01*
X-30315210Y27225001D01*
X-30315209Y27225002D01*
X-30290126Y27227910D01*
X-30187523Y27273214D01*
X-30108214Y27352523D01*
X-30062910Y27455128D01*
X-30060001Y27480203D01*
X-30060000Y27480205D01*
X-30060000Y28224999D01*
X-30060001Y28225000D01*
X-30732555Y28225000D01*
X-30710000Y28309174D01*
X-30710000Y28440826D01*
X-30716615Y28465511D01*
X-29820000Y28465511D01*
X-29820000Y28284490D01*
X-29791684Y28105711D01*
X-29735750Y27933560D01*
X-29653570Y27772272D01*
X-29582576Y27674558D01*
X-29113672Y28143464D01*
X-29070099Y28067993D01*
X-28977007Y27974901D01*
X-28901540Y27931330D01*
X-29370444Y27462426D01*
X-29370444Y27462425D01*
X-29272737Y27391436D01*
X-29272731Y27391432D01*
X-29111441Y27309251D01*
X-28939290Y27253317D01*
X-28760510Y27225000D01*
X-28579490Y27225000D01*
X-28400711Y27253317D01*
X-28228560Y27309251D01*
X-28067270Y27391432D01*
X-28067265Y27391436D01*
X-27969558Y27462425D01*
X-27969558Y27462426D01*
X-28438462Y27931330D01*
X-28362993Y27974901D01*
X-28269901Y28067993D01*
X-28226330Y28143462D01*
X-27757426Y27674558D01*
X-27757425Y27674558D01*
X-27686436Y27772265D01*
X-27686432Y27772270D01*
X-27604251Y27933560D01*
X-27548317Y28105711D01*
X-27520000Y28284490D01*
X-27520000Y28465511D01*
X-27280000Y28465511D01*
X-27280000Y28284490D01*
X-27251684Y28105711D01*
X-27195750Y27933560D01*
X-27113570Y27772272D01*
X-27042576Y27674558D01*
X-26573672Y28143464D01*
X-26530099Y28067993D01*
X-26437007Y27974901D01*
X-26361540Y27931330D01*
X-26830444Y27462426D01*
X-26830444Y27462425D01*
X-26732737Y27391436D01*
X-26732731Y27391432D01*
X-26571441Y27309251D01*
X-26399290Y27253317D01*
X-26220510Y27225000D01*
X-26039490Y27225000D01*
X-25860711Y27253317D01*
X-25688560Y27309251D01*
X-25527270Y27391432D01*
X-25527265Y27391436D01*
X-25429558Y27462425D01*
X-25429558Y27462426D01*
X-25898462Y27931330D01*
X-25822993Y27974901D01*
X-25729901Y28067993D01*
X-25686330Y28143462D01*
X-25217426Y27674558D01*
X-25217425Y27674558D01*
X-25146436Y27772265D01*
X-25146432Y27772270D01*
X-25064251Y27933560D01*
X-25008317Y28105711D01*
X-24980000Y28284490D01*
X-24980000Y28465511D01*
X-24740000Y28465511D01*
X-24740000Y28284490D01*
X-24711684Y28105711D01*
X-24655750Y27933560D01*
X-24573570Y27772272D01*
X-24502576Y27674558D01*
X-24033672Y28143464D01*
X-23990099Y28067993D01*
X-23897007Y27974901D01*
X-23821540Y27931330D01*
X-24290444Y27462426D01*
X-24290444Y27462425D01*
X-24192737Y27391436D01*
X-24192731Y27391432D01*
X-24031441Y27309251D01*
X-23859290Y27253317D01*
X-23680510Y27225000D01*
X-23499490Y27225000D01*
X-23320711Y27253317D01*
X-23148560Y27309251D01*
X-22987270Y27391432D01*
X-22987265Y27391436D01*
X-22889558Y27462425D01*
X-22889558Y27462426D01*
X-23358462Y27931330D01*
X-23282993Y27974901D01*
X-23189901Y28067993D01*
X-23146330Y28143462D01*
X-22677426Y27674558D01*
X-22677425Y27674558D01*
X-22606436Y27772265D01*
X-22606432Y27772270D01*
X-22524251Y27933560D01*
X-22468317Y28105711D01*
X-22440000Y28284490D01*
X-22440000Y28465511D01*
X-22200000Y28465511D01*
X-22200000Y28284490D01*
X-22171684Y28105711D01*
X-22115750Y27933560D01*
X-22033570Y27772272D01*
X-21962576Y27674558D01*
X-21493672Y28143464D01*
X-21450099Y28067993D01*
X-21357007Y27974901D01*
X-21281540Y27931330D01*
X-21750444Y27462426D01*
X-21750444Y27462425D01*
X-21652737Y27391436D01*
X-21652731Y27391432D01*
X-21491441Y27309251D01*
X-21319290Y27253317D01*
X-21140510Y27225000D01*
X-20959490Y27225000D01*
X-20780711Y27253317D01*
X-20608560Y27309251D01*
X-20447270Y27391432D01*
X-20447265Y27391436D01*
X-20349558Y27462425D01*
X-20349558Y27462426D01*
X-20818462Y27931330D01*
X-20742993Y27974901D01*
X-20649901Y28067993D01*
X-20606330Y28143462D01*
X-20137426Y27674558D01*
X-20137425Y27674558D01*
X-20066436Y27772265D01*
X-20066432Y27772270D01*
X-19984251Y27933560D01*
X-19928317Y28105711D01*
X-19900000Y28284490D01*
X-19900000Y28465511D01*
X-19660000Y28465511D01*
X-19660000Y28284490D01*
X-19631684Y28105711D01*
X-19575750Y27933560D01*
X-19493570Y27772272D01*
X-19422576Y27674558D01*
X-18953672Y28143464D01*
X-18910099Y28067993D01*
X-18817007Y27974901D01*
X-18741540Y27931330D01*
X-19210444Y27462426D01*
X-19210444Y27462425D01*
X-19112737Y27391436D01*
X-19112731Y27391432D01*
X-18951441Y27309251D01*
X-18779290Y27253317D01*
X-18600510Y27225000D01*
X-18419490Y27225000D01*
X-18240711Y27253317D01*
X-18068560Y27309251D01*
X-17907270Y27391432D01*
X-17907265Y27391436D01*
X-17809558Y27462425D01*
X-17809558Y27462426D01*
X-18278462Y27931330D01*
X-18202993Y27974901D01*
X-18109901Y28067993D01*
X-18066330Y28143462D01*
X-17597426Y27674558D01*
X-17597425Y27674558D01*
X-17526436Y27772265D01*
X-17526432Y27772270D01*
X-17444251Y27933560D01*
X-17388317Y28105711D01*
X-17360000Y28284490D01*
X-17360000Y28465511D01*
X-17388317Y28644290D01*
X-17444251Y28816441D01*
X-17526432Y28977731D01*
X-17526436Y28977737D01*
X-17597425Y29075444D01*
X-17597426Y29075444D01*
X-18066330Y28606540D01*
X-18109901Y28682007D01*
X-18202993Y28775099D01*
X-18278464Y28818672D01*
X-17839723Y29257411D01*
X-17809559Y29287576D01*
X-17907272Y29358570D01*
X-18068560Y29440750D01*
X-18240711Y29496684D01*
X-18419490Y29525000D01*
X-18600510Y29525000D01*
X-18779290Y29496684D01*
X-18951441Y29440750D01*
X-19112731Y29358569D01*
X-19112735Y29358567D01*
X-19210444Y29287577D01*
X-18741539Y28818672D01*
X-18817007Y28775099D01*
X-18910099Y28682007D01*
X-18953672Y28606539D01*
X-19422577Y29075444D01*
X-19493567Y28977735D01*
X-19493569Y28977731D01*
X-19575750Y28816441D01*
X-19631684Y28644290D01*
X-19660000Y28465511D01*
X-19900000Y28465511D01*
X-19928317Y28644290D01*
X-19984251Y28816441D01*
X-20066432Y28977731D01*
X-20066436Y28977737D01*
X-20137425Y29075444D01*
X-20137426Y29075444D01*
X-20606330Y28606540D01*
X-20649901Y28682007D01*
X-20742993Y28775099D01*
X-20818464Y28818672D01*
X-20349558Y29287576D01*
X-20447272Y29358570D01*
X-20608560Y29440750D01*
X-20780711Y29496684D01*
X-20959490Y29525000D01*
X-21140510Y29525000D01*
X-21319290Y29496684D01*
X-21491441Y29440750D01*
X-21652731Y29358569D01*
X-21652735Y29358567D01*
X-21750444Y29287577D01*
X-21281539Y28818672D01*
X-21357007Y28775099D01*
X-21450099Y28682007D01*
X-21493672Y28606539D01*
X-21962577Y29075444D01*
X-22033567Y28977735D01*
X-22033569Y28977731D01*
X-22115750Y28816441D01*
X-22171684Y28644290D01*
X-22200000Y28465511D01*
X-22440000Y28465511D01*
X-22468317Y28644290D01*
X-22524251Y28816441D01*
X-22606432Y28977731D01*
X-22606436Y28977737D01*
X-22677425Y29075444D01*
X-22677426Y29075444D01*
X-23146330Y28606540D01*
X-23189901Y28682007D01*
X-23282993Y28775099D01*
X-23358464Y28818672D01*
X-22889558Y29287576D01*
X-22987272Y29358570D01*
X-23148560Y29440750D01*
X-23320711Y29496684D01*
X-23499490Y29525000D01*
X-23680510Y29525000D01*
X-23859290Y29496684D01*
X-24031441Y29440750D01*
X-24192731Y29358569D01*
X-24192735Y29358567D01*
X-24290444Y29287577D01*
X-23821539Y28818672D01*
X-23897007Y28775099D01*
X-23990099Y28682007D01*
X-24033672Y28606539D01*
X-24502577Y29075444D01*
X-24573567Y28977735D01*
X-24573569Y28977731D01*
X-24655750Y28816441D01*
X-24711684Y28644290D01*
X-24740000Y28465511D01*
X-24980000Y28465511D01*
X-25008317Y28644290D01*
X-25064251Y28816441D01*
X-25146432Y28977731D01*
X-25146436Y28977737D01*
X-25217425Y29075444D01*
X-25217426Y29075444D01*
X-25686330Y28606540D01*
X-25729901Y28682007D01*
X-25822993Y28775099D01*
X-25898464Y28818672D01*
X-25429558Y29287576D01*
X-25527272Y29358570D01*
X-25688560Y29440750D01*
X-25860711Y29496684D01*
X-26039490Y29525000D01*
X-26220510Y29525000D01*
X-26399290Y29496684D01*
X-26571441Y29440750D01*
X-26732731Y29358569D01*
X-26732735Y29358567D01*
X-26830444Y29287577D01*
X-26361539Y28818672D01*
X-26437007Y28775099D01*
X-26530099Y28682007D01*
X-26573672Y28606539D01*
X-27042577Y29075444D01*
X-27113567Y28977735D01*
X-27113569Y28977731D01*
X-27195750Y28816441D01*
X-27251684Y28644290D01*
X-27280000Y28465511D01*
X-27520000Y28465511D01*
X-27548317Y28644290D01*
X-27604251Y28816441D01*
X-27686432Y28977731D01*
X-27686436Y28977737D01*
X-27757425Y29075444D01*
X-27757426Y29075444D01*
X-28226330Y28606540D01*
X-28269901Y28682007D01*
X-28362993Y28775099D01*
X-28438464Y28818672D01*
X-27969558Y29287576D01*
X-28067272Y29358570D01*
X-28228560Y29440750D01*
X-28400711Y29496684D01*
X-28579490Y29525000D01*
X-28760510Y29525000D01*
X-28939290Y29496684D01*
X-29111441Y29440750D01*
X-29272731Y29358569D01*
X-29272735Y29358567D01*
X-29370444Y29287577D01*
X-28901539Y28818672D01*
X-28977007Y28775099D01*
X-29070099Y28682007D01*
X-29113672Y28606539D01*
X-29582577Y29075444D01*
X-29653567Y28977735D01*
X-29653569Y28977731D01*
X-29735750Y28816441D01*
X-29791684Y28644290D01*
X-29820000Y28465511D01*
X-30716615Y28465511D01*
X-30732555Y28525000D01*
X-30060002Y28525000D01*
X-30060001Y28525001D01*
X-30060001Y29269790D01*
X-30060002Y29269792D01*
X-30062910Y29294875D01*
X-30108214Y29397478D01*
X-30187523Y29476787D01*
X-30290128Y29522091D01*
X-30315203Y29525000D01*
X-31059999Y29525000D01*
X-31060000Y29524999D01*
X-31060000Y28852446D01*
X-31144174Y28875000D01*
X-31275826Y28875000D01*
X-31360000Y28852446D01*
X-31360000Y29524999D01*
X-31360001Y29525000D01*
X-32104790Y29525000D01*
X-32104793Y29524999D01*
X-32129875Y29522091D01*
X-32232478Y29476787D01*
X-32311787Y29397478D01*
X-32357091Y29294873D01*
X-32360000Y29269798D01*
X-40644500Y29269798D01*
X-40644500Y30455500D01*
X-40625593Y30513691D01*
X-40576093Y30549655D01*
X-40545500Y30554500D01*
X-4709884Y30554500D01*
X-4651693Y30535593D01*
G37*
%TD.AperFunction*%
%TD*%
M02*
