%TF.GenerationSoftware,KiCad,Pcbnew,9.0.6*%
%TF.CreationDate,2025-12-18T17:51:45-08:00*%
%TF.ProjectId,multi-module_controller_PCB,6d756c74-692d-46d6-9f64-756c655f636f,REV3*%
%TF.SameCoordinates,Original*%
%TF.FileFunction,Soldermask,Top*%
%TF.FilePolarity,Negative*%
%FSLAX46Y46*%
G04 Gerber Fmt 4.6, Leading zero omitted, Abs format (unit mm)*
G04 Created by KiCad (PCBNEW 9.0.6) date 2025-12-18 17:51:45*
%MOMM*%
%LPD*%
G01*
G04 APERTURE LIST*
G04 Aperture macros list*
%AMRoundRect*
0 Rectangle with rounded corners*
0 $1 Rounding radius*
0 $2 $3 $4 $5 $6 $7 $8 $9 X,Y pos of 4 corners*
0 Add a 4 corners polygon primitive as box body*
4,1,4,$2,$3,$4,$5,$6,$7,$8,$9,$2,$3,0*
0 Add four circle primitives for the rounded corners*
1,1,$1+$1,$2,$3*
1,1,$1+$1,$4,$5*
1,1,$1+$1,$6,$7*
1,1,$1+$1,$8,$9*
0 Add four rect primitives between the rounded corners*
20,1,$1+$1,$2,$3,$4,$5,0*
20,1,$1+$1,$4,$5,$6,$7,0*
20,1,$1+$1,$6,$7,$8,$9,0*
20,1,$1+$1,$8,$9,$2,$3,0*%
G04 Aperture macros list end*
%ADD10RoundRect,0.265000X-0.265000X-0.490000X0.265000X-0.490000X0.265000X0.490000X-0.265000X0.490000X0*%
%ADD11RoundRect,0.155000X0.155000X0.185000X-0.155000X0.185000X-0.155000X-0.185000X0.155000X-0.185000X0*%
%ADD12RoundRect,0.150000X-0.200000X0.150000X-0.200000X-0.150000X0.200000X-0.150000X0.200000X0.150000X0*%
%ADD13RoundRect,0.390000X-0.390000X0.640000X-0.390000X-0.640000X0.390000X-0.640000X0.390000X0.640000X0*%
%ADD14RoundRect,0.515000X-1.415000X0.515000X-1.415000X-0.515000X1.415000X-0.515000X1.415000X0.515000X0*%
%ADD15RoundRect,0.165000X-0.665000X-0.165000X0.665000X-0.165000X0.665000X0.165000X-0.665000X0.165000X0*%
%ADD16RoundRect,0.155000X-0.155000X-0.185000X0.155000X-0.185000X0.155000X0.185000X-0.155000X0.185000X0*%
%ADD17RoundRect,0.155000X0.185000X-0.155000X0.185000X0.155000X-0.185000X0.155000X-0.185000X-0.155000X0*%
%ADD18C,2.760000*%
%ADD19RoundRect,0.030000X-0.700000X-0.600000X0.700000X-0.600000X0.700000X0.600000X-0.700000X0.600000X0*%
%ADD20RoundRect,0.260714X-0.819286X-0.469286X0.819286X-0.469286X0.819286X0.469286X-0.819286X0.469286X0*%
%ADD21RoundRect,0.030000X-0.850000X-0.850000X0.850000X-0.850000X0.850000X0.850000X-0.850000X0.850000X0*%
%ADD22C,1.760000*%
%ADD23RoundRect,0.265000X0.490000X-0.265000X0.490000X0.265000X-0.490000X0.265000X-0.490000X-0.265000X0*%
%ADD24RoundRect,0.150000X0.150000X0.200000X-0.150000X0.200000X-0.150000X-0.200000X0.150000X-0.200000X0*%
%ADD25RoundRect,0.030000X0.850000X-0.850000X0.850000X0.850000X-0.850000X0.850000X-0.850000X-0.850000X0*%
%ADD26RoundRect,0.155000X-0.185000X0.155000X-0.185000X-0.155000X0.185000X-0.155000X0.185000X0.155000X0*%
%ADD27C,2.560000*%
%ADD28RoundRect,0.259843X-0.532157X0.532157X-0.532157X-0.532157X0.532157X-0.532157X0.532157X0.532157X0*%
%ADD29C,1.584000*%
%ADD30C,3.560000*%
%ADD31RoundRect,0.030000X-0.235000X-0.265000X0.235000X-0.265000X0.235000X0.265000X-0.235000X0.265000X0*%
%ADD32RoundRect,0.265000X-0.490000X0.265000X-0.490000X-0.265000X0.490000X-0.265000X0.490000X0.265000X0*%
%ADD33RoundRect,0.150000X0.200000X-0.150000X0.200000X0.150000X-0.200000X0.150000X-0.200000X-0.150000X0*%
%ADD34RoundRect,0.030000X-0.325000X0.525000X-0.325000X-0.525000X0.325000X-0.525000X0.325000X0.525000X0*%
%ADD35RoundRect,0.150000X-0.150000X-0.200000X0.150000X-0.200000X0.150000X0.200000X-0.150000X0.200000X0*%
%ADD36C,0.710000*%
%ADD37RoundRect,0.030000X-0.620000X0.300000X-0.620000X-0.300000X0.620000X-0.300000X0.620000X0.300000X0*%
%ADD38RoundRect,0.030000X-0.620000X0.150000X-0.620000X-0.150000X0.620000X-0.150000X0.620000X0.150000X0*%
%ADD39O,2.160000X1.060000*%
%ADD40O,1.860000X1.060000*%
%ADD41RoundRect,0.215000X-0.215000X-0.290000X0.215000X-0.290000X0.215000X0.290000X-0.215000X0.290000X0*%
%ADD42RoundRect,0.233750X0.233750X0.271250X-0.233750X0.271250X-0.233750X-0.271250X0.233750X-0.271250X0*%
%ADD43RoundRect,0.030000X0.500000X0.500000X-0.500000X0.500000X-0.500000X-0.500000X0.500000X-0.500000X0*%
%ADD44C,1.060000*%
%ADD45RoundRect,0.102500X0.740000X0.102500X-0.740000X0.102500X-0.740000X-0.102500X0.740000X-0.102500X0*%
%ADD46RoundRect,0.070000X0.350000X-0.070000X0.350000X0.070000X-0.350000X0.070000X-0.350000X-0.070000X0*%
%ADD47RoundRect,0.070000X-0.070000X-0.350000X0.070000X-0.350000X0.070000X0.350000X-0.070000X0.350000X0*%
%ADD48C,0.660000*%
%ADD49RoundRect,0.030000X-0.566666X-0.566666X0.566666X-0.566666X0.566666X0.566666X-0.566666X0.566666X0*%
%ADD50RoundRect,0.030000X-0.350000X-0.850000X0.350000X-0.850000X0.350000X0.850000X-0.350000X0.850000X0*%
%ADD51RoundRect,0.030000X0.850000X0.850000X-0.850000X0.850000X-0.850000X-0.850000X0.850000X-0.850000X0*%
%ADD52RoundRect,0.030000X0.300000X0.620000X-0.300000X0.620000X-0.300000X-0.620000X0.300000X-0.620000X0*%
%ADD53RoundRect,0.030000X0.150000X0.620000X-0.150000X0.620000X-0.150000X-0.620000X0.150000X-0.620000X0*%
%ADD54O,1.060000X2.160000*%
%ADD55O,1.060000X1.860000*%
%ADD56RoundRect,0.165000X0.840000X0.165000X-0.840000X0.165000X-0.840000X-0.165000X0.840000X-0.165000X0*%
G04 APERTURE END LIST*
D10*
%TO.C,C5*%
X6675000Y10200000D03*
X8575000Y10200000D03*
%TD*%
D11*
%TO.C,C17*%
X-7520000Y-2200000D03*
X-8480000Y-2200000D03*
%TD*%
%TO.C,C2*%
X-3335000Y17170000D03*
X-4295000Y17170000D03*
%TD*%
D12*
%TO.C,R1*%
X-7600000Y18210000D03*
X-7600000Y17190000D03*
%TD*%
D13*
%TO.C,U2*%
X14643400Y19123600D03*
X12343400Y19123600D03*
D14*
X12343400Y12823600D03*
D13*
X10043400Y19123600D03*
%TD*%
D15*
%TO.C,U3*%
X-10600000Y14705000D03*
X-10600000Y13435000D03*
X-10600000Y12165000D03*
X-10600000Y10895000D03*
X-3400000Y10895000D03*
X-3400000Y12165000D03*
X-3400000Y13435000D03*
X-3400000Y14705000D03*
%TD*%
D16*
%TO.C,C4*%
X1115000Y-10420000D03*
X2075000Y-10420000D03*
%TD*%
D17*
%TO.C,C12*%
X-1000000Y8320000D03*
X-1000000Y9280000D03*
%TD*%
D16*
%TO.C,C16*%
X7525000Y-500000D03*
X8485000Y-500000D03*
%TD*%
%TO.C,C18*%
X7020000Y-4500000D03*
X7980000Y-4500000D03*
%TD*%
D12*
%TO.C,R7*%
X0Y9310000D03*
X0Y8290000D03*
%TD*%
D10*
%TO.C,C1*%
X11483300Y21666400D03*
X13383300Y21666400D03*
%TD*%
D11*
%TO.C,C15*%
X-7520000Y2900000D03*
X-8480000Y2900000D03*
%TD*%
%TO.C,C3*%
X-895000Y-10420000D03*
X-1855000Y-10420000D03*
%TD*%
D18*
%TO.C,H2*%
X14300000Y26340000D03*
%TD*%
D12*
%TO.C,R8*%
X1000000Y9310000D03*
X1000000Y8290000D03*
%TD*%
D18*
%TO.C,H3*%
X14300000Y-49860000D03*
%TD*%
D16*
%TO.C,C20*%
X6620000Y4300000D03*
X7580000Y4300000D03*
%TD*%
D12*
%TO.C,R2*%
X200000Y-7795000D03*
X200000Y-8815000D03*
%TD*%
D18*
%TO.C,H1*%
X-36500000Y26340000D03*
%TD*%
%TO.C,H4*%
X-36500000Y-49860000D03*
%TD*%
D19*
%TO.C,Y1*%
X-1100000Y-13707000D03*
X1100000Y-13707000D03*
X1100000Y-12007000D03*
X-1100000Y-12007000D03*
%TD*%
D20*
%TO.C,SW10*%
X-2950000Y-18400000D03*
X6150000Y-18400000D03*
X-2950000Y-22900000D03*
X6150000Y-22900000D03*
%TD*%
D21*
%TO.C,J9*%
X14565000Y7775000D03*
D22*
X17105000Y7775000D03*
X14565000Y5235000D03*
X17105000Y5235000D03*
X14565000Y2695000D03*
X17105000Y2695000D03*
X14565000Y155000D03*
X17105000Y155000D03*
X14565000Y-2385000D03*
X17105000Y-2385000D03*
X14565000Y-4925000D03*
X17105000Y-4925000D03*
X14565000Y-7465000D03*
X17105000Y-7465000D03*
X14565000Y-10005000D03*
X17105000Y-10005000D03*
X14565000Y-12545000D03*
X17105000Y-12545000D03*
%TD*%
D12*
%TO.C,R3*%
X5200000Y8860000D03*
X5200000Y7840000D03*
%TD*%
D20*
%TO.C,SW8*%
X-2950000Y-45070000D03*
X6150000Y-45070000D03*
X-2950000Y-49570000D03*
X6150000Y-49570000D03*
%TD*%
%TO.C,SW4*%
X-15650000Y-24750000D03*
X-6550000Y-24750000D03*
X-15650000Y-29250000D03*
X-6550000Y-29250000D03*
%TD*%
D12*
%TO.C,R4*%
X15176600Y-34476800D03*
X15176600Y-35496800D03*
%TD*%
D20*
%TO.C,SW6*%
X-15650000Y-41514000D03*
X-6550000Y-41514000D03*
X-15650000Y-46014000D03*
X-6550000Y-46014000D03*
%TD*%
D23*
%TO.C,C19*%
X-8057800Y-10002000D03*
X-8057800Y-8102000D03*
%TD*%
D24*
%TO.C,R12*%
X-6190800Y27656600D03*
X-7210800Y27656600D03*
%TD*%
D25*
%TO.C,J4*%
X11055800Y-21178200D03*
D22*
X13595800Y-21178200D03*
X16135800Y-21178200D03*
%TD*%
D26*
%TO.C,C9*%
X5200000Y6980000D03*
X5200000Y6020000D03*
%TD*%
D27*
%TO.C,DS1*%
X-31140000Y20915800D03*
X-31140000Y-12104200D03*
X6960000Y20915800D03*
X6960000Y-12104200D03*
D21*
X-19710000Y20915800D03*
D22*
X-17170000Y20915800D03*
X-14630000Y20915800D03*
X-12090000Y20905800D03*
X-9550000Y20915800D03*
X-7010000Y20915800D03*
X-4470000Y20915800D03*
%TD*%
D28*
%TO.C,J8*%
X-29257200Y2708200D03*
D29*
X-29257200Y208200D03*
X-29257200Y-1791800D03*
X-29257200Y-4291800D03*
D30*
X-31967200Y5778200D03*
X-31967200Y-7361800D03*
%TD*%
D31*
%TO.C,C7*%
X2485000Y7000000D03*
X3515000Y7000000D03*
%TD*%
D12*
%TO.C,R18*%
X-22001600Y17683800D03*
X-22001600Y16663800D03*
%TD*%
D20*
%TO.C,SW5*%
X-15650000Y-33132000D03*
X-6550000Y-33132000D03*
X-15650000Y-37632000D03*
X-6550000Y-37632000D03*
%TD*%
D26*
%TO.C,C25*%
X-36679800Y-31196000D03*
X-36679800Y-32156000D03*
%TD*%
D11*
%TO.C,C14*%
X-5320000Y8100000D03*
X-6280000Y8100000D03*
%TD*%
D32*
%TO.C,C24*%
X-34646600Y-30497600D03*
X-34646600Y-32397600D03*
%TD*%
D33*
%TO.C,R20*%
X-35227600Y-35607400D03*
X-35227600Y-34587400D03*
%TD*%
D34*
%TO.C,SW1*%
X-13109800Y28246600D03*
X-13109800Y24096600D03*
X-15259800Y28246600D03*
X-15259800Y24121600D03*
%TD*%
D35*
%TO.C,R22*%
X-35516800Y-25483400D03*
X-34496800Y-25483400D03*
%TD*%
D24*
%TO.C,R24*%
X-35620000Y21612200D03*
X-36640000Y21612200D03*
%TD*%
D36*
%TO.C,J6*%
X-35673600Y15853400D03*
X-35673600Y10073400D03*
D37*
X-34553600Y16163400D03*
X-34553600Y15363400D03*
D38*
X-34553600Y14213400D03*
X-34553600Y13213400D03*
X-34553600Y12713400D03*
X-34553600Y11713400D03*
D37*
X-34553600Y10563400D03*
X-34553600Y9763400D03*
X-34553600Y9763400D03*
X-34553600Y10563400D03*
D38*
X-34553600Y11213400D03*
X-34553600Y12213400D03*
X-34553600Y13713400D03*
X-34553600Y14713400D03*
D37*
X-34553600Y15363400D03*
X-34553600Y16163400D03*
D39*
X-35153600Y17283400D03*
D40*
X-39353600Y17283400D03*
D39*
X-35153600Y8643400D03*
D40*
X-39353600Y8643400D03*
%TD*%
D24*
%TO.C,R15*%
X-16235000Y13505000D03*
X-17255000Y13505000D03*
%TD*%
D33*
%TO.C,R14*%
X-22103200Y6455000D03*
X-22103200Y7475000D03*
%TD*%
D25*
%TO.C,J1*%
X-31210000Y28375000D03*
D22*
X-31210000Y25835000D03*
X-28670000Y28375000D03*
X-28670000Y25835000D03*
X-26130000Y28375000D03*
X-26130000Y25835000D03*
X-23590000Y28375000D03*
X-23590000Y25835000D03*
X-21050000Y28375000D03*
X-21050000Y25835000D03*
X-18510000Y28375000D03*
X-18510000Y25835000D03*
%TD*%
D12*
%TO.C,R9*%
X-9100000Y18210000D03*
X-9100000Y17190000D03*
%TD*%
D31*
%TO.C,C6*%
X2485000Y6050000D03*
X3515000Y6050000D03*
%TD*%
D35*
%TO.C,R21*%
X-35423600Y-27907000D03*
X-34403600Y-27907000D03*
%TD*%
%TO.C,R10*%
X-11910000Y17200000D03*
X-10890000Y17200000D03*
%TD*%
D41*
%TO.C,R25*%
X10330000Y-38985000D03*
X11980000Y-38985000D03*
%TD*%
D42*
%TO.C,D1*%
X15142500Y-39005000D03*
X13567500Y-39005000D03*
%TD*%
D35*
%TO.C,R6*%
X-11910000Y18600000D03*
X-10890000Y18600000D03*
%TD*%
D20*
%TO.C,SW7*%
X-2950000Y-33132000D03*
X6150000Y-33132000D03*
X-2950000Y-37632000D03*
X6150000Y-37632000D03*
%TD*%
D26*
%TO.C,C10*%
X1400000Y-7820000D03*
X1400000Y-8780000D03*
%TD*%
D11*
%TO.C,C23*%
X-5986000Y23049800D03*
X-6946000Y23049800D03*
%TD*%
D20*
%TO.C,SW3*%
X-28350000Y-33132000D03*
X-19250000Y-33132000D03*
X-28350000Y-37632000D03*
X-19250000Y-37632000D03*
%TD*%
D43*
%TO.C,J10*%
X-13205000Y-11565000D03*
D44*
X-14475000Y-11565000D03*
X-13205000Y-10295000D03*
X-14475000Y-10295000D03*
X-13205000Y-9025000D03*
X-14475000Y-9025000D03*
%TD*%
D45*
%TO.C,U5*%
X-19176700Y476000D03*
X-19176700Y976000D03*
X-19176700Y1476000D03*
X-19176700Y1976000D03*
X-19176700Y2476000D03*
X-23401700Y2476000D03*
X-23401700Y1976000D03*
X-23401700Y1476000D03*
X-23401700Y976000D03*
X-23401700Y476000D03*
%TD*%
D24*
%TO.C,R5*%
X-6200800Y26505400D03*
X-7220800Y26505400D03*
%TD*%
D20*
%TO.C,SW9*%
X-28350000Y-18400000D03*
X-19250000Y-18400000D03*
X-28350000Y-22900000D03*
X-19250000Y-22900000D03*
%TD*%
D24*
%TO.C,R16*%
X-16270000Y11915000D03*
X-17290000Y11915000D03*
%TD*%
D46*
%TO.C,U1*%
X-4896500Y3800000D03*
X-4896500Y3400000D03*
X-4896500Y3000000D03*
X-4896500Y2600000D03*
X-4896500Y2200000D03*
X-4896500Y1800000D03*
X-4896500Y1400000D03*
X-4896500Y1000000D03*
X-4896500Y600000D03*
X-4896500Y200000D03*
X-4896500Y-200000D03*
X-4896500Y-600000D03*
X-4896500Y-1000000D03*
X-4896500Y-1400000D03*
X-4896500Y-1800000D03*
X-4896500Y-2200000D03*
X-4896500Y-2600000D03*
X-4896500Y-3000000D03*
X-4896500Y-3400000D03*
X-4896500Y-3800000D03*
D47*
X-3800000Y-4896500D03*
X-3400000Y-4896500D03*
X-3000000Y-4896500D03*
X-2600000Y-4896500D03*
X-2200000Y-4896500D03*
X-1800000Y-4896500D03*
X-1400000Y-4896500D03*
X-1000000Y-4896500D03*
X-600000Y-4896500D03*
X-200000Y-4896500D03*
X200000Y-4896500D03*
X600000Y-4896500D03*
X1000000Y-4896500D03*
X1400000Y-4896500D03*
X1800000Y-4896500D03*
X2200000Y-4896500D03*
X2600000Y-4896500D03*
X3000000Y-4896500D03*
X3400000Y-4896500D03*
X3800000Y-4896500D03*
D46*
X4896500Y-3800000D03*
X4896500Y-3400000D03*
X4896500Y-3000000D03*
X4896500Y-2600000D03*
X4896500Y-2200000D03*
X4896500Y-1800000D03*
X4896500Y-1400000D03*
X4896500Y-1000000D03*
X4896500Y-600000D03*
X4896500Y-200000D03*
X4896500Y200000D03*
X4896500Y600000D03*
X4896500Y1000000D03*
X4896500Y1400000D03*
X4896500Y1800000D03*
X4896500Y2200000D03*
X4896500Y2600000D03*
X4896500Y3000000D03*
X4896500Y3400000D03*
X4896500Y3800000D03*
D47*
X3800000Y4896500D03*
X3400000Y4896500D03*
X3000000Y4896500D03*
X2600000Y4896500D03*
X2200000Y4896500D03*
X1800000Y4896500D03*
X1400000Y4896500D03*
X1000000Y4896500D03*
X600000Y4896500D03*
X200000Y4896500D03*
X-200000Y4896500D03*
X-600000Y4896500D03*
X-1000000Y4896500D03*
X-1400000Y4896500D03*
X-1800000Y4896500D03*
X-2200000Y4896500D03*
X-2600000Y4896500D03*
X-3000000Y4896500D03*
X-3400000Y4896500D03*
X-3800000Y4896500D03*
D48*
X-1133333Y1133333D03*
D49*
X-1133333Y1133333D03*
D48*
X-1133333Y0D03*
D49*
X-1133333Y0D03*
D48*
X-1133333Y-1133333D03*
D49*
X-1133333Y-1133333D03*
D48*
X0Y1133333D03*
D49*
X0Y1133333D03*
D48*
X0Y0D03*
D49*
X0Y0D03*
D48*
X0Y-1133333D03*
D49*
X0Y-1133333D03*
D48*
X1133333Y1133333D03*
D49*
X1133333Y1133333D03*
D48*
X1133333Y0D03*
D49*
X1133333Y0D03*
D48*
X1133333Y-1133333D03*
D49*
X1133333Y-1133333D03*
%TD*%
D50*
%TO.C,L1*%
X2300000Y8650000D03*
X3700000Y8650000D03*
%TD*%
D11*
%TO.C,C8*%
X-7520000Y200000D03*
X-8480000Y200000D03*
%TD*%
%TO.C,C21*%
X-4220000Y-6700000D03*
X-5180000Y-6700000D03*
%TD*%
D33*
%TO.C,R17*%
X-20983600Y6461800D03*
X-20983600Y7481800D03*
%TD*%
D51*
%TO.C,J7*%
X-39290200Y-35656600D03*
D22*
X-39290200Y-33116600D03*
X-39290200Y-30576600D03*
X-39290200Y-28036600D03*
X-39290200Y-25496600D03*
X-39290200Y-22956600D03*
X-39290200Y-20416600D03*
X-39290200Y-17876600D03*
%TD*%
D12*
%TO.C,R19*%
X-20772400Y17686200D03*
X-20772400Y16666200D03*
%TD*%
D34*
%TO.C,SW2*%
X15038400Y-29090000D03*
X15038400Y-33240000D03*
X12888400Y-29090000D03*
X12888400Y-33215000D03*
%TD*%
D24*
%TO.C,R23*%
X-35618400Y19777800D03*
X-36638400Y19777800D03*
%TD*%
D16*
%TO.C,C11*%
X7520000Y500000D03*
X8480000Y500000D03*
%TD*%
D36*
%TO.C,J5*%
X2982200Y25616400D03*
X-2797800Y25616400D03*
D52*
X3292200Y24496400D03*
X2492200Y24496400D03*
D53*
X1342200Y24496400D03*
X342200Y24496400D03*
X-157800Y24496400D03*
X-1157800Y24496400D03*
D52*
X-2307800Y24496400D03*
X-3107800Y24496400D03*
X-3107800Y24496400D03*
X-2307800Y24496400D03*
D53*
X-1657800Y24496400D03*
X-657800Y24496400D03*
X842200Y24496400D03*
X1842200Y24496400D03*
D52*
X2492200Y24496400D03*
X3292200Y24496400D03*
D54*
X4412200Y25096400D03*
D55*
X4412200Y29296400D03*
D54*
X-4227800Y25096400D03*
D55*
X-4227800Y29296400D03*
%TD*%
D26*
%TO.C,C13*%
X-1300000Y-7820000D03*
X-1300000Y-8780000D03*
%TD*%
D56*
%TO.C,U6*%
X-19607400Y10805400D03*
X-19607400Y12075400D03*
X-19607400Y13345400D03*
X-19607400Y14615400D03*
X-24557400Y14615400D03*
X-24557400Y13345400D03*
X-24557400Y12075400D03*
X-24557400Y10805400D03*
%TD*%
M02*
