%TF.GenerationSoftware,KiCad,Pcbnew,10.0.1*%
%TF.CreationDate,2026-05-08T00:24:29-07:00*%
%TF.ProjectId,multi-module_controller_PCB,6d756c74-692d-46d6-9f64-756c655f636f,REV3*%
%TF.SameCoordinates,Original*%
%TF.FileFunction,Paste,Top*%
%TF.FilePolarity,Positive*%
%FSLAX46Y46*%
G04 Gerber Fmt 4.6, Leading zero omitted, Abs format (unit mm)*
G04 Created by KiCad (PCBNEW 10.0.1) date 2026-05-08 00:24:29*
%MOMM*%
%LPD*%
G01*
G04 APERTURE LIST*
G04 Aperture macros list*
%AMRoundRect*
0 Rectangle with rounded corners*
0 $1 Rounding radius*
0 $2 $3 $4 $5 $6 $7 $8 $9 X,Y pos of 4 corners*
0 Add a 4 corners polygon primitive as box body*
4,1,4,$2,$3,$4,$5,$6,$7,$8,$9,$2,$3,0*
0 Add four circle primitives for the rounded corners*
1,1,$1+$1,$2,$3*
1,1,$1+$1,$4,$5*
1,1,$1+$1,$6,$7*
1,1,$1+$1,$8,$9*
0 Add four rect primitives between the rounded corners*
20,1,$1+$1,$2,$3,$4,$5,0*
20,1,$1+$1,$4,$5,$6,$7,0*
20,1,$1+$1,$6,$7,$8,$9,0*
20,1,$1+$1,$8,$9,$2,$3,0*%
G04 Aperture macros list end*
%ADD10RoundRect,0.250000X-0.250000X-0.475000X0.250000X-0.475000X0.250000X0.475000X-0.250000X0.475000X0*%
%ADD11RoundRect,0.140000X0.140000X0.170000X-0.140000X0.170000X-0.140000X-0.170000X0.140000X-0.170000X0*%
%ADD12RoundRect,0.135000X-0.185000X0.135000X-0.185000X-0.135000X0.185000X-0.135000X0.185000X0.135000X0*%
%ADD13RoundRect,0.375000X-0.375000X0.625000X-0.375000X-0.625000X0.375000X-0.625000X0.375000X0.625000X0*%
%ADD14RoundRect,0.500000X-1.400000X0.500000X-1.400000X-0.500000X1.400000X-0.500000X1.400000X0.500000X0*%
%ADD15RoundRect,0.150000X-0.650000X-0.150000X0.650000X-0.150000X0.650000X0.150000X-0.650000X0.150000X0*%
%ADD16RoundRect,0.140000X-0.140000X-0.170000X0.140000X-0.170000X0.140000X0.170000X-0.140000X0.170000X0*%
%ADD17RoundRect,0.140000X0.170000X-0.140000X0.170000X0.140000X-0.170000X0.140000X-0.170000X-0.140000X0*%
%ADD18R,1.400000X1.200000*%
%ADD19RoundRect,0.250000X-0.800000X-0.450000X0.800000X-0.450000X0.800000X0.450000X-0.800000X0.450000X0*%
%ADD20RoundRect,0.250000X0.475000X-0.250000X0.475000X0.250000X-0.475000X0.250000X-0.475000X-0.250000X0*%
%ADD21RoundRect,0.135000X0.135000X0.185000X-0.135000X0.185000X-0.135000X-0.185000X0.135000X-0.185000X0*%
%ADD22RoundRect,0.140000X-0.170000X0.140000X-0.170000X-0.140000X0.170000X-0.140000X0.170000X0.140000X0*%
%ADD23R,0.470000X0.530000*%
%ADD24RoundRect,0.250000X-0.650000X0.325000X-0.650000X-0.325000X0.650000X-0.325000X0.650000X0.325000X0*%
%ADD25RoundRect,0.135000X0.185000X-0.135000X0.185000X0.135000X-0.185000X0.135000X-0.185000X-0.135000X0*%
%ADD26R,0.650000X1.050000*%
%ADD27RoundRect,0.135000X-0.135000X-0.185000X0.135000X-0.185000X0.135000X0.185000X-0.135000X0.185000X0*%
%ADD28R,1.240000X0.600000*%
%ADD29R,1.240000X0.300000*%
%ADD30RoundRect,0.200000X-0.200000X-0.275000X0.200000X-0.275000X0.200000X0.275000X-0.200000X0.275000X0*%
%ADD31RoundRect,0.218750X0.218750X0.256250X-0.218750X0.256250X-0.218750X-0.256250X0.218750X-0.256250X0*%
%ADD32RoundRect,0.087500X0.725000X0.087500X-0.725000X0.087500X-0.725000X-0.087500X0.725000X-0.087500X0*%
%ADD33RoundRect,0.250000X-0.350000X-0.350000X0.350000X-0.350000X0.350000X0.350000X-0.350000X0.350000X0*%
%ADD34RoundRect,0.055000X0.335000X-0.055000X0.335000X0.055000X-0.335000X0.055000X-0.335000X-0.055000X0*%
%ADD35RoundRect,0.055000X-0.055000X-0.335000X0.055000X-0.335000X0.055000X0.335000X-0.055000X0.335000X0*%
%ADD36R,0.133333X0.133333*%
%ADD37R,0.700000X1.700000*%
%ADD38RoundRect,0.250000X0.325000X0.650000X-0.325000X0.650000X-0.325000X-0.650000X0.325000X-0.650000X0*%
%ADD39R,0.600000X1.240000*%
%ADD40R,0.300000X1.240000*%
%ADD41RoundRect,0.150000X0.825000X0.150000X-0.825000X0.150000X-0.825000X-0.150000X0.825000X-0.150000X0*%
G04 APERTURE END LIST*
D10*
%TO.C,C5*%
X6675000Y10200000D03*
X8575000Y10200000D03*
%TD*%
D11*
%TO.C,C17*%
X-7520000Y-2200000D03*
X-8480000Y-2200000D03*
%TD*%
%TO.C,C2*%
X-3335000Y17170000D03*
X-4295000Y17170000D03*
%TD*%
D12*
%TO.C,R1*%
X-7600000Y18210000D03*
X-7600000Y17190000D03*
%TD*%
D13*
%TO.C,U2*%
X14643400Y19123600D03*
X12343400Y19123600D03*
D14*
X12343400Y12823600D03*
D13*
X10043400Y19123600D03*
%TD*%
D15*
%TO.C,U3*%
X-10600000Y14705000D03*
X-10600000Y13435000D03*
X-10600000Y12165000D03*
X-10600000Y10895000D03*
X-3400000Y10895000D03*
X-3400000Y12165000D03*
X-3400000Y13435000D03*
X-3400000Y14705000D03*
%TD*%
D16*
%TO.C,C4*%
X1115000Y-10420000D03*
X2075000Y-10420000D03*
%TD*%
D17*
%TO.C,C12*%
X-1000000Y8320000D03*
X-1000000Y9280000D03*
%TD*%
D16*
%TO.C,C16*%
X7525000Y-500000D03*
X8485000Y-500000D03*
%TD*%
%TO.C,C18*%
X7020000Y-4500000D03*
X7980000Y-4500000D03*
%TD*%
D12*
%TO.C,R7*%
X0Y9310000D03*
X0Y8290000D03*
%TD*%
D10*
%TO.C,C1*%
X11483300Y21666400D03*
X13383300Y21666400D03*
%TD*%
D11*
%TO.C,C15*%
X-7520000Y2900000D03*
X-8480000Y2900000D03*
%TD*%
%TO.C,C3*%
X-895000Y-10420000D03*
X-1855000Y-10420000D03*
%TD*%
D12*
%TO.C,R8*%
X1000000Y9310000D03*
X1000000Y8290000D03*
%TD*%
D16*
%TO.C,C20*%
X6620000Y4300000D03*
X7580000Y4300000D03*
%TD*%
D12*
%TO.C,R2*%
X200000Y-7795000D03*
X200000Y-8815000D03*
%TD*%
D18*
%TO.C,Y1*%
X-1100000Y-13707000D03*
X1100000Y-13707000D03*
X1100000Y-12007000D03*
X-1100000Y-12007000D03*
%TD*%
D19*
%TO.C,SW10*%
X-2950000Y-18400000D03*
X6150000Y-18400000D03*
X-2950000Y-22900000D03*
X6150000Y-22900000D03*
%TD*%
D12*
%TO.C,R3*%
X5200000Y8860000D03*
X5200000Y7840000D03*
%TD*%
D19*
%TO.C,SW8*%
X-2950000Y-45070000D03*
X6150000Y-45070000D03*
X-2950000Y-49570000D03*
X6150000Y-49570000D03*
%TD*%
%TO.C,SW4*%
X-15650000Y-24750000D03*
X-6550000Y-24750000D03*
X-15650000Y-29250000D03*
X-6550000Y-29250000D03*
%TD*%
D12*
%TO.C,R4*%
X15176600Y-34476800D03*
X15176600Y-35496800D03*
%TD*%
D19*
%TO.C,SW6*%
X-15650000Y-41514000D03*
X-6550000Y-41514000D03*
X-15650000Y-46014000D03*
X-6550000Y-46014000D03*
%TD*%
D20*
%TO.C,C19*%
X-8057800Y-10002000D03*
X-8057800Y-8102000D03*
%TD*%
D21*
%TO.C,R12*%
X-6190800Y27656600D03*
X-7210800Y27656600D03*
%TD*%
D22*
%TO.C,C9*%
X5200000Y6980000D03*
X5200000Y6020000D03*
%TD*%
D23*
%TO.C,C7*%
X2485000Y7000000D03*
X3515000Y7000000D03*
%TD*%
D12*
%TO.C,R18*%
X-22001600Y17683800D03*
X-22001600Y16663800D03*
%TD*%
D19*
%TO.C,SW5*%
X-15650000Y-33132000D03*
X-6550000Y-33132000D03*
X-15650000Y-37632000D03*
X-6550000Y-37632000D03*
%TD*%
D17*
%TO.C,C25*%
X-16400000Y1040000D03*
X-16400000Y2000000D03*
%TD*%
D11*
%TO.C,C14*%
X-5320000Y8100000D03*
X-6280000Y8100000D03*
%TD*%
D24*
%TO.C,C24*%
X-34656400Y-37576000D03*
X-34656400Y-40526000D03*
%TD*%
D25*
%TO.C,R20*%
X-35237400Y-43210800D03*
X-35237400Y-42190800D03*
%TD*%
D26*
%TO.C,SW1*%
X-13109800Y28246600D03*
X-13109800Y24096600D03*
X-15259800Y28246600D03*
X-15259800Y24121600D03*
%TD*%
D27*
%TO.C,R22*%
X-35526600Y-33086800D03*
X-34506600Y-33086800D03*
%TD*%
D21*
%TO.C,R24*%
X-35620000Y21612200D03*
X-36640000Y21612200D03*
%TD*%
D28*
%TO.C,J6*%
X-34553600Y16163400D03*
X-34553600Y15363400D03*
D29*
X-34553600Y14213400D03*
X-34553600Y13213400D03*
X-34553600Y12713400D03*
X-34553600Y11713400D03*
D28*
X-34553600Y10563400D03*
X-34553600Y9763400D03*
X-34553600Y9763400D03*
X-34553600Y10563400D03*
D29*
X-34553600Y11213400D03*
X-34553600Y12213400D03*
X-34553600Y13713400D03*
X-34553600Y14713400D03*
D28*
X-34553600Y15363400D03*
X-34553600Y16163400D03*
%TD*%
D21*
%TO.C,R15*%
X-16235000Y13505000D03*
X-17255000Y13505000D03*
%TD*%
D25*
%TO.C,R14*%
X-22103200Y6455000D03*
X-22103200Y7475000D03*
%TD*%
D27*
%TO.C,R26*%
X-33764800Y-43198400D03*
X-32744800Y-43198400D03*
%TD*%
D12*
%TO.C,R9*%
X-9100000Y18210000D03*
X-9100000Y17190000D03*
%TD*%
D23*
%TO.C,C6*%
X2485000Y6050000D03*
X3515000Y6050000D03*
%TD*%
D11*
%TO.C,C26*%
X-3700000Y19000000D03*
X-4660000Y19000000D03*
%TD*%
D27*
%TO.C,R21*%
X-35433400Y-35510400D03*
X-34413400Y-35510400D03*
%TD*%
%TO.C,R10*%
X-11910000Y17200000D03*
X-10890000Y17200000D03*
%TD*%
D30*
%TO.C,R25*%
X10330000Y-38985000D03*
X11980000Y-38985000D03*
%TD*%
D31*
%TO.C,D1*%
X15142500Y-39005000D03*
X13567500Y-39005000D03*
%TD*%
D27*
%TO.C,R6*%
X-11910000Y18600000D03*
X-10890000Y18600000D03*
%TD*%
D19*
%TO.C,SW7*%
X-2950000Y-33132000D03*
X6150000Y-33132000D03*
X-2950000Y-37632000D03*
X6150000Y-37632000D03*
%TD*%
D22*
%TO.C,C10*%
X1400000Y-7820000D03*
X1400000Y-8780000D03*
%TD*%
%TO.C,C23*%
X-36409800Y-38743400D03*
X-36409800Y-39703400D03*
%TD*%
D19*
%TO.C,SW3*%
X-28350000Y-33132000D03*
X-19250000Y-33132000D03*
X-28350000Y-37632000D03*
X-19250000Y-37632000D03*
%TD*%
D32*
%TO.C,U5*%
X-19176700Y476000D03*
X-19176700Y976000D03*
X-19176700Y1476000D03*
X-19176700Y1976000D03*
X-19176700Y2476000D03*
X-23401700Y2476000D03*
X-23401700Y1976000D03*
X-23401700Y1476000D03*
X-23401700Y976000D03*
X-23401700Y476000D03*
%TD*%
D21*
%TO.C,R5*%
X-6200800Y26505400D03*
X-7220800Y26505400D03*
%TD*%
D19*
%TO.C,SW9*%
X-28350000Y-18400000D03*
X-19250000Y-18400000D03*
X-28350000Y-22900000D03*
X-19250000Y-22900000D03*
%TD*%
D21*
%TO.C,R16*%
X-16270000Y11915000D03*
X-17290000Y11915000D03*
%TD*%
D33*
%TO.C,U1*%
X-700000Y700000D03*
X-700000Y-700000D03*
X700000Y700000D03*
X700000Y-700000D03*
D34*
X-4896500Y3800000D03*
X-4896500Y3400000D03*
X-4896500Y3000000D03*
X-4896500Y2600000D03*
X-4896500Y2200000D03*
X-4896500Y1800000D03*
X-4896500Y1400000D03*
X-4896500Y1000000D03*
X-4896500Y600000D03*
X-4896500Y200000D03*
X-4896500Y-200000D03*
X-4896500Y-600000D03*
X-4896500Y-1000000D03*
X-4896500Y-1400000D03*
X-4896500Y-1800000D03*
X-4896500Y-2200000D03*
X-4896500Y-2600000D03*
X-4896500Y-3000000D03*
X-4896500Y-3400000D03*
X-4896500Y-3800000D03*
D35*
X-3800000Y-4896500D03*
X-3400000Y-4896500D03*
X-3000000Y-4896500D03*
X-2600000Y-4896500D03*
X-2200000Y-4896500D03*
X-1800000Y-4896500D03*
X-1400000Y-4896500D03*
X-1000000Y-4896500D03*
X-600000Y-4896500D03*
X-200000Y-4896500D03*
X200000Y-4896500D03*
X600000Y-4896500D03*
X1000000Y-4896500D03*
X1400000Y-4896500D03*
X1800000Y-4896500D03*
X2200000Y-4896500D03*
X2600000Y-4896500D03*
X3000000Y-4896500D03*
X3400000Y-4896500D03*
X3800000Y-4896500D03*
D34*
X4896500Y-3800000D03*
X4896500Y-3400000D03*
X4896500Y-3000000D03*
X4896500Y-2600000D03*
X4896500Y-2200000D03*
X4896500Y-1800000D03*
X4896500Y-1400000D03*
X4896500Y-1000000D03*
X4896500Y-600000D03*
X4896500Y-200000D03*
X4896500Y200000D03*
X4896500Y600000D03*
X4896500Y1000000D03*
X4896500Y1400000D03*
X4896500Y1800000D03*
X4896500Y2200000D03*
X4896500Y2600000D03*
X4896500Y3000000D03*
X4896500Y3400000D03*
X4896500Y3800000D03*
D35*
X3800000Y4896500D03*
X3400000Y4896500D03*
X3000000Y4896500D03*
X2600000Y4896500D03*
X2200000Y4896500D03*
X1800000Y4896500D03*
X1400000Y4896500D03*
X1000000Y4896500D03*
X600000Y4896500D03*
X200000Y4896500D03*
X-200000Y4896500D03*
X-600000Y4896500D03*
X-1000000Y4896500D03*
X-1400000Y4896500D03*
X-1800000Y4896500D03*
X-2200000Y4896500D03*
X-2600000Y4896500D03*
X-3000000Y4896500D03*
X-3400000Y4896500D03*
X-3800000Y4896500D03*
D36*
X-1133333Y1133333D03*
X-1133333Y0D03*
X-1133333Y-1133333D03*
X0Y1133333D03*
X0Y0D03*
X0Y-1133333D03*
X1133333Y1133333D03*
X1133333Y0D03*
X1133333Y-1133333D03*
%TD*%
D37*
%TO.C,L1*%
X2300000Y8650000D03*
X3700000Y8650000D03*
%TD*%
D11*
%TO.C,C8*%
X-7520000Y200000D03*
X-8480000Y200000D03*
%TD*%
D38*
%TO.C,C27*%
X-6225000Y24200000D03*
X-9175000Y24200000D03*
%TD*%
D11*
%TO.C,C21*%
X-4220000Y-6700000D03*
X-5180000Y-6700000D03*
%TD*%
D25*
%TO.C,R17*%
X-20983600Y6461800D03*
X-20983600Y7481800D03*
%TD*%
D12*
%TO.C,R19*%
X-20772400Y17686200D03*
X-20772400Y16666200D03*
%TD*%
D26*
%TO.C,SW2*%
X15038400Y-29090000D03*
X15038400Y-33240000D03*
X12888400Y-29090000D03*
X12888400Y-33215000D03*
%TD*%
D21*
%TO.C,R23*%
X-35618400Y19777800D03*
X-36638400Y19777800D03*
%TD*%
D16*
%TO.C,C11*%
X7520000Y500000D03*
X8480000Y500000D03*
%TD*%
D39*
%TO.C,J5*%
X3292200Y24496400D03*
X2492200Y24496400D03*
D40*
X1342200Y24496400D03*
X342200Y24496400D03*
X-157800Y24496400D03*
X-1157800Y24496400D03*
D39*
X-2307800Y24496400D03*
X-3107800Y24496400D03*
X-3107800Y24496400D03*
X-2307800Y24496400D03*
D40*
X-1657800Y24496400D03*
X-657800Y24496400D03*
X842200Y24496400D03*
X1842200Y24496400D03*
D39*
X2492200Y24496400D03*
X3292200Y24496400D03*
%TD*%
D22*
%TO.C,C13*%
X-1300000Y-7820000D03*
X-1300000Y-8780000D03*
%TD*%
D41*
%TO.C,U6*%
X-19607400Y10805400D03*
X-19607400Y12075400D03*
X-19607400Y13345400D03*
X-19607400Y14615400D03*
X-24557400Y14615400D03*
X-24557400Y13345400D03*
X-24557400Y12075400D03*
X-24557400Y10805400D03*
%TD*%
M02*
